<?xml version="1.0" encoding="UTF-8" standalone="no"?>
<!DOCTYPE svg PUBLIC "-//W3C//DTD SVG 1.1//EN"
 "http://www.w3.org/Graphics/SVG/1.1/DTD/svg11.dtd">
<!-- Generated by graphviz version 2.43.0 (0)
 -->
<!-- Title: limes::harmony::scales::Octatonic Pages: 1 -->
<svg width="137pt" height="106pt"
 viewBox="0.00 0.00 137.00 106.00" xmlns="http://www.w3.org/2000/svg" xmlns:xlink="http://www.w3.org/1999/xlink">
<g id="graph0" class="graph" transform="scale(1 1) rotate(0) translate(4 102)">
<title>limes::harmony::scales::Octatonic</title>
<polygon fill="white" stroke="transparent" points="-4,4 -4,-102 133,-102 133,4 -4,4"/>
<!-- Node1 -->
<g id="node1" class="node">
<title>Node1</title>
<g id="a_node1"><a xlink:title="Represents an octatonic scale.">
<polygon fill="#bfbfbf" stroke="black" points="0,-0.5 0,-30.5 129,-30.5 129,-0.5 0,-0.5"/>
<text text-anchor="start" x="8" y="-18.5" font-family="Helvetica,sans-Serif" font-size="10.00">limes::harmony::scales</text>
<text text-anchor="middle" x="64.5" y="-7.5" font-family="Helvetica,sans-Serif" font-size="10.00">::Octatonic</text>
</a>
</g>
</g>
<!-- Node2 -->
<g id="node2" class="node">
<title>Node2</title>
<g id="a_node2"><a xlink:href="structlimes_1_1harmony_1_1scales_1_1Scale.html" target="_top" xlink:title="A base class for any kind of musical scale.">
<polygon fill="white" stroke="black" points="0,-67.5 0,-97.5 129,-97.5 129,-67.5 0,-67.5"/>
<text text-anchor="start" x="8" y="-85.5" font-family="Helvetica,sans-Serif" font-size="10.00">limes::harmony::scales</text>
<text text-anchor="middle" x="64.5" y="-74.5" font-family="Helvetica,sans-Serif" font-size="10.00">::Scale</text>
</a>
</g>
</g>
<!-- Node2&#45;&gt;Node1 -->
<g id="edge1" class="edge">
<title>Node2&#45;&gt;Node1</title>
<path fill="none" stroke="midnightblue" d="M64.5,-57.11C64.5,-48.15 64.5,-38.32 64.5,-30.58"/>
<polygon fill="midnightblue" stroke="midnightblue" points="61,-57.4 64.5,-67.4 68,-57.4 61,-57.4"/>
</g>
</g>
</svg>
