<?xml version="1.0" encoding="UTF-8" standalone="no"?>
<!DOCTYPE svg PUBLIC "-//W3C//DTD SVG 1.1//EN"
 "http://www.w3.org/Graphics/SVG/1.1/DTD/svg11.dtd">
<!-- Generated by graphviz version 8.0.5 (20230430.1635)
 -->
<!-- Title: lharmony_PitchClass.h Pages: 1 -->
<svg width="1128pt" height="304pt"
 viewBox="0.00 0.00 1128.15 303.50" xmlns="http://www.w3.org/2000/svg" xmlns:xlink="http://www.w3.org/1999/xlink">
<g id="graph0" class="graph" transform="scale(1 1) rotate(0) translate(4 299.5)">
<title>lharmony_PitchClass.h</title>
<!-- Node1 -->
<g id="Node000001" class="node">
<title>Node1</title>
<g id="a_Node000001"><a xlink:title="This file defines the PitchClass class.">
<polygon fill="#999999" stroke="#666666" points="411.62,-295.5 294.38,-295.5 294.38,-276.25 411.62,-276.25 411.62,-295.5"/>
<text text-anchor="middle" x="353" y="-282" font-family="Helvetica,sans-Serif" font-size="10.00">lharmony_PitchClass.h</text>
</a>
</g>
</g>
<!-- Node2 -->
<g id="Node000002" class="node">
<title>Node2</title>
<g id="a_Node000002"><a xlink:href="lharmony_8h_source.html" target="_top" xlink:title=" ">
<polygon fill="white" stroke="#666666" points="529.25,-19.25 466.75,-19.25 466.75,0 529.25,0 529.25,-19.25"/>
<text text-anchor="middle" x="498" y="-5.75" font-family="Helvetica,sans-Serif" font-size="10.00">lharmony.h</text>
</a>
</g>
</g>
<!-- Node1&#45;&gt;Node2 -->
<g id="edge1_Node000001_Node000002" class="edge">
<title>Node1&#45;&gt;Node2</title>
<g id="a_edge1_Node000001_Node000002"><a xlink:title=" ">
<path fill="none" stroke="#63b8ff" d="M283.3,-277.75C180.43,-265.28 0,-235.05 0,-176.38 0,-176.38 0,-176.38 0,-119.12 0,-23.23 357,-11.94 466.47,-10.73"/>
<polygon fill="#63b8ff" stroke="#63b8ff" points="282.57,-281.31 292.92,-279.01 283.4,-274.36 282.57,-281.31"/>
</a>
</g>
</g>
<!-- Node3 -->
<g id="Node000003" class="node">
<title>Node3</title>
<g id="a_Node000003"><a xlink:href="lharmony___chromatic_8h.html" target="_top" xlink:title="This file defines the Chromatic scale class.">
<polygon fill="white" stroke="#666666" points="142.12,-129.75 27.87,-129.75 27.87,-110.5 142.12,-110.5 142.12,-129.75"/>
<text text-anchor="middle" x="85" y="-116.25" font-family="Helvetica,sans-Serif" font-size="10.00">lharmony_Chromatic.h</text>
</a>
</g>
</g>
<!-- Node1&#45;&gt;Node3 -->
<g id="edge2_Node000001_Node000003" class="edge">
<title>Node1&#45;&gt;Node3</title>
<g id="a_edge2_Node000001_Node000003"><a xlink:title=" ">
<path fill="none" stroke="#63b8ff" d="M329,-270.21C274.72,-237.04 143.8,-157.05 99.74,-130.13"/>
<polygon fill="#63b8ff" stroke="#63b8ff" points="326.85,-273.61 337.21,-275.84 330.5,-267.64 326.85,-273.61"/>
</a>
</g>
</g>
<!-- Node4 -->
<g id="Node000004" class="node">
<title>Node4</title>
<g id="a_Node000004"><a xlink:href="lharmony___key_signature_8h.html" target="_top" xlink:title="This file defines the KeySignature scale class.">
<polygon fill="white" stroke="#666666" points="287.88,-129.75 160.12,-129.75 160.12,-110.5 287.88,-110.5 287.88,-129.75"/>
<text text-anchor="middle" x="224" y="-116.25" font-family="Helvetica,sans-Serif" font-size="10.00">lharmony_KeySignature.h</text>
</a>
</g>
</g>
<!-- Node1&#45;&gt;Node4 -->
<g id="edge4_Node000001_Node000004" class="edge">
<title>Node1&#45;&gt;Node4</title>
<g id="a_edge4_Node000001_Node000004"><a xlink:title=" ">
<path fill="none" stroke="#63b8ff" d="M332.44,-269.07C322.64,-261.01 311.1,-250.72 302,-240.25 269.39,-202.76 239.9,-150.7 228.74,-130.07"/>
<polygon fill="#63b8ff" stroke="#63b8ff" points="329.83,-272.26 339.83,-275.78 334.2,-266.8 329.83,-272.26"/>
</a>
</g>
</g>
<!-- Node6 -->
<g id="Node000006" class="node">
<title>Node6</title>
<g id="a_Node000006"><a xlink:href="lharmony___mode_8h.html" target="_top" xlink:title="This file defines the Mode scale class.">
<polygon fill="white" stroke="#666666" points="393.62,-74.5 300.38,-74.5 300.38,-55.25 393.62,-55.25 393.62,-74.5"/>
<text text-anchor="middle" x="347" y="-61" font-family="Helvetica,sans-Serif" font-size="10.00">lharmony_Mode.h</text>
</a>
</g>
</g>
<!-- Node1&#45;&gt;Node6 -->
<g id="edge10_Node000001_Node000006" class="edge">
<title>Node1&#45;&gt;Node6</title>
<g id="a_edge10_Node000001_Node000006"><a xlink:title=" ">
<path fill="none" stroke="#63b8ff" d="M348.41,-265.34C343.96,-245.31 337.52,-213.18 335,-185 331.32,-143.8 340.61,-94.67 344.93,-74.83"/>
<polygon fill="#63b8ff" stroke="#63b8ff" points="345.18,-265.89 350.82,-274.86 352,-264.33 345.18,-265.89"/>
</a>
</g>
</g>
<!-- Node7 -->
<g id="Node000007" class="node">
<title>Node7</title>
<g id="a_Node000007"><a xlink:href="lharmony___octatonic_8h.html" target="_top" xlink:title="This file defines the Octatonic scale class.">
<polygon fill="white" stroke="#666666" points="531.62,-129.75 420.38,-129.75 420.38,-110.5 531.62,-110.5 531.62,-129.75"/>
<text text-anchor="middle" x="476" y="-116.25" font-family="Helvetica,sans-Serif" font-size="10.00">lharmony_Octatonic.h</text>
</a>
</g>
</g>
<!-- Node1&#45;&gt;Node7 -->
<g id="edge11_Node000001_Node000007" class="edge">
<title>Node1&#45;&gt;Node7</title>
<g id="a_edge11_Node000001_Node000007"><a xlink:title=" ">
<path fill="none" stroke="#63b8ff" d="M371.43,-268.78C391.9,-250.18 424.95,-217.88 447,-185 459.21,-166.79 468.59,-142.61 473.08,-129.86"/>
<polygon fill="#63b8ff" stroke="#63b8ff" points="369.62,-265.6 364.5,-274.88 374.28,-270.82 369.62,-265.6"/>
</a>
</g>
</g>
<!-- Node8 -->
<g id="Node000008" class="node">
<title>Node8</title>
<g id="a_Node000008"><a xlink:href="lharmony___pitch_8h.html" target="_top" xlink:title="This file defines the Pitch class.">
<polygon fill="white" stroke="#666666" points="838.88,-240.25 747.12,-240.25 747.12,-221 838.88,-221 838.88,-240.25"/>
<text text-anchor="middle" x="793" y="-226.75" font-family="Helvetica,sans-Serif" font-size="10.00">lharmony_Pitch.h</text>
</a>
</g>
</g>
<!-- Node1&#45;&gt;Node8 -->
<g id="edge13_Node000001_Node000008" class="edge">
<title>Node1&#45;&gt;Node8</title>
<g id="a_edge13_Node000001_Node000008"><a xlink:title=" ">
<path fill="none" stroke="#63b8ff" d="M422.61,-276.45C513.35,-265.47 669.53,-246.57 746.86,-237.21"/>
<polygon fill="#63b8ff" stroke="#63b8ff" points="422.39,-273.07 412.88,-277.75 423.23,-280.02 422.39,-273.07"/>
</a>
</g>
</g>
<!-- Node15 -->
<g id="Node000015" class="node">
<title>Node15</title>
<g id="a_Node000015"><a xlink:href="lharmony___scale_8h.html" target="_top" xlink:title="This file defines the Scale class.">
<polygon fill="white" stroke="#666666" points="438,-185 344,-185 344,-165.75 438,-165.75 438,-185"/>
<text text-anchor="middle" x="391" y="-171.5" font-family="Helvetica,sans-Serif" font-size="10.00">lharmony_Scale.h</text>
</a>
</g>
</g>
<!-- Node1&#45;&gt;Node15 -->
<g id="edge36_Node000001_Node000015" class="edge">
<title>Node1&#45;&gt;Node15</title>
<g id="a_edge36_Node000001_Node000015"><a xlink:title=" ">
<path fill="none" stroke="#63b8ff" d="M359.67,-265.83C367.94,-242.22 381.69,-202.96 387.85,-185.38"/>
<polygon fill="#63b8ff" stroke="#63b8ff" points="356.11,-264.4 356.11,-275 362.72,-266.72 356.11,-264.4"/>
</a>
</g>
</g>
<!-- Node16 -->
<g id="Node000016" class="node">
<title>Node16</title>
<g id="a_Node000016"><a xlink:href="lharmony___whole_tone_8h.html" target="_top" xlink:title="This file defines the WholeTone scale class.">
<polygon fill="white" stroke="#666666" points="668,-129.75 550,-129.75 550,-110.5 668,-110.5 668,-129.75"/>
<text text-anchor="middle" x="609" y="-116.25" font-family="Helvetica,sans-Serif" font-size="10.00">lharmony_WholeTone.h</text>
</a>
</g>
</g>
<!-- Node1&#45;&gt;Node16 -->
<g id="edge37_Node000001_Node000016" class="edge">
<title>Node1&#45;&gt;Node16</title>
<g id="a_edge37_Node000001_Node000016"><a xlink:title=" ">
<path fill="none" stroke="#63b8ff" d="M376.73,-270.05C390.54,-261.4 408.28,-250.25 424,-240.25 488.14,-199.44 564.35,-150.1 595.11,-130.14"/>
<polygon fill="#63b8ff" stroke="#63b8ff" points="375.06,-267.59 368.44,-275.86 378.78,-273.52 375.06,-267.59"/>
</a>
</g>
</g>
<!-- Node3&#45;&gt;Node2 -->
<g id="edge3_Node000003_Node000002" class="edge">
<title>Node3&#45;&gt;Node2</title>
<g id="a_edge3_Node000003_Node000002"><a xlink:title=" ">
<path fill="none" stroke="#63b8ff" d="M80.97,-99.63C79.26,-85.4 79.77,-66.66 91,-55.25 117.24,-28.59 375.51,-15.6 466.49,-11.83"/>
<polygon fill="#63b8ff" stroke="#63b8ff" points="77.65,-99.99 82.74,-109.27 84.55,-98.84 77.65,-99.99"/>
</a>
</g>
</g>
<!-- Node4&#45;&gt;Node2 -->
<g id="edge5_Node000004_Node000002" class="edge">
<title>Node4&#45;&gt;Node2</title>
<g id="a_edge5_Node000004_Node000002"><a xlink:title=" ">
<path fill="none" stroke="#63b8ff" d="M159.11,-107.59C118.64,-97.62 78.21,-80.75 101,-55.25 125.27,-28.1 376.87,-15.47 466.5,-11.8"/>
<polygon fill="#63b8ff" stroke="#63b8ff" points="158.11,-111.18 168.64,-110.03 159.69,-104.36 158.11,-111.18"/>
</a>
</g>
</g>
<!-- Node5 -->
<g id="Node000005" class="node">
<title>Node5</title>
<g id="a_Node000005"><a xlink:href="lharmony___key_signature_constants_8h.html" target="_top" xlink:title="This file contains some useful predefined key signatures.">
<polygon fill="white" stroke="#666666" points="282.38,-74.5 109.62,-74.5 109.62,-55.25 282.38,-55.25 282.38,-74.5"/>
<text text-anchor="middle" x="196" y="-61" font-family="Helvetica,sans-Serif" font-size="10.00">lharmony_KeySignatureConstants.h</text>
</a>
</g>
</g>
<!-- Node4&#45;&gt;Node5 -->
<g id="edge6_Node000004_Node000005" class="edge">
<title>Node4&#45;&gt;Node5</title>
<g id="a_edge6_Node000004_Node000005"><a xlink:title=" ">
<path fill="none" stroke="#63b8ff" d="M214.27,-100.62C209.68,-91.89 204.42,-81.89 200.72,-74.86"/>
<polygon fill="#63b8ff" stroke="#63b8ff" points="211.62,-102.11 219.38,-109.33 217.82,-98.85 211.62,-102.11"/>
</a>
</g>
</g>
<!-- Node4&#45;&gt;Node6 -->
<g id="edge8_Node000004_Node000006" class="edge">
<title>Node4&#45;&gt;Node6</title>
<g id="a_edge8_Node000004_Node000006"><a xlink:title=" ">
<path fill="none" stroke="#63b8ff" d="M254.82,-105.78C277.05,-96.16 306.47,-83.42 326.03,-74.95"/>
<polygon fill="#63b8ff" stroke="#63b8ff" points="253.65,-102.91 245.87,-110.09 256.43,-109.33 253.65,-102.91"/>
</a>
</g>
</g>
<!-- Node5&#45;&gt;Node2 -->
<g id="edge7_Node000005_Node000002" class="edge">
<title>Node5&#45;&gt;Node2</title>
<g id="a_edge7_Node000005_Node000002"><a xlink:title=" ">
<path fill="none" stroke="#63b8ff" d="M258.24,-52.9C321.65,-41.72 417.44,-24.83 466.54,-16.17"/>
<polygon fill="#63b8ff" stroke="#63b8ff" points="257.81,-49.6 248.57,-54.78 259.03,-56.49 257.81,-49.6"/>
</a>
</g>
</g>
<!-- Node6&#45;&gt;Node2 -->
<g id="edge9_Node000006_Node000002" class="edge">
<title>Node6&#45;&gt;Node2</title>
<g id="a_edge9_Node000006_Node000002"><a xlink:title=" ">
<path fill="none" stroke="#63b8ff" d="M382.63,-51.31C410.16,-41.6 447.59,-28.4 472.26,-19.7"/>
<polygon fill="#63b8ff" stroke="#63b8ff" points="381.88,-48.22 373.62,-54.84 384.21,-54.82 381.88,-48.22"/>
</a>
</g>
</g>
<!-- Node7&#45;&gt;Node2 -->
<g id="edge12_Node000007_Node000002" class="edge">
<title>Node7&#45;&gt;Node2</title>
<g id="a_edge12_Node000007_Node000002"><a xlink:title=" ">
<path fill="none" stroke="#63b8ff" d="M477.52,-99.65C478.75,-86.92 480.79,-69.98 484,-55.25 486.73,-42.71 491.42,-28.65 494.62,-19.73"/>
<polygon fill="#63b8ff" stroke="#63b8ff" points="473.97,-99.1 476.6,-109.36 480.95,-99.7 473.97,-99.1"/>
</a>
</g>
</g>
<!-- Node8&#45;&gt;Node2 -->
<g id="edge14_Node000008_Node000002" class="edge">
<title>Node8&#45;&gt;Node2</title>
<g id="a_edge14_Node000008_Node000002"><a xlink:title=" ">
<path fill="none" stroke="#63b8ff" d="M849.66,-228.5C923.95,-225.78 1048.55,-216.5 1080,-185 1121.09,-143.84 1136.57,-97.88 1097,-55.25 1058.16,-13.41 647.41,-10.5 529.49,-10.53"/>
<polygon fill="#63b8ff" stroke="#63b8ff" points="849.96,-225.02 840.08,-228.86 850.2,-232.02 849.96,-225.02"/>
</a>
</g>
</g>
<!-- Node9 -->
<g id="Node000009" class="node">
<title>Node9</title>
<g id="a_Node000009"><a xlink:href="lharmony___chord_8h.html" target="_top" xlink:title="This file defines the Chord class.">
<polygon fill="white" stroke="#666666" points="753.75,-185 658.25,-185 658.25,-165.75 753.75,-165.75 753.75,-185"/>
<text text-anchor="middle" x="706" y="-171.5" font-family="Helvetica,sans-Serif" font-size="10.00">lharmony_Chord.h</text>
</a>
</g>
</g>
<!-- Node8&#45;&gt;Node9 -->
<g id="edge15_Node000008_Node000009" class="edge">
<title>Node8&#45;&gt;Node9</title>
<g id="a_edge15_Node000008_Node000009"><a xlink:title=" ">
<path fill="none" stroke="#63b8ff" d="M769.26,-215.09C753.79,-205.63 734.1,-193.58 720.83,-185.45"/>
<polygon fill="#63b8ff" stroke="#63b8ff" points="766.89,-218.36 777.24,-220.59 770.54,-212.39 766.89,-218.36"/>
</a>
</g>
</g>
<!-- Node10 -->
<g id="Node000010" class="node">
<title>Node10</title>
<g id="a_Node000010"><a xlink:href="lharmony___interval_8h.html" target="_top" xlink:title="This file defines the Interval class.">
<polygon fill="white" stroke="#666666" points="843.75,-129.75 742.25,-129.75 742.25,-110.5 843.75,-110.5 843.75,-129.75"/>
<text text-anchor="middle" x="793" y="-116.25" font-family="Helvetica,sans-Serif" font-size="10.00">lharmony_Interval.h</text>
</a>
</g>
</g>
<!-- Node8&#45;&gt;Node10 -->
<g id="edge17_Node000008_Node000010" class="edge">
<title>Node8&#45;&gt;Node10</title>
<g id="a_edge17_Node000008_Node000010"><a xlink:title=" ">
<path fill="none" stroke="#63b8ff" d="M793,-209.93C793,-186.26 793,-147.55 793,-130.13"/>
<polygon fill="#63b8ff" stroke="#63b8ff" points="789.5,-209.75 793,-219.75 796.5,-209.75 789.5,-209.75"/>
</a>
</g>
</g>
<!-- Node13 -->
<g id="Node000013" class="node">
<title>Node13</title>
<g id="a_Node000013"><a xlink:href="lharmony___overtone_series_8h.html" target="_top" xlink:title="This file defines the OvertoneSeries class.">
<polygon fill="white" stroke="#666666" points="1069.38,-74.5 932.62,-74.5 932.62,-55.25 1069.38,-55.25 1069.38,-74.5"/>
<text text-anchor="middle" x="1001" y="-61" font-family="Helvetica,sans-Serif" font-size="10.00">lharmony_OvertoneSeries.h</text>
</a>
</g>
</g>
<!-- Node8&#45;&gt;Node13 -->
<g id="edge27_Node000008_Node000013" class="edge">
<title>Node8&#45;&gt;Node13</title>
<g id="a_edge27_Node000008_Node000013"><a xlink:title=" ">
<path fill="none" stroke="#63b8ff" d="M812.95,-213.92C855.86,-180.14 955.72,-101.52 989.56,-74.88"/>
<polygon fill="#63b8ff" stroke="#63b8ff" points="811.17,-211.65 805.48,-220.59 815.5,-217.15 811.17,-211.65"/>
</a>
</g>
</g>
<!-- Node14 -->
<g id="Node000014" class="node">
<title>Node14</title>
<g id="a_Node000014"><a xlink:href="lharmony___microtonal_interval_8h.html" target="_top" xlink:title="This file defines the MicrotonalInterval class.">
<polygon fill="white" stroke="#666666" points="1071.25,-185 924.75,-185 924.75,-165.75 1071.25,-165.75 1071.25,-185"/>
<text text-anchor="middle" x="998" y="-171.5" font-family="Helvetica,sans-Serif" font-size="10.00">lharmony_MicrotonalInterval.h</text>
</a>
</g>
</g>
<!-- Node8&#45;&gt;Node14 -->
<g id="edge25_Node000008_Node000014" class="edge">
<title>Node8&#45;&gt;Node14</title>
<g id="a_edge25_Node000008_Node000014"><a xlink:title=" ">
<path fill="none" stroke="#63b8ff" d="M837.96,-217.95C875.59,-208.17 928.54,-194.42 963.05,-185.45"/>
<polygon fill="#63b8ff" stroke="#63b8ff" points="837.57,-214.69 828.78,-220.59 839.33,-221.47 837.57,-214.69"/>
</a>
</g>
</g>
<!-- Node8&#45;&gt;Node15 -->
<g id="edge28_Node000008_Node000015" class="edge">
<title>Node8&#45;&gt;Node15</title>
<g id="a_edge28_Node000008_Node000015"><a xlink:title=" ">
<path fill="none" stroke="#63b8ff" d="M736.07,-222.08C656.3,-211.52 512.74,-192.5 438.44,-182.66"/>
<polygon fill="#63b8ff" stroke="#63b8ff" points="735.51,-225.67 745.89,-223.52 736.43,-218.73 735.51,-225.67"/>
</a>
</g>
</g>
<!-- Node9&#45;&gt;Node2 -->
<g id="edge16_Node000009_Node000002" class="edge">
<title>Node9&#45;&gt;Node2</title>
<g id="a_edge16_Node000009_Node000002"><a xlink:title=" ">
<path fill="none" stroke="#63b8ff" d="M701.78,-154.93C697.73,-140.71 690.21,-121.99 677,-110.5 634.34,-73.4 602.76,-104.75 555,-74.5 531.9,-59.87 512.56,-33.27 503.51,-19.47"/>
<polygon fill="#63b8ff" stroke="#63b8ff" points="698.61,-155.69 704.42,-164.55 705.41,-154 698.61,-155.69"/>
</a>
</g>
</g>
<!-- Node10&#45;&gt;Node2 -->
<g id="edge18_Node000010_Node000002" class="edge">
<title>Node10&#45;&gt;Node2</title>
<g id="a_edge18_Node000010_Node000002"><a xlink:title=" ">
<path fill="none" stroke="#63b8ff" d="M778.25,-102.21C764.43,-87.48 742.44,-66.74 719,-55.25 656.44,-24.59 574.03,-14.99 529.62,-11.99"/>
<polygon fill="#63b8ff" stroke="#63b8ff" points="775.07,-104.02 784.39,-109.07 780.25,-99.31 775.07,-104.02"/>
</a>
</g>
</g>
<!-- Node11 -->
<g id="Node000011" class="node">
<title>Node11</title>
<g id="a_Node000011"><a xlink:href="lharmony___compound_interval_8h.html" target="_top" xlink:title="This file defines the CompoundInterval class.">
<polygon fill="white" stroke="#666666" points="914.38,-74.5 765.62,-74.5 765.62,-55.25 914.38,-55.25 914.38,-74.5"/>
<text text-anchor="middle" x="840" y="-61" font-family="Helvetica,sans-Serif" font-size="10.00">lharmony_CompoundInterval.h</text>
</a>
</g>
</g>
<!-- Node10&#45;&gt;Node11 -->
<g id="edge19_Node000010_Node000011" class="edge">
<title>Node10&#45;&gt;Node11</title>
<g id="a_edge19_Node000010_Node000011"><a xlink:title=" ">
<path fill="none" stroke="#63b8ff" d="M807.83,-102.32C815.86,-93.23 825.46,-82.35 832.07,-74.86"/>
<polygon fill="#63b8ff" stroke="#63b8ff" points="805.75,-99.52 801.76,-109.33 811,-104.15 805.75,-99.52"/>
</a>
</g>
</g>
<!-- Node12 -->
<g id="Node000012" class="node">
<title>Node12</title>
<g id="a_Node000012"><a xlink:href="lharmony___interval_constants_8h.html" target="_top" xlink:title="This file provides some useful Interval objects as constants.">
<polygon fill="white" stroke="#666666" points="710.25,-74.5 563.75,-74.5 563.75,-55.25 710.25,-55.25 710.25,-74.5"/>
<text text-anchor="middle" x="637" y="-61" font-family="Helvetica,sans-Serif" font-size="10.00">lharmony_IntervalConstants.h</text>
</a>
</g>
</g>
<!-- Node10&#45;&gt;Node12 -->
<g id="edge21_Node000010_Node000012" class="edge">
<title>Node10&#45;&gt;Node12</title>
<g id="a_edge21_Node000010_Node000012"><a xlink:title=" ">
<path fill="none" stroke="#63b8ff" d="M756.19,-106.56C727.75,-96.85 689.07,-83.65 663.59,-74.95"/>
<polygon fill="#63b8ff" stroke="#63b8ff" points="754.94,-110.17 765.54,-110.09 757.2,-103.55 754.94,-110.17"/>
</a>
</g>
</g>
<!-- Node10&#45;&gt;Node13 -->
<g id="edge23_Node000010_Node000013" class="edge">
<title>Node10&#45;&gt;Node13</title>
<g id="a_edge23_Node000010_Node000013"><a xlink:title=" ">
<path fill="none" stroke="#63b8ff" d="M838.61,-107.45C876.8,-97.67 930.52,-83.92 965.54,-74.95"/>
<polygon fill="#63b8ff" stroke="#63b8ff" points="838.1,-104.22 829.28,-110.09 839.84,-111 838.1,-104.22"/>
</a>
</g>
</g>
<!-- Node11&#45;&gt;Node2 -->
<g id="edge20_Node000011_Node000002" class="edge">
<title>Node11&#45;&gt;Node2</title>
<g id="a_edge20_Node000011_Node000002"><a xlink:title=" ">
<path fill="none" stroke="#63b8ff" d="M771.04,-53.14C697.42,-41.68 584.04,-24.02 529.47,-15.52"/>
<polygon fill="#63b8ff" stroke="#63b8ff" points="770.18,-56.7 780.6,-54.78 771.25,-49.78 770.18,-56.7"/>
</a>
</g>
</g>
<!-- Node12&#45;&gt;Node2 -->
<g id="edge22_Node000012_Node000002" class="edge">
<title>Node12&#45;&gt;Node2</title>
<g id="a_edge22_Node000012_Node000002"><a xlink:title=" ">
<path fill="none" stroke="#63b8ff" d="M603.19,-50.92C577.95,-41.25 544.1,-28.29 521.7,-19.7"/>
<polygon fill="#63b8ff" stroke="#63b8ff" points="601.83,-54.53 612.42,-54.84 604.33,-48 601.83,-54.53"/>
</a>
</g>
</g>
<!-- Node13&#45;&gt;Node2 -->
<g id="edge24_Node000013_Node000002" class="edge">
<title>Node13&#45;&gt;Node2</title>
<g id="a_edge24_Node000013_Node000002"><a xlink:title=" ">
<path fill="none" stroke="#63b8ff" d="M921.95,-55.14C768.19,-38.6 598.79,-21.03 529.73,-13.9"/>
<polygon fill="#63b8ff" stroke="#63b8ff" points="921.2,-58.69 931.52,-56.28 921.95,-51.73 921.2,-58.69"/>
</a>
</g>
</g>
<!-- Node14&#45;&gt;Node2 -->
<g id="edge26_Node000014_Node000002" class="edge">
<title>Node14&#45;&gt;Node2</title>
<g id="a_edge26_Node000014_Node000002"><a xlink:title=" ">
<path fill="none" stroke="#63b8ff" d="M1020.96,-159.28C1054.35,-135.57 1109.1,-88.83 1078,-55.25 1040.56,-14.82 645.4,-10.89 529.67,-10.61"/>
<polygon fill="#63b8ff" stroke="#63b8ff" points="1019.44,-156.77 1013.2,-165.33 1023.42,-162.53 1019.44,-156.77"/>
</a>
</g>
</g>
<!-- Node15&#45;&gt;Node2 -->
<g id="edge29_Node000015_Node000002" class="edge">
<title>Node15&#45;&gt;Node2</title>
<g id="a_edge29_Node000015_Node000002"><a xlink:title=" ">
<path fill="none" stroke="#63b8ff" d="M394.85,-155.04C397.99,-141.92 403.18,-124.48 411,-110.5 432.33,-72.37 469.92,-35.82 487.89,-19.51"/>
<polygon fill="#63b8ff" stroke="#63b8ff" points="391.25,-154.14 392.54,-164.66 398.09,-155.63 391.25,-154.14"/>
</a>
</g>
</g>
<!-- Node15&#45;&gt;Node3 -->
<g id="edge30_Node000015_Node000003" class="edge">
<title>Node15&#45;&gt;Node3</title>
<g id="a_edge30_Node000015_Node000003"><a xlink:title=" ">
<path fill="none" stroke="#63b8ff" d="M332.98,-164.28C276.54,-154.46 191.57,-139.67 137.2,-130.21"/>
<polygon fill="#63b8ff" stroke="#63b8ff" points="332.07,-167.85 342.52,-166.11 333.27,-160.95 332.07,-167.85"/>
</a>
</g>
</g>
<!-- Node15&#45;&gt;Node4 -->
<g id="edge31_Node000015_Node000004" class="edge">
<title>Node15&#45;&gt;Node4</title>
<g id="a_edge31_Node000015_Node000004"><a xlink:title=" ">
<path fill="none" stroke="#63b8ff" d="M352.39,-162.07C321.88,-152.34 279.99,-138.98 252.47,-130.2"/>
<polygon fill="#63b8ff" stroke="#63b8ff" points="351.08,-165.64 361.67,-165.34 353.21,-158.97 351.08,-165.64"/>
</a>
</g>
</g>
<!-- Node15&#45;&gt;Node6 -->
<g id="edge32_Node000015_Node000006" class="edge">
<title>Node15&#45;&gt;Node6</title>
<g id="a_edge32_Node000015_Node000006"><a xlink:title=" ">
<path fill="none" stroke="#63b8ff" d="M383.28,-155.33C373.7,-131.72 357.78,-92.46 350.65,-74.88"/>
<polygon fill="#63b8ff" stroke="#63b8ff" points="380.4,-156.54 387.4,-164.5 386.88,-153.91 380.4,-156.54"/>
</a>
</g>
</g>
<!-- Node15&#45;&gt;Node7 -->
<g id="edge33_Node000015_Node000007" class="edge">
<title>Node15&#45;&gt;Node7</title>
<g id="a_edge33_Node000015_Node000007"><a xlink:title=" ">
<path fill="none" stroke="#63b8ff" d="M414.63,-159.57C429.67,-150.15 448.67,-138.25 461.51,-130.2"/>
<polygon fill="#63b8ff" stroke="#63b8ff" points="413.04,-157.07 406.42,-165.34 416.75,-163 413.04,-157.07"/>
</a>
</g>
</g>
<!-- Node15&#45;&gt;Node16 -->
<g id="edge34_Node000015_Node000016" class="edge">
<title>Node15&#45;&gt;Node16</title>
<g id="a_edge34_Node000015_Node000016"><a xlink:title=" ">
<path fill="none" stroke="#63b8ff" d="M438.55,-162.76C478.59,-152.98 535.05,-139.19 571.84,-130.2"/>
<polygon fill="#63b8ff" stroke="#63b8ff" points="437.86,-159.57 428.98,-165.34 439.53,-166.37 437.86,-159.57"/>
</a>
</g>
</g>
<!-- Node16&#45;&gt;Node2 -->
<g id="edge35_Node000016_Node000002" class="edge">
<title>Node16&#45;&gt;Node2</title>
<g id="a_edge35_Node000016_Node000002"><a xlink:title=" ">
<path fill="none" stroke="#63b8ff" d="M569.31,-106.08C552.82,-98.97 534.63,-88.67 522,-74.5 507.65,-58.41 501.57,-32.91 499.26,-19.52"/>
<polygon fill="#63b8ff" stroke="#63b8ff" points="567.7,-109.61 578.29,-110.11 570.32,-103.12 567.7,-109.61"/>
</a>
</g>
</g>
</g>
</svg>
