<?xml version="1.0" encoding="UTF-8" standalone="no"?>
<!DOCTYPE svg PUBLIC "-//W3C//DTD SVG 1.1//EN"
 "http://www.w3.org/Graphics/SVG/1.1/DTD/svg11.dtd">
<!-- Generated by graphviz version 2.43.0 (0)
 -->
<!-- Title: lharmony_KeySignature.h Pages: 1 -->
<!--zoomable 319 -->
<svg id="main" version="1.1" xmlns="http://www.w3.org/2000/svg" xmlns:xlink="http://www.w3.org/1999/xlink" xml:space="preserve" onload="init(evt)">
<style type="text/css"><![CDATA[
.edge:hover path { stroke: red; }
.edge:hover polygon { stroke: red; fill: red; }
]]></style>
<script type="text/javascript"><![CDATA[
var edges = document.getElementsByTagName('g');
if (edges && edges.length) {
  for (var i=0;i<edges.length;i++) {
    if (edges[i].id.substr(0,4)=='edge') {
      edges[i].setAttribute('class','edge');
    }
  }
}
]]></script>
        <defs>
                <circle id="rim" cx="0" cy="0" r="7"/>
                <circle id="rim2" cx="0" cy="0" r="3.5"/>
                <g id="zoomPlus">
                        <use xlink:href="#rim" fill="#404040">
                                <set attributeName="fill" to="#808080" begin="zoomplus.mouseover" end="zoomplus.mouseout"/>
                        </use>
                        <path d="M-4,0h8M0,-4v8" fill="none" stroke="white" stroke-width="1.5" pointer-events="none"/>
                </g>
                <g id="zoomMin">
                        <use xlink:href="#rim" fill="#404040">
                                <set attributeName="fill" to="#808080" begin="zoomminus.mouseover" end="zoomminus.mouseout"/>
                        </use>
                        <path d="M-4,0h8" fill="none" stroke="white" stroke-width="1.5" pointer-events="none"/>
                </g>
                <g id="dirArrow">
                        <path fill="none" stroke="white" stroke-width="1.5" d="M0,-3.0v7 M-2.5,-0.5L0,-3.0L2.5,-0.5"/>
                </g>
               <g id="resetDef">
                       <use xlink:href="#rim2" fill="#404040">
                               <set attributeName="fill" to="#808080" begin="reset.mouseover" end="reset.mouseout"/>
                       </use>
               </g>
        </defs>

<script type="text/javascript">
var viewWidth = 598;
var viewHeight = 319;
var sectionId = 'dynsection-0';
</script>
<script xlink:href="svgpan.js"/>
<svg id="graph" class="graph">
<g id="viewport">
<title>lharmony_KeySignature.h</title>
<polygon fill="white" stroke="transparent" points="-4,4 -4,-315 594,-315 594,4 -4,4"/>
<!-- Node1 -->
<g id="node1" class="node">
<title>Node1</title>
<g id="a_node1"><a xlink:title="This file defines the KeySignature scale class.">
<polygon fill="#bfbfbf" stroke="black" points="124,-291.5 124,-310.5 266,-310.5 266,-291.5 124,-291.5"/>
<text text-anchor="middle" x="195" y="-298.5" font-family="Helvetica,sans-Serif" font-size="10.00">lharmony_KeySignature.h</text>
</a>
</g>
</g>
<!-- Node2 -->
<g id="node2" class="node">
<title>Node2</title>
<g id="a_node2"><a xlink:title=" ">
<polygon fill="white" stroke="#bfbfbf" points="28.5,-168.5 28.5,-187.5 75.5,-187.5 75.5,-168.5 28.5,-168.5"/>
<text text-anchor="middle" x="52" y="-175.5" font-family="Helvetica,sans-Serif" font-size="10.00">vector</text>
</a>
</g>
</g>
<!-- Node1&#45;&gt;Node2 -->
<g id="edge1" class="edge">
<title>Node1&#45;&gt;Node2</title>
<path fill="none" stroke="midnightblue" d="M172.14,-291.36C153.77,-283.67 128,-271.16 109,-255 89.04,-238.03 71.91,-212.86 61.78,-196.2"/>
<polygon fill="midnightblue" stroke="midnightblue" points="64.74,-194.34 56.65,-187.5 58.71,-197.89 64.74,-194.34"/>
</g>
<!-- Node3 -->
<g id="node3" class="node">
<title>Node3</title>
<g id="a_node3"><a xlink:title=" ">
<polygon fill="white" stroke="#bfbfbf" points="26,-0.5 26,-19.5 184,-19.5 184,-0.5 26,-0.5"/>
<text text-anchor="middle" x="105" y="-7.5" font-family="Helvetica,sans-Serif" font-size="10.00">lharmony/lharmony_Export.h</text>
</a>
</g>
</g>
<!-- Node1&#45;&gt;Node3 -->
<g id="edge2" class="edge">
<title>Node1&#45;&gt;Node3</title>
<path fill="none" stroke="midnightblue" d="M145.29,-291.49C87.52,-278.41 0,-247.33 0,-179 0,-179 0,-179 0,-121 0,-76.02 46.51,-42.19 77.62,-24.59"/>
<polygon fill="midnightblue" stroke="midnightblue" points="79.59,-27.5 86.71,-19.65 76.25,-21.35 79.59,-27.5"/>
</g>
<!-- Node4 -->
<g id="node4" class="node">
<title>Node4</title>
<g id="a_node4"><a xlink:href="lharmony__Scale_8h.html" target="_top" xlink:title="This file defines the Scale class.">
<polygon fill="white" stroke="black" points="118.5,-230 118.5,-249 271.5,-249 271.5,-230 118.5,-230"/>
<text text-anchor="middle" x="195" y="-237" font-family="Helvetica,sans-Serif" font-size="10.00">lharmony/lharmony_Scale.h</text>
</a>
</g>
</g>
<!-- Node1&#45;&gt;Node4 -->
<g id="edge3" class="edge">
<title>Node1&#45;&gt;Node4</title>
<path fill="none" stroke="midnightblue" d="M195,-291.48C195,-283.08 195,-269.98 195,-259.16"/>
<polygon fill="midnightblue" stroke="midnightblue" points="198.5,-259.01 195,-249.01 191.5,-259.01 198.5,-259.01"/>
</g>
<!-- Node7 -->
<g id="node7" class="node">
<title>Node7</title>
<g id="a_node7"><a xlink:href="lharmony__PitchClass_8h.html" target="_top" xlink:title="This file defines the PitchClass class.">
<polygon fill="white" stroke="black" points="283.5,-112.5 283.5,-131.5 460.5,-131.5 460.5,-112.5 283.5,-112.5"/>
<text text-anchor="middle" x="372" y="-119.5" font-family="Helvetica,sans-Serif" font-size="10.00">lharmony/lharmony_PitchClass.h</text>
</a>
</g>
</g>
<!-- Node1&#45;&gt;Node7 -->
<g id="edge22" class="edge">
<title>Node1&#45;&gt;Node7</title>
<path fill="none" stroke="midnightblue" d="M218.41,-291.4C236.85,-283.82 262.45,-271.42 281,-255 319.07,-221.3 349.14,-168.49 363.25,-140.99"/>
<polygon fill="midnightblue" stroke="midnightblue" points="366.51,-142.3 367.86,-131.79 360.25,-139.16 366.51,-142.3"/>
</g>
<!-- Node15 -->
<g id="node15" class="node">
<title>Node15</title>
<g id="a_node15"><a xlink:href="lharmony__KeySignature__impl_8h.html" target="_top" xlink:title="This file contains implementation details for the KeySignature class.">
<polygon fill="white" stroke="black" points="378.5,-224.5 378.5,-254.5 517.5,-254.5 517.5,-224.5 378.5,-224.5"/>
<text text-anchor="start" x="386.5" y="-242.5" font-family="Helvetica,sans-Serif" font-size="10.00">./lharmony_KeySignature</text>
<text text-anchor="middle" x="448" y="-231.5" font-family="Helvetica,sans-Serif" font-size="10.00">_impl.h</text>
</a>
</g>
</g>
<!-- Node1&#45;&gt;Node15 -->
<g id="edge23" class="edge">
<title>Node1&#45;&gt;Node15</title>
<path fill="none" stroke="midnightblue" d="M231.25,-291.48C269.52,-282.48 330.78,-268.07 378.43,-256.86"/>
<polygon fill="midnightblue" stroke="midnightblue" points="379.44,-260.22 388.37,-254.52 377.84,-253.41 379.44,-260.22"/>
</g>
<!-- Node4&#45;&gt;Node2 -->
<g id="edge4" class="edge">
<title>Node4&#45;&gt;Node2</title>
<path fill="none" stroke="midnightblue" d="M174.51,-229.98C150.19,-219.86 109.45,-202.9 81.68,-191.35"/>
<polygon fill="midnightblue" stroke="midnightblue" points="83.03,-188.12 72.45,-187.51 80.34,-194.58 83.03,-188.12"/>
</g>
<!-- Node4&#45;&gt;Node3 -->
<g id="edge5" class="edge">
<title>Node4&#45;&gt;Node3</title>
<path fill="none" stroke="midnightblue" d="M174.15,-229.86C157.31,-221.7 134.58,-207.76 123,-188 93.25,-137.25 97.8,-64.04 102.09,-29.88"/>
<polygon fill="midnightblue" stroke="midnightblue" points="105.57,-30.27 103.48,-19.88 98.63,-29.3 105.57,-30.27"/>
</g>
<!-- Node5 -->
<g id="node5" class="node">
<title>Node5</title>
<g id="a_node5"><a xlink:href="lharmony__Pitch_8h.html" target="_top" xlink:title="This file defines the Pitch class.">
<polygon fill="white" stroke="black" points="132.5,-168.5 132.5,-187.5 283.5,-187.5 283.5,-168.5 132.5,-168.5"/>
<text text-anchor="middle" x="208" y="-175.5" font-family="Helvetica,sans-Serif" font-size="10.00">lharmony/lharmony_Pitch.h</text>
</a>
</g>
</g>
<!-- Node4&#45;&gt;Node5 -->
<g id="edge6" class="edge">
<title>Node4&#45;&gt;Node5</title>
<path fill="none" stroke="midnightblue" d="M196.86,-229.98C198.72,-221.49 201.62,-208.2 204,-197.32"/>
<polygon fill="midnightblue" stroke="midnightblue" points="207.43,-198.03 206.14,-187.51 200.59,-196.53 207.43,-198.03"/>
</g>
<!-- Node4&#45;&gt;Node7 -->
<g id="edge21" class="edge">
<title>Node4&#45;&gt;Node7</title>
<path fill="none" stroke="midnightblue" d="M214.46,-229.97C234.74,-220.74 267.1,-205.05 293,-188 315.78,-173 339.66,-152.61 355.12,-138.69"/>
<polygon fill="midnightblue" stroke="midnightblue" points="357.75,-141.02 362.78,-131.7 353.04,-135.85 357.75,-141.02"/>
</g>
<!-- Node5&#45;&gt;Node3 -->
<g id="edge8" class="edge">
<title>Node5&#45;&gt;Node3</title>
<path fill="none" stroke="midnightblue" d="M202.46,-168.08C186.04,-141.61 137.39,-63.21 115.68,-28.21"/>
<polygon fill="midnightblue" stroke="midnightblue" points="118.56,-26.22 110.32,-19.57 112.61,-29.91 118.56,-26.22"/>
</g>
<!-- Node6 -->
<g id="node6" class="node">
<title>Node6</title>
<g id="a_node6"><a xlink:title=" ">
<polygon fill="white" stroke="#bfbfbf" points="208.5,-112.5 208.5,-131.5 265.5,-131.5 265.5,-112.5 208.5,-112.5"/>
<text text-anchor="middle" x="237" y="-119.5" font-family="Helvetica,sans-Serif" font-size="10.00">ostream</text>
</a>
</g>
</g>
<!-- Node5&#45;&gt;Node6 -->
<g id="edge7" class="edge">
<title>Node5&#45;&gt;Node6</title>
<path fill="none" stroke="midnightblue" d="M212.79,-168.08C216.76,-160.69 222.53,-149.95 227.43,-140.81"/>
<polygon fill="midnightblue" stroke="midnightblue" points="230.65,-142.22 232.3,-131.75 224.49,-138.91 230.65,-142.22"/>
</g>
<!-- Node5&#45;&gt;Node7 -->
<g id="edge9" class="edge">
<title>Node5&#45;&gt;Node7</title>
<path fill="none" stroke="midnightblue" d="M233.99,-168.44C261.7,-159.32 305.75,-144.81 336.62,-134.65"/>
<polygon fill="midnightblue" stroke="midnightblue" points="337.73,-137.97 346.14,-131.52 335.54,-131.32 337.73,-137.97"/>
</g>
<!-- Node11 -->
<g id="node11" class="node">
<title>Node11</title>
<g id="a_node11"><a xlink:href="lharmony__PitchUtils_8h.html" target="_top" xlink:title="This file contains miscellaneous pitch utilities.">
<polygon fill="white" stroke="black" points="208.5,-56.5 208.5,-75.5 381.5,-75.5 381.5,-56.5 208.5,-56.5"/>
<text text-anchor="middle" x="295" y="-63.5" font-family="Helvetica,sans-Serif" font-size="10.00">lharmony/lharmony_PitchUtils.h</text>
</a>
</g>
</g>
<!-- Node5&#45;&gt;Node11 -->
<g id="edge20" class="edge">
<title>Node5&#45;&gt;Node11</title>
<path fill="none" stroke="midnightblue" d="M203.39,-168.23C197.12,-154.97 187.88,-129.5 199,-112 209.16,-96.01 226.68,-85.6 243.98,-78.87"/>
<polygon fill="midnightblue" stroke="midnightblue" points="245.27,-82.13 253.53,-75.5 242.93,-75.53 245.27,-82.13"/>
</g>
<!-- Node7&#45;&gt;Node3 -->
<g id="edge13" class="edge">
<title>Node7&#45;&gt;Node3</title>
<path fill="none" stroke="midnightblue" d="M320.05,-112.43C284.82,-105.44 237.79,-93.78 199,-76 170.32,-62.86 141.01,-40.97 122.91,-26.27"/>
<polygon fill="midnightblue" stroke="midnightblue" points="124.91,-23.38 114.98,-19.7 120.45,-28.77 124.91,-23.38"/>
</g>
<!-- Node8 -->
<g id="node8" class="node">
<title>Node8</title>
<g id="a_node8"><a xlink:title=" ">
<polygon fill="white" stroke="#bfbfbf" points="425,-0.5 425,-19.5 467,-19.5 467,-0.5 425,-0.5"/>
<text text-anchor="middle" x="446" y="-7.5" font-family="Helvetica,sans-Serif" font-size="10.00">array</text>
</a>
</g>
</g>
<!-- Node7&#45;&gt;Node8 -->
<g id="edge10" class="edge">
<title>Node7&#45;&gt;Node8</title>
<path fill="none" stroke="midnightblue" d="M377.81,-112.37C390.02,-94.22 418.55,-51.8 434.57,-27.99"/>
<polygon fill="midnightblue" stroke="midnightblue" points="437.54,-29.84 440.22,-19.59 431.73,-25.94 437.54,-29.84"/>
</g>
<!-- Node9 -->
<g id="node9" class="node">
<title>Node9</title>
<g id="a_node9"><a xlink:title=" ">
<polygon fill="white" stroke="#bfbfbf" points="438.5,-56.5 438.5,-75.5 511.5,-75.5 511.5,-56.5 438.5,-56.5"/>
<text text-anchor="middle" x="475" y="-63.5" font-family="Helvetica,sans-Serif" font-size="10.00">string_view</text>
</a>
</g>
</g>
<!-- Node7&#45;&gt;Node9 -->
<g id="edge11" class="edge">
<title>Node7&#45;&gt;Node9</title>
<path fill="none" stroke="midnightblue" d="M388.55,-112.32C404.99,-103.7 430.43,-90.36 449.47,-80.39"/>
<polygon fill="midnightblue" stroke="midnightblue" points="451.26,-83.4 458.49,-75.65 448.01,-77.2 451.26,-83.4"/>
</g>
<!-- Node10 -->
<g id="node10" class="node">
<title>Node10</title>
<g id="a_node10"><a xlink:title=" ">
<polygon fill="white" stroke="#bfbfbf" points="530,-56.5 530,-75.5 590,-75.5 590,-56.5 530,-56.5"/>
<text text-anchor="middle" x="560" y="-63.5" font-family="Helvetica,sans-Serif" font-size="10.00">iostream</text>
</a>
</g>
</g>
<!-- Node7&#45;&gt;Node10 -->
<g id="edge12" class="edge">
<title>Node7&#45;&gt;Node10</title>
<path fill="none" stroke="midnightblue" d="M401.79,-112.44C433.83,-103.24 484.93,-88.56 520.35,-78.39"/>
<polygon fill="midnightblue" stroke="midnightblue" points="521.71,-81.64 530.35,-75.52 519.77,-74.91 521.71,-81.64"/>
</g>
<!-- Node7&#45;&gt;Node11 -->
<g id="edge14" class="edge">
<title>Node7&#45;&gt;Node11</title>
<path fill="none" stroke="midnightblue" d="M359.63,-112.32C347.84,-104.06 329.87,-91.45 315.86,-81.63"/>
<polygon fill="midnightblue" stroke="midnightblue" points="317.54,-78.53 307.34,-75.65 313.52,-84.26 317.54,-78.53"/>
</g>
<!-- Node11&#45;&gt;Node3 -->
<g id="edge19" class="edge">
<title>Node11&#45;&gt;Node3</title>
<path fill="none" stroke="midnightblue" d="M264.89,-56.44C232.37,-47.2 180.42,-32.44 144.61,-22.26"/>
<polygon fill="midnightblue" stroke="midnightblue" points="145.54,-18.88 134.97,-19.52 143.63,-25.62 145.54,-18.88"/>
</g>
<!-- Node11&#45;&gt;Node8 -->
<g id="edge15" class="edge">
<title>Node11&#45;&gt;Node8</title>
<path fill="none" stroke="midnightblue" d="M318.93,-56.44C344.96,-47.13 386.67,-32.22 415.15,-22.03"/>
<polygon fill="midnightblue" stroke="midnightblue" points="416.39,-25.31 424.63,-18.64 414.03,-18.72 416.39,-25.31"/>
</g>
<!-- Node12 -->
<g id="node12" class="node">
<title>Node12</title>
<g id="a_node12"><a xlink:title=" ">
<polygon fill="white" stroke="#bfbfbf" points="267,-0.5 267,-19.5 319,-19.5 319,-0.5 267,-0.5"/>
<text text-anchor="middle" x="293" y="-7.5" font-family="Helvetica,sans-Serif" font-size="10.00">cassert</text>
</a>
</g>
</g>
<!-- Node11&#45;&gt;Node12 -->
<g id="edge16" class="edge">
<title>Node11&#45;&gt;Node12</title>
<path fill="none" stroke="midnightblue" d="M294.67,-56.08C294.41,-49.01 294.03,-38.86 293.7,-29.99"/>
<polygon fill="midnightblue" stroke="midnightblue" points="297.19,-29.61 293.32,-19.75 290.2,-29.87 297.19,-29.61"/>
</g>
<!-- Node13 -->
<g id="node13" class="node">
<title>Node13</title>
<g id="a_node13"><a xlink:title=" ">
<polygon fill="white" stroke="#bfbfbf" points="337.5,-0.5 337.5,-19.5 406.5,-19.5 406.5,-0.5 337.5,-0.5"/>
<text text-anchor="middle" x="372" y="-7.5" font-family="Helvetica,sans-Serif" font-size="10.00">type_traits</text>
</a>
</g>
</g>
<!-- Node11&#45;&gt;Node13 -->
<g id="edge17" class="edge">
<title>Node11&#45;&gt;Node13</title>
<path fill="none" stroke="midnightblue" d="M307.37,-56.32C319.16,-48.06 337.13,-35.45 351.14,-25.63"/>
<polygon fill="midnightblue" stroke="midnightblue" points="353.48,-28.26 359.66,-19.65 349.46,-22.53 353.48,-28.26"/>
</g>
<!-- Node14 -->
<g id="node14" class="node">
<title>Node14</title>
<g id="a_node14"><a xlink:title=" ">
<polygon fill="white" stroke="#bfbfbf" points="201.5,-0.5 201.5,-19.5 248.5,-19.5 248.5,-0.5 201.5,-0.5"/>
<text text-anchor="middle" x="225" y="-7.5" font-family="Helvetica,sans-Serif" font-size="10.00">cmath</text>
</a>
</g>
</g>
<!-- Node11&#45;&gt;Node14 -->
<g id="edge18" class="edge">
<title>Node11&#45;&gt;Node14</title>
<path fill="none" stroke="midnightblue" d="M283.75,-56.32C273.2,-48.18 257.2,-35.84 244.56,-26.09"/>
<polygon fill="midnightblue" stroke="midnightblue" points="246.51,-23.17 236.45,-19.83 242.23,-28.71 246.51,-23.17"/>
</g>
</g>
</svg>
        <g id="navigator" transform="translate(0 0)" fill="#404254">
                <rect fill="#f2f5e9" fill-opacity="0.5" stroke="#606060" stroke-width=".5" x="0" y="0" width="60" height="60"/>
                <use id="zoomplus" xlink:href="#zoomPlus" x="17" y="9" onmousedown="handleZoom(evt,'in')"/>
                <use id="zoomminus" xlink:href="#zoomMin" x="42" y="9" onmousedown="handleZoom(evt,'out')"/>
                <use id="reset" xlink:href="#resetDef" x="30" y="36" onmousedown="handleReset()"/>
                <g id="arrowUp" xlink:href="#dirArrow" transform="translate(30 24)" onmousedown="handlePan(0,-1)">
                  <use xlink:href="#rim" fill="#404040">
                        <set attributeName="fill" to="#808080" begin="arrowUp.mouseover" end="arrowUp.mouseout"/>
                  </use>
                  <path fill="none" stroke="white" stroke-width="1.5" d="M0,-3.0v7 M-2.5,-0.5L0,-3.0L2.5,-0.5"/>
                </g>
                <g id="arrowRight" xlink:href="#dirArrow" transform="rotate(90) translate(36 -43)" onmousedown="handlePan(1,0)">
                  <use xlink:href="#rim" fill="#404040">
                        <set attributeName="fill" to="#808080" begin="arrowRight.mouseover" end="arrowRight.mouseout"/>
                  </use>
                  <path fill="none" stroke="white" stroke-width="1.5" d="M0,-3.0v7 M-2.5,-0.5L0,-3.0L2.5,-0.5"/>
                </g>
                <g id="arrowDown" xlink:href="#dirArrow" transform="rotate(180) translate(-30 -48)" onmousedown="handlePan(0,1)">
                  <use xlink:href="#rim" fill="#404040">
                        <set attributeName="fill" to="#808080" begin="arrowDown.mouseover" end="arrowDown.mouseout"/>
                  </use>
                  <path fill="none" stroke="white" stroke-width="1.5" d="M0,-3.0v7 M-2.5,-0.5L0,-3.0L2.5,-0.5"/>
                </g>
                <g id="arrowLeft" xlink:href="#dirArrow" transform="rotate(270) translate(-36 17)" onmousedown="handlePan(-1,0)">
                  <use xlink:href="#rim" fill="#404040">
                        <set attributeName="fill" to="#808080" begin="arrowLeft.mouseover" end="arrowLeft.mouseout"/>
                  </use>
                  <path fill="none" stroke="white" stroke-width="1.5" d="M0,-3.0v7 M-2.5,-0.5L0,-3.0L2.5,-0.5"/>
                </g>
        </g>
        <svg viewBox="0 0 15 15" width="100%" height="30px" preserveAspectRatio="xMaxYMin meet">
         <g id="arrow_out" transform="scale(0.3 0.3)">
          <a xlink:href="lharmony__KeySignature_8h__incl_org.svg" target="_base">
           <rect id="button" ry="5" rx="5" y="6" x="6" height="38" width="38"
                fill="#f2f5e9" fill-opacity="0.5" stroke="#606060" stroke-width="1.0"/>
           <path id="arrow"
             d="M 11.500037,31.436501 C 11.940474,20.09759 22.043105,11.32322 32.158766,21.979434 L 37.068811,17.246167 C 37.068811,17.246167 37.088388,32 37.088388,32 L 22.160133,31.978069 C 22.160133,31.978069 26.997745,27.140456 26.997745,27.140456 C 18.528582,18.264221 13.291696,25.230495 11.500037,31.436501 z"
             style="fill:#404040;"/>
          </a>
         </g>
        </svg>
</svg>
