<?xml version="1.0" encoding="UTF-8" standalone="no"?>
<!DOCTYPE svg PUBLIC "-//W3C//DTD SVG 1.1//EN"
 "http://www.w3.org/Graphics/SVG/1.1/DTD/svg11.dtd">
<!-- Generated by graphviz version 2.43.0 (0)
 -->
<!-- Title: lharmony_Scale.h Pages: 1 -->
<svg width="569pt" height="252pt"
 viewBox="0.00 0.00 569.00 252.00" xmlns="http://www.w3.org/2000/svg" xmlns:xlink="http://www.w3.org/1999/xlink">
<g id="graph0" class="graph" transform="scale(1 1) rotate(0) translate(4 248)">
<title>lharmony_Scale.h</title>
<polygon fill="white" stroke="transparent" points="-4,4 -4,-248 565,-248 565,4 -4,4"/>
<!-- Node1 -->
<g id="node1" class="node">
<title>Node1</title>
<g id="a_node1"><a xlink:title="This file defines the Scale class.">
<polygon fill="#bfbfbf" stroke="black" points="75.5,-224.5 75.5,-243.5 179.5,-243.5 179.5,-224.5 75.5,-224.5"/>
<text text-anchor="middle" x="127.5" y="-231.5" font-family="Helvetica,sans-Serif" font-size="10.00">lharmony_Scale.h</text>
</a>
</g>
</g>
<!-- Node2 -->
<g id="node2" class="node">
<title>Node2</title>
<g id="a_node2"><a xlink:title=" ">
<polygon fill="white" stroke="#bfbfbf" points="0,-168.5 0,-187.5 47,-187.5 47,-168.5 0,-168.5"/>
<text text-anchor="middle" x="23.5" y="-175.5" font-family="Helvetica,sans-Serif" font-size="10.00">vector</text>
</a>
</g>
</g>
<!-- Node1&#45;&gt;Node2 -->
<g id="edge1" class="edge">
<title>Node1&#45;&gt;Node2</title>
<path fill="none" stroke="midnightblue" d="M110.79,-224.32C94.19,-215.7 68.5,-202.36 49.28,-192.39"/>
<polygon fill="midnightblue" stroke="midnightblue" points="50.66,-189.16 40.17,-187.65 47.43,-195.37 50.66,-189.16"/>
</g>
<!-- Node3 -->
<g id="node3" class="node">
<title>Node3</title>
<g id="a_node3"><a xlink:title=" ">
<polygon fill="white" stroke="#bfbfbf" points="34.5,-0.5 34.5,-19.5 192.5,-19.5 192.5,-0.5 34.5,-0.5"/>
<text text-anchor="middle" x="113.5" y="-7.5" font-family="Helvetica,sans-Serif" font-size="10.00">lharmony/lharmony_Export.h</text>
</a>
</g>
</g>
<!-- Node1&#45;&gt;Node3 -->
<g id="edge2" class="edge">
<title>Node1&#45;&gt;Node3</title>
<path fill="none" stroke="midnightblue" d="M118.48,-224.34C110.43,-215.93 99.2,-202.36 94.5,-188 76.27,-132.32 95.46,-62.04 106.64,-29.32"/>
<polygon fill="midnightblue" stroke="midnightblue" points="110,-30.33 110.06,-19.74 103.41,-27.98 110,-30.33"/>
</g>
<!-- Node4 -->
<g id="node4" class="node">
<title>Node4</title>
<g id="a_node4"><a xlink:href="lharmony__Pitch_8h.html" target="_top" xlink:title="This file defines the Pitch class.">
<polygon fill="white" stroke="black" points="104,-168.5 104,-187.5 255,-187.5 255,-168.5 104,-168.5"/>
<text text-anchor="middle" x="179.5" y="-175.5" font-family="Helvetica,sans-Serif" font-size="10.00">lharmony/lharmony_Pitch.h</text>
</a>
</g>
</g>
<!-- Node1&#45;&gt;Node4 -->
<g id="edge3" class="edge">
<title>Node1&#45;&gt;Node4</title>
<path fill="none" stroke="midnightblue" d="M136.09,-224.08C143.66,-216.22 154.88,-204.57 164.01,-195.08"/>
<polygon fill="midnightblue" stroke="midnightblue" points="166.66,-197.38 171.07,-187.75 161.62,-192.53 166.66,-197.38"/>
</g>
<!-- Node6 -->
<g id="node6" class="node">
<title>Node6</title>
<g id="a_node6"><a xlink:href="lharmony__PitchClass_8h.html" target="_top" xlink:title="This file defines the PitchClass class.">
<polygon fill="white" stroke="black" points="259,-112.5 259,-131.5 436,-131.5 436,-112.5 259,-112.5"/>
<text text-anchor="middle" x="347.5" y="-119.5" font-family="Helvetica,sans-Serif" font-size="10.00">lharmony/lharmony_PitchClass.h</text>
</a>
</g>
</g>
<!-- Node1&#45;&gt;Node6 -->
<g id="edge18" class="edge">
<title>Node1&#45;&gt;Node6</title>
<path fill="none" stroke="midnightblue" d="M164.97,-224.45C193.33,-217.11 232.71,-204.99 264.5,-188 289.79,-174.48 315.22,-153.16 331.14,-138.65"/>
<polygon fill="midnightblue" stroke="midnightblue" points="333.6,-141.14 338.54,-131.77 328.84,-136.01 333.6,-141.14"/>
</g>
<!-- Node4&#45;&gt;Node3 -->
<g id="edge5" class="edge">
<title>Node4&#45;&gt;Node3</title>
<path fill="none" stroke="midnightblue" d="M168.09,-168.31C158.13,-160.08 144.11,-146.8 136.5,-132 119.44,-98.84 114.95,-54.71 113.82,-29.94"/>
<polygon fill="midnightblue" stroke="midnightblue" points="117.31,-29.64 113.5,-19.75 110.32,-29.86 117.31,-29.64"/>
</g>
<!-- Node5 -->
<g id="node5" class="node">
<title>Node5</title>
<g id="a_node5"><a xlink:title=" ">
<polygon fill="white" stroke="#bfbfbf" points="146,-112.5 146,-131.5 203,-131.5 203,-112.5 146,-112.5"/>
<text text-anchor="middle" x="174.5" y="-119.5" font-family="Helvetica,sans-Serif" font-size="10.00">ostream</text>
</a>
</g>
</g>
<!-- Node4&#45;&gt;Node5 -->
<g id="edge4" class="edge">
<title>Node4&#45;&gt;Node5</title>
<path fill="none" stroke="midnightblue" d="M178.67,-168.08C178.02,-161.01 177.08,-150.86 176.26,-141.99"/>
<polygon fill="midnightblue" stroke="midnightblue" points="179.72,-141.39 175.31,-131.75 172.75,-142.03 179.72,-141.39"/>
</g>
<!-- Node4&#45;&gt;Node6 -->
<g id="edge6" class="edge">
<title>Node4&#45;&gt;Node6</title>
<path fill="none" stroke="midnightblue" d="M206.12,-168.44C234.51,-159.32 279.64,-144.81 311.25,-134.65"/>
<polygon fill="midnightblue" stroke="midnightblue" points="312.56,-137.91 321,-131.52 310.41,-131.24 312.56,-137.91"/>
</g>
<!-- Node10 -->
<g id="node10" class="node">
<title>Node10</title>
<g id="a_node10"><a xlink:href="lharmony__PitchUtils_8h.html" target="_top" xlink:title="This file contains miscellaneous pitch utilities.">
<polygon fill="white" stroke="black" points="180,-56.5 180,-75.5 353,-75.5 353,-56.5 180,-56.5"/>
<text text-anchor="middle" x="266.5" y="-63.5" font-family="Helvetica,sans-Serif" font-size="10.00">lharmony/lharmony_PitchUtils.h</text>
</a>
</g>
</g>
<!-- Node4&#45;&gt;Node10 -->
<g id="edge17" class="edge">
<title>Node4&#45;&gt;Node10</title>
<path fill="none" stroke="midnightblue" d="M186.33,-168.37C200.75,-150.14 234.53,-107.43 253.31,-83.68"/>
<polygon fill="midnightblue" stroke="midnightblue" points="256.25,-85.61 259.7,-75.59 250.76,-81.26 256.25,-85.61"/>
</g>
<!-- Node6&#45;&gt;Node3 -->
<g id="edge10" class="edge">
<title>Node6&#45;&gt;Node3</title>
<path fill="none" stroke="midnightblue" d="M273.86,-112.43C240.46,-106.07 201.59,-95.06 170.5,-76 150.98,-64.03 134.48,-43.24 124.33,-28.39"/>
<polygon fill="midnightblue" stroke="midnightblue" points="127.02,-26.1 118.62,-19.65 121.16,-29.93 127.02,-26.1"/>
</g>
<!-- Node7 -->
<g id="node7" class="node">
<title>Node7</title>
<g id="a_node7"><a xlink:title=" ">
<polygon fill="white" stroke="#bfbfbf" points="435.5,-0.5 435.5,-19.5 477.5,-19.5 477.5,-0.5 435.5,-0.5"/>
<text text-anchor="middle" x="456.5" y="-7.5" font-family="Helvetica,sans-Serif" font-size="10.00">array</text>
</a>
</g>
</g>
<!-- Node6&#45;&gt;Node7 -->
<g id="edge7" class="edge">
<title>Node6&#45;&gt;Node7</title>
<path fill="none" stroke="midnightblue" d="M381.79,-112.35C401.71,-105.62 425.71,-94.26 440.5,-76 451.12,-62.89 454.84,-43.74 456.07,-29.62"/>
<polygon fill="midnightblue" stroke="midnightblue" points="459.57,-29.76 456.61,-19.59 452.58,-29.39 459.57,-29.76"/>
</g>
<!-- Node8 -->
<g id="node8" class="node">
<title>Node8</title>
<g id="a_node8"><a xlink:title=" ">
<polygon fill="white" stroke="#bfbfbf" points="488,-56.5 488,-75.5 561,-75.5 561,-56.5 488,-56.5"/>
<text text-anchor="middle" x="524.5" y="-63.5" font-family="Helvetica,sans-Serif" font-size="10.00">string_view</text>
</a>
</g>
</g>
<!-- Node6&#45;&gt;Node8 -->
<g id="edge8" class="edge">
<title>Node6&#45;&gt;Node8</title>
<path fill="none" stroke="midnightblue" d="M375.55,-112.44C405.58,-103.28 453.41,-88.69 486.74,-78.52"/>
<polygon fill="midnightblue" stroke="midnightblue" points="488.04,-81.78 496.59,-75.52 486,-75.09 488.04,-81.78"/>
</g>
<!-- Node9 -->
<g id="node9" class="node">
<title>Node9</title>
<g id="a_node9"><a xlink:title=" ">
<polygon fill="white" stroke="#bfbfbf" points="371.5,-56.5 371.5,-75.5 431.5,-75.5 431.5,-56.5 371.5,-56.5"/>
<text text-anchor="middle" x="401.5" y="-63.5" font-family="Helvetica,sans-Serif" font-size="10.00">iostream</text>
</a>
</g>
</g>
<!-- Node6&#45;&gt;Node9 -->
<g id="edge9" class="edge">
<title>Node6&#45;&gt;Node9</title>
<path fill="none" stroke="midnightblue" d="M356.42,-112.08C364.28,-104.22 375.93,-92.57 385.42,-83.08"/>
<polygon fill="midnightblue" stroke="midnightblue" points="388.15,-85.3 392.75,-75.75 383.2,-80.35 388.15,-85.3"/>
</g>
<!-- Node6&#45;&gt;Node10 -->
<g id="edge11" class="edge">
<title>Node6&#45;&gt;Node10</title>
<path fill="none" stroke="midnightblue" d="M334.49,-112.32C321.97,-103.98 302.82,-91.21 288.03,-81.35"/>
<polygon fill="midnightblue" stroke="midnightblue" points="289.74,-78.29 279.48,-75.65 285.86,-84.11 289.74,-78.29"/>
</g>
<!-- Node10&#45;&gt;Node3 -->
<g id="edge16" class="edge">
<title>Node10&#45;&gt;Node3</title>
<path fill="none" stroke="midnightblue" d="M242.26,-56.44C216.63,-47.4 176.01,-33.06 147.26,-22.92"/>
<polygon fill="midnightblue" stroke="midnightblue" points="148.22,-19.54 137.63,-19.52 145.89,-26.15 148.22,-19.54"/>
</g>
<!-- Node10&#45;&gt;Node7 -->
<g id="edge12" class="edge">
<title>Node10&#45;&gt;Node7</title>
<path fill="none" stroke="midnightblue" d="M296.61,-56.44C331.84,-46.43 389.9,-29.93 425.51,-19.81"/>
<polygon fill="midnightblue" stroke="midnightblue" points="426.7,-23.11 435.36,-17.01 424.78,-16.38 426.7,-23.11"/>
</g>
<!-- Node11 -->
<g id="node11" class="node">
<title>Node11</title>
<g id="a_node11"><a xlink:title=" ">
<polygon fill="white" stroke="#bfbfbf" points="363.5,-0.5 363.5,-19.5 415.5,-19.5 415.5,-0.5 363.5,-0.5"/>
<text text-anchor="middle" x="389.5" y="-7.5" font-family="Helvetica,sans-Serif" font-size="10.00">cassert</text>
</a>
</g>
</g>
<!-- Node10&#45;&gt;Node11 -->
<g id="edge13" class="edge">
<title>Node10&#45;&gt;Node11</title>
<path fill="none" stroke="midnightblue" d="M285.99,-56.44C306.14,-47.6 337.82,-33.69 360.83,-23.59"/>
<polygon fill="midnightblue" stroke="midnightblue" points="362.35,-26.74 370.1,-19.52 359.54,-20.33 362.35,-26.74"/>
</g>
<!-- Node12 -->
<g id="node12" class="node">
<title>Node12</title>
<g id="a_node12"><a xlink:title=" ">
<polygon fill="white" stroke="#bfbfbf" points="211,-0.5 211,-19.5 280,-19.5 280,-0.5 211,-0.5"/>
<text text-anchor="middle" x="245.5" y="-7.5" font-family="Helvetica,sans-Serif" font-size="10.00">type_traits</text>
</a>
</g>
</g>
<!-- Node10&#45;&gt;Node12 -->
<g id="edge14" class="edge">
<title>Node10&#45;&gt;Node12</title>
<path fill="none" stroke="midnightblue" d="M263.03,-56.08C260.19,-48.77 256.07,-38.18 252.54,-29.1"/>
<polygon fill="midnightblue" stroke="midnightblue" points="255.79,-27.8 248.9,-19.75 249.27,-30.34 255.79,-27.8"/>
</g>
<!-- Node13 -->
<g id="node13" class="node">
<title>Node13</title>
<g id="a_node13"><a xlink:title=" ">
<polygon fill="white" stroke="#bfbfbf" points="298,-0.5 298,-19.5 345,-19.5 345,-0.5 298,-0.5"/>
<text text-anchor="middle" x="321.5" y="-7.5" font-family="Helvetica,sans-Serif" font-size="10.00">cmath</text>
</a>
</g>
</g>
<!-- Node10&#45;&gt;Node13 -->
<g id="edge15" class="edge">
<title>Node10&#45;&gt;Node13</title>
<path fill="none" stroke="midnightblue" d="M275.58,-56.08C283.67,-48.14 295.7,-36.34 305.41,-26.8"/>
<polygon fill="midnightblue" stroke="midnightblue" points="307.9,-29.25 312.59,-19.75 303,-24.26 307.9,-29.25"/>
</g>
</g>
</svg>
