<?xml version="1.0" encoding="UTF-8" standalone="no"?>
<!DOCTYPE svg PUBLIC "-//W3C//DTD SVG 1.1//EN"
 "http://www.w3.org/Graphics/SVG/1.1/DTD/svg11.dtd">
<!-- Generated by graphviz version 8.0.5 (20230430.1635)
 -->
<!-- Title: lharmony_Interval.h Pages: 1 -->
<svg width="493pt" height="138pt"
 viewBox="0.00 0.00 492.65 137.75" xmlns="http://www.w3.org/2000/svg" xmlns:xlink="http://www.w3.org/1999/xlink">

<svg id="main" version="1.1" xmlns="http://www.w3.org/2000/svg" xmlns:xlink="http://www.w3.org/1999/xlink" xml:space="preserve" onload="init(evt)">
<style type="text/css"><![CDATA[
.node, .edge {opacity: 0.7;}
.node.selected, .edge.selected {opacity: 1;}
.edge:hover path { stroke: red; }
.edge:hover polygon { stroke: red; fill: red; }
]]></style>
<script type="application/ecmascript" xlink:href="svg.min.js"/>
<svg id="graph" class="graph">
<g id="graph0" class="graph" transform="scale(1 1) rotate(0) translate(4 133.75)">
<title>lharmony_Interval.h</title>
<!-- Node1 -->
<g id="Node000001" class="node">
<title>Node1</title>
<g id="a_Node000001"><a xlink:title="This file defines the Interval class.">
<polygon fill="#999999" stroke="#666666" points="224.03,-129.75 122.53,-129.75 122.53,-110.5 224.03,-110.5 224.03,-129.75"/>
<text text-anchor="middle" x="173.28" y="-116.25" font-family="Helvetica,sans-Serif" font-size="10.00">lharmony_Interval.h</text>
</a>
</g>
</g>
<!-- Node2 -->
<g id="Node000002" class="node">
<title>Node2</title>
<g id="a_Node000002"><a xlink:href="lharmony_8h_source.html" target="_top" xlink:title=" ">
<polygon fill="white" stroke="#666666" points="204.53,-19.25 142.03,-19.25 142.03,0 204.53,0 204.53,-19.25"/>
<text text-anchor="middle" x="173.28" y="-5.75" font-family="Helvetica,sans-Serif" font-size="10.00">lharmony.h</text>
</a>
</g>
</g>
<!-- Node1&#45;&gt;Node2 -->
<g id="edge1_Node000001_Node000002" class="edge">
<title>Node1&#45;&gt;Node2</title>
<g id="a_edge1_Node000001_Node000002"><a xlink:title=" ">
<path fill="none" stroke="#63b8ff" d="M111.62,-110.48C69.92,-103.23 20.18,-91.33 7.28,-74.5 -29.08,-27.08 84.37,-14.85 141.93,-11.71"/>
<polygon fill="#63b8ff" stroke="#63b8ff" points="110.86,-114.07 121.3,-112.27 112.02,-107.17 110.86,-114.07"/>
</a>
</g>
</g>
<!-- Node3 -->
<g id="Node000003" class="node">
<title>Node3</title>
<g id="a_Node000003"><a xlink:href="lharmony___compound_interval_8h.html" target="_top" xlink:title="This file defines the CompoundInterval class.">
<polygon fill="white" stroke="#666666" points="164.65,-74.5 15.9,-74.5 15.9,-55.25 164.65,-55.25 164.65,-74.5"/>
<text text-anchor="middle" x="90.28" y="-61" font-family="Helvetica,sans-Serif" font-size="10.00">lharmony_CompoundInterval.h</text>
</a>
</g>
</g>
<!-- Node1&#45;&gt;Node3 -->
<g id="edge2_Node000001_Node000003" class="edge">
<title>Node1&#45;&gt;Node3</title>
<g id="a_edge2_Node000001_Node000003"><a xlink:title=" ">
<path fill="none" stroke="#63b8ff" d="M150.21,-104.32C135.52,-94.9 116.97,-83 104.43,-74.95"/>
<polygon fill="#63b8ff" stroke="#63b8ff" points="147.89,-107.64 158.2,-110.09 151.67,-101.75 147.89,-107.64"/>
</a>
</g>
</g>
<!-- Node4 -->
<g id="Node000004" class="node">
<title>Node4</title>
<g id="a_Node000004"><a xlink:href="lharmony___interval_constants_8h.html" target="_top" xlink:title="This file provides some useful Interval objects as constants.">
<polygon fill="white" stroke="#666666" points="329.53,-74.5 183.03,-74.5 183.03,-55.25 329.53,-55.25 329.53,-74.5"/>
<text text-anchor="middle" x="256.28" y="-61" font-family="Helvetica,sans-Serif" font-size="10.00">lharmony_IntervalConstants.h</text>
</a>
</g>
</g>
<!-- Node1&#45;&gt;Node4 -->
<g id="edge4_Node000001_Node000004" class="edge">
<title>Node1&#45;&gt;Node4</title>
<g id="a_edge4_Node000001_Node000004"><a xlink:title=" ">
<path fill="none" stroke="#63b8ff" d="M196.35,-104.32C211.04,-94.9 229.59,-83 242.13,-74.95"/>
<polygon fill="#63b8ff" stroke="#63b8ff" points="194.88,-101.75 188.36,-110.09 198.66,-107.64 194.88,-101.75"/>
</a>
</g>
</g>
<!-- Node5 -->
<g id="Node000005" class="node">
<title>Node5</title>
<g id="a_Node000005"><a xlink:href="lharmony___overtone_series_8h.html" target="_top" xlink:title="This file defines the OvertoneSeries class.">
<polygon fill="white" stroke="#666666" points="484.65,-74.5 347.9,-74.5 347.9,-55.25 484.65,-55.25 484.65,-74.5"/>
<text text-anchor="middle" x="416.28" y="-61" font-family="Helvetica,sans-Serif" font-size="10.00">lharmony_OvertoneSeries.h</text>
</a>
</g>
</g>
<!-- Node1&#45;&gt;Node5 -->
<g id="edge6_Node000001_Node000005" class="edge">
<title>Node1&#45;&gt;Node5</title>
<g id="a_edge6_Node000001_Node000005"><a xlink:title=" ">
<path fill="none" stroke="#63b8ff" d="M225.43,-107.7C270.14,-97.9 333.69,-83.97 374.95,-74.93"/>
<polygon fill="#63b8ff" stroke="#63b8ff" points="224.79,-104.47 215.78,-110.03 226.29,-111.31 224.79,-104.47"/>
</a>
</g>
</g>
<!-- Node3&#45;&gt;Node2 -->
<g id="edge3_Node000003_Node000002" class="edge">
<title>Node3&#45;&gt;Node2</title>
<g id="a_edge3_Node000003_Node000002"><a xlink:title=" ">
<path fill="none" stroke="#63b8ff" d="M113.35,-49.07C128.04,-39.65 146.59,-27.75 159.13,-19.7"/>
<polygon fill="#63b8ff" stroke="#63b8ff" points="111.88,-46.5 105.36,-54.84 115.66,-52.39 111.88,-46.5"/>
</a>
</g>
</g>
<!-- Node4&#45;&gt;Node2 -->
<g id="edge5_Node000004_Node000002" class="edge">
<title>Node4&#45;&gt;Node2</title>
<g id="a_edge5_Node000004_Node000002"><a xlink:title=" ">
<path fill="none" stroke="#63b8ff" d="M233.21,-49.07C218.52,-39.65 199.97,-27.75 187.43,-19.7"/>
<polygon fill="#63b8ff" stroke="#63b8ff" points="230.89,-52.39 241.2,-54.84 234.67,-46.5 230.89,-52.39"/>
</a>
</g>
</g>
<!-- Node5&#45;&gt;Node2 -->
<g id="edge7_Node000005_Node000002" class="edge">
<title>Node5&#45;&gt;Node2</title>
<g id="a_edge7_Node000005_Node000002"><a xlink:title=" ">
<path fill="none" stroke="#63b8ff" d="M364.21,-52.46C315.83,-41.86 245.34,-26.42 204.92,-17.56"/>
<polygon fill="#63b8ff" stroke="#63b8ff" points="363.26,-56.06 373.78,-54.78 364.76,-49.22 363.26,-56.06"/>
</a>
</g>
</g>
</g>
</svg>
</svg>

<style type='text/css'>
<![CDATA[
[data-mouse-over-selected='false'] { opacity: 0.7; }
[data-mouse-over-selected='true']  { opacity: 1.0; }
]]>
</style>
<script type="application/ecmascript"><![CDATA[
document.addEventListener('DOMContentLoaded', (event) => {
  highlightEdges();
  highlightAdjacentNodes();
});
]]></script>
</svg>
