<?xml version="1.0" encoding="UTF-8" standalone="no"?>
<!DOCTYPE svg PUBLIC "-//W3C//DTD SVG 1.1//EN"
 "http://www.w3.org/Graphics/SVG/1.1/DTD/svg11.dtd">
<!-- Generated by graphviz version 2.43.0 (0)
 -->
<!-- Title: lharmony_KeySignatureConstants.h Pages: 1 -->
<svg width="644pt" height="375pt"
 viewBox="0.00 0.00 643.99 375.00" xmlns="http://www.w3.org/2000/svg" xmlns:xlink="http://www.w3.org/1999/xlink">
<g id="graph0" class="graph" transform="scale(1 1) rotate(0) translate(4 371)">
<title>lharmony_KeySignatureConstants.h</title>
<polygon fill="white" stroke="transparent" points="-4,4 -4,-371 639.99,-371 639.99,4 -4,4"/>
<!-- Node1 -->
<g id="node1" class="node">
<title>Node1</title>
<g id="a_node1"><a xlink:title="This file contains some useful predefined key signatures.">
<polygon fill="#bfbfbf" stroke="black" points="0,-347.5 0,-366.5 191,-366.5 191,-347.5 0,-347.5"/>
<text text-anchor="middle" x="95.5" y="-354.5" font-family="Helvetica,sans-Serif" font-size="10.00">lharmony_KeySignatureConstants.h</text>
</a>
</g>
</g>
<!-- Node2 -->
<g id="node2" class="node">
<title>Node2</title>
<g id="a_node2"><a xlink:title=" ">
<polygon fill="white" stroke="#bfbfbf" points="96.5,-0.5 96.5,-19.5 254.5,-19.5 254.5,-0.5 96.5,-0.5"/>
<text text-anchor="middle" x="175.5" y="-7.5" font-family="Helvetica,sans-Serif" font-size="10.00">lharmony/lharmony_Export.h</text>
</a>
</g>
</g>
<!-- Node1&#45;&gt;Node2 -->
<g id="edge1" class="edge">
<title>Node1&#45;&gt;Node2</title>
<path fill="none" stroke="midnightblue" d="M86.88,-347.29C69.84,-329.11 33.5,-285.11 33.5,-240.5 33.5,-240.5 33.5,-240.5 33.5,-121 33.5,-69.07 93.59,-38.15 135.59,-22.89"/>
<polygon fill="midnightblue" stroke="midnightblue" points="136.74,-26.19 145.04,-19.6 134.44,-19.58 136.74,-26.19"/>
</g>
<!-- Node3 -->
<g id="node3" class="node">
<title>Node3</title>
<g id="a_node3"><a xlink:href="lharmony__KeySignature_8h.html" target="_top" xlink:title="This file defines the KeySignature scale class.">
<polygon fill="white" stroke="black" points="90,-291.5 90,-310.5 281,-310.5 281,-291.5 90,-291.5"/>
<text text-anchor="middle" x="185.5" y="-298.5" font-family="Helvetica,sans-Serif" font-size="10.00">lharmony/lharmony_KeySignature.h</text>
</a>
</g>
</g>
<!-- Node1&#45;&gt;Node3 -->
<g id="edge2" class="edge">
<title>Node1&#45;&gt;Node3</title>
<path fill="none" stroke="midnightblue" d="M109.96,-347.32C124,-338.9 145.55,-325.97 162.04,-316.07"/>
<polygon fill="midnightblue" stroke="midnightblue" points="164.3,-318.8 171.08,-310.65 160.7,-312.8 164.3,-318.8"/>
</g>
<!-- Node3&#45;&gt;Node2 -->
<g id="edge4" class="edge">
<title>Node3&#45;&gt;Node2</title>
<path fill="none" stroke="midnightblue" d="M167.69,-291.48C135.62,-274.77 71.5,-234.41 71.5,-179 71.5,-179 71.5,-179 71.5,-121 71.5,-76.22 117.56,-42.32 148.38,-24.66"/>
<polygon fill="midnightblue" stroke="midnightblue" points="150.31,-27.59 157.38,-19.7 146.94,-21.46 150.31,-27.59"/>
</g>
<!-- Node4 -->
<g id="node4" class="node">
<title>Node4</title>
<g id="a_node4"><a xlink:title=" ">
<polygon fill="white" stroke="#bfbfbf" points="100,-168.5 100,-187.5 147,-187.5 147,-168.5 100,-168.5"/>
<text text-anchor="middle" x="123.5" y="-175.5" font-family="Helvetica,sans-Serif" font-size="10.00">vector</text>
</a>
</g>
</g>
<!-- Node3&#45;&gt;Node4 -->
<g id="edge3" class="edge">
<title>Node3&#45;&gt;Node4</title>
<path fill="none" stroke="midnightblue" d="M167.99,-291.39C154.64,-283.81 137.13,-271.4 128.5,-255 119.19,-237.29 119.14,-213.97 120.65,-197.86"/>
<polygon fill="midnightblue" stroke="midnightblue" points="124.17,-197.93 121.92,-187.58 117.22,-197.08 124.17,-197.93"/>
</g>
<!-- Node5 -->
<g id="node5" class="node">
<title>Node5</title>
<g id="a_node5"><a xlink:href="lharmony__Scale_8h.html" target="_top" xlink:title="This file defines the Scale class.">
<polygon fill="white" stroke="black" points="138,-230 138,-249 291,-249 291,-230 138,-230"/>
<text text-anchor="middle" x="214.5" y="-237" font-family="Helvetica,sans-Serif" font-size="10.00">lharmony/lharmony_Scale.h</text>
</a>
</g>
</g>
<!-- Node3&#45;&gt;Node5 -->
<g id="edge5" class="edge">
<title>Node3&#45;&gt;Node5</title>
<path fill="none" stroke="midnightblue" d="M189.65,-291.48C193.88,-282.82 200.54,-269.15 205.9,-258.15"/>
<polygon fill="midnightblue" stroke="midnightblue" points="209.12,-259.53 210.35,-249.01 202.83,-256.46 209.12,-259.53"/>
</g>
<!-- Node8 -->
<g id="node8" class="node">
<title>Node8</title>
<g id="a_node8"><a xlink:href="lharmony__PitchClass_8h.html" target="_top" xlink:title="This file defines the PitchClass class.">
<polygon fill="white" stroke="black" points="376,-112.5 376,-131.5 553,-131.5 553,-112.5 376,-112.5"/>
<text text-anchor="middle" x="464.5" y="-119.5" font-family="Helvetica,sans-Serif" font-size="10.00">lharmony/lharmony_PitchClass.h</text>
</a>
</g>
</g>
<!-- Node3&#45;&gt;Node8 -->
<g id="edge24" class="edge">
<title>Node3&#45;&gt;Node8</title>
<path fill="none" stroke="midnightblue" d="M281.16,-296.57C349.88,-291.9 434.32,-280.91 457.5,-255 485.46,-223.75 477.07,-169.85 469.98,-141.56"/>
<polygon fill="midnightblue" stroke="midnightblue" points="473.31,-140.49 467.31,-131.77 466.56,-142.33 473.31,-140.49"/>
</g>
<!-- Node16 -->
<g id="node16" class="node">
<title>Node16</title>
<g id="a_node16"><a xlink:href="lharmony__KeySignature__impl_8h.html" target="_top" xlink:title="This file contains implementation details for the KeySignature class.">
<polygon fill="white" stroke="black" points="309,-224.5 309,-254.5 448,-254.5 448,-224.5 309,-224.5"/>
<text text-anchor="start" x="317" y="-242.5" font-family="Helvetica,sans-Serif" font-size="10.00">./lharmony_KeySignature</text>
<text text-anchor="middle" x="378.5" y="-231.5" font-family="Helvetica,sans-Serif" font-size="10.00">_impl.h</text>
</a>
</g>
</g>
<!-- Node3&#45;&gt;Node16 -->
<g id="edge25" class="edge">
<title>Node3&#45;&gt;Node16</title>
<path fill="none" stroke="midnightblue" d="M213.15,-291.48C241.73,-282.66 287.13,-268.67 323.13,-257.57"/>
<polygon fill="midnightblue" stroke="midnightblue" points="324.49,-260.81 333.01,-254.52 322.43,-254.12 324.49,-260.81"/>
</g>
<!-- Node5&#45;&gt;Node2 -->
<g id="edge7" class="edge">
<title>Node5&#45;&gt;Node2</title>
<path fill="none" stroke="midnightblue" d="M210.94,-229.72C207.05,-219.76 200.91,-202.97 197.5,-188 184.56,-131.27 178.76,-62.45 176.6,-29.86"/>
<polygon fill="midnightblue" stroke="midnightblue" points="180.07,-29.34 175.95,-19.58 173.08,-29.78 180.07,-29.34"/>
</g>
<!-- Node5&#45;&gt;Node4 -->
<g id="edge6" class="edge">
<title>Node5&#45;&gt;Node4</title>
<path fill="none" stroke="midnightblue" d="M201.46,-229.98C186.73,-220.34 162.53,-204.52 144.99,-193.05"/>
<polygon fill="midnightblue" stroke="midnightblue" points="146.8,-190.05 136.51,-187.51 142.97,-195.91 146.8,-190.05"/>
</g>
<!-- Node6 -->
<g id="node6" class="node">
<title>Node6</title>
<g id="a_node6"><a xlink:href="lharmony__Pitch_8h.html" target="_top" xlink:title="This file defines the Pitch class.">
<polygon fill="white" stroke="black" points="207,-168.5 207,-187.5 358,-187.5 358,-168.5 207,-168.5"/>
<text text-anchor="middle" x="282.5" y="-175.5" font-family="Helvetica,sans-Serif" font-size="10.00">lharmony/lharmony_Pitch.h</text>
</a>
</g>
</g>
<!-- Node5&#45;&gt;Node6 -->
<g id="edge8" class="edge">
<title>Node5&#45;&gt;Node6</title>
<path fill="none" stroke="midnightblue" d="M224.24,-229.98C234.85,-220.7 252.02,-205.67 264.98,-194.33"/>
<polygon fill="midnightblue" stroke="midnightblue" points="267.55,-196.73 272.78,-187.51 262.94,-191.46 267.55,-196.73"/>
</g>
<!-- Node5&#45;&gt;Node8 -->
<g id="edge23" class="edge">
<title>Node5&#45;&gt;Node8</title>
<path fill="none" stroke="midnightblue" d="M248.71,-229.93C280.2,-221.4 327.75,-206.87 366.5,-188 395.66,-173.8 426.36,-152.2 445.47,-137.84"/>
<polygon fill="midnightblue" stroke="midnightblue" points="447.79,-140.48 453.62,-131.63 443.54,-134.91 447.79,-140.48"/>
</g>
<!-- Node6&#45;&gt;Node2 -->
<g id="edge10" class="edge">
<title>Node6&#45;&gt;Node2</title>
<path fill="none" stroke="midnightblue" d="M274.43,-168.42C266.37,-159.64 253.87,-145.41 244.5,-132 220.02,-96.96 196.45,-52.63 184.21,-28.53"/>
<polygon fill="midnightblue" stroke="midnightblue" points="187.3,-26.9 179.68,-19.53 181.05,-30.04 187.3,-26.9"/>
</g>
<!-- Node7 -->
<g id="node7" class="node">
<title>Node7</title>
<g id="a_node7"><a xlink:title=" ">
<polygon fill="white" stroke="#bfbfbf" points="254,-112.5 254,-131.5 311,-131.5 311,-112.5 254,-112.5"/>
<text text-anchor="middle" x="282.5" y="-119.5" font-family="Helvetica,sans-Serif" font-size="10.00">ostream</text>
</a>
</g>
</g>
<!-- Node6&#45;&gt;Node7 -->
<g id="edge9" class="edge">
<title>Node6&#45;&gt;Node7</title>
<path fill="none" stroke="midnightblue" d="M282.5,-168.08C282.5,-161.01 282.5,-150.86 282.5,-141.99"/>
<polygon fill="midnightblue" stroke="midnightblue" points="286,-141.75 282.5,-131.75 279,-141.75 286,-141.75"/>
</g>
<!-- Node6&#45;&gt;Node8 -->
<g id="edge11" class="edge">
<title>Node6&#45;&gt;Node8</title>
<path fill="none" stroke="midnightblue" d="M311.34,-168.44C342.36,-159.24 391.83,-144.56 426.12,-134.39"/>
<polygon fill="midnightblue" stroke="midnightblue" points="427.21,-137.72 435.8,-131.52 425.21,-131.01 427.21,-137.72"/>
</g>
<!-- Node12 -->
<g id="node12" class="node">
<title>Node12</title>
<g id="a_node12"><a xlink:href="lharmony__PitchUtils_8h.html" target="_top" xlink:title="This file contains miscellaneous pitch utilities.">
<polygon fill="white" stroke="black" points="280,-56.5 280,-75.5 453,-75.5 453,-56.5 280,-56.5"/>
<text text-anchor="middle" x="366.5" y="-63.5" font-family="Helvetica,sans-Serif" font-size="10.00">lharmony/lharmony_PitchUtils.h</text>
</a>
</g>
</g>
<!-- Node6&#45;&gt;Node12 -->
<g id="edge22" class="edge">
<title>Node6&#45;&gt;Node12</title>
<path fill="none" stroke="midnightblue" d="M290.04,-168.17C297.63,-159.19 309.62,-144.81 319.5,-132 331.82,-116.03 345.25,-97.32 354.58,-84.09"/>
<polygon fill="midnightblue" stroke="midnightblue" points="357.7,-85.73 360.58,-75.54 351.97,-81.71 357.7,-85.73"/>
</g>
<!-- Node8&#45;&gt;Node2 -->
<g id="edge15" class="edge">
<title>Node8&#45;&gt;Node2</title>
<path fill="none" stroke="midnightblue" d="M401.45,-112.48C362.56,-105.75 312.28,-94.36 270.5,-76 241.26,-63.15 211.49,-41.01 193.26,-26.18"/>
<polygon fill="midnightblue" stroke="midnightblue" points="195.22,-23.26 185.29,-19.57 190.75,-28.65 195.22,-23.26"/>
</g>
<!-- Node9 -->
<g id="node9" class="node">
<title>Node9</title>
<g id="a_node9"><a xlink:title=" ">
<polygon fill="white" stroke="#bfbfbf" points="562.5,-0.5 562.5,-19.5 604.5,-19.5 604.5,-0.5 562.5,-0.5"/>
<text text-anchor="middle" x="583.5" y="-7.5" font-family="Helvetica,sans-Serif" font-size="10.00">array</text>
</a>
</g>
</g>
<!-- Node8&#45;&gt;Node9 -->
<g id="edge12" class="edge">
<title>Node8&#45;&gt;Node9</title>
<path fill="none" stroke="midnightblue" d="M525.32,-112.47C567.51,-105.17 618.4,-93.1 631.5,-76 644.62,-58.87 624.64,-38.86 606.61,-25.61"/>
<polygon fill="midnightblue" stroke="midnightblue" points="608.27,-22.51 598.06,-19.69 604.29,-28.26 608.27,-22.51"/>
</g>
<!-- Node10 -->
<g id="node10" class="node">
<title>Node10</title>
<g id="a_node10"><a xlink:title=" ">
<polygon fill="white" stroke="#bfbfbf" points="471,-56.5 471,-75.5 544,-75.5 544,-56.5 471,-56.5"/>
<text text-anchor="middle" x="507.5" y="-63.5" font-family="Helvetica,sans-Serif" font-size="10.00">string_view</text>
</a>
</g>
</g>
<!-- Node8&#45;&gt;Node10 -->
<g id="edge13" class="edge">
<title>Node8&#45;&gt;Node10</title>
<path fill="none" stroke="midnightblue" d="M471.6,-112.08C477.74,-104.38 486.77,-93.03 494.24,-83.65"/>
<polygon fill="midnightblue" stroke="midnightblue" points="497.04,-85.75 500.53,-75.75 491.56,-81.39 497.04,-85.75"/>
</g>
<!-- Node11 -->
<g id="node11" class="node">
<title>Node11</title>
<g id="a_node11"><a xlink:title=" ">
<polygon fill="white" stroke="#bfbfbf" points="562.5,-56.5 562.5,-75.5 622.5,-75.5 622.5,-56.5 562.5,-56.5"/>
<text text-anchor="middle" x="592.5" y="-63.5" font-family="Helvetica,sans-Serif" font-size="10.00">iostream</text>
</a>
</g>
</g>
<!-- Node8&#45;&gt;Node11 -->
<g id="edge14" class="edge">
<title>Node8&#45;&gt;Node11</title>
<path fill="none" stroke="midnightblue" d="M484.78,-112.44C505.85,-103.56 539.02,-89.56 562.99,-79.45"/>
<polygon fill="midnightblue" stroke="midnightblue" points="564.46,-82.63 572.31,-75.52 561.74,-76.18 564.46,-82.63"/>
</g>
<!-- Node8&#45;&gt;Node12 -->
<g id="edge16" class="edge">
<title>Node8&#45;&gt;Node12</title>
<path fill="none" stroke="midnightblue" d="M448.75,-112.32C433.18,-103.74 409.12,-90.49 391.04,-80.52"/>
<polygon fill="midnightblue" stroke="midnightblue" points="392.65,-77.42 382.21,-75.65 389.28,-83.55 392.65,-77.42"/>
</g>
<!-- Node12&#45;&gt;Node2 -->
<g id="edge21" class="edge">
<title>Node12&#45;&gt;Node2</title>
<path fill="none" stroke="midnightblue" d="M336.24,-56.44C303.54,-47.2 251.32,-32.44 215.32,-22.26"/>
<polygon fill="midnightblue" stroke="midnightblue" points="216.2,-18.87 205.62,-19.52 214.29,-25.61 216.2,-18.87"/>
</g>
<!-- Node12&#45;&gt;Node9 -->
<g id="edge17" class="edge">
<title>Node12&#45;&gt;Node9</title>
<path fill="none" stroke="midnightblue" d="M400.88,-56.44C442.66,-46.05 512.52,-28.66 552.64,-18.68"/>
<polygon fill="midnightblue" stroke="midnightblue" points="553.54,-22.06 562.4,-16.25 551.85,-15.27 553.54,-22.06"/>
</g>
<!-- Node13 -->
<g id="node13" class="node">
<title>Node13</title>
<g id="a_node13"><a xlink:title=" ">
<polygon fill="white" stroke="#bfbfbf" points="272.5,-0.5 272.5,-19.5 324.5,-19.5 324.5,-0.5 272.5,-0.5"/>
<text text-anchor="middle" x="298.5" y="-7.5" font-family="Helvetica,sans-Serif" font-size="10.00">cassert</text>
</a>
</g>
</g>
<!-- Node12&#45;&gt;Node13 -->
<g id="edge18" class="edge">
<title>Node12&#45;&gt;Node13</title>
<path fill="none" stroke="midnightblue" d="M355.57,-56.32C345.33,-48.18 329.78,-35.84 317.5,-26.09"/>
<polygon fill="midnightblue" stroke="midnightblue" points="319.63,-23.31 309.62,-19.83 315.28,-28.79 319.63,-23.31"/>
</g>
<!-- Node14 -->
<g id="node14" class="node">
<title>Node14</title>
<g id="a_node14"><a xlink:title=" ">
<polygon fill="white" stroke="#bfbfbf" points="343,-0.5 343,-19.5 412,-19.5 412,-0.5 343,-0.5"/>
<text text-anchor="middle" x="377.5" y="-7.5" font-family="Helvetica,sans-Serif" font-size="10.00">type_traits</text>
</a>
</g>
</g>
<!-- Node12&#45;&gt;Node14 -->
<g id="edge19" class="edge">
<title>Node12&#45;&gt;Node14</title>
<path fill="none" stroke="midnightblue" d="M368.32,-56.08C369.77,-48.93 371.87,-38.64 373.69,-29.69"/>
<polygon fill="midnightblue" stroke="midnightblue" points="377.15,-30.25 375.72,-19.75 370.29,-28.85 377.15,-30.25"/>
</g>
<!-- Node15 -->
<g id="node15" class="node">
<title>Node15</title>
<g id="a_node15"><a xlink:title=" ">
<polygon fill="white" stroke="#bfbfbf" points="430,-0.5 430,-19.5 477,-19.5 477,-0.5 430,-0.5"/>
<text text-anchor="middle" x="453.5" y="-7.5" font-family="Helvetica,sans-Serif" font-size="10.00">cmath</text>
</a>
</g>
</g>
<!-- Node12&#45;&gt;Node15 -->
<g id="edge20" class="edge">
<title>Node12&#45;&gt;Node15</title>
<path fill="none" stroke="midnightblue" d="M380.48,-56.32C394.05,-47.9 414.88,-34.97 430.82,-25.07"/>
<polygon fill="midnightblue" stroke="midnightblue" points="432.91,-27.9 439.56,-19.65 429.21,-21.95 432.91,-27.9"/>
</g>
</g>
</svg>
