<?xml version="1.0" encoding="UTF-8" standalone="no"?>
<!DOCTYPE svg PUBLIC "-//W3C//DTD SVG 1.1//EN"
 "http://www.w3.org/Graphics/SVG/1.1/DTD/svg11.dtd">
<!-- Generated by graphviz version 8.0.5 (20230430.1635)
 -->
<!-- Title: lharmony_KeySignatureConstants.h Pages: 1 -->
<svg width="604pt" height="370pt"
 viewBox="0.00 0.00 603.64 370.00" xmlns="http://www.w3.org/2000/svg" xmlns:xlink="http://www.w3.org/1999/xlink">
<g id="graph0" class="graph" transform="scale(1 1) rotate(0) translate(4 366)">
<title>lharmony_KeySignatureConstants.h</title>
<!-- Node1 -->
<g id="Node000001" class="node">
<title>Node1</title>
<g id="a_Node000001"><a xlink:title="This file contains some useful predefined key signatures.">
<polygon fill="#999999" stroke="#666666" points="172.75,-362 0,-362 0,-342.75 172.75,-342.75 172.75,-362"/>
<text text-anchor="middle" x="86.38" y="-348.5" font-family="Helvetica,sans-Serif" font-size="10.00">lharmony_KeySignatureConstants.h</text>
</a>
</g>
</g>
<!-- Node2 -->
<g id="Node000002" class="node">
<title>Node2</title>
<g id="a_Node000002"><a xlink:title=" ">
<polygon fill="#e0e0e0" stroke="#999999" points="238.62,-19.25 98.12,-19.25 98.12,0 238.62,0 238.62,-19.25"/>
<text text-anchor="middle" x="168.38" y="-5.75" font-family="Helvetica,sans-Serif" font-size="10.00">lharmony/lharmony_Export.h</text>
</a>
</g>
</g>
<!-- Node1&#45;&gt;Node2 -->
<g id="edge1_Node000001_Node000002" class="edge">
<title>Node1&#45;&gt;Node2</title>
<g id="a_edge1_Node000001_Node000002"><a xlink:title=" ">
<path fill="none" stroke="#63b8ff" d="M78.35,-342.35C62.87,-323.98 30.38,-280.29 30.38,-237.25 30.38,-237.25 30.38,-237.25 30.38,-119.12 30.38,-69.36 86.52,-38.94 127.18,-23.43"/>
<polygon fill="#63b8ff" stroke="#63b8ff" points="128.2,-26.42 136.41,-19.71 125.81,-19.84 128.2,-26.42"/>
</a>
</g>
</g>
<!-- Node3 -->
<g id="Node000003" class="node">
<title>Node3</title>
<g id="a_Node000003"><a xlink:href="lharmony___key_signature_8h.html" target="_top" xlink:title="This file defines the KeySignature scale class.">
<polygon fill="white" stroke="#666666" points="257.62,-306.75 87.12,-306.75 87.12,-287.5 257.62,-287.5 257.62,-306.75"/>
<text text-anchor="middle" x="172.38" y="-293.25" font-family="Helvetica,sans-Serif" font-size="10.00">lharmony/lharmony_KeySignature.h</text>
</a>
</g>
</g>
<!-- Node1&#45;&gt;Node3 -->
<g id="edge2_Node000001_Node000003" class="edge">
<title>Node1&#45;&gt;Node3</title>
<g id="a_edge2_Node000001_Node000003"><a xlink:title=" ">
<path fill="none" stroke="#63b8ff" d="M100.96,-342.34C113.94,-334.31 133.15,-322.41 148.39,-312.98"/>
<polygon fill="#63b8ff" stroke="#63b8ff" points="150.06,-315.44 156.71,-307.2 146.37,-309.49 150.06,-315.44"/>
</a>
</g>
</g>
<!-- Node3&#45;&gt;Node2 -->
<g id="edge4_Node000003_Node000002" class="edge">
<title>Node3&#45;&gt;Node2</title>
<g id="a_edge4_Node000003_Node000002"><a xlink:title=" ">
<path fill="none" stroke="#63b8ff" d="M155.67,-287.06C126.27,-269.74 68.38,-228.97 68.38,-176.38 68.38,-176.38 68.38,-176.38 68.38,-119.12 68.38,-76.09 111.45,-42.81 141.05,-25.01"/>
<polygon fill="#63b8ff" stroke="#63b8ff" points="142.57,-27.6 149.5,-19.58 139.08,-21.53 142.57,-27.6"/>
</a>
</g>
</g>
<!-- Node4 -->
<g id="Node000004" class="node">
<title>Node4</title>
<g id="a_Node000004"><a xlink:title=" ">
<polygon fill="#e0e0e0" stroke="#999999" points="139.88,-185 96.88,-185 96.88,-165.75 139.88,-165.75 139.88,-185"/>
<text text-anchor="middle" x="118.38" y="-171.5" font-family="Helvetica,sans-Serif" font-size="10.00">vector</text>
</a>
</g>
</g>
<!-- Node3&#45;&gt;Node4 -->
<g id="edge3_Node000003_Node000004" class="edge">
<title>Node3&#45;&gt;Node4</title>
<g id="a_edge3_Node000003_Node000004"><a xlink:title=" ">
<path fill="none" stroke="#63b8ff" d="M158.67,-287.32C147.62,-279.39 132.75,-266.68 125.38,-251.5 116.89,-234.04 115.89,-211.61 116.54,-195.82"/>
<polygon fill="#63b8ff" stroke="#63b8ff" points="120.08,-196.46 117.27,-186.24 113.09,-195.97 120.08,-196.46"/>
</a>
</g>
</g>
<!-- Node5 -->
<g id="Node000005" class="node">
<title>Node5</title>
<g id="a_Node000005"><a xlink:href="lharmony___scale_8h.html" target="_top" xlink:title="This file defines the Scale class.">
<polygon fill="white" stroke="#666666" points="270.75,-245.88 134,-245.88 134,-226.62 270.75,-226.62 270.75,-245.88"/>
<text text-anchor="middle" x="202.38" y="-232.38" font-family="Helvetica,sans-Serif" font-size="10.00">lharmony/lharmony_Scale.h</text>
</a>
</g>
</g>
<!-- Node3&#45;&gt;Node5 -->
<g id="edge5_Node000003_Node000005" class="edge">
<title>Node3&#45;&gt;Node5</title>
<g id="a_edge5_Node000003_Node000005"><a xlink:title=" ">
<path fill="none" stroke="#63b8ff" d="M176.93,-287.18C181.16,-278.88 187.59,-266.27 192.92,-255.8"/>
<polygon fill="#63b8ff" stroke="#63b8ff" points="196.35,-257.78 197.78,-247.28 190.12,-254.6 196.35,-257.78"/>
</a>
</g>
</g>
<!-- Node8 -->
<g id="Node000008" class="node">
<title>Node8</title>
<g id="a_Node000008"><a xlink:href="lharmony___pitch_class_8h.html" target="_top" xlink:title="This file defines the PitchClass class.">
<polygon fill="white" stroke="#666666" points="519.38,-129.75 359.38,-129.75 359.38,-110.5 519.38,-110.5 519.38,-129.75"/>
<text text-anchor="middle" x="439.38" y="-116.25" font-family="Helvetica,sans-Serif" font-size="10.00">lharmony/lharmony_PitchClass.h</text>
</a>
</g>
</g>
<!-- Node3&#45;&gt;Node8 -->
<g id="edge24_Node000003_Node000008" class="edge">
<title>Node3&#45;&gt;Node8</title>
<g id="a_edge24_Node000003_Node000008"><a xlink:title=" ">
<path fill="none" stroke="#63b8ff" d="M257.97,-291.59C321.56,-286.32 401,-275.11 423.38,-251.5 451.65,-221.66 448.04,-169.21 443.43,-140.78"/>
<polygon fill="#63b8ff" stroke="#63b8ff" points="446.73,-140.4 441.48,-131.2 439.85,-141.67 446.73,-140.4"/>
</a>
</g>
</g>
<!-- Node16 -->
<g id="Node000016" class="node">
<title>Node16</title>
<g id="a_Node000016"><a xlink:href="lharmony___key_signature__impl_8h.html" target="_top" xlink:title="This file contains implementation details for the KeySignature class.">
<polygon fill="white" stroke="#666666" points="414.12,-251.5 288.62,-251.5 288.62,-221 414.12,-221 414.12,-251.5"/>
<text text-anchor="start" x="296.62" y="-238" font-family="Helvetica,sans-Serif" font-size="10.00">./lharmony_KeySignature</text>
<text text-anchor="middle" x="351.38" y="-226.75" font-family="Helvetica,sans-Serif" font-size="10.00">_impl.h</text>
</a>
</g>
</g>
<!-- Node3&#45;&gt;Node16 -->
<g id="edge25_Node000003_Node000016" class="edge">
<title>Node3&#45;&gt;Node16</title>
<g id="a_edge25_Node000003_Node000016"><a xlink:title=" ">
<path fill="none" stroke="#63b8ff" d="M199.95,-287.05C225.61,-278.61 264.6,-265.79 296.58,-255.27"/>
<polygon fill="#63b8ff" stroke="#63b8ff" points="297.29,-258.39 305.7,-251.94 295.11,-251.74 297.29,-258.39"/>
</a>
</g>
</g>
<!-- Node5&#45;&gt;Node2 -->
<g id="edge7_Node000005_Node000002" class="edge">
<title>Node5&#45;&gt;Node2</title>
<g id="a_edge7_Node000005_Node000002"><a xlink:title=" ">
<path fill="none" stroke="#63b8ff" d="M201,-226.17C195.96,-192.86 178.42,-76.98 171.36,-30.32"/>
<polygon fill="#63b8ff" stroke="#63b8ff" points="174.69,-29.94 169.73,-20.58 167.77,-30.99 174.69,-29.94"/>
</a>
</g>
</g>
<!-- Node5&#45;&gt;Node4 -->
<g id="edge6_Node000005_Node000004" class="edge">
<title>Node5&#45;&gt;Node4</title>
<g id="a_edge6_Node000005_Node000004"><a xlink:title=" ">
<path fill="none" stroke="#63b8ff" d="M189.62,-226.31C176.42,-217.06 155.57,-202.45 139.83,-191.42"/>
<polygon fill="#63b8ff" stroke="#63b8ff" points="142.45,-188.27 132.25,-185.4 138.43,-194.01 142.45,-188.27"/>
</a>
</g>
</g>
<!-- Node6 -->
<g id="Node000006" class="node">
<title>Node6</title>
<g id="a_Node000006"><a xlink:href="lharmony___pitch_8h.html" target="_top" xlink:title="This file defines the Pitch class.">
<polygon fill="white" stroke="#666666" points="338.62,-185 204.12,-185 204.12,-165.75 338.62,-165.75 338.62,-185"/>
<text text-anchor="middle" x="271.38" y="-171.5" font-family="Helvetica,sans-Serif" font-size="10.00">lharmony/lharmony_Pitch.h</text>
</a>
</g>
</g>
<!-- Node5&#45;&gt;Node6 -->
<g id="edge8_Node000005_Node000006" class="edge">
<title>Node5&#45;&gt;Node6</title>
<g id="a_edge8_Node000005_Node000006"><a xlink:title=" ">
<path fill="none" stroke="#63b8ff" d="M212.85,-226.31C223.39,-217.32 239.86,-203.26 252.65,-192.35"/>
<polygon fill="#63b8ff" stroke="#63b8ff" points="254.46,-194.55 259.8,-185.4 249.92,-189.23 254.46,-194.55"/>
</a>
</g>
</g>
<!-- Node5&#45;&gt;Node8 -->
<g id="edge23_Node000005_Node000008" class="edge">
<title>Node5&#45;&gt;Node8</title>
<g id="a_edge23_Node000005_Node000008"><a xlink:title=" ">
<path fill="none" stroke="#63b8ff" d="M236.85,-226.19C266.92,-217.62 311.27,-203.35 347.38,-185 374.24,-171.35 402.3,-150.81 420.25,-136.73"/>
<polygon fill="#63b8ff" stroke="#63b8ff" points="422.03,-139 427.67,-130.03 417.66,-133.53 422.03,-139"/>
</a>
</g>
</g>
<!-- Node6&#45;&gt;Node2 -->
<g id="edge10_Node000006_Node000002" class="edge">
<title>Node6&#45;&gt;Node2</title>
<g id="a_edge10_Node000006_Node000002"><a xlink:title=" ">
<path fill="none" stroke="#63b8ff" d="M263.73,-165.44C256.35,-156.63 245.05,-142.66 236.38,-129.75 213.33,-95.47 190.3,-52.96 177.84,-29.11"/>
<polygon fill="#63b8ff" stroke="#63b8ff" points="180.6,-27.83 172.9,-20.56 174.39,-31.05 180.6,-27.83"/>
</a>
</g>
</g>
<!-- Node7 -->
<g id="Node000007" class="node">
<title>Node7</title>
<g id="a_Node000007"><a xlink:title=" ">
<polygon fill="#e0e0e0" stroke="#999999" points="297,-129.75 245.75,-129.75 245.75,-110.5 297,-110.5 297,-129.75"/>
<text text-anchor="middle" x="271.38" y="-116.25" font-family="Helvetica,sans-Serif" font-size="10.00">ostream</text>
</a>
</g>
</g>
<!-- Node6&#45;&gt;Node7 -->
<g id="edge9_Node000006_Node000007" class="edge">
<title>Node6&#45;&gt;Node7</title>
<g id="a_edge9_Node000006_Node000007"><a xlink:title=" ">
<path fill="none" stroke="#63b8ff" d="M271.38,-165.58C271.38,-158.92 271.38,-149.49 271.38,-141.03"/>
<polygon fill="#63b8ff" stroke="#63b8ff" points="274.88,-141.11 271.38,-131.11 267.88,-141.11 274.88,-141.11"/>
</a>
</g>
</g>
<!-- Node6&#45;&gt;Node8 -->
<g id="edge11_Node000006_Node000008" class="edge">
<title>Node6&#45;&gt;Node8</title>
<g id="a_edge11_Node000006_Node000008"><a xlink:title=" ">
<path fill="none" stroke="#63b8ff" d="M299.87,-165.34C327.51,-156.58 369.65,-143.23 400.38,-133.48"/>
<polygon fill="#63b8ff" stroke="#63b8ff" points="401.26,-136.56 409.74,-130.2 399.15,-129.89 401.26,-136.56"/>
</a>
</g>
</g>
<!-- Node12 -->
<g id="Node000012" class="node">
<title>Node12</title>
<g id="a_Node000012"><a xlink:href="lharmony___pitch_utils_8h.html" target="_top" xlink:title="This file contains miscellaneous pitch utilities.">
<polygon fill="white" stroke="#666666" points="426.75,-74.5 272,-74.5 272,-55.25 426.75,-55.25 426.75,-74.5"/>
<text text-anchor="middle" x="349.38" y="-61" font-family="Helvetica,sans-Serif" font-size="10.00">lharmony/lharmony_PitchUtils.h</text>
</a>
</g>
</g>
<!-- Node6&#45;&gt;Node12 -->
<g id="edge22_Node000006_Node000012" class="edge">
<title>Node6&#45;&gt;Node12</title>
<g id="a_edge22_Node000006_Node000012"><a xlink:title=" ">
<path fill="none" stroke="#63b8ff" d="M278.81,-165.29C286.04,-156.38 297.22,-142.33 306.38,-129.75 317.42,-114.57 329.29,-96.82 337.75,-83.89"/>
<polygon fill="#63b8ff" stroke="#63b8ff" points="341.21,-85.98 343.73,-75.69 335.34,-82.17 341.21,-85.98"/>
</a>
</g>
</g>
<!-- Node8&#45;&gt;Node2 -->
<g id="edge15_Node000008_Node000002" class="edge">
<title>Node8&#45;&gt;Node2</title>
<g id="a_edge15_Node000008_Node000002"><a xlink:title=" ">
<path fill="none" stroke="#63b8ff" d="M383.44,-110.04C348.01,-103.06 301.8,-91.66 263.38,-74.5 234.97,-61.81 205.78,-40.75 187.38,-26.31"/>
<polygon fill="#63b8ff" stroke="#63b8ff" points="190.04,-23.15 180.04,-19.63 185.66,-28.61 190.04,-23.15"/>
</a>
</g>
</g>
<!-- Node9 -->
<g id="Node000009" class="node">
<title>Node9</title>
<g id="a_Node000009"><a xlink:title=" ">
<polygon fill="#e0e0e0" stroke="#999999" points="564.25,-19.25 526.5,-19.25 526.5,0 564.25,0 564.25,-19.25"/>
<text text-anchor="middle" x="545.38" y="-5.75" font-family="Helvetica,sans-Serif" font-size="10.00">array</text>
</a>
</g>
</g>
<!-- Node8&#45;&gt;Node9 -->
<g id="edge12_Node000008_Node000009" class="edge">
<title>Node8&#45;&gt;Node9</title>
<g id="a_edge12_Node000008_Node000009"><a xlink:title=" ">
<path fill="none" stroke="#63b8ff" d="M494.38,-110.08C532.9,-102.49 579.51,-90.35 591.38,-74.5 603.72,-58.01 585.58,-38.8 568.58,-25.78"/>
<polygon fill="#63b8ff" stroke="#63b8ff" points="571.12,-22.58 560.95,-19.59 567.03,-28.26 571.12,-22.58"/>
</a>
</g>
</g>
<!-- Node10 -->
<g id="Node000010" class="node">
<title>Node10</title>
<g id="a_Node000010"><a xlink:title=" ">
<polygon fill="#e0e0e0" stroke="#999999" points="510.12,-74.5 444.62,-74.5 444.62,-55.25 510.12,-55.25 510.12,-74.5"/>
<text text-anchor="middle" x="477.38" y="-61" font-family="Helvetica,sans-Serif" font-size="10.00">string_view</text>
</a>
</g>
</g>
<!-- Node8&#45;&gt;Node10 -->
<g id="edge13_Node000008_Node000010" class="edge">
<title>Node8&#45;&gt;Node10</title>
<g id="a_edge13_Node000008_Node000010"><a xlink:title=" ">
<path fill="none" stroke="#63b8ff" d="M445.65,-110.33C450.79,-103.13 458.23,-92.71 464.61,-83.76"/>
<polygon fill="#63b8ff" stroke="#63b8ff" points="468,-86.03 470.96,-75.86 462.31,-81.97 468,-86.03"/>
</a>
</g>
</g>
<!-- Node11 -->
<g id="Node000011" class="node">
<title>Node11</title>
<g id="a_Node000011"><a xlink:title=" ">
<polygon fill="#e0e0e0" stroke="#999999" points="582.12,-74.5 528.62,-74.5 528.62,-55.25 582.12,-55.25 582.12,-74.5"/>
<text text-anchor="middle" x="555.38" y="-61" font-family="Helvetica,sans-Serif" font-size="10.00">iostream</text>
</a>
</g>
</g>
<!-- Node8&#45;&gt;Node11 -->
<g id="edge14_Node000008_Node000011" class="edge">
<title>Node8&#45;&gt;Node11</title>
<g id="a_edge14_Node000008_Node000011"><a xlink:title=" ">
<path fill="none" stroke="#63b8ff" d="M459.05,-110.09C477.3,-101.72 504.71,-89.13 525.63,-79.53"/>
<polygon fill="#63b8ff" stroke="#63b8ff" points="526.97,-82.31 534.6,-74.95 524.05,-75.94 526.97,-82.31"/>
</a>
</g>
</g>
<!-- Node8&#45;&gt;Node12 -->
<g id="edge16_Node000008_Node000012" class="edge">
<title>Node8&#45;&gt;Node12</title>
<g id="a_edge16_Node000008_Node000012"><a xlink:title=" ">
<path fill="none" stroke="#63b8ff" d="M424.11,-110.09C410.4,-101.98 390.04,-89.93 374.03,-80.46"/>
<polygon fill="#63b8ff" stroke="#63b8ff" points="376.11,-77.03 365.72,-74.95 372.54,-83.06 376.11,-77.03"/>
</a>
</g>
</g>
<!-- Node12&#45;&gt;Node2 -->
<g id="edge21_Node000012_Node000002" class="edge">
<title>Node12&#45;&gt;Node2</title>
<g id="a_edge21_Node000012_Node000002"><a xlink:title=" ">
<path fill="none" stroke="#63b8ff" d="M318.67,-54.84C288.64,-46.01 242.7,-32.49 209.52,-22.73"/>
<polygon fill="#63b8ff" stroke="#63b8ff" points="210.81,-19.17 200.23,-19.7 208.84,-25.88 210.81,-19.17"/>
</a>
</g>
</g>
<!-- Node12&#45;&gt;Node9 -->
<g id="edge17_Node000012_Node000009" class="edge">
<title>Node12&#45;&gt;Node9</title>
<g id="a_edge17_Node000012_Node000009"><a xlink:title=" ">
<path fill="none" stroke="#63b8ff" d="M382.62,-54.84C420.04,-44.68 480.24,-28.32 515.99,-18.61"/>
<polygon fill="#63b8ff" stroke="#63b8ff" points="516.52,-21.82 525.25,-15.82 514.68,-15.07 516.52,-21.82"/>
</a>
</g>
</g>
<!-- Node13 -->
<g id="Node000013" class="node">
<title>Node13</title>
<g id="a_Node000013"><a xlink:title=" ">
<polygon fill="#e0e0e0" stroke="#999999" points="304.5,-19.25 256.25,-19.25 256.25,0 304.5,0 304.5,-19.25"/>
<text text-anchor="middle" x="280.38" y="-5.75" font-family="Helvetica,sans-Serif" font-size="10.00">cassert</text>
</a>
</g>
</g>
<!-- Node12&#45;&gt;Node13 -->
<g id="edge18_Node000012_Node000013" class="edge">
<title>Node12&#45;&gt;Node13</title>
<g id="a_edge18_Node000012_Node000013"><a xlink:title=" ">
<path fill="none" stroke="#63b8ff" d="M337.67,-54.84C327.5,-46.99 312.54,-35.45 300.46,-26.12"/>
<polygon fill="#63b8ff" stroke="#63b8ff" points="302.96,-22.86 292.91,-19.52 298.69,-28.41 302.96,-22.86"/>
</a>
</g>
</g>
<!-- Node14 -->
<g id="Node000014" class="node">
<title>Node14</title>
<g id="a_Node000014"><a xlink:title=" ">
<polygon fill="#e0e0e0" stroke="#999999" points="384.25,-19.25 322.5,-19.25 322.5,0 384.25,0 384.25,-19.25"/>
<text text-anchor="middle" x="353.38" y="-5.75" font-family="Helvetica,sans-Serif" font-size="10.00">type_traits</text>
</a>
</g>
</g>
<!-- Node12&#45;&gt;Node14 -->
<g id="edge19_Node000012_Node000014" class="edge">
<title>Node12&#45;&gt;Node14</title>
<g id="a_edge19_Node000012_Node000014"><a xlink:title=" ">
<path fill="none" stroke="#63b8ff" d="M350.04,-55.08C350.54,-48.42 351.24,-38.99 351.88,-30.53"/>
<polygon fill="#63b8ff" stroke="#63b8ff" points="355.44,-30.84 352.7,-20.61 348.46,-30.32 355.44,-30.84"/>
</a>
</g>
</g>
<!-- Node15 -->
<g id="Node000015" class="node">
<title>Node15</title>
<g id="a_Node000015"><a xlink:title=" ">
<polygon fill="#e0e0e0" stroke="#999999" points="444.88,-19.25 401.88,-19.25 401.88,0 444.88,0 444.88,-19.25"/>
<text text-anchor="middle" x="423.38" y="-5.75" font-family="Helvetica,sans-Serif" font-size="10.00">cmath</text>
</a>
</g>
</g>
<!-- Node12&#45;&gt;Node15 -->
<g id="edge20_Node000012_Node000015" class="edge">
<title>Node12&#45;&gt;Node15</title>
<g id="a_edge20_Node000012_Node000015"><a xlink:title=" ">
<path fill="none" stroke="#63b8ff" d="M361.93,-54.84C372.94,-46.91 389.19,-35.22 402.22,-25.85"/>
<polygon fill="#63b8ff" stroke="#63b8ff" points="403.93,-28.21 410.01,-19.52 399.85,-22.52 403.93,-28.21"/>
</a>
</g>
</g>
</g>
</svg>
