<?xml version="1.0" encoding="UTF-8" standalone="no"?>
<!DOCTYPE svg PUBLIC "-//W3C//DTD SVG 1.1//EN"
 "http://www.w3.org/Graphics/SVG/1.1/DTD/svg11.dtd">
<!-- Generated by graphviz version 8.0.5 (20230430.1635)
 -->
<!-- Title: lharmony_PitchUtils.h Pages: 1 -->
<svg width="1343pt" height="359pt"
 viewBox="0.00 0.00 1343.06 358.75" xmlns="http://www.w3.org/2000/svg" xmlns:xlink="http://www.w3.org/1999/xlink">
<g id="graph0" class="graph" transform="scale(1 1) rotate(0) translate(4 354.75)">
<title>lharmony_PitchUtils.h</title>
<!-- Node1 -->
<g id="Node000001" class="node">
<title>Node1</title>
<g id="a_Node000001"><a xlink:title="This file contains miscellaneous pitch utilities.">
<polygon fill="#999999" stroke="#666666" points="656.03,-350.75 544.03,-350.75 544.03,-331.5 656.03,-331.5 656.03,-350.75"/>
<text text-anchor="middle" x="600.03" y="-337.25" font-family="Helvetica,sans-Serif" font-size="10.00">lharmony_PitchUtils.h</text>
</a>
</g>
</g>
<!-- Node2 -->
<g id="Node000002" class="node">
<title>Node2</title>
<g id="a_Node000002"><a xlink:href="lharmony_8h_source.html" target="_top" xlink:title=" ">
<polygon fill="white" stroke="#666666" points="711.28,-19.25 648.78,-19.25 648.78,0 711.28,0 711.28,-19.25"/>
<text text-anchor="middle" x="680.03" y="-5.75" font-family="Helvetica,sans-Serif" font-size="10.00">lharmony.h</text>
</a>
</g>
</g>
<!-- Node1&#45;&gt;Node2 -->
<g id="edge1_Node000001_Node000002" class="edge">
<title>Node1&#45;&gt;Node2</title>
<g id="a_edge1_Node000001_Node000002"><a xlink:title=" ">
<path fill="none" stroke="#63b8ff" d="M532.8,-334.93C376.34,-321.93 1.03,-285.16 1.03,-231.62 1.03,-231.62 1.03,-231.62 1.03,-119.12 1.03,-89.51 -3.1,-73.75 20.03,-55.25 69.47,-15.71 523.39,-11.18 648.33,-10.68"/>
<polygon fill="#63b8ff" stroke="#63b8ff" points="532.43,-338.49 542.68,-335.82 533,-331.51 532.43,-338.49"/>
</a>
</g>
</g>
<!-- Node3 -->
<g id="Node000003" class="node">
<title>Node3</title>
<g id="a_Node000003"><a xlink:href="lharmony___pitch_8h.html" target="_top" xlink:title="This file defines the Pitch class.">
<polygon fill="white" stroke="#666666" points="645.91,-240.25 554.16,-240.25 554.16,-221 645.91,-221 645.91,-240.25"/>
<text text-anchor="middle" x="600.03" y="-226.75" font-family="Helvetica,sans-Serif" font-size="10.00">lharmony_Pitch.h</text>
</a>
</g>
</g>
<!-- Node1&#45;&gt;Node3 -->
<g id="edge2_Node000001_Node000003" class="edge">
<title>Node1&#45;&gt;Node3</title>
<g id="a_edge2_Node000001_Node000003"><a xlink:title=" ">
<path fill="none" stroke="#63b8ff" d="M600.03,-320.43C600.03,-296.76 600.03,-258.05 600.03,-240.63"/>
<polygon fill="#63b8ff" stroke="#63b8ff" points="596.53,-320.25 600.03,-330.25 603.53,-320.25 596.53,-320.25"/>
</a>
</g>
</g>
<!-- Node17 -->
<g id="Node000017" class="node">
<title>Node17</title>
<g id="a_Node000017"><a xlink:href="lharmony___pitch_class_8h.html" target="_top" xlink:title="This file defines the PitchClass class.">
<polygon fill="white" stroke="#666666" points="1000.66,-295.5 883.41,-295.5 883.41,-276.25 1000.66,-276.25 1000.66,-295.5"/>
<text text-anchor="middle" x="942.03" y="-282" font-family="Helvetica,sans-Serif" font-size="10.00">lharmony_PitchClass.h</text>
</a>
</g>
</g>
<!-- Node1&#45;&gt;Node17 -->
<g id="edge32_Node000001_Node000017" class="edge">
<title>Node1&#45;&gt;Node17</title>
<g id="a_edge32_Node000001_Node000017"><a xlink:title=" ">
<path fill="none" stroke="#63b8ff" d="M667.12,-329.68C730.12,-319.87 823.41,-305.34 883.47,-295.99"/>
<polygon fill="#63b8ff" stroke="#63b8ff" points="666.85,-326.33 657.51,-331.33 667.93,-333.25 666.85,-326.33"/>
</a>
</g>
</g>
<!-- Node3&#45;&gt;Node2 -->
<g id="edge3_Node000003_Node000002" class="edge">
<title>Node3&#45;&gt;Node2</title>
<g id="a_edge3_Node000003_Node000002"><a xlink:title=" ">
<path fill="none" stroke="#63b8ff" d="M604.45,-210.28C612.27,-177.52 630.02,-109.44 654.03,-55.25 659.77,-42.3 668.33,-28.33 674.04,-19.54"/>
<polygon fill="#63b8ff" stroke="#63b8ff" points="600.89,-209.12 602.02,-219.65 607.71,-210.71 600.89,-209.12"/>
</a>
</g>
</g>
<!-- Node4 -->
<g id="Node000004" class="node">
<title>Node4</title>
<g id="a_Node000004"><a xlink:href="lharmony___chord_8h.html" target="_top" xlink:title="This file defines the Chord class.">
<polygon fill="white" stroke="#666666" points="723.78,-185 628.28,-185 628.28,-165.75 723.78,-165.75 723.78,-185"/>
<text text-anchor="middle" x="676.03" y="-171.5" font-family="Helvetica,sans-Serif" font-size="10.00">lharmony_Chord.h</text>
</a>
</g>
</g>
<!-- Node3&#45;&gt;Node4 -->
<g id="edge4_Node000003_Node000004" class="edge">
<title>Node3&#45;&gt;Node4</title>
<g id="a_edge4_Node000003_Node000004"><a xlink:title=" ">
<path fill="none" stroke="#63b8ff" d="M621.93,-214.28C635.25,-204.95 651.81,-193.35 663.08,-185.45"/>
<polygon fill="#63b8ff" stroke="#63b8ff" points="620.11,-211.99 613.93,-220.59 624.12,-217.72 620.11,-211.99"/>
</a>
</g>
</g>
<!-- Node5 -->
<g id="Node000005" class="node">
<title>Node5</title>
<g id="a_Node000005"><a xlink:href="lharmony___interval_8h.html" target="_top" xlink:title="This file defines the Interval class.">
<polygon fill="white" stroke="#666666" points="408.78,-129.75 307.28,-129.75 307.28,-110.5 408.78,-110.5 408.78,-129.75"/>
<text text-anchor="middle" x="358.03" y="-116.25" font-family="Helvetica,sans-Serif" font-size="10.00">lharmony_Interval.h</text>
</a>
</g>
</g>
<!-- Node3&#45;&gt;Node5 -->
<g id="edge6_Node000003_Node000005" class="edge">
<title>Node3&#45;&gt;Node5</title>
<g id="a_edge6_Node000003_Node000005"><a xlink:title=" ">
<path fill="none" stroke="#63b8ff" d="M543.18,-224.39C505.32,-218.91 455.63,-207.73 417.03,-185 393.1,-170.91 373.09,-144.07 363.73,-130.1"/>
<polygon fill="#63b8ff" stroke="#63b8ff" points="542.64,-227.99 553.02,-225.86 543.58,-221.05 542.64,-227.99"/>
</a>
</g>
</g>
<!-- Node8 -->
<g id="Node000008" class="node">
<title>Node8</title>
<g id="a_Node000008"><a xlink:href="lharmony___overtone_series_8h.html" target="_top" xlink:title="This file defines the OvertoneSeries class.">
<polygon fill="white" stroke="#666666" points="165.41,-74.5 28.66,-74.5 28.66,-55.25 165.41,-55.25 165.41,-74.5"/>
<text text-anchor="middle" x="97.03" y="-61" font-family="Helvetica,sans-Serif" font-size="10.00">lharmony_OvertoneSeries.h</text>
</a>
</g>
</g>
<!-- Node3&#45;&gt;Node8 -->
<g id="edge16_Node000003_Node000008" class="edge">
<title>Node3&#45;&gt;Node8</title>
<g id="a_edge16_Node000003_Node000008"><a xlink:title=" ">
<path fill="none" stroke="#63b8ff" d="M542.95,-220.41C500.1,-212.81 440.23,-200.72 389.03,-185 282.78,-152.38 161.43,-96.59 115.74,-74.88"/>
<polygon fill="#63b8ff" stroke="#63b8ff" points="542.29,-224.02 552.74,-222.29 543.49,-217.13 542.29,-224.02"/>
</a>
</g>
</g>
<!-- Node9 -->
<g id="Node000009" class="node">
<title>Node9</title>
<g id="a_Node000009"><a xlink:href="lharmony___microtonal_interval_8h.html" target="_top" xlink:title="This file defines the MicrotonalInterval class.">
<polygon fill="white" stroke="#666666" points="572.28,-185 425.78,-185 425.78,-165.75 572.28,-165.75 572.28,-185"/>
<text text-anchor="middle" x="499.03" y="-171.5" font-family="Helvetica,sans-Serif" font-size="10.00">lharmony_MicrotonalInterval.h</text>
</a>
</g>
</g>
<!-- Node3&#45;&gt;Node9 -->
<g id="edge14_Node000003_Node000009" class="edge">
<title>Node3&#45;&gt;Node9</title>
<g id="a_edge14_Node000003_Node000009"><a xlink:title=" ">
<path fill="none" stroke="#63b8ff" d="M573.23,-215.49C555.17,-205.97 531.88,-193.69 516.25,-185.45"/>
<polygon fill="#63b8ff" stroke="#63b8ff" points="571.42,-219.02 581.9,-220.59 574.69,-212.83 571.42,-219.02"/>
</a>
</g>
</g>
<!-- Node10 -->
<g id="Node000010" class="node">
<title>Node10</title>
<g id="a_Node000010"><a xlink:href="lharmony___scale_8h.html" target="_top" xlink:title="This file defines the Scale class.">
<polygon fill="white" stroke="#666666" points="989.03,-185 895.03,-185 895.03,-165.75 989.03,-165.75 989.03,-185"/>
<text text-anchor="middle" x="942.03" y="-171.5" font-family="Helvetica,sans-Serif" font-size="10.00">lharmony_Scale.h</text>
</a>
</g>
</g>
<!-- Node3&#45;&gt;Node10 -->
<g id="edge17_Node000003_Node000010" class="edge">
<title>Node3&#45;&gt;Node10</title>
<g id="a_edge17_Node000003_Node000010"><a xlink:title=" ">
<path fill="none" stroke="#63b8ff" d="M656.87,-220.78C723.45,-210.41 832.55,-193.42 894.72,-183.74"/>
<polygon fill="#63b8ff" stroke="#63b8ff" points="656.5,-217.45 647.16,-222.44 657.58,-224.36 656.5,-217.45"/>
</a>
</g>
</g>
<!-- Node4&#45;&gt;Node2 -->
<g id="edge5_Node000004_Node000002" class="edge">
<title>Node4&#45;&gt;Node2</title>
<g id="a_edge5_Node000004_Node000002"><a xlink:title=" ">
<path fill="none" stroke="#63b8ff" d="M666.09,-155.68C662.47,-147.89 658.84,-138.61 657.03,-129.75 648.65,-88.68 667.2,-39.48 675.87,-19.6"/>
<polygon fill="#63b8ff" stroke="#63b8ff" points="663.39,-157.11 670.98,-164.49 669.65,-153.98 663.39,-157.11"/>
</a>
</g>
</g>
<!-- Node5&#45;&gt;Node2 -->
<g id="edge7_Node000005_Node000002" class="edge">
<title>Node5&#45;&gt;Node2</title>
<g id="a_edge7_Node000005_Node000002"><a xlink:title=" ">
<path fill="none" stroke="#63b8ff" d="M358.54,-99.33C360.02,-84.94 364.46,-66.14 377.03,-55.25 417.17,-20.48 579.14,-12.8 648.39,-11.1"/>
<polygon fill="#63b8ff" stroke="#63b8ff" points="355,-98.92 357.88,-109.12 361.98,-99.35 355,-98.92"/>
</a>
</g>
</g>
<!-- Node6 -->
<g id="Node000006" class="node">
<title>Node6</title>
<g id="a_Node000006"><a xlink:href="lharmony___compound_interval_8h.html" target="_top" xlink:title="This file defines the CompoundInterval class.">
<polygon fill="white" stroke="#666666" points="534.41,-74.5 385.66,-74.5 385.66,-55.25 534.41,-55.25 534.41,-74.5"/>
<text text-anchor="middle" x="460.03" y="-61" font-family="Helvetica,sans-Serif" font-size="10.00">lharmony_CompoundInterval.h</text>
</a>
</g>
</g>
<!-- Node5&#45;&gt;Node6 -->
<g id="edge8_Node000005_Node000006" class="edge">
<title>Node5&#45;&gt;Node6</title>
<g id="a_edge8_Node000005_Node000006"><a xlink:title=" ">
<path fill="none" stroke="#63b8ff" d="M384.85,-105.12C403.13,-95.58 426.79,-83.23 442.64,-74.95"/>
<polygon fill="#63b8ff" stroke="#63b8ff" points="383.58,-102.36 376.34,-110.09 386.82,-108.57 383.58,-102.36"/>
</a>
</g>
</g>
<!-- Node7 -->
<g id="Node000007" class="node">
<title>Node7</title>
<g id="a_Node000007"><a xlink:href="lharmony___interval_constants_8h.html" target="_top" xlink:title="This file provides some useful Interval objects as constants.">
<polygon fill="white" stroke="#666666" points="330.28,-74.5 183.78,-74.5 183.78,-55.25 330.28,-55.25 330.28,-74.5"/>
<text text-anchor="middle" x="257.03" y="-61" font-family="Helvetica,sans-Serif" font-size="10.00">lharmony_IntervalConstants.h</text>
</a>
</g>
</g>
<!-- Node5&#45;&gt;Node7 -->
<g id="edge10_Node000005_Node000007" class="edge">
<title>Node5&#45;&gt;Node7</title>
<g id="a_edge10_Node000005_Node000007"><a xlink:title=" ">
<path fill="none" stroke="#63b8ff" d="M331.23,-104.99C313.17,-95.47 289.88,-83.19 274.25,-74.95"/>
<polygon fill="#63b8ff" stroke="#63b8ff" points="329.42,-108.52 339.9,-110.09 332.69,-102.33 329.42,-108.52"/>
</a>
</g>
</g>
<!-- Node5&#45;&gt;Node8 -->
<g id="edge12_Node000005_Node000008" class="edge">
<title>Node5&#45;&gt;Node8</title>
<g id="a_edge12_Node000005_Node000008"><a xlink:title=" ">
<path fill="none" stroke="#63b8ff" d="M302.93,-107.88C254.86,-98.08 186.02,-84.03 141.42,-74.93"/>
<polygon fill="#63b8ff" stroke="#63b8ff" points="301.96,-111.46 312.46,-110.03 303.36,-104.6 301.96,-111.46"/>
</a>
</g>
</g>
<!-- Node6&#45;&gt;Node2 -->
<g id="edge9_Node000006_Node000002" class="edge">
<title>Node6&#45;&gt;Node2</title>
<g id="a_edge9_Node000006_Node000002"><a xlink:title=" ">
<path fill="none" stroke="#63b8ff" d="M507.78,-52.32C550.46,-41.99 611.8,-27.14 648.6,-18.23"/>
<polygon fill="#63b8ff" stroke="#63b8ff" points="507.25,-49.09 498.35,-54.84 508.9,-55.89 507.25,-49.09"/>
</a>
</g>
</g>
<!-- Node7&#45;&gt;Node2 -->
<g id="edge11_Node000007_Node000002" class="edge">
<title>Node7&#45;&gt;Node2</title>
<g id="a_edge11_Node000007_Node000002"><a xlink:title=" ">
<path fill="none" stroke="#63b8ff" d="M339.92,-53.44C434.23,-41.57 583.53,-22.77 648.31,-14.62"/>
<polygon fill="#63b8ff" stroke="#63b8ff" points="339.75,-50.06 330.27,-54.78 340.63,-57.01 339.75,-50.06"/>
</a>
</g>
</g>
<!-- Node8&#45;&gt;Node2 -->
<g id="edge13_Node000008_Node000002" class="edge">
<title>Node8&#45;&gt;Node2</title>
<g id="a_edge13_Node000008_Node000002"><a xlink:title=" ">
<path fill="none" stroke="#63b8ff" d="M176.3,-55.15C362.06,-36.78 570.34,-19.53 648.4,-13.18"/>
<polygon fill="#63b8ff" stroke="#63b8ff" points="176.11,-51.75 166.51,-56.22 176.8,-58.71 176.11,-51.75"/>
</a>
</g>
</g>
<!-- Node9&#45;&gt;Node2 -->
<g id="edge15_Node000009_Node000002" class="edge">
<title>Node9&#45;&gt;Node2</title>
<g id="a_edge15_Node000009_Node000002"><a xlink:title=" ">
<path fill="none" stroke="#63b8ff" d="M508.65,-155.87C522.7,-130.36 551,-84.26 586.03,-55.25 605.65,-39 632.17,-27.12 652.05,-19.72"/>
<polygon fill="#63b8ff" stroke="#63b8ff" points="505.17,-153.97 503.53,-164.43 511.34,-157.27 505.17,-153.97"/>
</a>
</g>
</g>
<!-- Node10&#45;&gt;Node2 -->
<g id="edge18_Node000010_Node000002" class="edge">
<title>Node10&#45;&gt;Node2</title>
<g id="a_edge18_Node000010_Node000002"><a xlink:title=" ">
<path fill="none" stroke="#63b8ff" d="M940.59,-154.54C938.61,-140.69 933.95,-122.58 923.03,-110.5 865.99,-47.39 763.09,-23.23 711.43,-14.76"/>
<polygon fill="#63b8ff" stroke="#63b8ff" points="937.2,-154.79 941.73,-164.36 944.16,-154.05 937.2,-154.79"/>
</a>
</g>
</g>
<!-- Node11 -->
<g id="Node000011" class="node">
<title>Node11</title>
<g id="a_Node000011"><a xlink:href="lharmony___chromatic_8h.html" target="_top" xlink:title="This file defines the Chromatic scale class.">
<polygon fill="white" stroke="#666666" points="1084.16,-129.75 969.91,-129.75 969.91,-110.5 1084.16,-110.5 1084.16,-129.75"/>
<text text-anchor="middle" x="1027.03" y="-116.25" font-family="Helvetica,sans-Serif" font-size="10.00">lharmony_Chromatic.h</text>
</a>
</g>
</g>
<!-- Node10&#45;&gt;Node11 -->
<g id="edge19_Node000010_Node000011" class="edge">
<title>Node10&#45;&gt;Node11</title>
<g id="a_edge19_Node000010_Node000011"><a xlink:title=" ">
<path fill="none" stroke="#63b8ff" d="M965.66,-159.57C980.7,-150.15 999.7,-138.25 1012.54,-130.2"/>
<polygon fill="#63b8ff" stroke="#63b8ff" points="964.07,-157.07 957.45,-165.34 967.78,-163 964.07,-157.07"/>
</a>
</g>
</g>
<!-- Node12 -->
<g id="Node000012" class="node">
<title>Node12</title>
<g id="a_Node000012"><a xlink:href="lharmony___key_signature_8h.html" target="_top" xlink:title="This file defines the KeySignature scale class.">
<polygon fill="white" stroke="#666666" points="1229.91,-129.75 1102.16,-129.75 1102.16,-110.5 1229.91,-110.5 1229.91,-129.75"/>
<text text-anchor="middle" x="1166.03" y="-116.25" font-family="Helvetica,sans-Serif" font-size="10.00">lharmony_KeySignature.h</text>
</a>
</g>
</g>
<!-- Node10&#45;&gt;Node12 -->
<g id="edge21_Node000010_Node000012" class="edge">
<title>Node10&#45;&gt;Node12</title>
<g id="a_edge21_Node000010_Node000012"><a xlink:title=" ">
<path fill="none" stroke="#63b8ff" d="M990.89,-162.76C1032.06,-152.97 1090.14,-139.17 1127.94,-130.18"/>
<polygon fill="#63b8ff" stroke="#63b8ff" points="990.2,-159.56 981.29,-165.28 991.82,-166.37 990.2,-159.56"/>
</a>
</g>
</g>
<!-- Node14 -->
<g id="Node000014" class="node">
<title>Node14</title>
<g id="a_Node000014"><a xlink:href="lharmony___mode_8h.html" target="_top" xlink:title="This file defines the Mode scale class.">
<polygon fill="white" stroke="#666666" points="1305.66,-74.5 1212.41,-74.5 1212.41,-55.25 1305.66,-55.25 1305.66,-74.5"/>
<text text-anchor="middle" x="1259.03" y="-61" font-family="Helvetica,sans-Serif" font-size="10.00">lharmony_Mode.h</text>
</a>
</g>
</g>
<!-- Node10&#45;&gt;Node14 -->
<g id="edge27_Node000010_Node000014" class="edge">
<title>Node10&#45;&gt;Node14</title>
<g id="a_edge27_Node000010_Node000014"><a xlink:title=" ">
<path fill="none" stroke="#63b8ff" d="M1000.28,-172.79C1076.4,-169.53 1204.12,-159.65 1239.03,-129.75 1255.27,-115.84 1258.5,-88.93 1259.03,-74.89"/>
<polygon fill="#63b8ff" stroke="#63b8ff" points="1000.3,-169.32 990.44,-173.22 1000.58,-176.32 1000.3,-169.32"/>
</a>
</g>
</g>
<!-- Node15 -->
<g id="Node000015" class="node">
<title>Node15</title>
<g id="a_Node000015"><a xlink:href="lharmony___octatonic_8h.html" target="_top" xlink:title="This file defines the Octatonic scale class.">
<polygon fill="white" stroke="#666666" points="777.66,-129.75 666.41,-129.75 666.41,-110.5 777.66,-110.5 777.66,-129.75"/>
<text text-anchor="middle" x="722.03" y="-116.25" font-family="Helvetica,sans-Serif" font-size="10.00">lharmony_Octatonic.h</text>
</a>
</g>
</g>
<!-- Node10&#45;&gt;Node15 -->
<g id="edge28_Node000010_Node000015" class="edge">
<title>Node10&#45;&gt;Node15</title>
<g id="a_edge28_Node000010_Node000015"><a xlink:title=" ">
<path fill="none" stroke="#63b8ff" d="M894.05,-162.76C853.64,-152.98 796.66,-139.19 759.54,-130.2"/>
<polygon fill="#63b8ff" stroke="#63b8ff" points="893.17,-166.39 903.71,-165.34 894.82,-159.59 893.17,-166.39"/>
</a>
</g>
</g>
<!-- Node16 -->
<g id="Node000016" class="node">
<title>Node16</title>
<g id="a_Node000016"><a xlink:href="lharmony___whole_tone_8h.html" target="_top" xlink:title="This file defines the WholeTone scale class.">
<polygon fill="white" stroke="#666666" points="914.03,-129.75 796.03,-129.75 796.03,-110.5 914.03,-110.5 914.03,-129.75"/>
<text text-anchor="middle" x="855.03" y="-116.25" font-family="Helvetica,sans-Serif" font-size="10.00">lharmony_WholeTone.h</text>
</a>
</g>
</g>
<!-- Node10&#45;&gt;Node16 -->
<g id="edge30_Node000010_Node000016" class="edge">
<title>Node10&#45;&gt;Node16</title>
<g id="a_edge30_Node000010_Node000016"><a xlink:title=" ">
<path fill="none" stroke="#63b8ff" d="M918.29,-159.84C902.83,-150.38 883.14,-138.33 869.86,-130.2"/>
<polygon fill="#63b8ff" stroke="#63b8ff" points="915.92,-163.11 926.27,-165.34 919.57,-157.14 915.92,-163.11"/>
</a>
</g>
</g>
<!-- Node11&#45;&gt;Node2 -->
<g id="edge20_Node000011_Node000002" class="edge">
<title>Node11&#45;&gt;Node2</title>
<g id="a_edge20_Node000011_Node000002"><a xlink:title=" ">
<path fill="none" stroke="#63b8ff" d="M1008.77,-103.41C990.56,-88.61 961.18,-67.01 932.03,-55.25 856.63,-24.82 760.26,-15.09 711.43,-12.02"/>
<polygon fill="#63b8ff" stroke="#63b8ff" points="1005.84,-106.35 1015.76,-110.06 1010.31,-100.97 1005.84,-106.35"/>
</a>
</g>
</g>
<!-- Node12&#45;&gt;Node2 -->
<g id="edge22_Node000012_Node000002" class="edge">
<title>Node12&#45;&gt;Node2</title>
<g id="a_edge22_Node000012_Node000002"><a xlink:title=" ">
<path fill="none" stroke="#63b8ff" d="M1121.35,-107.24C1090.66,-98.8 1049.1,-86.82 1013.03,-74.5 990.89,-66.94 986.61,-61.38 964.03,-55.25 874.2,-30.86 764.53,-18.32 711.6,-13.31"/>
<polygon fill="#63b8ff" stroke="#63b8ff" points="1120.16,-110.82 1130.73,-110.08 1122,-104.06 1120.16,-110.82"/>
</a>
</g>
</g>
<!-- Node13 -->
<g id="Node000013" class="node">
<title>Node13</title>
<g id="a_Node000013"><a xlink:href="lharmony___key_signature_constants_8h.html" target="_top" xlink:title="This file contains some useful predefined key signatures.">
<polygon fill="white" stroke="#666666" points="1194.41,-74.5 1021.66,-74.5 1021.66,-55.25 1194.41,-55.25 1194.41,-74.5"/>
<text text-anchor="middle" x="1108.03" y="-61" font-family="Helvetica,sans-Serif" font-size="10.00">lharmony_KeySignatureConstants.h</text>
</a>
</g>
</g>
<!-- Node12&#45;&gt;Node13 -->
<g id="edge23_Node000012_Node000013" class="edge">
<title>Node12&#45;&gt;Node13</title>
<g id="a_edge23_Node000012_Node000013"><a xlink:title=" ">
<path fill="none" stroke="#63b8ff" d="M1148.38,-102.91C1138.3,-93.67 1126.06,-82.43 1117.73,-74.77"/>
<polygon fill="#63b8ff" stroke="#63b8ff" points="1145.46,-104.91 1155.19,-109.09 1150.19,-99.75 1145.46,-104.91"/>
</a>
</g>
</g>
<!-- Node12&#45;&gt;Node14 -->
<g id="edge25_Node000012_Node000014" class="edge">
<title>Node12&#45;&gt;Node14</title>
<g id="a_edge25_Node000012_Node000014"><a xlink:title=" ">
<path fill="none" stroke="#63b8ff" d="M1190.95,-104.86C1207.55,-95.36 1228.86,-83.15 1243.18,-74.95"/>
<polygon fill="#63b8ff" stroke="#63b8ff" points="1189.75,-102.09 1182.81,-110.09 1193.23,-108.16 1189.75,-102.09"/>
</a>
</g>
</g>
<!-- Node13&#45;&gt;Node2 -->
<g id="edge24_Node000013_Node000002" class="edge">
<title>Node13&#45;&gt;Node2</title>
<g id="a_edge24_Node000013_Node000002"><a xlink:title=" ">
<path fill="none" stroke="#63b8ff" d="M1024.14,-53.44C928.46,-41.53 776.87,-22.67 711.61,-14.55"/>
<polygon fill="#63b8ff" stroke="#63b8ff" points="1023.59,-57.02 1033.94,-54.78 1024.45,-50.07 1023.59,-57.02"/>
</a>
</g>
</g>
<!-- Node14&#45;&gt;Node2 -->
<g id="edge26_Node000014_Node000002" class="edge">
<title>Node14&#45;&gt;Node2</title>
<g id="a_edge26_Node000014_Node000002"><a xlink:title=" ">
<path fill="none" stroke="#63b8ff" d="M1201.14,-55.11C1009.05,-32.49 791.69,-17.67 711.65,-12.57"/>
<polygon fill="#63b8ff" stroke="#63b8ff" points="1200.67,-58.69 1211.01,-56.4 1201.49,-51.74 1200.67,-58.69"/>
</a>
</g>
</g>
<!-- Node15&#45;&gt;Node2 -->
<g id="edge29_Node000015_Node000002" class="edge">
<title>Node15&#45;&gt;Node2</title>
<g id="a_edge29_Node000015_Node000002"><a xlink:title=" ">
<path fill="none" stroke="#63b8ff" d="M714.66,-100.08C705.52,-76.47 690.32,-37.21 683.52,-19.63"/>
<polygon fill="#63b8ff" stroke="#63b8ff" points="711.72,-101.18 718.6,-109.25 718.25,-98.66 711.72,-101.18"/>
</a>
</g>
</g>
<!-- Node16&#45;&gt;Node2 -->
<g id="edge31_Node000016_Node000002" class="edge">
<title>Node16&#45;&gt;Node2</title>
<g id="a_edge31_Node000016_Node000002"><a xlink:title=" ">
<path fill="none" stroke="#63b8ff" d="M831.39,-104.47C794.58,-81.64 724.66,-38.29 694.49,-19.59"/>
<polygon fill="#63b8ff" stroke="#63b8ff" points="829.07,-107.77 839.41,-110.06 832.76,-101.82 829.07,-107.77"/>
</a>
</g>
</g>
<!-- Node17&#45;&gt;Node2 -->
<g id="edge33_Node000017_Node000002" class="edge">
<title>Node17&#45;&gt;Node2</title>
<g id="a_edge33_Node000017_Node000002"><a xlink:title=" ">
<path fill="none" stroke="#63b8ff" d="M1012.07,-279.87C1124.82,-269.87 1334.03,-242.41 1334.03,-176.38 1334.03,-176.38 1334.03,-176.38 1334.03,-119.12 1334.03,-89.51 1338.14,-73.78 1315.03,-55.25 1267.67,-17.27 833.72,-11.61 711.77,-10.77"/>
<polygon fill="#63b8ff" stroke="#63b8ff" points="1011.81,-276.47 1002.14,-280.81 1012.41,-283.44 1011.81,-276.47"/>
</a>
</g>
</g>
<!-- Node17&#45;&gt;Node3 -->
<g id="edge38_Node000017_Node000003" class="edge">
<title>Node17&#45;&gt;Node3</title>
<g id="a_edge38_Node000017_Node000003"><a xlink:title=" ">
<path fill="none" stroke="#63b8ff" d="M873.1,-274.14C805.66,-263.64 704.8,-247.94 646.4,-238.84"/>
<polygon fill="#63b8ff" stroke="#63b8ff" points="872.21,-277.7 882.63,-275.78 873.29,-270.78 872.21,-277.7"/>
</a>
</g>
</g>
<!-- Node17&#45;&gt;Node10 -->
<g id="edge39_Node000017_Node000010" class="edge">
<title>Node17&#45;&gt;Node10</title>
<g id="a_edge39_Node000017_Node000010"><a xlink:title=" ">
<path fill="none" stroke="#63b8ff" d="M942.03,-265.18C942.03,-241.51 942.03,-202.8 942.03,-185.38"/>
<polygon fill="#63b8ff" stroke="#63b8ff" points="938.53,-265 942.03,-275 945.53,-265 938.53,-265"/>
</a>
</g>
</g>
<!-- Node17&#45;&gt;Node11 -->
<g id="edge34_Node000017_Node000011" class="edge">
<title>Node17&#45;&gt;Node11</title>
<g id="a_edge34_Node000017_Node000011"><a xlink:title=" ">
<path fill="none" stroke="#63b8ff" d="M952.91,-266.57C964.56,-246.73 983.34,-214.02 998.03,-185 1007.82,-165.66 1018.02,-142.33 1023.32,-129.91"/>
<polygon fill="#63b8ff" stroke="#63b8ff" points="949.46,-264.53 947.39,-274.93 955.49,-268.09 949.46,-264.53"/>
</a>
</g>
</g>
<!-- Node17&#45;&gt;Node12 -->
<g id="edge35_Node000017_Node000012" class="edge">
<title>Node17&#45;&gt;Node12</title>
<g id="a_edge35_Node000017_Node000012"><a xlink:title=" ">
<path fill="none" stroke="#63b8ff" d="M963.23,-269.38C1009.27,-235.72 1117.2,-156.83 1153.71,-130.13"/>
<polygon fill="#63b8ff" stroke="#63b8ff" points="961.4,-267.11 955.39,-275.84 965.53,-272.76 961.4,-267.11"/>
</a>
</g>
</g>
<!-- Node17&#45;&gt;Node14 -->
<g id="edge36_Node000017_Node000014" class="edge">
<title>Node17&#45;&gt;Node14</title>
<g id="a_edge36_Node000017_Node000014"><a xlink:title=" ">
<path fill="none" stroke="#63b8ff" d="M1008.89,-273.54C1084.58,-256.75 1204.43,-217.25 1259.03,-129.75 1269.6,-112.82 1265.31,-88.12 1261.83,-74.94"/>
<polygon fill="#63b8ff" stroke="#63b8ff" points="1008.56,-270.25 999.51,-275.77 1010.02,-277.09 1008.56,-270.25"/>
</a>
</g>
</g>
<!-- Node17&#45;&gt;Node15 -->
<g id="edge37_Node000017_Node000015" class="edge">
<title>Node17&#45;&gt;Node15</title>
<g id="a_edge37_Node000017_Node000015"><a xlink:title=" ">
<path fill="none" stroke="#63b8ff" d="M921.21,-269.38C875.99,-235.72 770,-156.83 734.14,-130.13"/>
<polygon fill="#63b8ff" stroke="#63b8ff" points="918.78,-272.67 928.89,-275.84 922.96,-267.06 918.78,-272.67"/>
</a>
</g>
</g>
<!-- Node17&#45;&gt;Node16 -->
<g id="edge40_Node000017_Node000016" class="edge">
<title>Node17&#45;&gt;Node16</title>
<g id="a_edge40_Node000017_Node000016"><a xlink:title=" ">
<path fill="none" stroke="#63b8ff" d="M931.3,-266.5C919.77,-246.6 901.09,-213.83 886.03,-185 875.87,-165.55 864.85,-142.27 859.08,-129.88"/>
<polygon fill="#63b8ff" stroke="#63b8ff" points="928.7,-268 936.76,-274.88 934.75,-264.48 928.7,-268"/>
</a>
</g>
</g>
</g>
</svg>
