<?xml version="1.0" encoding="UTF-8" standalone="no"?>
<!DOCTYPE svg PUBLIC "-//W3C//DTD SVG 1.1//EN"
 "http://www.w3.org/Graphics/SVG/1.1/DTD/svg11.dtd">
<!-- Generated by graphviz version 8.0.5 (20230430.1635)
 -->
<!-- Title: lharmony_MicrotonalInterval.h Pages: 1 -->
<svg width="537pt" height="248pt"
 viewBox="0.00 0.00 537.25 248.25" xmlns="http://www.w3.org/2000/svg" xmlns:xlink="http://www.w3.org/1999/xlink">
<g id="graph0" class="graph" transform="scale(1 1) rotate(0) translate(4 244.25)">
<title>lharmony_MicrotonalInterval.h</title>
<!-- Node1 -->
<g id="Node000001" class="node">
<title>Node1</title>
<g id="a_Node000001"><a xlink:title="This file defines the MicrotonalInterval class.">
<polygon fill="#999999" stroke="#666666" points="150.75,-240.25 4.25,-240.25 4.25,-221 150.75,-221 150.75,-240.25"/>
<text text-anchor="middle" x="77.5" y="-226.75" font-family="Helvetica,sans-Serif" font-size="10.00">lharmony_MicrotonalInterval.h</text>
</a>
</g>
</g>
<!-- Node2 -->
<g id="Node000002" class="node">
<title>Node2</title>
<g id="a_Node000002"><a xlink:title=" ">
<polygon fill="#e0e0e0" stroke="#999999" points="43,-19.25 0,-19.25 0,0 43,0 43,-19.25"/>
<text text-anchor="middle" x="21.5" y="-5.75" font-family="Helvetica,sans-Serif" font-size="10.00">cmath</text>
</a>
</g>
</g>
<!-- Node1&#45;&gt;Node2 -->
<g id="edge1_Node000001_Node000002" class="edge">
<title>Node1&#45;&gt;Node2</title>
<g id="a_edge1_Node000001_Node000002"><a xlink:title=" ">
<path fill="none" stroke="#63b8ff" d="M75.24,-220.77C66.93,-188.3 38.04,-75.32 26.41,-29.83"/>
<polygon fill="#63b8ff" stroke="#63b8ff" points="29.6,-29.17 23.73,-20.35 22.82,-30.91 29.6,-29.17"/>
</a>
</g>
</g>
<!-- Node3 -->
<g id="Node000003" class="node">
<title>Node3</title>
<g id="a_Node000003"><a xlink:title=" ">
<polygon fill="#e0e0e0" stroke="#999999" points="201.75,-19.25 61.25,-19.25 61.25,0 201.75,0 201.75,-19.25"/>
<text text-anchor="middle" x="131.5" y="-5.75" font-family="Helvetica,sans-Serif" font-size="10.00">lharmony/lharmony_Export.h</text>
</a>
</g>
</g>
<!-- Node1&#45;&gt;Node3 -->
<g id="edge2_Node000001_Node000003" class="edge">
<title>Node1&#45;&gt;Node3</title>
<g id="a_edge2_Node000001_Node000003"><a xlink:title=" ">
<path fill="none" stroke="#63b8ff" d="M79.68,-220.77C87.69,-188.3 115.55,-75.32 126.77,-29.83"/>
<polygon fill="#63b8ff" stroke="#63b8ff" points="130.35,-30.9 129.35,-20.35 123.56,-29.22 130.35,-30.9"/>
</a>
</g>
</g>
<!-- Node4 -->
<g id="Node000004" class="node">
<title>Node4</title>
<g id="a_Node000004"><a xlink:href="lharmony___pitch_8h.html" target="_top" xlink:title="This file defines the Pitch class.">
<polygon fill="white" stroke="#666666" points="280.75,-185 146.25,-185 146.25,-165.75 280.75,-165.75 280.75,-185"/>
<text text-anchor="middle" x="213.5" y="-171.5" font-family="Helvetica,sans-Serif" font-size="10.00">lharmony/lharmony_Pitch.h</text>
</a>
</g>
</g>
<!-- Node1&#45;&gt;Node4 -->
<g id="edge3_Node000001_Node000004" class="edge">
<title>Node1&#45;&gt;Node4</title>
<g id="a_edge3_Node000001_Node000004"><a xlink:title=" ">
<path fill="none" stroke="#63b8ff" d="M100.57,-220.59C122.45,-212.02 155.57,-199.06 180.29,-189.38"/>
<polygon fill="#63b8ff" stroke="#63b8ff" points="181.28,-192.36 189.32,-185.45 178.73,-185.84 181.28,-192.36"/>
</a>
</g>
</g>
<!-- Node4&#45;&gt;Node3 -->
<g id="edge5_Node000004_Node000003" class="edge">
<title>Node4&#45;&gt;Node3</title>
<g id="a_edge5_Node000004_Node000003"><a xlink:title=" ">
<path fill="none" stroke="#63b8ff" d="M206.87,-165.45C194.53,-148.49 167.82,-110.13 151.5,-74.5 144.91,-60.1 139.66,-42.93 136.2,-30.02"/>
<polygon fill="#63b8ff" stroke="#63b8ff" points="139.4,-29.39 133.54,-20.56 132.62,-31.12 139.4,-29.39"/>
</a>
</g>
</g>
<!-- Node5 -->
<g id="Node000005" class="node">
<title>Node5</title>
<g id="a_Node000005"><a xlink:title=" ">
<polygon fill="#e0e0e0" stroke="#999999" points="471.12,-129.75 419.88,-129.75 419.88,-110.5 471.12,-110.5 471.12,-129.75"/>
<text text-anchor="middle" x="445.5" y="-116.25" font-family="Helvetica,sans-Serif" font-size="10.00">ostream</text>
</a>
</g>
</g>
<!-- Node4&#45;&gt;Node5 -->
<g id="edge4_Node000004_Node000005" class="edge">
<title>Node4&#45;&gt;Node5</title>
<g id="a_edge4_Node000004_Node000005"><a xlink:title=" ">
<path fill="none" stroke="#63b8ff" d="M254.68,-165.28C292.31,-156.92 349.78,-144.02 408.86,-130.1"/>
<polygon fill="#63b8ff" stroke="#63b8ff" points="409.59,-133.29 418.52,-127.59 407.98,-126.48 409.59,-133.29"/>
</a>
</g>
</g>
<!-- Node6 -->
<g id="Node000006" class="node">
<title>Node6</title>
<g id="a_Node000006"><a xlink:href="lharmony___pitch_class_8h.html" target="_top" xlink:title="This file defines the PitchClass class.">
<polygon fill="white" stroke="#666666" points="401.5,-129.75 241.5,-129.75 241.5,-110.5 401.5,-110.5 401.5,-129.75"/>
<text text-anchor="middle" x="321.5" y="-116.25" font-family="Helvetica,sans-Serif" font-size="10.00">lharmony/lharmony_PitchClass.h</text>
</a>
</g>
</g>
<!-- Node4&#45;&gt;Node6 -->
<g id="edge6_Node000004_Node000006" class="edge">
<title>Node4&#45;&gt;Node6</title>
<g id="a_edge6_Node000004_Node000006"><a xlink:title=" ">
<path fill="none" stroke="#63b8ff" d="M231.82,-165.34C248.66,-157.04 273.86,-144.61 293.27,-135.04"/>
<polygon fill="#63b8ff" stroke="#63b8ff" points="294.67,-137.76 302.09,-130.2 291.57,-131.49 294.67,-137.76"/>
</a>
</g>
</g>
<!-- Node10 -->
<g id="Node000010" class="node">
<title>Node10</title>
<g id="a_Node000010"><a xlink:href="lharmony___pitch_utils_8h.html" target="_top" xlink:title="This file contains miscellaneous pitch utilities.">
<polygon fill="white" stroke="#666666" points="335.88,-74.5 181.12,-74.5 181.12,-55.25 335.88,-55.25 335.88,-74.5"/>
<text text-anchor="middle" x="258.5" y="-61" font-family="Helvetica,sans-Serif" font-size="10.00">lharmony/lharmony_PitchUtils.h</text>
</a>
</g>
</g>
<!-- Node4&#45;&gt;Node10 -->
<g id="edge17_Node000004_Node000010" class="edge">
<title>Node4&#45;&gt;Node10</title>
<g id="a_edge17_Node000004_Node000010"><a xlink:title=" ">
<path fill="none" stroke="#63b8ff" d="M215.44,-165.46C218.33,-152.9 224.32,-129.4 232.5,-110.5 236.41,-101.46 241.75,-91.96 246.58,-84.06"/>
<polygon fill="#63b8ff" stroke="#63b8ff" points="250.07,-86.09 252.46,-75.77 244.15,-82.35 250.07,-86.09"/>
</a>
</g>
</g>
<!-- Node6&#45;&gt;Node3 -->
<g id="edge10_Node000006_Node000003" class="edge">
<title>Node6&#45;&gt;Node3</title>
<g id="a_edge10_Node000006_Node000003"><a xlink:title=" ">
<path fill="none" stroke="#63b8ff" d="M256.41,-110.01C228.48,-103.61 196.77,-92.78 172.5,-74.5 157.07,-62.88 145.86,-43.61 139.11,-29.28"/>
<polygon fill="#63b8ff" stroke="#63b8ff" points="142.03,-28.23 134.81,-20.48 135.62,-31.04 142.03,-28.23"/>
</a>
</g>
</g>
<!-- Node7 -->
<g id="Node000007" class="node">
<title>Node7</title>
<g id="a_Node000007"><a xlink:title=" ">
<polygon fill="#e0e0e0" stroke="#999999" points="403.38,-19.25 365.62,-19.25 365.62,0 403.38,0 403.38,-19.25"/>
<text text-anchor="middle" x="384.5" y="-5.75" font-family="Helvetica,sans-Serif" font-size="10.00">array</text>
</a>
</g>
</g>
<!-- Node6&#45;&gt;Node7 -->
<g id="edge7_Node000006_Node000007" class="edge">
<title>Node6&#45;&gt;Node7</title>
<g id="a_edge7_Node000006_Node000007"><a xlink:title=" ">
<path fill="none" stroke="#63b8ff" d="M326.66,-110.25C336.95,-92.52 360.22,-52.44 373.9,-28.88"/>
<polygon fill="#63b8ff" stroke="#63b8ff" points="377.28,-31.03 379.27,-20.63 371.23,-27.52 377.28,-31.03"/>
</a>
</g>
</g>
<!-- Node8 -->
<g id="Node000008" class="node">
<title>Node8</title>
<g id="a_Node000008"><a xlink:title=" ">
<polygon fill="#e0e0e0" stroke="#999999" points="457.25,-74.5 391.75,-74.5 391.75,-55.25 457.25,-55.25 457.25,-74.5"/>
<text text-anchor="middle" x="424.5" y="-61" font-family="Helvetica,sans-Serif" font-size="10.00">string_view</text>
</a>
</g>
</g>
<!-- Node6&#45;&gt;Node8 -->
<g id="edge8_Node000006_Node000008" class="edge">
<title>Node6&#45;&gt;Node8</title>
<g id="a_edge8_Node000006_Node000008"><a xlink:title=" ">
<path fill="none" stroke="#63b8ff" d="M338.97,-110.09C354.95,-101.83 378.85,-89.48 397.32,-79.93"/>
<polygon fill="#63b8ff" stroke="#63b8ff" points="398.67,-82.65 405.94,-74.95 395.45,-76.44 398.67,-82.65"/>
</a>
</g>
</g>
<!-- Node9 -->
<g id="Node000009" class="node">
<title>Node9</title>
<g id="a_Node000009"><a xlink:title=" ">
<polygon fill="#e0e0e0" stroke="#999999" points="529.25,-74.5 475.75,-74.5 475.75,-55.25 529.25,-55.25 529.25,-74.5"/>
<text text-anchor="middle" x="502.5" y="-61" font-family="Helvetica,sans-Serif" font-size="10.00">iostream</text>
</a>
</g>
</g>
<!-- Node6&#45;&gt;Node9 -->
<g id="edge9_Node000006_Node000009" class="edge">
<title>Node6&#45;&gt;Node9</title>
<g id="a_edge9_Node000006_Node000009"><a xlink:title=" ">
<path fill="none" stroke="#63b8ff" d="M352.2,-110.09C383.42,-100.91 431.82,-86.67 465.22,-76.84"/>
<polygon fill="#63b8ff" stroke="#63b8ff" points="465.89,-80 474.49,-73.82 463.91,-73.29 465.89,-80"/>
</a>
</g>
</g>
<!-- Node6&#45;&gt;Node10 -->
<g id="edge11_Node000006_Node000010" class="edge">
<title>Node6&#45;&gt;Node10</title>
<g id="a_edge11_Node000006_Node000010"><a xlink:title=" ">
<path fill="none" stroke="#63b8ff" d="M310.81,-110.09C301.62,-102.32 288.14,-90.92 277.16,-81.65"/>
<polygon fill="#63b8ff" stroke="#63b8ff" points="279.93,-78.56 270.03,-74.77 275.41,-83.9 279.93,-78.56"/>
</a>
</g>
</g>
<!-- Node10&#45;&gt;Node2 -->
<g id="edge15_Node000010_Node000002" class="edge">
<title>Node10&#45;&gt;Node2</title>
<g id="a_edge15_Node000010_Node000002"><a xlink:title=" ">
<path fill="none" stroke="#63b8ff" d="M212.91,-54.79C173.34,-46.73 114.28,-34.27 53.95,-19.5"/>
<polygon fill="#63b8ff" stroke="#63b8ff" points="55.02,-15.91 44.47,-16.91 53.34,-22.7 55.02,-15.91"/>
</a>
</g>
</g>
<!-- Node10&#45;&gt;Node3 -->
<g id="edge16_Node000010_Node000003" class="edge">
<title>Node10&#45;&gt;Node3</title>
<g id="a_edge16_Node000010_Node000003"><a xlink:title=" ">
<path fill="none" stroke="#63b8ff" d="M236.96,-54.84C216.7,-46.35 186.15,-33.54 163.13,-23.89"/>
<polygon fill="#63b8ff" stroke="#63b8ff" points="164.73,-20.34 154.15,-19.7 162.02,-26.8 164.73,-20.34"/>
</a>
</g>
</g>
<!-- Node10&#45;&gt;Node7 -->
<g id="edge12_Node000010_Node000007" class="edge">
<title>Node10&#45;&gt;Node7</title>
<g id="a_edge12_Node000010_Node000007"><a xlink:title=" ">
<path fill="none" stroke="#63b8ff" d="M279.87,-54.84C300.7,-46.04 332.5,-32.6 355.58,-22.85"/>
<polygon fill="#63b8ff" stroke="#63b8ff" points="356.65,-25.77 364.5,-18.66 353.92,-19.32 356.65,-25.77"/>
</a>
</g>
</g>
<!-- Node11 -->
<g id="Node000011" class="node">
<title>Node11</title>
<g id="a_Node000011"><a xlink:title=" ">
<polygon fill="#e0e0e0" stroke="#999999" points="267.62,-19.25 219.38,-19.25 219.38,0 267.62,0 267.62,-19.25"/>
<text text-anchor="middle" x="243.5" y="-5.75" font-family="Helvetica,sans-Serif" font-size="10.00">cassert</text>
</a>
</g>
</g>
<!-- Node10&#45;&gt;Node11 -->
<g id="edge13_Node000010_Node000011" class="edge">
<title>Node10&#45;&gt;Node11</title>
<g id="a_edge13_Node000010_Node000011"><a xlink:title=" ">
<path fill="none" stroke="#63b8ff" d="M256.02,-55.08C254.1,-48.26 251.37,-38.56 248.94,-29.95"/>
<polygon fill="#63b8ff" stroke="#63b8ff" points="252.11,-29.29 246.03,-20.61 245.37,-31.18 252.11,-29.29"/>
</a>
</g>
</g>
<!-- Node12 -->
<g id="Node000012" class="node">
<title>Node12</title>
<g id="a_Node000012"><a xlink:title=" ">
<polygon fill="#e0e0e0" stroke="#999999" points="347.38,-19.25 285.62,-19.25 285.62,0 347.38,0 347.38,-19.25"/>
<text text-anchor="middle" x="316.5" y="-5.75" font-family="Helvetica,sans-Serif" font-size="10.00">type_traits</text>
</a>
</g>
</g>
<!-- Node10&#45;&gt;Node12 -->
<g id="edge14_Node000010_Node000012" class="edge">
<title>Node10&#45;&gt;Node12</title>
<g id="a_edge14_Node000010_Node000012"><a xlink:title=" ">
<path fill="none" stroke="#63b8ff" d="M268.34,-54.84C276.64,-47.22 288.73,-36.12 298.72,-26.95"/>
<polygon fill="#63b8ff" stroke="#63b8ff" points="300.81,-29.87 305.81,-20.52 296.07,-24.71 300.81,-29.87"/>
</a>
</g>
</g>
</g>
</svg>
