<?xml version="1.0" encoding="UTF-8" standalone="no"?>
<!DOCTYPE svg PUBLIC "-//W3C//DTD SVG 1.1//EN"
 "http://www.w3.org/Graphics/SVG/1.1/DTD/svg11.dtd">
<!-- Generated by graphviz version 2.43.0 (0)
 -->
<!-- Title: lharmony_KeySignature_impl.h Pages: 1 -->
<svg width="336pt" height="207pt"
 viewBox="0.00 0.00 335.68 207.00" xmlns="http://www.w3.org/2000/svg" xmlns:xlink="http://www.w3.org/1999/xlink">
<g id="graph0" class="graph" transform="scale(1 1) rotate(0) translate(4 203)">
<title>lharmony_KeySignature_impl.h</title>
<polygon fill="white" stroke="transparent" points="-4,4 -4,-203 331.68,-203 331.68,4 -4,4"/>
<!-- Node1 -->
<g id="node1" class="node">
<title>Node1</title>
<g id="a_node1"><a xlink:title="This file contains implementation details for the KeySignature class.">
<polygon fill="#bfbfbf" stroke="black" points="43.18,-168.5 43.18,-198.5 176.18,-198.5 176.18,-168.5 43.18,-168.5"/>
<text text-anchor="start" x="51.18" y="-186.5" font-family="Helvetica,sans-Serif" font-size="10.00">lharmony_KeySignature</text>
<text text-anchor="middle" x="109.68" y="-175.5" font-family="Helvetica,sans-Serif" font-size="10.00">_impl.h</text>
</a>
</g>
</g>
<!-- Node2 -->
<g id="node2" class="node">
<title>Node2</title>
<g id="a_node2"><a xlink:href="lharmony__KeySignature_8h.html" target="_top" xlink:title="This file defines the KeySignature scale class.">
<polygon fill="white" stroke="black" points="38.68,-112.5 38.68,-131.5 180.68,-131.5 180.68,-112.5 38.68,-112.5"/>
<text text-anchor="middle" x="109.68" y="-119.5" font-family="Helvetica,sans-Serif" font-size="10.00">lharmony_KeySignature.h</text>
</a>
</g>
</g>
<!-- Node1&#45;&gt;Node2 -->
<g id="edge1" class="edge">
<title>Node1&#45;&gt;Node2</title>
<path fill="none" stroke="midnightblue" d="M109.68,-158.29C109.68,-148.86 109.68,-138.65 109.68,-131.66"/>
<polygon fill="midnightblue" stroke="midnightblue" points="106.18,-158.4 109.68,-168.4 113.18,-158.4 106.18,-158.4"/>
</g>
<!-- Node3 -->
<g id="node3" class="node">
<title>Node3</title>
<g id="a_node3"><a xlink:href="lharmony_8h_source.html" target="_top" xlink:title=" ">
<polygon fill="white" stroke="black" points="74.18,-0.5 74.18,-19.5 145.18,-19.5 145.18,-0.5 74.18,-0.5"/>
<text text-anchor="middle" x="109.68" y="-7.5" font-family="Helvetica,sans-Serif" font-size="10.00">lharmony.h</text>
</a>
</g>
</g>
<!-- Node2&#45;&gt;Node3 -->
<g id="edge2" class="edge">
<title>Node2&#45;&gt;Node3</title>
<path fill="none" stroke="midnightblue" d="M50.99,-109.17C33.07,-102.51 15.32,-92.14 4.68,-76 -15.15,-45.93 36.27,-27.33 73.96,-18.1"/>
<polygon fill="midnightblue" stroke="midnightblue" points="50.31,-112.63 60.91,-112.5 52.54,-106 50.31,-112.63"/>
</g>
<!-- Node4 -->
<g id="node4" class="node">
<title>Node4</title>
<g id="a_node4"><a xlink:href="lharmony__KeySignatureConstants_8h.html" target="_top" xlink:title="This file contains some useful predefined key signatures.">
<polygon fill="white" stroke="black" points="14.18,-56.5 14.18,-75.5 205.18,-75.5 205.18,-56.5 14.18,-56.5"/>
<text text-anchor="middle" x="109.68" y="-63.5" font-family="Helvetica,sans-Serif" font-size="10.00">lharmony_KeySignatureConstants.h</text>
</a>
</g>
</g>
<!-- Node2&#45;&gt;Node4 -->
<g id="edge3" class="edge">
<title>Node2&#45;&gt;Node4</title>
<path fill="none" stroke="midnightblue" d="M109.68,-101.8C109.68,-92.91 109.68,-82.78 109.68,-75.75"/>
<polygon fill="midnightblue" stroke="midnightblue" points="106.18,-102.08 109.68,-112.08 113.18,-102.08 106.18,-102.08"/>
</g>
<!-- Node5 -->
<g id="node5" class="node">
<title>Node5</title>
<g id="a_node5"><a xlink:href="lharmony__Mode_8h.html" target="_top" xlink:title="This file defines the Mode scale class.">
<polygon fill="white" stroke="black" points="223.68,-56.5 223.68,-75.5 327.68,-75.5 327.68,-56.5 223.68,-56.5"/>
<text text-anchor="middle" x="275.68" y="-63.5" font-family="Helvetica,sans-Serif" font-size="10.00">lharmony_Mode.h</text>
</a>
</g>
</g>
<!-- Node2&#45;&gt;Node5 -->
<g id="edge5" class="edge">
<title>Node2&#45;&gt;Node5</title>
<path fill="none" stroke="midnightblue" d="M145.63,-109.3C176.91,-99.13 221.5,-84.62 249.5,-75.52"/>
<polygon fill="midnightblue" stroke="midnightblue" points="144.41,-106.02 135.98,-112.44 146.58,-112.68 144.41,-106.02"/>
</g>
<!-- Node4&#45;&gt;Node3 -->
<g id="edge4" class="edge">
<title>Node4&#45;&gt;Node3</title>
<path fill="none" stroke="midnightblue" d="M109.68,-45.8C109.68,-36.91 109.68,-26.78 109.68,-19.75"/>
<polygon fill="midnightblue" stroke="midnightblue" points="106.18,-46.08 109.68,-56.08 113.18,-46.08 106.18,-46.08"/>
</g>
<!-- Node5&#45;&gt;Node3 -->
<g id="edge6" class="edge">
<title>Node5&#45;&gt;Node3</title>
<path fill="none" stroke="midnightblue" d="M239.73,-53.3C208.45,-43.13 163.86,-28.62 135.86,-19.52"/>
<polygon fill="midnightblue" stroke="midnightblue" points="238.78,-56.68 249.38,-56.44 240.95,-50.02 238.78,-56.68"/>
</g>
</g>
</svg>
