<?xml version="1.0" encoding="UTF-8" standalone="no"?>
<!DOCTYPE svg PUBLIC "-//W3C//DTD SVG 1.1//EN"
 "http://www.w3.org/Graphics/SVG/1.1/DTD/svg11.dtd">
<!-- Generated by graphviz version 8.0.5 (20230430.1635)
 -->
<!-- Title: lharmony_Scale.h Pages: 1 -->
<svg width="633pt" height="193pt"
 viewBox="0.00 0.00 632.97 193.00" xmlns="http://www.w3.org/2000/svg" xmlns:xlink="http://www.w3.org/1999/xlink">
<g id="graph0" class="graph" transform="scale(1 1) rotate(0) translate(4 189)">
<title>lharmony_Scale.h</title>
<!-- Node1 -->
<g id="Node000001" class="node">
<title>Node1</title>
<g id="a_Node000001"><a xlink:title="This file defines the Scale class.">
<polygon fill="#999999" stroke="#666666" points="349.97,-185 255.97,-185 255.97,-165.75 349.97,-165.75 349.97,-185"/>
<text text-anchor="middle" x="302.97" y="-171.5" font-family="Helvetica,sans-Serif" font-size="10.00">lharmony_Scale.h</text>
</a>
</g>
</g>
<!-- Node2 -->
<g id="Node000002" class="node">
<title>Node2</title>
<g id="a_Node000002"><a xlink:href="lharmony_8h_source.html" target="_top" xlink:title=" ">
<polygon fill="white" stroke="#666666" points="300.22,-19.25 237.72,-19.25 237.72,0 300.22,0 300.22,-19.25"/>
<text text-anchor="middle" x="268.97" y="-5.75" font-family="Helvetica,sans-Serif" font-size="10.00">lharmony.h</text>
</a>
</g>
</g>
<!-- Node1&#45;&gt;Node2 -->
<g id="edge1_Node000001_Node000002" class="edge">
<title>Node1&#45;&gt;Node2</title>
<g id="a_edge1_Node000001_Node000002"><a xlink:title=" ">
<path fill="none" stroke="#63b8ff" d="M244.68,-174.31C173.75,-170.67 56.93,-152.35 3.97,-74.5 -0.85,-67.43 -1.56,-61.78 3.97,-55.25 33.56,-20.25 173.86,-12.69 237.47,-11.06"/>
<polygon fill="#63b8ff" stroke="#63b8ff" points="244.51,-177.85 254.65,-174.78 244.81,-170.86 244.51,-177.85"/>
</a>
</g>
</g>
<!-- Node3 -->
<g id="Node000003" class="node">
<title>Node3</title>
<g id="a_Node000003"><a xlink:href="lharmony___chromatic_8h.html" target="_top" xlink:title="This file defines the Chromatic scale class.">
<polygon fill="white" stroke="#666666" points="127.09,-74.5 12.84,-74.5 12.84,-55.25 127.09,-55.25 127.09,-74.5"/>
<text text-anchor="middle" x="69.97" y="-61" font-family="Helvetica,sans-Serif" font-size="10.00">lharmony_Chromatic.h</text>
</a>
</g>
</g>
<!-- Node1&#45;&gt;Node3 -->
<g id="edge2_Node000001_Node000003" class="edge">
<title>Node1&#45;&gt;Node3</title>
<g id="a_edge2_Node000001_Node000003"><a xlink:title=" ">
<path fill="none" stroke="#63b8ff" d="M264.75,-161.71C241.11,-153.47 210.34,-142 183.97,-129.75 146.93,-112.55 105.61,-87.96 84.35,-74.87"/>
<polygon fill="#63b8ff" stroke="#63b8ff" points="263.47,-165.31 274.06,-165.26 265.75,-158.69 263.47,-165.31"/>
</a>
</g>
</g>
<!-- Node4 -->
<g id="Node000004" class="node">
<title>Node4</title>
<g id="a_Node000004"><a xlink:href="lharmony___key_signature_8h.html" target="_top" xlink:title="This file defines the KeySignature scale class.">
<polygon fill="white" stroke="#666666" points="320.84,-129.75 193.09,-129.75 193.09,-110.5 320.84,-110.5 320.84,-129.75"/>
<text text-anchor="middle" x="256.97" y="-116.25" font-family="Helvetica,sans-Serif" font-size="10.00">lharmony_KeySignature.h</text>
</a>
</g>
</g>
<!-- Node1&#45;&gt;Node4 -->
<g id="edge4_Node000001_Node000004" class="edge">
<title>Node1&#45;&gt;Node4</title>
<g id="a_edge4_Node000001_Node000004"><a xlink:title=" ">
<path fill="none" stroke="#63b8ff" d="M288.21,-157.29C280.4,-148.25 271.13,-137.52 264.73,-130.11"/>
<polygon fill="#63b8ff" stroke="#63b8ff" points="286.18,-159.3 295.37,-164.58 291.48,-154.73 286.18,-159.3"/>
</a>
</g>
</g>
<!-- Node6 -->
<g id="Node000006" class="node">
<title>Node6</title>
<g id="a_Node000006"><a xlink:href="lharmony___mode_8h.html" target="_top" xlink:title="This file defines the Mode scale class.">
<polygon fill="white" stroke="#666666" points="466.59,-74.5 373.34,-74.5 373.34,-55.25 466.59,-55.25 466.59,-74.5"/>
<text text-anchor="middle" x="419.97" y="-61" font-family="Helvetica,sans-Serif" font-size="10.00">lharmony_Mode.h</text>
</a>
</g>
</g>
<!-- Node1&#45;&gt;Node6 -->
<g id="edge10_Node000001_Node000006" class="edge">
<title>Node1&#45;&gt;Node6</title>
<g id="a_edge10_Node000001_Node000006"><a xlink:title=" ">
<path fill="none" stroke="#63b8ff" d="M319.23,-157.79C332.2,-144.71 350.95,-126.13 367.97,-110.5 381.81,-97.79 398.37,-83.77 409.02,-74.9"/>
<polygon fill="#63b8ff" stroke="#63b8ff" points="317.15,-154.93 312.61,-164.5 322.13,-159.84 317.15,-154.93"/>
</a>
</g>
</g>
<!-- Node7 -->
<g id="Node000007" class="node">
<title>Node7</title>
<g id="a_Node000007"><a xlink:href="lharmony___octatonic_8h.html" target="_top" xlink:title="This file defines the Octatonic scale class.">
<polygon fill="white" stroke="#666666" points="488.59,-129.75 377.34,-129.75 377.34,-110.5 488.59,-110.5 488.59,-129.75"/>
<text text-anchor="middle" x="432.97" y="-116.25" font-family="Helvetica,sans-Serif" font-size="10.00">lharmony_Octatonic.h</text>
</a>
</g>
</g>
<!-- Node1&#45;&gt;Node7 -->
<g id="edge11_Node000001_Node000007" class="edge">
<title>Node1&#45;&gt;Node7</title>
<g id="a_edge11_Node000001_Node000007"><a xlink:title=" ">
<path fill="none" stroke="#63b8ff" d="M334.9,-161.29C358.47,-151.64 389.94,-138.75 410.8,-130.2"/>
<polygon fill="#63b8ff" stroke="#63b8ff" points="333.95,-158.31 326.02,-165.34 336.6,-164.79 333.95,-158.31"/>
</a>
</g>
</g>
<!-- Node8 -->
<g id="Node000008" class="node">
<title>Node8</title>
<g id="a_Node000008"><a xlink:href="lharmony___whole_tone_8h.html" target="_top" xlink:title="This file defines the WholeTone scale class.">
<polygon fill="white" stroke="#666666" points="624.97,-129.75 506.97,-129.75 506.97,-110.5 624.97,-110.5 624.97,-129.75"/>
<text text-anchor="middle" x="565.97" y="-116.25" font-family="Helvetica,sans-Serif" font-size="10.00">lharmony_WholeTone.h</text>
</a>
</g>
</g>
<!-- Node1&#45;&gt;Node8 -->
<g id="edge13_Node000001_Node000008" class="edge">
<title>Node1&#45;&gt;Node8</title>
<g id="a_edge13_Node000001_Node000008"><a xlink:title=" ">
<path fill="none" stroke="#63b8ff" d="M358.49,-163.13C406.93,-153.33 476.29,-139.28 521.24,-130.18"/>
<polygon fill="#63b8ff" stroke="#63b8ff" points="357.98,-159.87 348.88,-165.28 359.37,-166.73 357.98,-159.87"/>
</a>
</g>
</g>
<!-- Node3&#45;&gt;Node2 -->
<g id="edge3_Node000003_Node000002" class="edge">
<title>Node3&#45;&gt;Node2</title>
<g id="a_edge3_Node000003_Node000002"><a xlink:title=" ">
<path fill="none" stroke="#63b8ff" d="M114.3,-52.01C151.64,-42.02 204.14,-27.97 237.35,-19.09"/>
<polygon fill="#63b8ff" stroke="#63b8ff" points="113.48,-48.88 104.72,-54.84 115.29,-55.64 113.48,-48.88"/>
</a>
</g>
</g>
<!-- Node4&#45;&gt;Node2 -->
<g id="edge5_Node000004_Node000002" class="edge">
<title>Node4&#45;&gt;Node2</title>
<g id="a_edge5_Node000004_Node000002"><a xlink:title=" ">
<path fill="none" stroke="#63b8ff" d="M216.31,-106.31C188.76,-95.3 159.73,-77.67 173.97,-55.25 187.84,-33.41 215.55,-22.07 237.48,-16.3"/>
<polygon fill="#63b8ff" stroke="#63b8ff" points="214.73,-109.82 225.32,-110.06 217.18,-103.27 214.73,-109.82"/>
</a>
</g>
</g>
<!-- Node5 -->
<g id="Node000005" class="node">
<title>Node5</title>
<g id="a_Node000005"><a xlink:href="lharmony___key_signature_constants_8h.html" target="_top" xlink:title="This file contains some useful predefined key signatures.">
<polygon fill="white" stroke="#666666" points="355.34,-74.5 182.59,-74.5 182.59,-55.25 355.34,-55.25 355.34,-74.5"/>
<text text-anchor="middle" x="268.97" y="-61" font-family="Helvetica,sans-Serif" font-size="10.00">lharmony_KeySignatureConstants.h</text>
</a>
</g>
</g>
<!-- Node4&#45;&gt;Node5 -->
<g id="edge6_Node000004_Node000005" class="edge">
<title>Node4&#45;&gt;Node5</title>
<g id="a_edge6_Node000004_Node000005"><a xlink:title=" ">
<path fill="none" stroke="#63b8ff" d="M261.33,-99.75C263.25,-91.24 265.41,-81.65 266.94,-74.86"/>
<polygon fill="#63b8ff" stroke="#63b8ff" points="257.73,-98.81 258.95,-109.33 264.56,-100.35 257.73,-98.81"/>
</a>
</g>
</g>
<!-- Node4&#45;&gt;Node6 -->
<g id="edge8_Node000004_Node000006" class="edge">
<title>Node4&#45;&gt;Node6</title>
<g id="a_edge8_Node000004_Node000006"><a xlink:title=" ">
<path fill="none" stroke="#63b8ff" d="M295.04,-106.69C324.78,-96.97 365.44,-83.69 392.18,-74.95"/>
<polygon fill="#63b8ff" stroke="#63b8ff" points="294.03,-103.66 285.62,-110.09 296.21,-110.31 294.03,-103.66"/>
</a>
</g>
</g>
<!-- Node5&#45;&gt;Node2 -->
<g id="edge7_Node000005_Node000002" class="edge">
<title>Node5&#45;&gt;Node2</title>
<g id="a_edge7_Node000005_Node000002"><a xlink:title=" ">
<path fill="none" stroke="#63b8ff" d="M268.97,-44.21C268.97,-35.77 268.97,-26.33 268.97,-19.61"/>
<polygon fill="#63b8ff" stroke="#63b8ff" points="265.47,-44.08 268.97,-54.08 272.47,-44.08 265.47,-44.08"/>
</a>
</g>
</g>
<!-- Node6&#45;&gt;Node2 -->
<g id="edge9_Node000006_Node000002" class="edge">
<title>Node6&#45;&gt;Node2</title>
<g id="a_edge9_Node000006_Node000002"><a xlink:title=" ">
<path fill="none" stroke="#63b8ff" d="M384.33,-51.31C356.81,-41.6 319.37,-28.4 294.71,-19.7"/>
<polygon fill="#63b8ff" stroke="#63b8ff" points="382.76,-54.82 393.35,-54.84 385.08,-48.22 382.76,-54.82"/>
</a>
</g>
</g>
<!-- Node7&#45;&gt;Node2 -->
<g id="edge12_Node000007_Node000002" class="edge">
<title>Node7&#45;&gt;Node2</title>
<g id="a_edge12_Node000007_Node000002"><a xlink:title=" ">
<path fill="none" stroke="#63b8ff" d="M455.4,-103.41C471.59,-90.15 488.58,-70.87 475.97,-55.25 454.26,-28.36 352.8,-16.9 300.43,-12.71"/>
<polygon fill="#63b8ff" stroke="#63b8ff" points="453.48,-101.24 447.67,-110.11 457.74,-106.8 453.48,-101.24"/>
</a>
</g>
</g>
<!-- Node8&#45;&gt;Node2 -->
<g id="edge14_Node000008_Node000002" class="edge">
<title>Node8&#45;&gt;Node2</title>
<g id="a_edge14_Node000008_Node000002"><a xlink:title=" ">
<path fill="none" stroke="#63b8ff" d="M551.22,-102.2C537.4,-87.46 515.42,-66.72 491.97,-55.25 428.65,-24.29 345.21,-14.81 300.5,-11.91"/>
<polygon fill="#63b8ff" stroke="#63b8ff" points="548.04,-104.01 557.35,-109.06 553.23,-99.31 548.04,-104.01"/>
</a>
</g>
</g>
</g>
</svg>
