<?xml version="1.0" encoding="UTF-8" standalone="no"?>
<!DOCTYPE svg PUBLIC "-//W3C//DTD SVG 1.1//EN"
 "http://www.w3.org/Graphics/SVG/1.1/DTD/svg11.dtd">
<!-- Generated by graphviz version 2.43.0 (0)
 -->
<!-- Title: lharmony_PitchClass.h Pages: 1 -->
<svg width="518pt" height="140pt"
 viewBox="0.00 0.00 518.00 140.00" xmlns="http://www.w3.org/2000/svg" xmlns:xlink="http://www.w3.org/1999/xlink">
<g id="graph0" class="graph" transform="scale(1 1) rotate(0) translate(4 136)">
<title>lharmony_PitchClass.h</title>
<polygon fill="white" stroke="transparent" points="-4,4 -4,-136 514,-136 514,4 -4,4"/>
<!-- Node1 -->
<g id="node1" class="node">
<title>Node1</title>
<g id="a_node1"><a xlink:title="This file defines the PitchClass class.">
<polygon fill="#bfbfbf" stroke="black" points="190,-112.5 190,-131.5 318,-131.5 318,-112.5 190,-112.5"/>
<text text-anchor="middle" x="254" y="-119.5" font-family="Helvetica,sans-Serif" font-size="10.00">lharmony_PitchClass.h</text>
</a>
</g>
</g>
<!-- Node2 -->
<g id="node2" class="node">
<title>Node2</title>
<g id="a_node2"><a xlink:title=" ">
<polygon fill="white" stroke="#bfbfbf" points="0,-0.5 0,-19.5 42,-19.5 42,-0.5 0,-0.5"/>
<text text-anchor="middle" x="21" y="-7.5" font-family="Helvetica,sans-Serif" font-size="10.00">array</text>
</a>
</g>
</g>
<!-- Node1&#45;&gt;Node2 -->
<g id="edge1" class="edge">
<title>Node1&#45;&gt;Node2</title>
<path fill="none" stroke="midnightblue" d="M231.39,-112.5C208.96,-103.89 173.72,-89.89 144,-76 109.04,-59.66 69.8,-38.39 45.25,-24.72"/>
<polygon fill="midnightblue" stroke="midnightblue" points="46.72,-21.53 36.29,-19.7 43.3,-27.64 46.72,-21.53"/>
</g>
<!-- Node3 -->
<g id="node3" class="node">
<title>Node3</title>
<g id="a_node3"><a xlink:title=" ">
<polygon fill="white" stroke="#bfbfbf" points="358.5,-56.5 358.5,-75.5 431.5,-75.5 431.5,-56.5 358.5,-56.5"/>
<text text-anchor="middle" x="395" y="-63.5" font-family="Helvetica,sans-Serif" font-size="10.00">string_view</text>
</a>
</g>
</g>
<!-- Node1&#45;&gt;Node3 -->
<g id="edge2" class="edge">
<title>Node1&#45;&gt;Node3</title>
<path fill="none" stroke="midnightblue" d="M276.34,-112.44C299.75,-103.48 336.74,-89.31 363.19,-79.18"/>
<polygon fill="midnightblue" stroke="midnightblue" points="364.68,-82.36 372.76,-75.52 362.17,-75.82 364.68,-82.36"/>
</g>
<!-- Node4 -->
<g id="node4" class="node">
<title>Node4</title>
<g id="a_node4"><a xlink:title=" ">
<polygon fill="white" stroke="#bfbfbf" points="450,-56.5 450,-75.5 510,-75.5 510,-56.5 450,-56.5"/>
<text text-anchor="middle" x="480" y="-63.5" font-family="Helvetica,sans-Serif" font-size="10.00">iostream</text>
</a>
</g>
</g>
<!-- Node1&#45;&gt;Node4 -->
<g id="edge3" class="edge">
<title>Node1&#45;&gt;Node4</title>
<path fill="none" stroke="midnightblue" d="M289.81,-112.44C330.72,-102.67 397.47,-86.72 440.04,-76.55"/>
<polygon fill="midnightblue" stroke="midnightblue" points="440.87,-79.95 449.78,-74.22 439.24,-73.14 440.87,-79.95"/>
</g>
<!-- Node5 -->
<g id="node5" class="node">
<title>Node5</title>
<g id="a_node5"><a xlink:title=" ">
<polygon fill="white" stroke="#bfbfbf" points="60,-0.5 60,-19.5 218,-19.5 218,-0.5 60,-0.5"/>
<text text-anchor="middle" x="139" y="-7.5" font-family="Helvetica,sans-Serif" font-size="10.00">lharmony/lharmony_Export.h</text>
</a>
</g>
</g>
<!-- Node1&#45;&gt;Node5 -->
<g id="edge4" class="edge">
<title>Node1&#45;&gt;Node5</title>
<path fill="none" stroke="midnightblue" d="M218.91,-112.39C198.46,-105.67 173.69,-94.31 158,-76 146.89,-63.04 142.27,-43.87 140.36,-29.71"/>
<polygon fill="midnightblue" stroke="midnightblue" points="143.82,-29.23 139.32,-19.63 136.86,-29.94 143.82,-29.23"/>
</g>
<!-- Node6 -->
<g id="node6" class="node">
<title>Node6</title>
<g id="a_node6"><a xlink:href="lharmony__PitchUtils_8h.html" target="_top" xlink:title="This file contains miscellaneous pitch utilities.">
<polygon fill="white" stroke="black" points="167.5,-56.5 167.5,-75.5 340.5,-75.5 340.5,-56.5 167.5,-56.5"/>
<text text-anchor="middle" x="254" y="-63.5" font-family="Helvetica,sans-Serif" font-size="10.00">lharmony/lharmony_PitchUtils.h</text>
</a>
</g>
</g>
<!-- Node1&#45;&gt;Node6 -->
<g id="edge5" class="edge">
<title>Node1&#45;&gt;Node6</title>
<path fill="none" stroke="midnightblue" d="M254,-112.08C254,-105.01 254,-94.86 254,-85.99"/>
<polygon fill="midnightblue" stroke="midnightblue" points="257.5,-85.75 254,-75.75 250.5,-85.75 257.5,-85.75"/>
</g>
<!-- Node6&#45;&gt;Node2 -->
<g id="edge6" class="edge">
<title>Node6&#45;&gt;Node2</title>
<path fill="none" stroke="midnightblue" d="M211.01,-56.42C171.86,-48.4 112.28,-35.66 51.94,-20.11"/>
<polygon fill="midnightblue" stroke="midnightblue" points="52.81,-16.72 42.25,-17.59 51.05,-23.49 52.81,-16.72"/>
</g>
<!-- Node6&#45;&gt;Node5 -->
<g id="edge10" class="edge">
<title>Node6&#45;&gt;Node5</title>
<path fill="none" stroke="midnightblue" d="M235.78,-56.44C217.1,-47.68 187.84,-33.94 166.38,-23.86"/>
<polygon fill="midnightblue" stroke="midnightblue" points="167.68,-20.6 157.14,-19.52 164.7,-26.93 167.68,-20.6"/>
</g>
<!-- Node7 -->
<g id="node7" class="node">
<title>Node7</title>
<g id="a_node7"><a xlink:title=" ">
<polygon fill="white" stroke="#bfbfbf" points="236,-0.5 236,-19.5 288,-19.5 288,-0.5 236,-0.5"/>
<text text-anchor="middle" x="262" y="-7.5" font-family="Helvetica,sans-Serif" font-size="10.00">cassert</text>
</a>
</g>
</g>
<!-- Node6&#45;&gt;Node7 -->
<g id="edge7" class="edge">
<title>Node6&#45;&gt;Node7</title>
<path fill="none" stroke="midnightblue" d="M255.32,-56.08C256.38,-48.93 257.91,-38.64 259.23,-29.69"/>
<polygon fill="midnightblue" stroke="midnightblue" points="262.7,-30.16 260.7,-19.75 255.78,-29.13 262.7,-30.16"/>
</g>
<!-- Node8 -->
<g id="node8" class="node">
<title>Node8</title>
<g id="a_node8"><a xlink:title=" ">
<polygon fill="white" stroke="#bfbfbf" points="306.5,-0.5 306.5,-19.5 375.5,-19.5 375.5,-0.5 306.5,-0.5"/>
<text text-anchor="middle" x="341" y="-7.5" font-family="Helvetica,sans-Serif" font-size="10.00">type_traits</text>
</a>
</g>
</g>
<!-- Node6&#45;&gt;Node8 -->
<g id="edge8" class="edge">
<title>Node6&#45;&gt;Node8</title>
<path fill="none" stroke="midnightblue" d="M267.98,-56.32C281.55,-47.9 302.38,-34.97 318.32,-25.07"/>
<polygon fill="midnightblue" stroke="midnightblue" points="320.41,-27.9 327.06,-19.65 316.71,-21.95 320.41,-27.9"/>
</g>
<!-- Node9 -->
<g id="node9" class="node">
<title>Node9</title>
<g id="a_node9"><a xlink:title=" ">
<polygon fill="white" stroke="#bfbfbf" points="393.5,-0.5 393.5,-19.5 440.5,-19.5 440.5,-0.5 393.5,-0.5"/>
<text text-anchor="middle" x="417" y="-7.5" font-family="Helvetica,sans-Serif" font-size="10.00">cmath</text>
</a>
</g>
</g>
<!-- Node6&#45;&gt;Node9 -->
<g id="edge9" class="edge">
<title>Node6&#45;&gt;Node9</title>
<path fill="none" stroke="midnightblue" d="M279.83,-56.44C307.89,-47.15 352.83,-32.26 383.57,-22.07"/>
<polygon fill="midnightblue" stroke="midnightblue" points="385.02,-25.28 393.41,-18.82 382.82,-18.64 385.02,-25.28"/>
</g>
</g>
</svg>
