<?xml version="1.0" encoding="UTF-8" standalone="no"?>
<!DOCTYPE svg PUBLIC "-//W3C//DTD SVG 1.1//EN"
 "http://www.w3.org/Graphics/SVG/1.1/DTD/svg11.dtd">
<!-- Generated by graphviz version 2.43.0 (0)
 -->
<!-- Title: lharmony_Mode.h Pages: 1 -->
<svg width="648pt" height="375pt"
 viewBox="0.00 0.00 648.39 375.00" xmlns="http://www.w3.org/2000/svg" xmlns:xlink="http://www.w3.org/1999/xlink">
<g id="graph0" class="graph" transform="scale(1 1) rotate(0) translate(4 371)">
<title>lharmony_Mode.h</title>
<polygon fill="white" stroke="transparent" points="-4,4 -4,-371 644.39,-371 644.39,4 -4,4"/>
<!-- Node1 -->
<g id="node1" class="node">
<title>Node1</title>
<g id="a_node1"><a xlink:title="This file defines the Mode scale class.">
<polygon fill="#bfbfbf" stroke="black" points="201,-347.5 201,-366.5 305,-366.5 305,-347.5 201,-347.5"/>
<text text-anchor="middle" x="253" y="-354.5" font-family="Helvetica,sans-Serif" font-size="10.00">lharmony_Mode.h</text>
</a>
</g>
</g>
<!-- Node2 -->
<g id="node2" class="node">
<title>Node2</title>
<g id="a_node2"><a xlink:title=" ">
<polygon fill="white" stroke="#bfbfbf" points="104.5,-168.5 104.5,-187.5 151.5,-187.5 151.5,-168.5 104.5,-168.5"/>
<text text-anchor="middle" x="128" y="-175.5" font-family="Helvetica,sans-Serif" font-size="10.00">vector</text>
</a>
</g>
</g>
<!-- Node1&#45;&gt;Node2 -->
<g id="edge1" class="edge">
<title>Node1&#45;&gt;Node2</title>
<path fill="none" stroke="midnightblue" d="M220.17,-347.43C180.29,-334.89 115.78,-307.18 95,-255 89.9,-242.2 90.71,-237.09 95,-224 98.49,-213.34 105.57,-203.12 112.29,-195.12"/>
<polygon fill="midnightblue" stroke="midnightblue" points="114.9,-197.44 118.98,-187.66 109.7,-192.76 114.9,-197.44"/>
</g>
<!-- Node3 -->
<g id="node3" class="node">
<title>Node3</title>
<g id="a_node3"><a xlink:title=" ">
<polygon fill="white" stroke="#bfbfbf" points="103,-0.5 103,-19.5 261,-19.5 261,-0.5 103,-0.5"/>
<text text-anchor="middle" x="182" y="-7.5" font-family="Helvetica,sans-Serif" font-size="10.00">lharmony/lharmony_Export.h</text>
</a>
</g>
</g>
<!-- Node1&#45;&gt;Node3 -->
<g id="edge2" class="edge">
<title>Node1&#45;&gt;Node3</title>
<path fill="none" stroke="midnightblue" d="M200.89,-354.59C126.82,-349.5 0,-328.02 0,-240.5 0,-240.5 0,-240.5 0,-121 0,-63.42 67.54,-35.17 120.33,-21.89"/>
<polygon fill="midnightblue" stroke="midnightblue" points="121.42,-25.23 130.33,-19.5 119.79,-18.42 121.42,-25.23"/>
</g>
<!-- Node4 -->
<g id="node4" class="node">
<title>Node4</title>
<g id="a_node4"><a xlink:href="lharmony__KeySignature_8h.html" target="_top" xlink:title="This file defines the KeySignature scale class.">
<polygon fill="white" stroke="black" points="157.5,-291.5 157.5,-310.5 348.5,-310.5 348.5,-291.5 157.5,-291.5"/>
<text text-anchor="middle" x="253" y="-298.5" font-family="Helvetica,sans-Serif" font-size="10.00">lharmony/lharmony_KeySignature.h</text>
</a>
</g>
</g>
<!-- Node1&#45;&gt;Node4 -->
<g id="edge3" class="edge">
<title>Node1&#45;&gt;Node4</title>
<path fill="none" stroke="midnightblue" d="M253,-347.08C253,-340.01 253,-329.86 253,-320.99"/>
<polygon fill="midnightblue" stroke="midnightblue" points="256.5,-320.75 253,-310.75 249.5,-320.75 256.5,-320.75"/>
</g>
<!-- Node5 -->
<g id="node5" class="node">
<title>Node5</title>
<g id="a_node5"><a xlink:href="lharmony__Scale_8h.html" target="_top" xlink:title="This file defines the Scale class.">
<polygon fill="white" stroke="black" points="300.5,-230 300.5,-249 453.5,-249 453.5,-230 300.5,-230"/>
<text text-anchor="middle" x="377" y="-237" font-family="Helvetica,sans-Serif" font-size="10.00">lharmony/lharmony_Scale.h</text>
</a>
</g>
</g>
<!-- Node1&#45;&gt;Node5 -->
<g id="edge27" class="edge">
<title>Node1&#45;&gt;Node5</title>
<path fill="none" stroke="midnightblue" d="M293.32,-347.48C315.01,-340.93 340.6,-329.72 357,-311 369.55,-296.68 374.26,-275 376.01,-259.47"/>
<polygon fill="midnightblue" stroke="midnightblue" points="379.5,-259.69 376.83,-249.44 372.53,-259.12 379.5,-259.69"/>
</g>
<!-- Node8 -->
<g id="node8" class="node">
<title>Node8</title>
<g id="a_node8"><a xlink:href="lharmony__PitchClass_8h.html" target="_top" xlink:title="This file defines the PitchClass class.">
<polygon fill="white" stroke="black" points="395.5,-112.5 395.5,-131.5 572.5,-131.5 572.5,-112.5 395.5,-112.5"/>
<text text-anchor="middle" x="484" y="-119.5" font-family="Helvetica,sans-Serif" font-size="10.00">lharmony/lharmony_PitchClass.h</text>
</a>
</g>
</g>
<!-- Node1&#45;&gt;Node8 -->
<g id="edge28" class="edge">
<title>Node1&#45;&gt;Node8</title>
<path fill="none" stroke="midnightblue" d="M305.49,-347.81C359.12,-336.55 440.64,-310.93 485,-255 509.48,-224.13 509.45,-206.69 502,-168 500.21,-158.7 496.52,-148.89 492.94,-140.8"/>
<polygon fill="midnightblue" stroke="midnightblue" points="496.06,-139.21 488.62,-131.66 489.73,-142.2 496.06,-139.21"/>
</g>
<!-- Node4&#45;&gt;Node2 -->
<g id="edge4" class="edge">
<title>Node4&#45;&gt;Node2</title>
<path fill="none" stroke="midnightblue" d="M255.87,-291.04C260.17,-275.73 266.37,-244.22 252,-224 246.51,-216.27 196.2,-199.7 161.38,-188.97"/>
<polygon fill="midnightblue" stroke="midnightblue" points="162.17,-185.55 151.58,-185.98 160.12,-192.25 162.17,-185.55"/>
</g>
<!-- Node4&#45;&gt;Node3 -->
<g id="edge5" class="edge">
<title>Node4&#45;&gt;Node3</title>
<path fill="none" stroke="midnightblue" d="M164.02,-291.47C138.79,-284.97 113.25,-273.85 95,-255 70.78,-229.98 76,-213.82 76,-179 76,-179 76,-179 76,-121 76,-75.81 122.95,-42.05 154.36,-24.52"/>
<polygon fill="midnightblue" stroke="midnightblue" points="156.37,-27.41 163.54,-19.61 153.07,-21.24 156.37,-27.41"/>
</g>
<!-- Node4&#45;&gt;Node5 -->
<g id="edge6" class="edge">
<title>Node4&#45;&gt;Node5</title>
<path fill="none" stroke="midnightblue" d="M270.77,-291.48C291.48,-281.53 325.95,-264.99 349.99,-253.46"/>
<polygon fill="midnightblue" stroke="midnightblue" points="351.77,-256.49 359.27,-249.01 348.74,-250.18 351.77,-256.49"/>
</g>
<!-- Node4&#45;&gt;Node8 -->
<g id="edge25" class="edge">
<title>Node4&#45;&gt;Node8</title>
<path fill="none" stroke="midnightblue" d="M338.63,-291.47C388.87,-284.65 445.78,-273.16 463,-255 492.05,-224.36 490.41,-170.6 487.04,-142.06"/>
<polygon fill="midnightblue" stroke="midnightblue" points="490.46,-141.25 485.62,-131.83 483.53,-142.21 490.46,-141.25"/>
</g>
<!-- Node16 -->
<g id="node16" class="node">
<title>Node16</title>
<g id="a_node16"><a xlink:href="lharmony__KeySignature__impl_8h.html" target="_top" xlink:title="This file contains implementation details for the KeySignature class.">
<polygon fill="white" stroke="black" points="104.5,-224.5 104.5,-254.5 243.5,-254.5 243.5,-224.5 104.5,-224.5"/>
<text text-anchor="start" x="112.5" y="-242.5" font-family="Helvetica,sans-Serif" font-size="10.00">./lharmony_KeySignature</text>
<text text-anchor="middle" x="174" y="-231.5" font-family="Helvetica,sans-Serif" font-size="10.00">_impl.h</text>
</a>
</g>
</g>
<!-- Node4&#45;&gt;Node16 -->
<g id="edge26" class="edge">
<title>Node4&#45;&gt;Node16</title>
<path fill="none" stroke="midnightblue" d="M241.68,-291.48C231.08,-283.49 214.83,-271.25 200.91,-260.77"/>
<polygon fill="midnightblue" stroke="midnightblue" points="202.71,-257.74 192.62,-254.52 198.5,-263.33 202.71,-257.74"/>
</g>
<!-- Node5&#45;&gt;Node2 -->
<g id="edge7" class="edge">
<title>Node5&#45;&gt;Node2</title>
<path fill="none" stroke="midnightblue" d="M341.32,-229.98C293.32,-218.5 208.54,-198.25 161.62,-187.03"/>
<polygon fill="midnightblue" stroke="midnightblue" points="162.19,-183.57 151.65,-184.65 160.56,-190.38 162.19,-183.57"/>
</g>
<!-- Node5&#45;&gt;Node3 -->
<g id="edge8" class="edge">
<title>Node5&#45;&gt;Node3</title>
<path fill="none" stroke="midnightblue" d="M336.04,-229.97C309.98,-222.7 277.1,-209.83 255,-188 209.33,-142.9 191.02,-65.13 184.78,-29.64"/>
<polygon fill="midnightblue" stroke="midnightblue" points="188.23,-29 183.16,-19.69 181.32,-30.13 188.23,-29"/>
</g>
<!-- Node6 -->
<g id="node6" class="node">
<title>Node6</title>
<g id="a_node6"><a xlink:href="lharmony__Pitch_8h.html" target="_top" xlink:title="This file defines the Pitch class.">
<polygon fill="white" stroke="black" points="264.5,-168.5 264.5,-187.5 415.5,-187.5 415.5,-168.5 264.5,-168.5"/>
<text text-anchor="middle" x="340" y="-175.5" font-family="Helvetica,sans-Serif" font-size="10.00">lharmony/lharmony_Pitch.h</text>
</a>
</g>
</g>
<!-- Node5&#45;&gt;Node6 -->
<g id="edge9" class="edge">
<title>Node5&#45;&gt;Node6</title>
<path fill="none" stroke="midnightblue" d="M371.7,-229.98C366.26,-221.23 357.64,-207.37 350.76,-196.31"/>
<polygon fill="midnightblue" stroke="midnightblue" points="353.54,-194.15 345.29,-187.51 347.6,-197.85 353.54,-194.15"/>
</g>
<!-- Node5&#45;&gt;Node8 -->
<g id="edge24" class="edge">
<title>Node5&#45;&gt;Node8</title>
<path fill="none" stroke="midnightblue" d="M384.99,-229.93C394.36,-219.89 410.32,-202.76 424,-188 439.39,-171.4 456.95,-152.36 469.08,-139.2"/>
<polygon fill="midnightblue" stroke="midnightblue" points="471.66,-141.57 475.86,-131.84 466.51,-136.82 471.66,-141.57"/>
</g>
<!-- Node6&#45;&gt;Node3 -->
<g id="edge11" class="edge">
<title>Node6&#45;&gt;Node3</title>
<path fill="none" stroke="midnightblue" d="M324.3,-168.49C310,-160.29 288.76,-146.94 273,-132 238.81,-99.59 207.9,-53.26 192.42,-28.38"/>
<polygon fill="midnightblue" stroke="midnightblue" points="195.31,-26.4 187.11,-19.69 189.34,-30.05 195.31,-26.4"/>
</g>
<!-- Node7 -->
<g id="node7" class="node">
<title>Node7</title>
<g id="a_node7"><a xlink:title=" ">
<polygon fill="white" stroke="#bfbfbf" points="282.5,-112.5 282.5,-131.5 339.5,-131.5 339.5,-112.5 282.5,-112.5"/>
<text text-anchor="middle" x="311" y="-119.5" font-family="Helvetica,sans-Serif" font-size="10.00">ostream</text>
</a>
</g>
</g>
<!-- Node6&#45;&gt;Node7 -->
<g id="edge10" class="edge">
<title>Node6&#45;&gt;Node7</title>
<path fill="none" stroke="midnightblue" d="M335.21,-168.08C331.24,-160.69 325.47,-149.95 320.57,-140.81"/>
<polygon fill="midnightblue" stroke="midnightblue" points="323.51,-138.91 315.7,-131.75 317.35,-142.22 323.51,-138.91"/>
</g>
<!-- Node6&#45;&gt;Node8 -->
<g id="edge12" class="edge">
<title>Node6&#45;&gt;Node8</title>
<path fill="none" stroke="midnightblue" d="M362.82,-168.44C386.83,-159.44 424.83,-145.19 451.87,-135.05"/>
<polygon fill="midnightblue" stroke="midnightblue" points="453.16,-138.3 461.29,-131.52 450.7,-131.75 453.16,-138.3"/>
</g>
<!-- Node12 -->
<g id="node12" class="node">
<title>Node12</title>
<g id="a_node12"><a xlink:href="lharmony__PitchUtils_8h.html" target="_top" xlink:title="This file contains miscellaneous pitch utilities.">
<polygon fill="white" stroke="black" points="284.5,-56.5 284.5,-75.5 457.5,-75.5 457.5,-56.5 284.5,-56.5"/>
<text text-anchor="middle" x="371" y="-63.5" font-family="Helvetica,sans-Serif" font-size="10.00">lharmony/lharmony_PitchUtils.h</text>
</a>
</g>
</g>
<!-- Node6&#45;&gt;Node12 -->
<g id="edge23" class="edge">
<title>Node6&#45;&gt;Node12</title>
<path fill="none" stroke="midnightblue" d="M342.43,-168.37C347.46,-150.54 359.08,-109.3 365.85,-85.27"/>
<polygon fill="midnightblue" stroke="midnightblue" points="369.23,-86.17 368.58,-75.59 362.5,-84.27 369.23,-86.17"/>
</g>
<!-- Node8&#45;&gt;Node3 -->
<g id="edge16" class="edge">
<title>Node8&#45;&gt;Node3</title>
<path fill="none" stroke="midnightblue" d="M410.22,-112.43C369.17,-105.88 317.87,-94.69 275,-76 246.14,-63.42 217.06,-41.21 199.29,-26.3"/>
<polygon fill="midnightblue" stroke="midnightblue" points="201.39,-23.49 191.52,-19.64 196.84,-28.8 201.39,-23.49"/>
</g>
<!-- Node9 -->
<g id="node9" class="node">
<title>Node9</title>
<g id="a_node9"><a xlink:title=" ">
<polygon fill="white" stroke="#bfbfbf" points="568,-0.5 568,-19.5 610,-19.5 610,-0.5 568,-0.5"/>
<text text-anchor="middle" x="589" y="-7.5" font-family="Helvetica,sans-Serif" font-size="10.00">array</text>
</a>
</g>
</g>
<!-- Node8&#45;&gt;Node9 -->
<g id="edge13" class="edge">
<title>Node8&#45;&gt;Node9</title>
<path fill="none" stroke="midnightblue" d="M572.56,-114.23C596.96,-107.8 620.85,-96.29 636,-76 648.82,-58.84 629.26,-38.83 611.61,-25.59"/>
<polygon fill="midnightblue" stroke="midnightblue" points="613.43,-22.6 603.25,-19.68 609.39,-28.31 613.43,-22.6"/>
</g>
<!-- Node10 -->
<g id="node10" class="node">
<title>Node10</title>
<g id="a_node10"><a xlink:title=" ">
<polygon fill="white" stroke="#bfbfbf" points="475.5,-56.5 475.5,-75.5 548.5,-75.5 548.5,-56.5 475.5,-56.5"/>
<text text-anchor="middle" x="512" y="-63.5" font-family="Helvetica,sans-Serif" font-size="10.00">string_view</text>
</a>
</g>
</g>
<!-- Node8&#45;&gt;Node10 -->
<g id="edge14" class="edge">
<title>Node8&#45;&gt;Node10</title>
<path fill="none" stroke="midnightblue" d="M488.62,-112.08C492.46,-104.69 498.02,-93.95 502.76,-84.81"/>
<polygon fill="midnightblue" stroke="midnightblue" points="505.97,-86.24 507.46,-75.75 499.75,-83.02 505.97,-86.24"/>
</g>
<!-- Node11 -->
<g id="node11" class="node">
<title>Node11</title>
<g id="a_node11"><a xlink:title=" ">
<polygon fill="white" stroke="#bfbfbf" points="567,-56.5 567,-75.5 627,-75.5 627,-56.5 567,-56.5"/>
<text text-anchor="middle" x="597" y="-63.5" font-family="Helvetica,sans-Serif" font-size="10.00">iostream</text>
</a>
</g>
</g>
<!-- Node8&#45;&gt;Node11 -->
<g id="edge15" class="edge">
<title>Node8&#45;&gt;Node11</title>
<path fill="none" stroke="midnightblue" d="M501.91,-112.44C520.25,-103.68 549.01,-89.94 570.09,-79.86"/>
<polygon fill="midnightblue" stroke="midnightblue" points="571.67,-82.99 579.18,-75.52 568.65,-76.67 571.67,-82.99"/>
</g>
<!-- Node8&#45;&gt;Node12 -->
<g id="edge17" class="edge">
<title>Node8&#45;&gt;Node12</title>
<path fill="none" stroke="midnightblue" d="M466.09,-112.44C447.75,-103.68 418.99,-89.94 397.91,-79.86"/>
<polygon fill="midnightblue" stroke="midnightblue" points="399.35,-76.67 388.82,-75.52 396.33,-82.99 399.35,-76.67"/>
</g>
<!-- Node12&#45;&gt;Node3 -->
<g id="edge22" class="edge">
<title>Node12&#45;&gt;Node3</title>
<path fill="none" stroke="midnightblue" d="M341.05,-56.44C308.84,-47.24 257.47,-32.56 221.86,-22.39"/>
<polygon fill="midnightblue" stroke="midnightblue" points="222.38,-18.9 211.81,-19.52 220.46,-25.63 222.38,-18.9"/>
</g>
<!-- Node12&#45;&gt;Node9 -->
<g id="edge18" class="edge">
<title>Node12&#45;&gt;Node9</title>
<path fill="none" stroke="midnightblue" d="M405.54,-56.44C447.51,-46.05 517.69,-28.66 558,-18.68"/>
<polygon fill="midnightblue" stroke="midnightblue" points="558.94,-22.05 567.8,-16.25 557.25,-15.26 558.94,-22.05"/>
</g>
<!-- Node13 -->
<g id="node13" class="node">
<title>Node13</title>
<g id="a_node13"><a xlink:title=" ">
<polygon fill="white" stroke="#bfbfbf" points="345,-0.5 345,-19.5 397,-19.5 397,-0.5 345,-0.5"/>
<text text-anchor="middle" x="371" y="-7.5" font-family="Helvetica,sans-Serif" font-size="10.00">cassert</text>
</a>
</g>
</g>
<!-- Node12&#45;&gt;Node13 -->
<g id="edge19" class="edge">
<title>Node12&#45;&gt;Node13</title>
<path fill="none" stroke="midnightblue" d="M371,-56.08C371,-49.01 371,-38.86 371,-29.99"/>
<polygon fill="midnightblue" stroke="midnightblue" points="374.5,-29.75 371,-19.75 367.5,-29.75 374.5,-29.75"/>
</g>
<!-- Node14 -->
<g id="node14" class="node">
<title>Node14</title>
<g id="a_node14"><a xlink:title=" ">
<polygon fill="white" stroke="#bfbfbf" points="415.5,-0.5 415.5,-19.5 484.5,-19.5 484.5,-0.5 415.5,-0.5"/>
<text text-anchor="middle" x="450" y="-7.5" font-family="Helvetica,sans-Serif" font-size="10.00">type_traits</text>
</a>
</g>
</g>
<!-- Node12&#45;&gt;Node14 -->
<g id="edge20" class="edge">
<title>Node12&#45;&gt;Node14</title>
<path fill="none" stroke="midnightblue" d="M383.69,-56.32C395.9,-47.98 414.58,-35.21 429,-25.35"/>
<polygon fill="midnightblue" stroke="midnightblue" points="431.06,-28.19 437.34,-19.65 427.11,-22.41 431.06,-28.19"/>
</g>
<!-- Node15 -->
<g id="node15" class="node">
<title>Node15</title>
<g id="a_node15"><a xlink:title=" ">
<polygon fill="white" stroke="#bfbfbf" points="279.5,-0.5 279.5,-19.5 326.5,-19.5 326.5,-0.5 279.5,-0.5"/>
<text text-anchor="middle" x="303" y="-7.5" font-family="Helvetica,sans-Serif" font-size="10.00">cmath</text>
</a>
</g>
</g>
<!-- Node12&#45;&gt;Node15 -->
<g id="edge21" class="edge">
<title>Node12&#45;&gt;Node15</title>
<path fill="none" stroke="midnightblue" d="M360.07,-56.32C349.83,-48.18 334.28,-35.84 322,-26.09"/>
<polygon fill="midnightblue" stroke="midnightblue" points="324.13,-23.31 314.12,-19.83 319.78,-28.79 324.13,-23.31"/>
</g>
</g>
</svg>
