<?xml version="1.0" encoding="UTF-8" standalone="no"?>
<!DOCTYPE svg PUBLIC "-//W3C//DTD SVG 1.1//EN"
 "http://www.w3.org/Graphics/SVG/1.1/DTD/svg11.dtd">
<!-- Generated by graphviz version 2.43.0 (0)
 -->
<!-- Title: lharmony_Octatonic.h Pages: 1 -->
<svg width="598pt" height="308pt"
 viewBox="0.00 0.00 598.00 308.00" xmlns="http://www.w3.org/2000/svg" xmlns:xlink="http://www.w3.org/1999/xlink">
<g id="graph0" class="graph" transform="scale(1 1) rotate(0) translate(4 304)">
<title>lharmony_Octatonic.h</title>
<polygon fill="white" stroke="transparent" points="-4,4 -4,-304 594,-304 594,4 -4,4"/>
<!-- Node1 -->
<g id="node1" class="node">
<title>Node1</title>
<g id="a_node1"><a xlink:title="This file defines the Octatonic scale class.">
<polygon fill="#bfbfbf" stroke="black" points="42,-280.5 42,-299.5 166,-299.5 166,-280.5 42,-280.5"/>
<text text-anchor="middle" x="104" y="-287.5" font-family="Helvetica,sans-Serif" font-size="10.00">lharmony_Octatonic.h</text>
</a>
</g>
</g>
<!-- Node2 -->
<g id="node2" class="node">
<title>Node2</title>
<g id="a_node2"><a xlink:title=" ">
<polygon fill="white" stroke="#bfbfbf" points="28.5,-168.5 28.5,-187.5 75.5,-187.5 75.5,-168.5 28.5,-168.5"/>
<text text-anchor="middle" x="52" y="-175.5" font-family="Helvetica,sans-Serif" font-size="10.00">vector</text>
</a>
</g>
</g>
<!-- Node1&#45;&gt;Node2 -->
<g id="edge1" class="edge">
<title>Node1&#45;&gt;Node2</title>
<path fill="none" stroke="midnightblue" d="M96.17,-280.3C88.76,-271.65 77.78,-257.73 71,-244 63.68,-229.17 58.67,-211.02 55.64,-197.67"/>
<polygon fill="midnightblue" stroke="midnightblue" points="59.04,-196.83 53.55,-187.77 52.19,-198.27 59.04,-196.83"/>
</g>
<!-- Node3 -->
<g id="node3" class="node">
<title>Node3</title>
<g id="a_node3"><a xlink:title=" ">
<polygon fill="white" stroke="#bfbfbf" points="26,-0.5 26,-19.5 184,-19.5 184,-0.5 26,-0.5"/>
<text text-anchor="middle" x="105" y="-7.5" font-family="Helvetica,sans-Serif" font-size="10.00">lharmony/lharmony_Export.h</text>
</a>
</g>
</g>
<!-- Node1&#45;&gt;Node3 -->
<g id="edge2" class="edge">
<title>Node1&#45;&gt;Node3</title>
<path fill="none" stroke="midnightblue" d="M85.88,-280.3C56.09,-264.57 0,-228.41 0,-179 0,-179 0,-179 0,-121 0,-76.02 46.51,-42.19 77.62,-24.59"/>
<polygon fill="midnightblue" stroke="midnightblue" points="79.59,-27.5 86.71,-19.65 76.25,-21.35 79.59,-27.5"/>
</g>
<!-- Node4 -->
<g id="node4" class="node">
<title>Node4</title>
<g id="a_node4"><a xlink:href="lharmony__Scale_8h.html" target="_top" xlink:title="This file defines the Scale class.">
<polygon fill="white" stroke="black" points="80.5,-224.5 80.5,-243.5 233.5,-243.5 233.5,-224.5 80.5,-224.5"/>
<text text-anchor="middle" x="157" y="-231.5" font-family="Helvetica,sans-Serif" font-size="10.00">lharmony/lharmony_Scale.h</text>
</a>
</g>
</g>
<!-- Node1&#45;&gt;Node4 -->
<g id="edge3" class="edge">
<title>Node1&#45;&gt;Node4</title>
<path fill="none" stroke="midnightblue" d="M112.75,-280.08C120.47,-272.22 131.9,-260.57 141.22,-251.08"/>
<polygon fill="midnightblue" stroke="midnightblue" points="143.9,-253.34 148.41,-243.75 138.91,-248.44 143.9,-253.34"/>
</g>
<!-- Node7 -->
<g id="node7" class="node">
<title>Node7</title>
<g id="a_node7"><a xlink:href="lharmony__PitchClass_8h.html" target="_top" xlink:title="This file defines the PitchClass class.">
<polygon fill="white" stroke="black" points="283.5,-112.5 283.5,-131.5 460.5,-131.5 460.5,-112.5 283.5,-112.5"/>
<text text-anchor="middle" x="372" y="-119.5" font-family="Helvetica,sans-Serif" font-size="10.00">lharmony/lharmony_PitchClass.h</text>
</a>
</g>
</g>
<!-- Node1&#45;&gt;Node7 -->
<g id="edge22" class="edge">
<title>Node1&#45;&gt;Node7</title>
<path fill="none" stroke="midnightblue" d="M140.04,-280.45C168.59,-272.93 209.02,-260.59 242,-244 280.45,-224.67 289.84,-217.68 321,-188 336.36,-173.37 350.99,-153.95 360.61,-140.16"/>
<polygon fill="midnightblue" stroke="midnightblue" points="363.68,-141.88 366.42,-131.64 357.89,-137.93 363.68,-141.88"/>
</g>
<!-- Node4&#45;&gt;Node2 -->
<g id="edge4" class="edge">
<title>Node4&#45;&gt;Node2</title>
<path fill="none" stroke="midnightblue" d="M140.13,-224.32C123.29,-215.66 97.19,-202.24 77.76,-192.25"/>
<polygon fill="midnightblue" stroke="midnightblue" points="79.32,-189.12 68.83,-187.65 76.12,-195.34 79.32,-189.12"/>
</g>
<!-- Node4&#45;&gt;Node3 -->
<g id="edge5" class="edge">
<title>Node4&#45;&gt;Node3</title>
<path fill="none" stroke="midnightblue" d="M148.05,-224.27C139.99,-215.82 128.58,-202.22 123,-188 101.69,-133.73 102.02,-63.27 103.66,-29.99"/>
<polygon fill="midnightblue" stroke="midnightblue" points="107.16,-30.05 104.26,-19.86 100.18,-29.64 107.16,-30.05"/>
</g>
<!-- Node5 -->
<g id="node5" class="node">
<title>Node5</title>
<g id="a_node5"><a xlink:href="lharmony__Pitch_8h.html" target="_top" xlink:title="This file defines the Pitch class.">
<polygon fill="white" stroke="black" points="132.5,-168.5 132.5,-187.5 283.5,-187.5 283.5,-168.5 132.5,-168.5"/>
<text text-anchor="middle" x="208" y="-175.5" font-family="Helvetica,sans-Serif" font-size="10.00">lharmony/lharmony_Pitch.h</text>
</a>
</g>
</g>
<!-- Node4&#45;&gt;Node5 -->
<g id="edge6" class="edge">
<title>Node4&#45;&gt;Node5</title>
<path fill="none" stroke="midnightblue" d="M165.42,-224.08C172.85,-216.22 183.85,-204.57 192.81,-195.08"/>
<polygon fill="midnightblue" stroke="midnightblue" points="195.41,-197.42 199.74,-187.75 190.32,-192.62 195.41,-197.42"/>
</g>
<!-- Node4&#45;&gt;Node7 -->
<g id="edge21" class="edge">
<title>Node4&#45;&gt;Node7</title>
<path fill="none" stroke="midnightblue" d="M194.9,-224.48C223.07,-217.2 261.86,-205.18 293,-188 317.15,-174.68 341.06,-153.61 356.14,-139.09"/>
<polygon fill="midnightblue" stroke="midnightblue" points="358.89,-141.3 363.56,-131.79 353.98,-136.31 358.89,-141.3"/>
</g>
<!-- Node5&#45;&gt;Node3 -->
<g id="edge8" class="edge">
<title>Node5&#45;&gt;Node3</title>
<path fill="none" stroke="midnightblue" d="M202.46,-168.08C186.04,-141.61 137.39,-63.21 115.68,-28.21"/>
<polygon fill="midnightblue" stroke="midnightblue" points="118.56,-26.22 110.32,-19.57 112.61,-29.91 118.56,-26.22"/>
</g>
<!-- Node6 -->
<g id="node6" class="node">
<title>Node6</title>
<g id="a_node6"><a xlink:title=" ">
<polygon fill="white" stroke="#bfbfbf" points="208.5,-112.5 208.5,-131.5 265.5,-131.5 265.5,-112.5 208.5,-112.5"/>
<text text-anchor="middle" x="237" y="-119.5" font-family="Helvetica,sans-Serif" font-size="10.00">ostream</text>
</a>
</g>
</g>
<!-- Node5&#45;&gt;Node6 -->
<g id="edge7" class="edge">
<title>Node5&#45;&gt;Node6</title>
<path fill="none" stroke="midnightblue" d="M212.79,-168.08C216.76,-160.69 222.53,-149.95 227.43,-140.81"/>
<polygon fill="midnightblue" stroke="midnightblue" points="230.65,-142.22 232.3,-131.75 224.49,-138.91 230.65,-142.22"/>
</g>
<!-- Node5&#45;&gt;Node7 -->
<g id="edge9" class="edge">
<title>Node5&#45;&gt;Node7</title>
<path fill="none" stroke="midnightblue" d="M233.99,-168.44C261.7,-159.32 305.75,-144.81 336.62,-134.65"/>
<polygon fill="midnightblue" stroke="midnightblue" points="337.73,-137.97 346.14,-131.52 335.54,-131.32 337.73,-137.97"/>
</g>
<!-- Node11 -->
<g id="node11" class="node">
<title>Node11</title>
<g id="a_node11"><a xlink:href="lharmony__PitchUtils_8h.html" target="_top" xlink:title="This file contains miscellaneous pitch utilities.">
<polygon fill="white" stroke="black" points="208.5,-56.5 208.5,-75.5 381.5,-75.5 381.5,-56.5 208.5,-56.5"/>
<text text-anchor="middle" x="295" y="-63.5" font-family="Helvetica,sans-Serif" font-size="10.00">lharmony/lharmony_PitchUtils.h</text>
</a>
</g>
</g>
<!-- Node5&#45;&gt;Node11 -->
<g id="edge20" class="edge">
<title>Node5&#45;&gt;Node11</title>
<path fill="none" stroke="midnightblue" d="M203.39,-168.23C197.12,-154.97 187.88,-129.5 199,-112 209.16,-96.01 226.68,-85.6 243.98,-78.87"/>
<polygon fill="midnightblue" stroke="midnightblue" points="245.27,-82.13 253.53,-75.5 242.93,-75.53 245.27,-82.13"/>
</g>
<!-- Node7&#45;&gt;Node3 -->
<g id="edge13" class="edge">
<title>Node7&#45;&gt;Node3</title>
<path fill="none" stroke="midnightblue" d="M320.05,-112.43C284.82,-105.44 237.79,-93.78 199,-76 170.32,-62.86 141.01,-40.97 122.91,-26.27"/>
<polygon fill="midnightblue" stroke="midnightblue" points="124.91,-23.38 114.98,-19.7 120.45,-28.77 124.91,-23.38"/>
</g>
<!-- Node8 -->
<g id="node8" class="node">
<title>Node8</title>
<g id="a_node8"><a xlink:title=" ">
<polygon fill="white" stroke="#bfbfbf" points="425,-0.5 425,-19.5 467,-19.5 467,-0.5 425,-0.5"/>
<text text-anchor="middle" x="446" y="-7.5" font-family="Helvetica,sans-Serif" font-size="10.00">array</text>
</a>
</g>
</g>
<!-- Node7&#45;&gt;Node8 -->
<g id="edge10" class="edge">
<title>Node7&#45;&gt;Node8</title>
<path fill="none" stroke="midnightblue" d="M377.81,-112.37C390.02,-94.22 418.55,-51.8 434.57,-27.99"/>
<polygon fill="midnightblue" stroke="midnightblue" points="437.54,-29.84 440.22,-19.59 431.73,-25.94 437.54,-29.84"/>
</g>
<!-- Node9 -->
<g id="node9" class="node">
<title>Node9</title>
<g id="a_node9"><a xlink:title=" ">
<polygon fill="white" stroke="#bfbfbf" points="438.5,-56.5 438.5,-75.5 511.5,-75.5 511.5,-56.5 438.5,-56.5"/>
<text text-anchor="middle" x="475" y="-63.5" font-family="Helvetica,sans-Serif" font-size="10.00">string_view</text>
</a>
</g>
</g>
<!-- Node7&#45;&gt;Node9 -->
<g id="edge11" class="edge">
<title>Node7&#45;&gt;Node9</title>
<path fill="none" stroke="midnightblue" d="M388.55,-112.32C404.99,-103.7 430.43,-90.36 449.47,-80.39"/>
<polygon fill="midnightblue" stroke="midnightblue" points="451.26,-83.4 458.49,-75.65 448.01,-77.2 451.26,-83.4"/>
</g>
<!-- Node10 -->
<g id="node10" class="node">
<title>Node10</title>
<g id="a_node10"><a xlink:title=" ">
<polygon fill="white" stroke="#bfbfbf" points="530,-56.5 530,-75.5 590,-75.5 590,-56.5 530,-56.5"/>
<text text-anchor="middle" x="560" y="-63.5" font-family="Helvetica,sans-Serif" font-size="10.00">iostream</text>
</a>
</g>
</g>
<!-- Node7&#45;&gt;Node10 -->
<g id="edge12" class="edge">
<title>Node7&#45;&gt;Node10</title>
<path fill="none" stroke="midnightblue" d="M401.79,-112.44C433.83,-103.24 484.93,-88.56 520.35,-78.39"/>
<polygon fill="midnightblue" stroke="midnightblue" points="521.71,-81.64 530.35,-75.52 519.77,-74.91 521.71,-81.64"/>
</g>
<!-- Node7&#45;&gt;Node11 -->
<g id="edge14" class="edge">
<title>Node7&#45;&gt;Node11</title>
<path fill="none" stroke="midnightblue" d="M359.63,-112.32C347.84,-104.06 329.87,-91.45 315.86,-81.63"/>
<polygon fill="midnightblue" stroke="midnightblue" points="317.54,-78.53 307.34,-75.65 313.52,-84.26 317.54,-78.53"/>
</g>
<!-- Node11&#45;&gt;Node3 -->
<g id="edge19" class="edge">
<title>Node11&#45;&gt;Node3</title>
<path fill="none" stroke="midnightblue" d="M264.89,-56.44C232.37,-47.2 180.42,-32.44 144.61,-22.26"/>
<polygon fill="midnightblue" stroke="midnightblue" points="145.54,-18.88 134.97,-19.52 143.63,-25.62 145.54,-18.88"/>
</g>
<!-- Node11&#45;&gt;Node8 -->
<g id="edge15" class="edge">
<title>Node11&#45;&gt;Node8</title>
<path fill="none" stroke="midnightblue" d="M318.93,-56.44C344.96,-47.13 386.67,-32.22 415.15,-22.03"/>
<polygon fill="midnightblue" stroke="midnightblue" points="416.39,-25.31 424.63,-18.64 414.03,-18.72 416.39,-25.31"/>
</g>
<!-- Node12 -->
<g id="node12" class="node">
<title>Node12</title>
<g id="a_node12"><a xlink:title=" ">
<polygon fill="white" stroke="#bfbfbf" points="267,-0.5 267,-19.5 319,-19.5 319,-0.5 267,-0.5"/>
<text text-anchor="middle" x="293" y="-7.5" font-family="Helvetica,sans-Serif" font-size="10.00">cassert</text>
</a>
</g>
</g>
<!-- Node11&#45;&gt;Node12 -->
<g id="edge16" class="edge">
<title>Node11&#45;&gt;Node12</title>
<path fill="none" stroke="midnightblue" d="M294.67,-56.08C294.41,-49.01 294.03,-38.86 293.7,-29.99"/>
<polygon fill="midnightblue" stroke="midnightblue" points="297.19,-29.61 293.32,-19.75 290.2,-29.87 297.19,-29.61"/>
</g>
<!-- Node13 -->
<g id="node13" class="node">
<title>Node13</title>
<g id="a_node13"><a xlink:title=" ">
<polygon fill="white" stroke="#bfbfbf" points="337.5,-0.5 337.5,-19.5 406.5,-19.5 406.5,-0.5 337.5,-0.5"/>
<text text-anchor="middle" x="372" y="-7.5" font-family="Helvetica,sans-Serif" font-size="10.00">type_traits</text>
</a>
</g>
</g>
<!-- Node11&#45;&gt;Node13 -->
<g id="edge17" class="edge">
<title>Node11&#45;&gt;Node13</title>
<path fill="none" stroke="midnightblue" d="M307.37,-56.32C319.16,-48.06 337.13,-35.45 351.14,-25.63"/>
<polygon fill="midnightblue" stroke="midnightblue" points="353.48,-28.26 359.66,-19.65 349.46,-22.53 353.48,-28.26"/>
</g>
<!-- Node14 -->
<g id="node14" class="node">
<title>Node14</title>
<g id="a_node14"><a xlink:title=" ">
<polygon fill="white" stroke="#bfbfbf" points="201.5,-0.5 201.5,-19.5 248.5,-19.5 248.5,-0.5 201.5,-0.5"/>
<text text-anchor="middle" x="225" y="-7.5" font-family="Helvetica,sans-Serif" font-size="10.00">cmath</text>
</a>
</g>
</g>
<!-- Node11&#45;&gt;Node14 -->
<g id="edge18" class="edge">
<title>Node11&#45;&gt;Node14</title>
<path fill="none" stroke="midnightblue" d="M283.75,-56.32C273.2,-48.18 257.2,-35.84 244.56,-26.09"/>
<polygon fill="midnightblue" stroke="midnightblue" points="246.51,-23.17 236.45,-19.83 242.23,-28.71 246.51,-23.17"/>
</g>
</g>
</svg>
