<?xml version="1.0" encoding="UTF-8" standalone="no"?>
<!DOCTYPE svg PUBLIC "-//W3C//DTD SVG 1.1//EN"
 "http://www.w3.org/Graphics/SVG/1.1/DTD/svg11.dtd">
<!-- Generated by graphviz version 8.0.5 (20230430.1635)
 -->
<!-- Title: lharmony_CompoundInterval.h Pages: 1 -->
<svg width="662pt" height="315pt"
 viewBox="0.00 0.00 661.50 314.75" xmlns="http://www.w3.org/2000/svg" xmlns:xlink="http://www.w3.org/1999/xlink">
<g id="graph0" class="graph" transform="scale(1 1) rotate(0) translate(4 310.75)">
<title>lharmony_CompoundInterval.h</title>
<!-- Node1 -->
<g id="Node000001" class="node">
<title>Node1</title>
<g id="a_Node000001"><a xlink:title="This file defines the CompoundInterval class.">
<polygon fill="#999999" stroke="#666666" points="168.38,-306.75 19.62,-306.75 19.62,-287.5 168.38,-287.5 168.38,-306.75"/>
<text text-anchor="middle" x="94" y="-293.25" font-family="Helvetica,sans-Serif" font-size="10.00">lharmony_CompoundInterval.h</text>
</a>
</g>
</g>
<!-- Node2 -->
<g id="Node000002" class="node">
<title>Node2</title>
<g id="a_Node000002"><a xlink:title=" ">
<polygon fill="#e0e0e0" stroke="#999999" points="71.5,-185 28.5,-185 28.5,-165.75 71.5,-165.75 71.5,-185"/>
<text text-anchor="middle" x="50" y="-171.5" font-family="Helvetica,sans-Serif" font-size="10.00">vector</text>
</a>
</g>
</g>
<!-- Node1&#45;&gt;Node2 -->
<g id="edge1_Node000001_Node000002" class="edge">
<title>Node1&#45;&gt;Node2</title>
<g id="a_edge1_Node000001_Node000002"><a xlink:title=" ">
<path fill="none" stroke="#63b8ff" d="M86.06,-287.25C78.87,-278.71 68.58,-265.12 63,-251.5 55.63,-233.53 52.44,-211.47 51.05,-195.92"/>
<polygon fill="#63b8ff" stroke="#63b8ff" points="54.48,-195.77 50.29,-186.04 47.5,-196.27 54.48,-195.77"/>
</a>
</g>
</g>
<!-- Node3 -->
<g id="Node000003" class="node">
<title>Node3</title>
<g id="a_Node000003"><a xlink:title=" ">
<polygon fill="#e0e0e0" stroke="#999999" points="266.25,-19.25 125.75,-19.25 125.75,0 266.25,0 266.25,-19.25"/>
<text text-anchor="middle" x="196" y="-5.75" font-family="Helvetica,sans-Serif" font-size="10.00">lharmony/lharmony_Export.h</text>
</a>
</g>
</g>
<!-- Node1&#45;&gt;Node3 -->
<g id="edge2_Node000001_Node000003" class="edge">
<title>Node1&#45;&gt;Node3</title>
<g id="a_edge2_Node000001_Node000003"><a xlink:title=" ">
<path fill="none" stroke="#63b8ff" d="M79.72,-287.21C53.43,-269.54 0,-227.38 0,-176.38 0,-176.38 0,-176.38 0,-119.12 0,-62.31 63.82,-35 118.63,-22.03"/>
<polygon fill="#63b8ff" stroke="#63b8ff" points="119.1,-25.29 128.1,-19.7 117.57,-18.46 119.1,-25.29"/>
</a>
</g>
</g>
<!-- Node4 -->
<g id="Node000004" class="node">
<title>Node4</title>
<g id="a_Node000004"><a xlink:href="lharmony___interval_8h.html" target="_top" xlink:title="This file defines the Interval class.">
<polygon fill="white" stroke="#666666" points="216.12,-245.88 71.88,-245.88 71.88,-226.62 216.12,-226.62 216.12,-245.88"/>
<text text-anchor="middle" x="144" y="-232.38" font-family="Helvetica,sans-Serif" font-size="10.00">lharmony/lharmony_Interval.h</text>
</a>
</g>
</g>
<!-- Node1&#45;&gt;Node4 -->
<g id="edge3_Node000001_Node000004" class="edge">
<title>Node1&#45;&gt;Node4</title>
<g id="a_edge3_Node000001_Node000004"><a xlink:title=" ">
<path fill="none" stroke="#63b8ff" d="M101.59,-287.18C108.94,-278.54 120.25,-265.21 129.35,-254.5"/>
<polygon fill="#63b8ff" stroke="#63b8ff" points="132.53,-257.16 136.33,-247.28 127.19,-252.63 132.53,-257.16"/>
</a>
</g>
</g>
<!-- Node16 -->
<g id="Node000016" class="node">
<title>Node16</title>
<g id="a_Node000016"><a xlink:href="lharmony___compound_interval__impl_8h.html" target="_top" xlink:title="This file contains implementation details for the CompoundInterval class.">
<polygon fill="white" stroke="#666666" points="380.25,-251.5 233.75,-251.5 233.75,-221 380.25,-221 380.25,-251.5"/>
<text text-anchor="start" x="241.75" y="-238" font-family="Helvetica,sans-Serif" font-size="10.00">./lharmony_CompoundInterval</text>
<text text-anchor="middle" x="307" y="-226.75" font-family="Helvetica,sans-Serif" font-size="10.00">_impl.h</text>
</a>
</g>
</g>
<!-- Node1&#45;&gt;Node16 -->
<g id="edge22_Node000001_Node000016" class="edge">
<title>Node1&#45;&gt;Node16</title>
<g id="a_edge22_Node000001_Node000016"><a xlink:title=" ">
<path fill="none" stroke="#63b8ff" d="M126.81,-287.05C157.75,-278.5 204.95,-265.46 243.28,-254.86"/>
<polygon fill="#63b8ff" stroke="#63b8ff" points="244.13,-257.98 252.84,-251.94 242.27,-251.24 244.13,-257.98"/>
</a>
</g>
</g>
<!-- Node4&#45;&gt;Node2 -->
<g id="edge4_Node000004_Node000002" class="edge">
<title>Node4&#45;&gt;Node2</title>
<g id="a_edge4_Node000004_Node000002"><a xlink:title=" ">
<path fill="none" stroke="#63b8ff" d="M129.72,-226.31C114.82,-216.97 91.19,-202.17 73.52,-191.11"/>
<polygon fill="#63b8ff" stroke="#63b8ff" points="75.74,-187.74 65.41,-185.4 72.03,-193.68 75.74,-187.74"/>
</a>
</g>
</g>
<!-- Node4&#45;&gt;Node3 -->
<g id="edge6_Node000004_Node000003" class="edge">
<title>Node4&#45;&gt;Node3</title>
<g id="a_edge6_Node000004_Node000003"><a xlink:title=" ">
<path fill="none" stroke="#63b8ff" d="M146.1,-226.17C153.83,-192.79 180.75,-76.49 191.51,-30.02"/>
<polygon fill="#63b8ff" stroke="#63b8ff" points="195.08,-31.11 193.93,-20.58 188.26,-29.53 195.08,-31.11"/>
</a>
</g>
</g>
<!-- Node5 -->
<g id="Node000005" class="node">
<title>Node5</title>
<g id="a_Node000005"><a xlink:title=" ">
<polygon fill="#e0e0e0" stroke="#999999" points="130,-185 90,-185 90,-165.75 130,-165.75 130,-185"/>
<text text-anchor="middle" x="110" y="-171.5" font-family="Helvetica,sans-Serif" font-size="10.00">string</text>
</a>
</g>
</g>
<!-- Node4&#45;&gt;Node5 -->
<g id="edge5_Node000004_Node000005" class="edge">
<title>Node4&#45;&gt;Node5</title>
<g id="a_edge5_Node000004_Node000005"><a xlink:title=" ">
<path fill="none" stroke="#63b8ff" d="M138.84,-226.31C134.04,-218.01 126.76,-205.39 120.71,-194.92"/>
<polygon fill="#63b8ff" stroke="#63b8ff" points="123.24,-193.31 115.21,-186.4 117.18,-196.81 123.24,-193.31"/>
</a>
</g>
</g>
<!-- Node6 -->
<g id="Node000006" class="node">
<title>Node6</title>
<g id="a_Node000006"><a xlink:href="lharmony___pitch_8h.html" target="_top" xlink:title="This file defines the Pitch class.">
<polygon fill="white" stroke="#666666" points="320.25,-185 185.75,-185 185.75,-165.75 320.25,-165.75 320.25,-185"/>
<text text-anchor="middle" x="253" y="-171.5" font-family="Helvetica,sans-Serif" font-size="10.00">lharmony/lharmony_Pitch.h</text>
</a>
</g>
</g>
<!-- Node4&#45;&gt;Node6 -->
<g id="edge7_Node000004_Node000006" class="edge">
<title>Node4&#45;&gt;Node6</title>
<g id="a_edge7_Node000004_Node000006"><a xlink:title=" ">
<path fill="none" stroke="#63b8ff" d="M160.55,-226.31C178.16,-216.8 206.26,-201.62 226.86,-190.5"/>
<polygon fill="#63b8ff" stroke="#63b8ff" points="228.15,-193.23 235.29,-185.4 224.83,-187.07 228.15,-193.23"/>
</a>
</g>
</g>
<!-- Node6&#45;&gt;Node3 -->
<g id="edge9_Node000006_Node000003" class="edge">
<title>Node6&#45;&gt;Node3</title>
<g id="a_edge9_Node000006_Node000003"><a xlink:title=" ">
<path fill="none" stroke="#63b8ff" d="M242.83,-165.55C233.98,-157.24 221.56,-143.98 215,-129.75 199.93,-97.04 196.53,-54.53 195.93,-30.14"/>
<polygon fill="#63b8ff" stroke="#63b8ff" points="199.42,-30.43 195.81,-20.46 192.42,-30.5 199.42,-30.43"/>
</a>
</g>
</g>
<!-- Node7 -->
<g id="Node000007" class="node">
<title>Node7</title>
<g id="a_Node000007"><a xlink:title=" ">
<polygon fill="#e0e0e0" stroke="#999999" points="275.62,-129.75 224.38,-129.75 224.38,-110.5 275.62,-110.5 275.62,-129.75"/>
<text text-anchor="middle" x="250" y="-116.25" font-family="Helvetica,sans-Serif" font-size="10.00">ostream</text>
</a>
</g>
</g>
<!-- Node6&#45;&gt;Node7 -->
<g id="edge8_Node000006_Node000007" class="edge">
<title>Node6&#45;&gt;Node7</title>
<g id="a_edge8_Node000006_Node000007"><a xlink:title=" ">
<path fill="none" stroke="#63b8ff" d="M252.5,-165.58C252.13,-158.92 251.6,-149.49 251.12,-141.03"/>
<polygon fill="#63b8ff" stroke="#63b8ff" points="254.56,-140.9 250.51,-131.11 247.57,-141.29 254.56,-140.9"/>
</a>
</g>
</g>
<!-- Node8 -->
<g id="Node000008" class="node">
<title>Node8</title>
<g id="a_Node000008"><a xlink:href="lharmony___pitch_class_8h.html" target="_top" xlink:title="This file defines the PitchClass class.">
<polygon fill="white" stroke="#666666" points="454,-129.75 294,-129.75 294,-110.5 454,-110.5 454,-129.75"/>
<text text-anchor="middle" x="374" y="-116.25" font-family="Helvetica,sans-Serif" font-size="10.00">lharmony/lharmony_PitchClass.h</text>
</a>
</g>
</g>
<!-- Node6&#45;&gt;Node8 -->
<g id="edge10_Node000006_Node000008" class="edge">
<title>Node6&#45;&gt;Node8</title>
<g id="a_edge10_Node000006_Node000008"><a xlink:title=" ">
<path fill="none" stroke="#63b8ff" d="M273.53,-165.34C292.73,-156.89 321.67,-144.15 343.57,-134.52"/>
<polygon fill="#63b8ff" stroke="#63b8ff" points="344.63,-137.43 352.37,-130.2 341.81,-131.03 344.63,-137.43"/>
</a>
</g>
</g>
<!-- Node12 -->
<g id="Node000012" class="node">
<title>Node12</title>
<g id="a_Node000012"><a xlink:href="lharmony___pitch_utils_8h.html" target="_top" xlink:title="This file contains miscellaneous pitch utilities.">
<polygon fill="white" stroke="#666666" points="610.38,-74.5 455.62,-74.5 455.62,-55.25 610.38,-55.25 610.38,-74.5"/>
<text text-anchor="middle" x="533" y="-61" font-family="Helvetica,sans-Serif" font-size="10.00">lharmony/lharmony_PitchUtils.h</text>
</a>
</g>
</g>
<!-- Node6&#45;&gt;Node12 -->
<g id="edge21_Node000006_Node000012" class="edge">
<title>Node6&#45;&gt;Node12</title>
<g id="a_edge21_Node000006_Node000012"><a xlink:title=" ">
<path fill="none" stroke="#63b8ff" d="M320.35,-169.18C363.12,-163.73 418.57,-152.57 463,-129.75 485.3,-118.3 505.85,-97.85 518.84,-83.17"/>
<polygon fill="#63b8ff" stroke="#63b8ff" points="522.06,-85.79 525.89,-75.91 516.74,-81.24 522.06,-85.79"/>
</a>
</g>
</g>
<!-- Node8&#45;&gt;Node3 -->
<g id="edge14_Node000008_Node000003" class="edge">
<title>Node8&#45;&gt;Node3</title>
<g id="a_edge14_Node000008_Node000003"><a xlink:title=" ">
<path fill="none" stroke="#63b8ff" d="M335.2,-110.04C310.27,-102.99 277.99,-91.51 253,-74.5 234.83,-62.13 218.63,-42.74 208.19,-28.56"/>
<polygon fill="#63b8ff" stroke="#63b8ff" points="210.57,-26.87 201.93,-20.73 204.86,-30.92 210.57,-26.87"/>
</a>
</g>
</g>
<!-- Node9 -->
<g id="Node000009" class="node">
<title>Node9</title>
<g id="a_Node000009"><a xlink:title=" ">
<polygon fill="#e0e0e0" stroke="#999999" points="446.88,-19.25 409.12,-19.25 409.12,0 446.88,0 446.88,-19.25"/>
<text text-anchor="middle" x="428" y="-5.75" font-family="Helvetica,sans-Serif" font-size="10.00">array</text>
</a>
</g>
</g>
<!-- Node8&#45;&gt;Node9 -->
<g id="edge11_Node000008_Node000009" class="edge">
<title>Node8&#45;&gt;Node9</title>
<g id="a_edge11_Node000008_Node000009"><a xlink:title=" ">
<path fill="none" stroke="#63b8ff" d="M382.62,-110.26C390.49,-101.73 401.95,-88.14 409,-74.5 416.24,-60.49 421.16,-43.3 424.17,-30.28"/>
<polygon fill="#63b8ff" stroke="#63b8ff" points="427.76,-31.22 426.42,-20.71 420.92,-29.76 427.76,-31.22"/>
</a>
</g>
</g>
<!-- Node10 -->
<g id="Node000010" class="node">
<title>Node10</title>
<g id="a_Node000010"><a xlink:title=" ">
<polygon fill="#e0e0e0" stroke="#999999" points="327.75,-74.5 262.25,-74.5 262.25,-55.25 327.75,-55.25 327.75,-74.5"/>
<text text-anchor="middle" x="295" y="-61" font-family="Helvetica,sans-Serif" font-size="10.00">string_view</text>
</a>
</g>
</g>
<!-- Node8&#45;&gt;Node10 -->
<g id="edge12_Node000008_Node000010" class="edge">
<title>Node8&#45;&gt;Node10</title>
<g id="a_edge12_Node000008_Node000010"><a xlink:title=" ">
<path fill="none" stroke="#63b8ff" d="M360.6,-110.09C348.8,-102.14 331.36,-90.39 317.44,-81"/>
<polygon fill="#63b8ff" stroke="#63b8ff" points="319.72,-77.64 309.47,-74.95 315.8,-83.44 319.72,-77.64"/>
</a>
</g>
</g>
<!-- Node11 -->
<g id="Node000011" class="node">
<title>Node11</title>
<g id="a_Node000011"><a xlink:title=" ">
<polygon fill="#e0e0e0" stroke="#999999" points="399.75,-74.5 346.25,-74.5 346.25,-55.25 399.75,-55.25 399.75,-74.5"/>
<text text-anchor="middle" x="373" y="-61" font-family="Helvetica,sans-Serif" font-size="10.00">iostream</text>
</a>
</g>
</g>
<!-- Node8&#45;&gt;Node11 -->
<g id="edge13_Node000008_Node000011" class="edge">
<title>Node8&#45;&gt;Node11</title>
<g id="a_edge13_Node000008_Node000011"><a xlink:title=" ">
<path fill="none" stroke="#63b8ff" d="M373.83,-110.33C373.71,-103.67 373.53,-94.24 373.37,-85.78"/>
<polygon fill="#63b8ff" stroke="#63b8ff" points="376.86,-85.79 373.17,-75.86 369.86,-85.92 376.86,-85.79"/>
</a>
</g>
</g>
<!-- Node8&#45;&gt;Node12 -->
<g id="edge15_Node000008_Node000012" class="edge">
<title>Node8&#45;&gt;Node12</title>
<g id="a_edge15_Node000008_Node000012"><a xlink:title=" ">
<path fill="none" stroke="#63b8ff" d="M400.97,-110.09C427.01,-101.37 466.66,-88.09 495.72,-78.36"/>
<polygon fill="#63b8ff" stroke="#63b8ff" points="496.52,-81.45 504.9,-74.95 494.3,-74.81 496.52,-81.45"/>
</a>
</g>
</g>
<!-- Node12&#45;&gt;Node3 -->
<g id="edge20_Node000012_Node000003" class="edge">
<title>Node12&#45;&gt;Node3</title>
<g id="a_edge20_Node000012_Node000003"><a xlink:title=" ">
<path fill="none" stroke="#63b8ff" d="M475.45,-54.78C417.02,-45.55 326.53,-31.25 264.46,-21.44"/>
<polygon fill="#63b8ff" stroke="#63b8ff" points="265.02,-17.83 254.59,-19.73 263.93,-24.74 265.02,-17.83"/>
</a>
</g>
</g>
<!-- Node12&#45;&gt;Node9 -->
<g id="edge16_Node000012_Node000009" class="edge">
<title>Node12&#45;&gt;Node9</title>
<g id="a_edge16_Node000012_Node000009"><a xlink:title=" ">
<path fill="none" stroke="#63b8ff" d="M515.19,-54.84C498.9,-46.58 474.54,-34.23 455.71,-24.68"/>
<polygon fill="#63b8ff" stroke="#63b8ff" points="457.4,-21.1 446.9,-19.7 454.23,-27.35 457.4,-21.1"/>
</a>
</g>
</g>
<!-- Node13 -->
<g id="Node000013" class="node">
<title>Node13</title>
<g id="a_Node000013"><a xlink:title=" ">
<polygon fill="#e0e0e0" stroke="#999999" points="513.12,-19.25 464.88,-19.25 464.88,0 513.12,0 513.12,-19.25"/>
<text text-anchor="middle" x="489" y="-5.75" font-family="Helvetica,sans-Serif" font-size="10.00">cassert</text>
</a>
</g>
</g>
<!-- Node12&#45;&gt;Node13 -->
<g id="edge17_Node000012_Node000013" class="edge">
<title>Node12&#45;&gt;Node13</title>
<g id="a_edge17_Node000012_Node000013"><a xlink:title=" ">
<path fill="none" stroke="#63b8ff" d="M525.73,-55.08C519.66,-47.73 510.8,-37.01 503.31,-27.94"/>
<polygon fill="#63b8ff" stroke="#63b8ff" points="505.49,-26.09 496.42,-20.61 500.1,-30.55 505.49,-26.09"/>
</a>
</g>
</g>
<!-- Node14 -->
<g id="Node000014" class="node">
<title>Node14</title>
<g id="a_Node000014"><a xlink:title=" ">
<polygon fill="#e0e0e0" stroke="#999999" points="592.88,-19.25 531.12,-19.25 531.12,0 592.88,0 592.88,-19.25"/>
<text text-anchor="middle" x="562" y="-5.75" font-family="Helvetica,sans-Serif" font-size="10.00">type_traits</text>
</a>
</g>
</g>
<!-- Node12&#45;&gt;Node14 -->
<g id="edge18_Node000012_Node000014" class="edge">
<title>Node12&#45;&gt;Node14</title>
<g id="a_edge18_Node000012_Node000014"><a xlink:title=" ">
<path fill="none" stroke="#63b8ff" d="M537.79,-55.08C541.63,-48.03 547.15,-37.9 551.95,-29.08"/>
<polygon fill="#63b8ff" stroke="#63b8ff" points="555.4,-31.07 557.11,-20.61 549.25,-27.72 555.4,-31.07"/>
</a>
</g>
</g>
<!-- Node15 -->
<g id="Node000015" class="node">
<title>Node15</title>
<g id="a_Node000015"><a xlink:title=" ">
<polygon fill="#e0e0e0" stroke="#999999" points="653.5,-19.25 610.5,-19.25 610.5,0 653.5,0 653.5,-19.25"/>
<text text-anchor="middle" x="632" y="-5.75" font-family="Helvetica,sans-Serif" font-size="10.00">cmath</text>
</a>
</g>
</g>
<!-- Node12&#45;&gt;Node15 -->
<g id="edge19_Node000012_Node000015" class="edge">
<title>Node12&#45;&gt;Node15</title>
<g id="a_edge19_Node000012_Node000015"><a xlink:title=" ">
<path fill="none" stroke="#63b8ff" d="M549.79,-54.84C565.15,-46.58 588.12,-34.23 605.88,-24.68"/>
<polygon fill="#63b8ff" stroke="#63b8ff" points="606.97,-27.52 614.12,-19.7 603.66,-21.36 606.97,-27.52"/>
</a>
</g>
</g>
</g>
</svg>
