<?xml version="1.0" encoding="UTF-8" standalone="no"?>
<!DOCTYPE svg PUBLIC "-//W3C//DTD SVG 1.1//EN"
 "http://www.w3.org/Graphics/SVG/1.1/DTD/svg11.dtd">
<!-- Generated by graphviz version 2.43.0 (0)
 -->
<!-- Title: lharmony_Interval.h Pages: 1 -->
<svg width="632pt" height="252pt"
 viewBox="0.00 0.00 631.50 252.00" xmlns="http://www.w3.org/2000/svg" xmlns:xlink="http://www.w3.org/1999/xlink">
<g id="graph0" class="graph" transform="scale(1 1) rotate(0) translate(4 248)">
<title>lharmony_Interval.h</title>
<polygon fill="white" stroke="transparent" points="-4,4 -4,-248 627.5,-248 627.5,4 -4,4"/>
<!-- Node1 -->
<g id="node1" class="node">
<title>Node1</title>
<g id="a_node1"><a xlink:title="This file defines the Interval class.">
<polygon fill="#bfbfbf" stroke="black" points="55,-224.5 55,-243.5 170,-243.5 170,-224.5 55,-224.5"/>
<text text-anchor="middle" x="112.5" y="-231.5" font-family="Helvetica,sans-Serif" font-size="10.00">lharmony_Interval.h</text>
</a>
</g>
</g>
<!-- Node2 -->
<g id="node2" class="node">
<title>Node2</title>
<g id="a_node2"><a xlink:title=" ">
<polygon fill="white" stroke="#bfbfbf" points="0,-168.5 0,-187.5 47,-187.5 47,-168.5 0,-168.5"/>
<text text-anchor="middle" x="23.5" y="-175.5" font-family="Helvetica,sans-Serif" font-size="10.00">vector</text>
</a>
</g>
</g>
<!-- Node1&#45;&gt;Node2 -->
<g id="edge1" class="edge">
<title>Node1&#45;&gt;Node2</title>
<path fill="none" stroke="midnightblue" d="M98.2,-224.32C84.32,-215.9 63.01,-202.97 46.7,-193.07"/>
<polygon fill="midnightblue" stroke="midnightblue" points="48.13,-189.85 37.76,-187.65 44.5,-195.83 48.13,-189.85"/>
</g>
<!-- Node3 -->
<g id="node3" class="node">
<title>Node3</title>
<g id="a_node3"><a xlink:title=" ">
<polygon fill="white" stroke="#bfbfbf" points="65.5,-168.5 65.5,-187.5 109.5,-187.5 109.5,-168.5 65.5,-168.5"/>
<text text-anchor="middle" x="87.5" y="-175.5" font-family="Helvetica,sans-Serif" font-size="10.00">string</text>
</a>
</g>
</g>
<!-- Node1&#45;&gt;Node3 -->
<g id="edge2" class="edge">
<title>Node1&#45;&gt;Node3</title>
<path fill="none" stroke="midnightblue" d="M108.37,-224.08C104.99,-216.77 100.08,-206.18 95.88,-197.1"/>
<polygon fill="midnightblue" stroke="midnightblue" points="98.93,-195.36 91.55,-187.75 92.58,-198.3 98.93,-195.36"/>
</g>
<!-- Node4 -->
<g id="node4" class="node">
<title>Node4</title>
<g id="a_node4"><a xlink:title=" ">
<polygon fill="white" stroke="#bfbfbf" points="58.5,-0.5 58.5,-19.5 216.5,-19.5 216.5,-0.5 58.5,-0.5"/>
<text text-anchor="middle" x="137.5" y="-7.5" font-family="Helvetica,sans-Serif" font-size="10.00">lharmony/lharmony_Export.h</text>
</a>
</g>
</g>
<!-- Node1&#45;&gt;Node4 -->
<g id="edge3" class="edge">
<title>Node1&#45;&gt;Node4</title>
<path fill="none" stroke="midnightblue" d="M113.72,-224.38C114.98,-215.33 116.97,-200.68 118.5,-188 125.41,-130.61 132.36,-62.6 135.61,-30.12"/>
<polygon fill="midnightblue" stroke="midnightblue" points="139.12,-30.15 136.63,-19.85 132.16,-29.45 139.12,-30.15"/>
</g>
<!-- Node5 -->
<g id="node5" class="node">
<title>Node5</title>
<g id="a_node5"><a xlink:href="lharmony__Pitch_8h.html" target="_top" xlink:title="This file defines the Pitch class.">
<polygon fill="white" stroke="black" points="170,-168.5 170,-187.5 321,-187.5 321,-168.5 170,-168.5"/>
<text text-anchor="middle" x="245.5" y="-175.5" font-family="Helvetica,sans-Serif" font-size="10.00">lharmony/lharmony_Pitch.h</text>
</a>
</g>
</g>
<!-- Node1&#45;&gt;Node5 -->
<g id="edge4" class="edge">
<title>Node1&#45;&gt;Node5</title>
<path fill="none" stroke="midnightblue" d="M133.57,-224.44C155.56,-215.52 190.23,-201.44 215.16,-191.32"/>
<polygon fill="midnightblue" stroke="midnightblue" points="216.58,-194.52 224.52,-187.52 213.94,-188.04 216.58,-194.52"/>
</g>
<!-- Node5&#45;&gt;Node4 -->
<g id="edge6" class="edge">
<title>Node5&#45;&gt;Node4</title>
<path fill="none" stroke="midnightblue" d="M237.45,-168.41C229.4,-159.62 216.91,-145.38 207.5,-132 182.83,-96.91 158.85,-52.6 146.38,-28.52"/>
<polygon fill="midnightblue" stroke="midnightblue" points="149.44,-26.83 141.77,-19.53 143.22,-30.02 149.44,-26.83"/>
</g>
<!-- Node6 -->
<g id="node6" class="node">
<title>Node6</title>
<g id="a_node6"><a xlink:title=" ">
<polygon fill="white" stroke="#bfbfbf" points="217,-112.5 217,-131.5 274,-131.5 274,-112.5 217,-112.5"/>
<text text-anchor="middle" x="245.5" y="-119.5" font-family="Helvetica,sans-Serif" font-size="10.00">ostream</text>
</a>
</g>
</g>
<!-- Node5&#45;&gt;Node6 -->
<g id="edge5" class="edge">
<title>Node5&#45;&gt;Node6</title>
<path fill="none" stroke="midnightblue" d="M245.5,-168.08C245.5,-161.01 245.5,-150.86 245.5,-141.99"/>
<polygon fill="midnightblue" stroke="midnightblue" points="249,-141.75 245.5,-131.75 242,-141.75 249,-141.75"/>
</g>
<!-- Node7 -->
<g id="node7" class="node">
<title>Node7</title>
<g id="a_node7"><a xlink:href="lharmony__PitchClass_8h.html" target="_top" xlink:title="This file defines the PitchClass class.">
<polygon fill="white" stroke="black" points="351,-112.5 351,-131.5 528,-131.5 528,-112.5 351,-112.5"/>
<text text-anchor="middle" x="439.5" y="-119.5" font-family="Helvetica,sans-Serif" font-size="10.00">lharmony/lharmony_PitchClass.h</text>
</a>
</g>
</g>
<!-- Node5&#45;&gt;Node7 -->
<g id="edge7" class="edge">
<title>Node5&#45;&gt;Node7</title>
<path fill="none" stroke="midnightblue" d="M276.24,-168.44C309.44,-159.2 362.49,-144.44 399.06,-134.26"/>
<polygon fill="midnightblue" stroke="midnightblue" points="400.21,-137.57 408.9,-131.52 398.33,-130.83 400.21,-137.57"/>
</g>
<!-- Node11 -->
<g id="node11" class="node">
<title>Node11</title>
<g id="a_node11"><a xlink:href="lharmony__PitchUtils_8h.html" target="_top" xlink:title="This file contains miscellaneous pitch utilities.">
<polygon fill="white" stroke="black" points="242,-56.5 242,-75.5 415,-75.5 415,-56.5 242,-56.5"/>
<text text-anchor="middle" x="328.5" y="-63.5" font-family="Helvetica,sans-Serif" font-size="10.00">lharmony/lharmony_PitchUtils.h</text>
</a>
</g>
</g>
<!-- Node5&#45;&gt;Node11 -->
<g id="edge18" class="edge">
<title>Node5&#45;&gt;Node11</title>
<path fill="none" stroke="midnightblue" d="M253.06,-168.19C260.68,-159.23 272.68,-144.86 282.5,-132 294.65,-116.08 307.78,-97.37 316.89,-84.12"/>
<polygon fill="midnightblue" stroke="midnightblue" points="319.99,-85.79 322.74,-75.55 314.21,-81.84 319.99,-85.79"/>
</g>
<!-- Node7&#45;&gt;Node4 -->
<g id="edge11" class="edge">
<title>Node7&#45;&gt;Node4</title>
<path fill="none" stroke="midnightblue" d="M368.42,-112.48C327.48,-105.89 275.73,-94.64 232.5,-76 203.17,-63.35 173.43,-41.16 155.22,-26.27"/>
<polygon fill="midnightblue" stroke="midnightblue" points="157.19,-23.35 147.27,-19.62 152.7,-28.72 157.19,-23.35"/>
</g>
<!-- Node8 -->
<g id="node8" class="node">
<title>Node8</title>
<g id="a_node8"><a xlink:title=" ">
<polygon fill="white" stroke="#bfbfbf" points="457.5,-0.5 457.5,-19.5 499.5,-19.5 499.5,-0.5 457.5,-0.5"/>
<text text-anchor="middle" x="478.5" y="-7.5" font-family="Helvetica,sans-Serif" font-size="10.00">array</text>
</a>
</g>
</g>
<!-- Node7&#45;&gt;Node8 -->
<g id="edge8" class="edge">
<title>Node7&#45;&gt;Node8</title>
<path fill="none" stroke="midnightblue" d="M442.56,-112.37C448.88,-94.54 463.5,-53.3 472.02,-29.27"/>
<polygon fill="midnightblue" stroke="midnightblue" points="475.41,-30.19 475.45,-19.59 468.81,-27.85 475.41,-30.19"/>
</g>
<!-- Node9 -->
<g id="node9" class="node">
<title>Node9</title>
<g id="a_node9"><a xlink:title=" ">
<polygon fill="white" stroke="#bfbfbf" points="472,-56.5 472,-75.5 545,-75.5 545,-56.5 472,-56.5"/>
<text text-anchor="middle" x="508.5" y="-63.5" font-family="Helvetica,sans-Serif" font-size="10.00">string_view</text>
</a>
</g>
</g>
<!-- Node7&#45;&gt;Node9 -->
<g id="edge9" class="edge">
<title>Node7&#45;&gt;Node9</title>
<path fill="none" stroke="midnightblue" d="M450.59,-112.32C460.99,-104.18 476.76,-91.84 489.22,-82.09"/>
<polygon fill="midnightblue" stroke="midnightblue" points="491.49,-84.75 497.21,-75.83 487.18,-79.24 491.49,-84.75"/>
</g>
<!-- Node10 -->
<g id="node10" class="node">
<title>Node10</title>
<g id="a_node10"><a xlink:title=" ">
<polygon fill="white" stroke="#bfbfbf" points="563.5,-56.5 563.5,-75.5 623.5,-75.5 623.5,-56.5 563.5,-56.5"/>
<text text-anchor="middle" x="593.5" y="-63.5" font-family="Helvetica,sans-Serif" font-size="10.00">iostream</text>
</a>
</g>
</g>
<!-- Node7&#45;&gt;Node10 -->
<g id="edge10" class="edge">
<title>Node7&#45;&gt;Node10</title>
<path fill="none" stroke="midnightblue" d="M463.9,-112.44C489.7,-103.4 530.58,-89.06 559.52,-78.92"/>
<polygon fill="midnightblue" stroke="midnightblue" points="560.93,-82.13 569.21,-75.52 558.62,-75.52 560.93,-82.13"/>
</g>
<!-- Node7&#45;&gt;Node11 -->
<g id="edge12" class="edge">
<title>Node7&#45;&gt;Node11</title>
<path fill="none" stroke="midnightblue" d="M421.67,-112.32C403.78,-103.62 376.02,-90.12 355.45,-80.11"/>
<polygon fill="midnightblue" stroke="midnightblue" points="356.81,-76.88 346.29,-75.65 353.75,-83.18 356.81,-76.88"/>
</g>
<!-- Node11&#45;&gt;Node4 -->
<g id="edge17" class="edge">
<title>Node11&#45;&gt;Node4</title>
<path fill="none" stroke="midnightblue" d="M298.24,-56.44C265.54,-47.2 213.32,-32.44 177.32,-22.26"/>
<polygon fill="midnightblue" stroke="midnightblue" points="178.2,-18.87 167.62,-19.52 176.29,-25.61 178.2,-18.87"/>
</g>
<!-- Node11&#45;&gt;Node8 -->
<g id="edge13" class="edge">
<title>Node11&#45;&gt;Node8</title>
<path fill="none" stroke="midnightblue" d="M352.27,-56.44C378.13,-47.13 419.57,-32.22 447.86,-22.03"/>
<polygon fill="midnightblue" stroke="midnightblue" points="449.05,-25.32 457.27,-18.64 446.67,-18.74 449.05,-25.32"/>
</g>
<!-- Node12 -->
<g id="node12" class="node">
<title>Node12</title>
<g id="a_node12"><a xlink:title=" ">
<polygon fill="white" stroke="#bfbfbf" points="234.5,-0.5 234.5,-19.5 286.5,-19.5 286.5,-0.5 234.5,-0.5"/>
<text text-anchor="middle" x="260.5" y="-7.5" font-family="Helvetica,sans-Serif" font-size="10.00">cassert</text>
</a>
</g>
</g>
<!-- Node11&#45;&gt;Node12 -->
<g id="edge14" class="edge">
<title>Node11&#45;&gt;Node12</title>
<path fill="none" stroke="midnightblue" d="M317.57,-56.32C307.33,-48.18 291.78,-35.84 279.5,-26.09"/>
<polygon fill="midnightblue" stroke="midnightblue" points="281.63,-23.31 271.62,-19.83 277.28,-28.79 281.63,-23.31"/>
</g>
<!-- Node13 -->
<g id="node13" class="node">
<title>Node13</title>
<g id="a_node13"><a xlink:title=" ">
<polygon fill="white" stroke="#bfbfbf" points="305,-0.5 305,-19.5 374,-19.5 374,-0.5 305,-0.5"/>
<text text-anchor="middle" x="339.5" y="-7.5" font-family="Helvetica,sans-Serif" font-size="10.00">type_traits</text>
</a>
</g>
</g>
<!-- Node11&#45;&gt;Node13 -->
<g id="edge15" class="edge">
<title>Node11&#45;&gt;Node13</title>
<path fill="none" stroke="midnightblue" d="M330.32,-56.08C331.77,-48.93 333.87,-38.64 335.69,-29.69"/>
<polygon fill="midnightblue" stroke="midnightblue" points="339.15,-30.25 337.72,-19.75 332.29,-28.85 339.15,-30.25"/>
</g>
<!-- Node14 -->
<g id="node14" class="node">
<title>Node14</title>
<g id="a_node14"><a xlink:title=" ">
<polygon fill="white" stroke="#bfbfbf" points="392,-0.5 392,-19.5 439,-19.5 439,-0.5 392,-0.5"/>
<text text-anchor="middle" x="415.5" y="-7.5" font-family="Helvetica,sans-Serif" font-size="10.00">cmath</text>
</a>
</g>
</g>
<!-- Node11&#45;&gt;Node14 -->
<g id="edge16" class="edge">
<title>Node11&#45;&gt;Node14</title>
<path fill="none" stroke="midnightblue" d="M342.48,-56.32C356.05,-47.9 376.88,-34.97 392.82,-25.07"/>
<polygon fill="midnightblue" stroke="midnightblue" points="394.91,-27.9 401.56,-19.65 391.21,-21.95 394.91,-27.9"/>
</g>
</g>
</svg>
