<?xml version="1.0" encoding="UTF-8" standalone="no"?>
<!DOCTYPE svg PUBLIC "-//W3C//DTD SVG 1.1//EN"
 "http://www.w3.org/Graphics/SVG/1.1/DTD/svg11.dtd">
<!-- Generated by graphviz version 8.0.5 (20230430.1635)
 -->
<!-- Title: lharmony_PitchUtils.h Pages: 1 -->
<svg width="411pt" height="83pt"
 viewBox="0.00 0.00 411.12 82.50" xmlns="http://www.w3.org/2000/svg" xmlns:xlink="http://www.w3.org/1999/xlink">

<svg id="main" version="1.1" xmlns="http://www.w3.org/2000/svg" xmlns:xlink="http://www.w3.org/1999/xlink" xml:space="preserve" onload="init(evt)">
<style type="text/css"><![CDATA[
.node, .edge {opacity: 0.7;}
.node.selected, .edge.selected {opacity: 1;}
.edge:hover path { stroke: red; }
.edge:hover polygon { stroke: red; fill: red; }
]]></style>
<script type="application/ecmascript" xlink:href="svg.min.js"/>
<svg id="graph" class="graph">
<g id="graph0" class="graph" transform="scale(1 1) rotate(0) translate(4 78.5)">
<title>lharmony_PitchUtils.h</title>
<!-- Node1 -->
<g id="Node000001" class="node">
<title>Node1</title>
<g id="a_Node000001"><a xlink:title="This file contains miscellaneous pitch utilities.">
<polygon fill="#999999" stroke="#666666" points="208.88,-74.5 96.88,-74.5 96.88,-55.25 208.88,-55.25 208.88,-74.5"/>
<text text-anchor="middle" x="152.88" y="-61" font-family="Helvetica,sans-Serif" font-size="10.00">lharmony_PitchUtils.h</text>
</a>
</g>
</g>
<!-- Node2 -->
<g id="Node000002" class="node">
<title>Node2</title>
<g id="a_Node000002"><a xlink:title=" ">
<polygon fill="#e0e0e0" stroke="#999999" points="37.75,-19.25 0,-19.25 0,0 37.75,0 37.75,-19.25"/>
<text text-anchor="middle" x="18.88" y="-5.75" font-family="Helvetica,sans-Serif" font-size="10.00">array</text>
</a>
</g>
</g>
<!-- Node1&#45;&gt;Node2 -->
<g id="edge1_Node000001_Node000002" class="edge">
<title>Node1&#45;&gt;Node2</title>
<g id="a_edge1_Node000001_Node000002"><a xlink:title=" ">
<path fill="none" stroke="#63b8ff" d="M130.14,-54.84C107.64,-45.9 73.07,-32.16 48.44,-22.37"/>
<polygon fill="#63b8ff" stroke="#63b8ff" points="49.82,-18.76 39.23,-18.32 47.23,-25.26 49.82,-18.76"/>
</a>
</g>
</g>
<!-- Node3 -->
<g id="Node000003" class="node">
<title>Node3</title>
<g id="a_Node000003"><a xlink:title=" ">
<polygon fill="#e0e0e0" stroke="#999999" points="104,-19.25 55.75,-19.25 55.75,0 104,0 104,-19.25"/>
<text text-anchor="middle" x="79.88" y="-5.75" font-family="Helvetica,sans-Serif" font-size="10.00">cassert</text>
</a>
</g>
</g>
<!-- Node1&#45;&gt;Node3 -->
<g id="edge2_Node000001_Node000003" class="edge">
<title>Node1&#45;&gt;Node3</title>
<g id="a_edge2_Node000001_Node000003"><a xlink:title=" ">
<path fill="none" stroke="#63b8ff" d="M140.49,-54.84C129.62,-46.91 113.59,-35.22 100.75,-25.85"/>
<polygon fill="#63b8ff" stroke="#63b8ff" points="103.22,-22.59 93.08,-19.52 99.09,-28.25 103.22,-22.59"/>
</a>
</g>
</g>
<!-- Node4 -->
<g id="Node000004" class="node">
<title>Node4</title>
<g id="a_Node000004"><a xlink:title=" ">
<polygon fill="#e0e0e0" stroke="#999999" points="183.75,-19.25 122,-19.25 122,0 183.75,0 183.75,-19.25"/>
<text text-anchor="middle" x="152.88" y="-5.75" font-family="Helvetica,sans-Serif" font-size="10.00">type_traits</text>
</a>
</g>
</g>
<!-- Node1&#45;&gt;Node4 -->
<g id="edge3_Node000001_Node000004" class="edge">
<title>Node1&#45;&gt;Node4</title>
<g id="a_edge3_Node000001_Node000004"><a xlink:title=" ">
<path fill="none" stroke="#63b8ff" d="M152.88,-55.08C152.88,-48.42 152.88,-38.99 152.88,-30.53"/>
<polygon fill="#63b8ff" stroke="#63b8ff" points="156.38,-30.61 152.88,-20.61 149.38,-30.61 156.38,-30.61"/>
</a>
</g>
</g>
<!-- Node5 -->
<g id="Node000005" class="node">
<title>Node5</title>
<g id="a_Node000005"><a xlink:title=" ">
<polygon fill="#e0e0e0" stroke="#999999" points="244.38,-19.25 201.38,-19.25 201.38,0 244.38,0 244.38,-19.25"/>
<text text-anchor="middle" x="222.88" y="-5.75" font-family="Helvetica,sans-Serif" font-size="10.00">cmath</text>
</a>
</g>
</g>
<!-- Node1&#45;&gt;Node5 -->
<g id="edge4_Node000001_Node000005" class="edge">
<title>Node1&#45;&gt;Node5</title>
<g id="a_edge4_Node000001_Node000005"><a xlink:title=" ">
<path fill="none" stroke="#63b8ff" d="M164.75,-54.84C175.07,-46.99 190.24,-35.45 202.5,-26.12"/>
<polygon fill="#63b8ff" stroke="#63b8ff" points="204.34,-28.36 210.18,-19.52 200.1,-22.79 204.34,-28.36"/>
</a>
</g>
</g>
<!-- Node6 -->
<g id="Node000006" class="node">
<title>Node6</title>
<g id="a_Node000006"><a xlink:title=" ">
<polygon fill="#e0e0e0" stroke="#999999" points="403.12,-19.25 262.62,-19.25 262.62,0 403.12,0 403.12,-19.25"/>
<text text-anchor="middle" x="332.88" y="-5.75" font-family="Helvetica,sans-Serif" font-size="10.00">lharmony/lharmony_Export.h</text>
</a>
</g>
</g>
<!-- Node1&#45;&gt;Node6 -->
<g id="edge5_Node000001_Node000006" class="edge">
<title>Node1&#45;&gt;Node6</title>
<g id="a_edge5_Node000001_Node000006"><a xlink:title=" ">
<path fill="none" stroke="#63b8ff" d="M183.41,-54.84C213.28,-46.01 258.96,-32.49 291.96,-22.73"/>
<polygon fill="#63b8ff" stroke="#63b8ff" points="292.59,-25.9 301.19,-19.7 290.61,-19.18 292.59,-25.9"/>
</a>
</g>
</g>
</g>
</svg>
</svg>

<style type='text/css'>
<![CDATA[
[data-mouse-over-selected='false'] { opacity: 0.7; }
[data-mouse-over-selected='true']  { opacity: 1.0; }
]]>
</style>
<script type="application/ecmascript"><![CDATA[
document.addEventListener('DOMContentLoaded', (event) => {
  highlightEdges();
  highlightAdjacentNodes();
});
]]></script>
</svg>
