<?xml version="1.0" encoding="UTF-8" standalone="no"?>
<!DOCTYPE svg PUBLIC "-//W3C//DTD SVG 1.1//EN"
 "http://www.w3.org/Graphics/SVG/1.1/DTD/svg11.dtd">
<!-- Generated by graphviz version 8.0.5 (20230430.1635)
 -->
<!-- Title: lharmony_IntervalConstants.h Pages: 1 -->
<svg width="628pt" height="304pt"
 viewBox="0.00 0.00 627.75 303.50" xmlns="http://www.w3.org/2000/svg" xmlns:xlink="http://www.w3.org/1999/xlink">
<g id="graph0" class="graph" transform="scale(1 1) rotate(0) translate(4 299.5)">
<title>lharmony_IntervalConstants.h</title>
<!-- Node1 -->
<g id="Node000001" class="node">
<title>Node1</title>
<g id="a_Node000001"><a xlink:title="This file provides some useful Interval objects as constants.">
<polygon fill="#999999" stroke="#666666" points="619.75,-295.5 473.25,-295.5 473.25,-276.25 619.75,-276.25 619.75,-295.5"/>
<text text-anchor="middle" x="546.5" y="-282" font-family="Helvetica,sans-Serif" font-size="10.00">lharmony_IntervalConstants.h</text>
</a>
</g>
</g>
<!-- Node2 -->
<g id="Node000002" class="node">
<title>Node2</title>
<g id="a_Node000002"><a xlink:title=" ">
<polygon fill="#e0e0e0" stroke="#999999" points="528.75,-19.25 388.25,-19.25 388.25,0 528.75,0 528.75,-19.25"/>
<text text-anchor="middle" x="458.5" y="-5.75" font-family="Helvetica,sans-Serif" font-size="10.00">lharmony/lharmony_Export.h</text>
</a>
</g>
</g>
<!-- Node1&#45;&gt;Node2 -->
<g id="edge1_Node000001_Node000002" class="edge">
<title>Node1&#45;&gt;Node2</title>
<g id="a_edge1_Node000001_Node000002"><a xlink:title=" ">
<path fill="none" stroke="#63b8ff" d="M554.08,-275.84C561.01,-267.18 571.12,-253.51 577.5,-240.25 590.33,-213.56 596.5,-205.99 596.5,-176.38 596.5,-176.38 596.5,-176.38 596.5,-119.12 596.5,-69.36 540.36,-38.94 499.69,-23.43"/>
<polygon fill="#63b8ff" stroke="#63b8ff" points="501.06,-19.84 490.47,-19.71 498.67,-26.42 501.06,-19.84"/>
</a>
</g>
</g>
<!-- Node3 -->
<g id="Node000003" class="node">
<title>Node3</title>
<g id="a_Node000003"><a xlink:href="lharmony___interval_8h.html" target="_top" xlink:title="This file defines the Interval class.">
<polygon fill="white" stroke="#666666" points="568.62,-240.25 424.38,-240.25 424.38,-221 568.62,-221 568.62,-240.25"/>
<text text-anchor="middle" x="496.5" y="-226.75" font-family="Helvetica,sans-Serif" font-size="10.00">lharmony/lharmony_Interval.h</text>
</a>
</g>
</g>
<!-- Node1&#45;&gt;Node3 -->
<g id="edge2_Node000001_Node000003" class="edge">
<title>Node1&#45;&gt;Node3</title>
<g id="a_edge2_Node000001_Node000003"><a xlink:title=" ">
<path fill="none" stroke="#63b8ff" d="M538.24,-276.08C531.19,-268.57 520.85,-257.56 512.23,-248.38"/>
<polygon fill="#63b8ff" stroke="#63b8ff" points="515.33,-246.5 505.94,-241.61 510.23,-251.3 515.33,-246.5"/>
</a>
</g>
</g>
<!-- Node3&#45;&gt;Node2 -->
<g id="edge5_Node000003_Node000002" class="edge">
<title>Node3&#45;&gt;Node2</title>
<g id="a_edge5_Node000003_Node000002"><a xlink:title=" ">
<path fill="none" stroke="#63b8ff" d="M495.42,-220.87C492.21,-195.26 482.13,-118.33 469.5,-55.25 467.84,-46.94 465.66,-37.84 463.68,-30.04"/>
<polygon fill="#63b8ff" stroke="#63b8ff" points="466.83,-29.26 460.92,-20.46 460.06,-31.02 466.83,-29.26"/>
</a>
</g>
</g>
<!-- Node4 -->
<g id="Node000004" class="node">
<title>Node4</title>
<g id="a_Node000004"><a xlink:title=" ">
<polygon fill="#e0e0e0" stroke="#999999" points="568,-185 525,-185 525,-165.75 568,-165.75 568,-185"/>
<text text-anchor="middle" x="546.5" y="-171.5" font-family="Helvetica,sans-Serif" font-size="10.00">vector</text>
</a>
</g>
</g>
<!-- Node3&#45;&gt;Node4 -->
<g id="edge3_Node000003_Node000004" class="edge">
<title>Node3&#45;&gt;Node4</title>
<g id="a_edge3_Node000003_Node000004"><a xlink:title=" ">
<path fill="none" stroke="#63b8ff" d="M504.76,-220.83C511.81,-213.32 522.15,-202.31 530.77,-193.13"/>
<polygon fill="#63b8ff" stroke="#63b8ff" points="532.77,-196.05 537.06,-186.36 527.67,-191.25 532.77,-196.05"/>
</a>
</g>
</g>
<!-- Node5 -->
<g id="Node000005" class="node">
<title>Node5</title>
<g id="a_Node000005"><a xlink:title=" ">
<polygon fill="#e0e0e0" stroke="#999999" points="316.5,-185 276.5,-185 276.5,-165.75 316.5,-165.75 316.5,-185"/>
<text text-anchor="middle" x="296.5" y="-171.5" font-family="Helvetica,sans-Serif" font-size="10.00">string</text>
</a>
</g>
</g>
<!-- Node3&#45;&gt;Node5 -->
<g id="edge4_Node000003_Node000005" class="edge">
<title>Node3&#45;&gt;Node5</title>
<g id="a_edge4_Node000003_Node000005"><a xlink:title=" ">
<path fill="none" stroke="#63b8ff" d="M460.38,-220.58C427.87,-212.35 378.55,-199.66 327.08,-185.37"/>
<polygon fill="#63b8ff" stroke="#63b8ff" points="328.33,-181.81 317.76,-182.49 326.45,-188.55 328.33,-181.81"/>
</a>
</g>
</g>
<!-- Node6 -->
<g id="Node000006" class="node">
<title>Node6</title>
<g id="a_Node000006"><a xlink:href="lharmony___pitch_8h.html" target="_top" xlink:title="This file defines the Pitch class.">
<polygon fill="white" stroke="#666666" points="468.75,-185 334.25,-185 334.25,-165.75 468.75,-165.75 468.75,-185"/>
<text text-anchor="middle" x="401.5" y="-171.5" font-family="Helvetica,sans-Serif" font-size="10.00">lharmony/lharmony_Pitch.h</text>
</a>
</g>
</g>
<!-- Node3&#45;&gt;Node6 -->
<g id="edge6_Node000003_Node000006" class="edge">
<title>Node3&#45;&gt;Node6</title>
<g id="a_edge6_Node000003_Node000006"><a xlink:title=" ">
<path fill="none" stroke="#63b8ff" d="M480.38,-220.59C465.78,-212.41 444.01,-200.21 427.04,-190.69"/>
<polygon fill="#63b8ff" stroke="#63b8ff" points="429.13,-187.29 418.69,-185.45 425.71,-193.4 429.13,-187.29"/>
</a>
</g>
</g>
<!-- Node6&#45;&gt;Node2 -->
<g id="edge8_Node000006_Node000002" class="edge">
<title>Node6&#45;&gt;Node2</title>
<g id="a_edge8_Node000006_Node000002"><a xlink:title=" ">
<path fill="none" stroke="#63b8ff" d="M411.67,-165.55C420.52,-157.24 432.94,-143.98 439.5,-129.75 454.57,-97.04 457.97,-54.53 458.57,-30.14"/>
<polygon fill="#63b8ff" stroke="#63b8ff" points="462.08,-30.5 458.69,-20.46 455.08,-30.43 462.08,-30.5"/>
</a>
</g>
</g>
<!-- Node7 -->
<g id="Node000007" class="node">
<title>Node7</title>
<g id="a_Node000007"><a xlink:title=" ">
<polygon fill="#e0e0e0" stroke="#999999" points="430.12,-129.75 378.88,-129.75 378.88,-110.5 430.12,-110.5 430.12,-129.75"/>
<text text-anchor="middle" x="404.5" y="-116.25" font-family="Helvetica,sans-Serif" font-size="10.00">ostream</text>
</a>
</g>
</g>
<!-- Node6&#45;&gt;Node7 -->
<g id="edge7_Node000006_Node000007" class="edge">
<title>Node6&#45;&gt;Node7</title>
<g id="a_edge7_Node000006_Node000007"><a xlink:title=" ">
<path fill="none" stroke="#63b8ff" d="M402,-165.58C402.37,-158.92 402.9,-149.49 403.38,-141.03"/>
<polygon fill="#63b8ff" stroke="#63b8ff" points="406.93,-141.29 403.99,-131.11 399.94,-140.9 406.93,-141.29"/>
</a>
</g>
</g>
<!-- Node8 -->
<g id="Node000008" class="node">
<title>Node8</title>
<g id="a_Node000008"><a xlink:href="lharmony___pitch_class_8h.html" target="_top" xlink:title="This file defines the PitchClass class.">
<polygon fill="white" stroke="#666666" points="360.5,-129.75 200.5,-129.75 200.5,-110.5 360.5,-110.5 360.5,-129.75"/>
<text text-anchor="middle" x="280.5" y="-116.25" font-family="Helvetica,sans-Serif" font-size="10.00">lharmony/lharmony_PitchClass.h</text>
</a>
</g>
</g>
<!-- Node6&#45;&gt;Node8 -->
<g id="edge9_Node000006_Node000008" class="edge">
<title>Node6&#45;&gt;Node8</title>
<g id="a_edge9_Node000006_Node000008"><a xlink:title=" ">
<path fill="none" stroke="#63b8ff" d="M380.97,-165.34C361.77,-156.89 332.83,-144.15 310.93,-134.52"/>
<polygon fill="#63b8ff" stroke="#63b8ff" points="312.69,-131.03 302.13,-130.2 309.87,-137.43 312.69,-131.03"/>
</a>
</g>
</g>
<!-- Node12 -->
<g id="Node000012" class="node">
<title>Node12</title>
<g id="a_Node000012"><a xlink:href="lharmony___pitch_utils_8h.html" target="_top" xlink:title="This file contains miscellaneous pitch utilities.">
<polygon fill="white" stroke="#666666" points="198.88,-74.5 44.12,-74.5 44.12,-55.25 198.88,-55.25 198.88,-74.5"/>
<text text-anchor="middle" x="121.5" y="-61" font-family="Helvetica,sans-Serif" font-size="10.00">lharmony/lharmony_PitchUtils.h</text>
</a>
</g>
</g>
<!-- Node6&#45;&gt;Node12 -->
<g id="edge20_Node000006_Node000012" class="edge">
<title>Node6&#45;&gt;Node12</title>
<g id="a_edge20_Node000006_Node000012"><a xlink:title=" ">
<path fill="none" stroke="#63b8ff" d="M341.74,-165.26C289.22,-156.61 217.28,-142.99 191.5,-129.75 169.2,-118.3 148.65,-97.85 135.66,-83.17"/>
<polygon fill="#63b8ff" stroke="#63b8ff" points="137.76,-81.24 128.61,-75.91 132.44,-85.79 137.76,-81.24"/>
</a>
</g>
</g>
<!-- Node8&#45;&gt;Node2 -->
<g id="edge13_Node000008_Node000002" class="edge">
<title>Node8&#45;&gt;Node2</title>
<g id="a_edge13_Node000008_Node000002"><a xlink:title=" ">
<path fill="none" stroke="#63b8ff" d="M319.3,-110.04C344.23,-102.99 376.51,-91.51 401.5,-74.5 419.67,-62.13 435.87,-42.74 446.31,-28.56"/>
<polygon fill="#63b8ff" stroke="#63b8ff" points="449.64,-30.92 452.57,-20.73 443.93,-26.87 449.64,-30.92"/>
</a>
</g>
</g>
<!-- Node9 -->
<g id="Node000009" class="node">
<title>Node9</title>
<g id="a_Node000009"><a xlink:title=" ">
<polygon fill="#e0e0e0" stroke="#999999" points="245.38,-19.25 207.62,-19.25 207.62,0 245.38,0 245.38,-19.25"/>
<text text-anchor="middle" x="226.5" y="-5.75" font-family="Helvetica,sans-Serif" font-size="10.00">array</text>
</a>
</g>
</g>
<!-- Node8&#45;&gt;Node9 -->
<g id="edge10_Node000008_Node000009" class="edge">
<title>Node8&#45;&gt;Node9</title>
<g id="a_edge10_Node000008_Node000009"><a xlink:title=" ">
<path fill="none" stroke="#63b8ff" d="M271.88,-110.26C264.01,-101.73 252.55,-88.14 245.5,-74.5 238.26,-60.49 233.34,-43.3 230.33,-30.28"/>
<polygon fill="#63b8ff" stroke="#63b8ff" points="233.58,-29.76 228.08,-20.71 226.74,-31.22 233.58,-29.76"/>
</a>
</g>
</g>
<!-- Node10 -->
<g id="Node000010" class="node">
<title>Node10</title>
<g id="a_Node000010"><a xlink:title=" ">
<polygon fill="#e0e0e0" stroke="#999999" points="392.25,-74.5 326.75,-74.5 326.75,-55.25 392.25,-55.25 392.25,-74.5"/>
<text text-anchor="middle" x="359.5" y="-61" font-family="Helvetica,sans-Serif" font-size="10.00">string_view</text>
</a>
</g>
</g>
<!-- Node8&#45;&gt;Node10 -->
<g id="edge11_Node000008_Node000010" class="edge">
<title>Node8&#45;&gt;Node10</title>
<g id="a_edge11_Node000008_Node000010"><a xlink:title=" ">
<path fill="none" stroke="#63b8ff" d="M293.9,-110.09C305.7,-102.14 323.14,-90.39 337.06,-81"/>
<polygon fill="#63b8ff" stroke="#63b8ff" points="338.7,-83.44 345.03,-74.95 334.78,-77.64 338.7,-83.44"/>
</a>
</g>
</g>
<!-- Node11 -->
<g id="Node000011" class="node">
<title>Node11</title>
<g id="a_Node000011"><a xlink:title=" ">
<polygon fill="#e0e0e0" stroke="#999999" points="308.25,-74.5 254.75,-74.5 254.75,-55.25 308.25,-55.25 308.25,-74.5"/>
<text text-anchor="middle" x="281.5" y="-61" font-family="Helvetica,sans-Serif" font-size="10.00">iostream</text>
</a>
</g>
</g>
<!-- Node8&#45;&gt;Node11 -->
<g id="edge12_Node000008_Node000011" class="edge">
<title>Node8&#45;&gt;Node11</title>
<g id="a_edge12_Node000008_Node000011"><a xlink:title=" ">
<path fill="none" stroke="#63b8ff" d="M280.67,-110.33C280.79,-103.67 280.97,-94.24 281.13,-85.78"/>
<polygon fill="#63b8ff" stroke="#63b8ff" points="284.64,-85.92 281.33,-75.86 277.64,-85.79 284.64,-85.92"/>
</a>
</g>
</g>
<!-- Node8&#45;&gt;Node12 -->
<g id="edge14_Node000008_Node000012" class="edge">
<title>Node8&#45;&gt;Node12</title>
<g id="a_edge14_Node000008_Node000012"><a xlink:title=" ">
<path fill="none" stroke="#63b8ff" d="M253.53,-110.09C227.49,-101.37 187.84,-88.09 158.78,-78.36"/>
<polygon fill="#63b8ff" stroke="#63b8ff" points="160.2,-74.81 149.6,-74.95 157.98,-81.45 160.2,-74.81"/>
</a>
</g>
</g>
<!-- Node12&#45;&gt;Node2 -->
<g id="edge19_Node000012_Node000002" class="edge">
<title>Node12&#45;&gt;Node2</title>
<g id="a_edge19_Node000012_Node000002"><a xlink:title=" ">
<path fill="none" stroke="#63b8ff" d="M179.05,-54.78C237.48,-45.55 327.97,-31.25 390.04,-21.44"/>
<polygon fill="#63b8ff" stroke="#63b8ff" points="390.57,-24.74 399.91,-19.73 389.48,-17.83 390.57,-24.74"/>
</a>
</g>
</g>
<!-- Node12&#45;&gt;Node9 -->
<g id="edge15_Node000012_Node000009" class="edge">
<title>Node12&#45;&gt;Node9</title>
<g id="a_edge15_Node000012_Node000009"><a xlink:title=" ">
<path fill="none" stroke="#63b8ff" d="M139.31,-54.84C155.6,-46.58 179.96,-34.23 198.79,-24.68"/>
<polygon fill="#63b8ff" stroke="#63b8ff" points="200.27,-27.35 207.6,-19.7 197.1,-21.1 200.27,-27.35"/>
</a>
</g>
</g>
<!-- Node13 -->
<g id="Node000013" class="node">
<title>Node13</title>
<g id="a_Node000013"><a xlink:title=" ">
<polygon fill="#e0e0e0" stroke="#999999" points="109.62,-19.25 61.38,-19.25 61.38,0 109.62,0 109.62,-19.25"/>
<text text-anchor="middle" x="85.5" y="-5.75" font-family="Helvetica,sans-Serif" font-size="10.00">cassert</text>
</a>
</g>
</g>
<!-- Node12&#45;&gt;Node13 -->
<g id="edge16_Node000012_Node000013" class="edge">
<title>Node12&#45;&gt;Node13</title>
<g id="a_edge16_Node000012_Node000013"><a xlink:title=" ">
<path fill="none" stroke="#63b8ff" d="M115.56,-55.08C110.69,-47.88 103.64,-37.46 97.59,-28.51"/>
<polygon fill="#63b8ff" stroke="#63b8ff" points="100.07,-26.93 91.57,-20.61 94.28,-30.85 100.07,-26.93"/>
</a>
</g>
</g>
<!-- Node14 -->
<g id="Node000014" class="node">
<title>Node14</title>
<g id="a_Node000014"><a xlink:title=" ">
<polygon fill="#e0e0e0" stroke="#999999" points="189.38,-19.25 127.62,-19.25 127.62,0 189.38,0 189.38,-19.25"/>
<text text-anchor="middle" x="158.5" y="-5.75" font-family="Helvetica,sans-Serif" font-size="10.00">type_traits</text>
</a>
</g>
</g>
<!-- Node12&#45;&gt;Node14 -->
<g id="edge17_Node000012_Node000014" class="edge">
<title>Node12&#45;&gt;Node14</title>
<g id="a_edge17_Node000012_Node000014"><a xlink:title=" ">
<path fill="none" stroke="#63b8ff" d="M127.61,-55.08C132.61,-47.88 139.86,-37.46 146.07,-28.51"/>
<polygon fill="#63b8ff" stroke="#63b8ff" points="149.43,-30.82 152.26,-20.61 143.68,-26.82 149.43,-30.82"/>
</a>
</g>
</g>
<!-- Node15 -->
<g id="Node000015" class="node">
<title>Node15</title>
<g id="a_Node000015"><a xlink:title=" ">
<polygon fill="#e0e0e0" stroke="#999999" points="43,-19.25 0,-19.25 0,0 43,0 43,-19.25"/>
<text text-anchor="middle" x="21.5" y="-5.75" font-family="Helvetica,sans-Serif" font-size="10.00">cmath</text>
</a>
</g>
</g>
<!-- Node12&#45;&gt;Node15 -->
<g id="edge18_Node000012_Node000015" class="edge">
<title>Node12&#45;&gt;Node15</title>
<g id="a_edge18_Node000012_Node000015"><a xlink:title=" ">
<path fill="none" stroke="#63b8ff" d="M104.54,-54.84C89.09,-46.62 66.04,-34.34 48.14,-24.81"/>
<polygon fill="#63b8ff" stroke="#63b8ff" points="50.02,-21.31 39.55,-19.7 46.73,-27.49 50.02,-21.31"/>
</a>
</g>
</g>
</g>
</svg>
