<?xml version="1.0" encoding="UTF-8" standalone="no"?>
<!DOCTYPE svg PUBLIC "-//W3C//DTD SVG 1.1//EN"
 "http://www.w3.org/Graphics/SVG/1.1/DTD/svg11.dtd">
<!-- Generated by graphviz version 8.0.5 (20230430.1635)
 -->
<!-- Title: lharmony_Pitch.h Pages: 1 -->
<!--zoomable 248 -->

<svg id="main" version="1.1" xmlns="http://www.w3.org/2000/svg" xmlns:xlink="http://www.w3.org/1999/xlink" xml:space="preserve" onload="init(evt)">
<style type="text/css"><![CDATA[
.node, .edge {opacity: 0.7;}
.node.selected, .edge.selected {opacity: 1;}
.edge:hover path { stroke: red; }
.edge:hover polygon { stroke: red; fill: red; }
]]></style>

<defs>
  <circle id="rim" cx="0" cy="0" r="7"/>
  <circle id="rim2" cx="0" cy="0" r="3.5"/>
  <g id="zoomPlus">
    <use xlink:href="#rim" fill="#404040"><set attributeName="fill" to="#808080" begin="zoomplus.mouseover" end="zoomplus.mouseout"/></use>
    <path d="M-4,0h8M0,-4v8" fill="none" stroke="white" stroke-width="1.5" pointer-events="none"/>
  </g>
  <g id="zoomMin">
    <use xlink:href="#rim" fill="#404040"><set attributeName="fill" to="#808080" begin="zoomminus.mouseover" end="zoomminus.mouseout"/></use>
    <path d="M-4,0h8" fill="none" stroke="white" stroke-width="1.5" pointer-events="none"/>
  </g>
  <g id="arrowUp" transform="translate(30 24)">
    <use xlink:href="#rim"/>
    <path pointer-events="none" fill="none" stroke="white" stroke-width="1.5" d="M0,-3.0v7 M-2.5,-0.5L0,-3.0L2.5,-0.5"/>
  </g>
  <g id="arrowRight" transform="rotate(90) translate(36 -43)">
    <use xlink:href="#rim"/>
    <path pointer-events="none" fill="none" stroke="white" stroke-width="1.5" d="M0,-3.0v7 M-2.5,-0.5L0,-3.0L2.5,-0.5"/>
  </g>
  <g id="arrowDown" transform="rotate(180) translate(-30 -48)">
    <use xlink:href="#rim"/>
    <path pointer-events="none" fill="none" stroke="white" stroke-width="1.5" d="M0,-3.0v7 M-2.5,-0.5L0,-3.0L2.5,-0.5"/>
  </g>
  <g id="arrowLeft" transform="rotate(270) translate(-36 17)">
    <use xlink:href="#rim"/>
    <path pointer-events="none" fill="none" stroke="white" stroke-width="1.5" d="M0,-3.0v7 M-2.5,-0.5L0,-3.0L2.5,-0.5"/>
  </g>
  <g id="resetDef">
    <use xlink:href="#rim2" fill="#404040"><set attributeName="fill" to="#808080" begin="reset.mouseover" end="reset.mouseout"/></use>
  </g>
</defs>
<script type="application/ecmascript">
var viewWidth = 1182;
var viewHeight = 248;
var sectionId = 'dynsection-1';
</script>
<script type="application/ecmascript" xlink:href="svg.min.js"/>
<svg id="graph" class="graph">
<g id="viewport">
<title>lharmony_Pitch.h</title>
<!-- Node1 -->
<g id="Node000001" class="node">
<title>Node1</title>
<g id="a_Node000001"><a xlink:title="This file defines the Pitch class.">
<polygon fill="#999999" stroke="#666666" points="392.69,-240.25 300.94,-240.25 300.94,-221 392.69,-221 392.69,-240.25"/>
<text text-anchor="middle" x="346.81" y="-226.75" font-family="Helvetica,sans-Serif" font-size="10.00">lharmony_Pitch.h</text>
</a>
</g>
</g>
<!-- Node2 -->
<g id="Node000002" class="node">
<title>Node2</title>
<g id="a_Node000002"><a xlink:href="lharmony_8h_source.html" target="_top" xlink:title=" ">
<polygon fill="white" stroke="#666666" points="594.06,-19.25 531.56,-19.25 531.56,0 594.06,0 594.06,-19.25"/>
<text text-anchor="middle" x="562.81" y="-5.75" font-family="Helvetica,sans-Serif" font-size="10.00">lharmony.h</text>
</a>
</g>
</g>
<!-- Node1&#45;&gt;Node2 -->
<g id="edge1_Node000001_Node000002" class="edge">
<title>Node1&#45;&gt;Node2</title>
<g id="a_edge1_Node000001_Node000002"><a xlink:title=" ">
<path fill="none" stroke="#63b8ff" d="M289.83,-227.05C216.51,-222.7 94.36,-211.6 58.81,-185 10.5,-148.85 -22.07,-99.63 18.81,-55.25 53.65,-17.44 420.3,-11.67 531.21,-10.78"/>
<polygon fill="#63b8ff" stroke="#63b8ff" points="289.53,-230.6 299.71,-227.67 289.93,-223.61 289.53,-230.6"/>
</a>
</g>
</g>
<!-- Node3 -->
<g id="Node000003" class="node">
<title>Node3</title>
<g id="a_Node000003"><a xlink:href="lharmony___chord_8h.html" target="_top" xlink:title="This file defines the Chord class.">
<polygon fill="white" stroke="#666666" points="163.56,-185 68.06,-185 68.06,-165.75 163.56,-165.75 163.56,-185"/>
<text text-anchor="middle" x="115.81" y="-171.5" font-family="Helvetica,sans-Serif" font-size="10.00">lharmony_Chord.h</text>
</a>
</g>
</g>
<!-- Node1&#45;&gt;Node3 -->
<g id="edge2_Node000001_Node000003" class="edge">
<title>Node1&#45;&gt;Node3</title>
<g id="a_edge2_Node000001_Node000003"><a xlink:title=" ">
<path fill="none" stroke="#63b8ff" d="M296.7,-218.07C254.23,-208.28 194.16,-194.44 155.1,-185.43"/>
<polygon fill="#63b8ff" stroke="#63b8ff" points="295.84,-221.7 306.37,-220.53 297.41,-214.87 295.84,-221.7"/>
</a>
</g>
</g>
<!-- Node4 -->
<g id="Node000004" class="node">
<title>Node4</title>
<g id="a_Node000004"><a xlink:href="lharmony___interval_8h.html" target="_top" xlink:title="This file defines the Interval class.">
<polygon fill="white" stroke="#666666" points="338.56,-129.75 237.06,-129.75 237.06,-110.5 338.56,-110.5 338.56,-129.75"/>
<text text-anchor="middle" x="287.81" y="-116.25" font-family="Helvetica,sans-Serif" font-size="10.00">lharmony_Interval.h</text>
</a>
</g>
</g>
<!-- Node1&#45;&gt;Node4 -->
<g id="edge4_Node000001_Node000004" class="edge">
<title>Node1&#45;&gt;Node4</title>
<g id="a_edge4_Node000001_Node000004"><a xlink:title=" ">
<path fill="none" stroke="#63b8ff" d="M336.8,-211.22C324.01,-187.69 302.36,-147.87 292.71,-130.13"/>
<polygon fill="#63b8ff" stroke="#63b8ff" points="334.13,-212.63 341.99,-219.75 340.28,-209.29 334.13,-212.63"/>
</a>
</g>
</g>
<!-- Node7 -->
<g id="Node000007" class="node">
<title>Node7</title>
<g id="a_Node000007"><a xlink:href="lharmony___overtone_series_8h.html" target="_top" xlink:title="This file defines the OvertoneSeries class.">
<polygon fill="white" stroke="#666666" points="516.19,-74.5 379.44,-74.5 379.44,-55.25 516.19,-55.25 516.19,-74.5"/>
<text text-anchor="middle" x="447.81" y="-61" font-family="Helvetica,sans-Serif" font-size="10.00">lharmony_OvertoneSeries.h</text>
</a>
</g>
</g>
<!-- Node1&#45;&gt;Node7 -->
<g id="edge14_Node000001_Node000007" class="edge">
<title>Node1&#45;&gt;Node7</title>
<g id="a_edge14_Node000001_Node000007"><a xlink:title=" ">
<path fill="none" stroke="#63b8ff" d="M357.82,-211.77C379.36,-176.86 426.36,-100.66 442.36,-74.72"/>
<polygon fill="#63b8ff" stroke="#63b8ff" points="354.51,-209.47 352.24,-219.82 360.47,-213.15 354.51,-209.47"/>
</a>
</g>
</g>
<!-- Node8 -->
<g id="Node000008" class="node">
<title>Node8</title>
<g id="a_Node000008"><a xlink:href="lharmony___microtonal_interval_8h.html" target="_top" xlink:title="This file defines the MicrotonalInterval class.">
<polygon fill="white" stroke="#666666" points="598.06,-185 451.56,-185 451.56,-165.75 598.06,-165.75 598.06,-185"/>
<text text-anchor="middle" x="524.81" y="-171.5" font-family="Helvetica,sans-Serif" font-size="10.00">lharmony_MicrotonalInterval.h</text>
</a>
</g>
</g>
<!-- Node1&#45;&gt;Node8 -->
<g id="edge12_Node000001_Node000008" class="edge">
<title>Node1&#45;&gt;Node8</title>
<g id="a_edge12_Node000001_Node000008"><a xlink:title=" ">
<path fill="none" stroke="#63b8ff" d="M387.54,-217.44C420.09,-207.7 465.01,-194.27 494.47,-185.45"/>
<polygon fill="#63b8ff" stroke="#63b8ff" points="386.59,-214.37 378.01,-220.59 388.59,-221.08 386.59,-214.37"/>
</a>
</g>
</g>
<!-- Node9 -->
<g id="Node000009" class="node">
<title>Node9</title>
<g id="a_Node000009"><a xlink:href="lharmony___scale_8h.html" target="_top" xlink:title="This file defines the Scale class.">
<polygon fill="white" stroke="#666666" points="852.81,-185 758.81,-185 758.81,-165.75 852.81,-165.75 852.81,-185"/>
<text text-anchor="middle" x="805.81" y="-171.5" font-family="Helvetica,sans-Serif" font-size="10.00">lharmony_Scale.h</text>
</a>
</g>
</g>
<!-- Node1&#45;&gt;Node9 -->
<g id="edge15_Node000001_Node000009" class="edge">
<title>Node1&#45;&gt;Node9</title>
<g id="a_edge15_Node000001_Node000009"><a xlink:title=" ">
<path fill="none" stroke="#63b8ff" d="M403.64,-223.03C495.09,-212.42 673.27,-191.75 758.36,-181.88"/>
<polygon fill="#63b8ff" stroke="#63b8ff" points="403.46,-219.65 393.93,-224.28 404.26,-226.6 403.46,-219.65"/>
</a>
</g>
</g>
<!-- Node3&#45;&gt;Node2 -->
<g id="edge3_Node000003_Node000002" class="edge">
<title>Node3&#45;&gt;Node2</title>
<g id="a_edge3_Node000003_Node000002"><a xlink:title=" ">
<path fill="none" stroke="#63b8ff" d="M91.76,-159.47C56.75,-136.01 -0.78,-89.61 30.81,-55.25 64.77,-18.32 421.79,-11.94 531.15,-10.85"/>
<polygon fill="#63b8ff" stroke="#63b8ff" points="89.65,-162.92 99.94,-165.45 93.47,-157.06 89.65,-162.92"/>
</a>
</g>
</g>
<!-- Node4&#45;&gt;Node2 -->
<g id="edge5_Node000004_Node000002" class="edge">
<title>Node4&#45;&gt;Node2</title>
<g id="a_edge5_Node000004_Node000002"><a xlink:title=" ">
<path fill="none" stroke="#63b8ff" d="M226.09,-116.84C160.25,-112.95 62.24,-102.5 38.81,-74.5 33.32,-67.94 33.03,-61.55 38.81,-55.25 72.2,-18.9 423.09,-12.12 531.25,-10.89"/>
<polygon fill="#63b8ff" stroke="#63b8ff" points="225.59,-120.37 235.77,-117.43 225.98,-113.38 225.59,-120.37"/>
</a>
</g>
</g>
<!-- Node5 -->
<g id="Node000005" class="node">
<title>Node5</title>
<g id="a_Node000005"><a xlink:href="lharmony___compound_interval_8h.html" target="_top" xlink:title="This file defines the CompoundInterval class.">
<polygon fill="white" stroke="#666666" points="196.19,-74.5 47.44,-74.5 47.44,-55.25 196.19,-55.25 196.19,-74.5"/>
<text text-anchor="middle" x="121.81" y="-61" font-family="Helvetica,sans-Serif" font-size="10.00">lharmony_CompoundInterval.h</text>
</a>
</g>
</g>
<!-- Node4&#45;&gt;Node5 -->
<g id="edge6_Node000004_Node000005" class="edge">
<title>Node4&#45;&gt;Node5</title>
<g id="a_edge6_Node000004_Node000005"><a xlink:title=" ">
<path fill="none" stroke="#63b8ff" d="M249.44,-106.82C219.11,-97.09 177.47,-83.73 150.11,-74.95"/>
<polygon fill="#63b8ff" stroke="#63b8ff" points="248.06,-110.37 258.65,-110.09 250.2,-103.7 248.06,-110.37"/>
</a>
</g>
</g>
<!-- Node6 -->
<g id="Node000006" class="node">
<title>Node6</title>
<g id="a_Node000006"><a xlink:href="lharmony___interval_constants_8h.html" target="_top" xlink:title="This file provides some useful Interval objects as constants.">
<polygon fill="white" stroke="#666666" points="361.06,-74.5 214.56,-74.5 214.56,-55.25 361.06,-55.25 361.06,-74.5"/>
<text text-anchor="middle" x="287.81" y="-61" font-family="Helvetica,sans-Serif" font-size="10.00">lharmony_IntervalConstants.h</text>
</a>
</g>
</g>
<!-- Node4&#45;&gt;Node6 -->
<g id="edge8_Node000004_Node000006" class="edge">
<title>Node4&#45;&gt;Node6</title>
<g id="a_edge8_Node000004_Node000006"><a xlink:title=" ">
<path fill="none" stroke="#63b8ff" d="M287.81,-99.46C287.81,-91.02 287.81,-81.58 287.81,-74.86"/>
<polygon fill="#63b8ff" stroke="#63b8ff" points="284.31,-99.33 287.81,-109.33 291.31,-99.33 284.31,-99.33"/>
</a>
</g>
</g>
<!-- Node4&#45;&gt;Node7 -->
<g id="edge10_Node000004_Node000007" class="edge">
<title>Node4&#45;&gt;Node7</title>
<g id="a_edge10_Node000004_Node000007"><a xlink:title=" ">
<path fill="none" stroke="#63b8ff" d="M325.18,-106.69C354.38,-96.97 394.29,-83.69 420.54,-74.95"/>
<polygon fill="#63b8ff" stroke="#63b8ff" points="324.34,-103.61 315.96,-110.09 326.55,-110.25 324.34,-103.61"/>
</a>
</g>
</g>
<!-- Node5&#45;&gt;Node2 -->
<g id="edge7_Node000005_Node000002" class="edge">
<title>Node5&#45;&gt;Node2</title>
<g id="a_edge7_Node000005_Node000002"><a xlink:title=" ">
<path fill="none" stroke="#63b8ff" d="M207.5,-53.53C306.51,-41.57 464.38,-22.51 531.24,-14.44"/>
<polygon fill="#63b8ff" stroke="#63b8ff" points="207.13,-50.17 197.62,-54.84 207.97,-57.12 207.13,-50.17"/>
</a>
</g>
</g>
<!-- Node6&#45;&gt;Node2 -->
<g id="edge9_Node000006_Node000002" class="edge">
<title>Node6&#45;&gt;Node2</title>
<g id="a_edge9_Node000006_Node000002"><a xlink:title=" ">
<path fill="none" stroke="#63b8ff" d="M345.35,-52.73C401.95,-41.77 486.24,-25.45 531.46,-16.7"/>
<polygon fill="#63b8ff" stroke="#63b8ff" points="344.93,-49.44 335.78,-54.78 346.26,-56.32 344.93,-49.44"/>
</a>
</g>
</g>
<!-- Node7&#45;&gt;Node2 -->
<g id="edge11_Node000007_Node000002" class="edge">
<title>Node7&#45;&gt;Node2</title>
<g id="a_edge11_Node000007_Node000002"><a xlink:title=" ">
<path fill="none" stroke="#63b8ff" d="M477.19,-50.27C497.91,-40.68 525.09,-28.09 543.21,-19.7"/>
<polygon fill="#63b8ff" stroke="#63b8ff" points="475.93,-47.46 468.32,-54.84 478.87,-53.82 475.93,-47.46"/>
</a>
</g>
</g>
<!-- Node8&#45;&gt;Node2 -->
<g id="edge13_Node000008_Node000002" class="edge">
<title>Node8&#45;&gt;Node2</title>
<g id="a_edge13_Node000008_Node000002"><a xlink:title=" ">
<path fill="none" stroke="#63b8ff" d="M529.27,-155.16C537.51,-119.65 554.82,-45.07 560.76,-19.47"/>
<polygon fill="#63b8ff" stroke="#63b8ff" points="525.71,-154.04 526.86,-164.57 532.53,-155.62 525.71,-154.04"/>
</a>
</g>
</g>
<!-- Node9&#45;&gt;Node2 -->
<g id="edge16_Node000009_Node000002" class="edge">
<title>Node9&#45;&gt;Node2</title>
<g id="a_edge16_Node000009_Node000002"><a xlink:title=" ">
<path fill="none" stroke="#63b8ff" d="M748.15,-168.29C695.3,-161.59 622.11,-149.13 600.81,-129.75 568.06,-99.95 563.38,-42 562.83,-19.68"/>
<polygon fill="#63b8ff" stroke="#63b8ff" points="747.41,-171.85 757.77,-169.59 748.27,-164.9 747.41,-171.85"/>
</a>
</g>
</g>
<!-- Node10 -->
<g id="Node000010" class="node">
<title>Node10</title>
<g id="a_Node000010"><a xlink:href="lharmony___chromatic_8h.html" target="_top" xlink:title="This file defines the Chromatic scale class.">
<polygon fill="white" stroke="#666666" points="723.94,-129.75 609.69,-129.75 609.69,-110.5 723.94,-110.5 723.94,-129.75"/>
<text text-anchor="middle" x="666.81" y="-116.25" font-family="Helvetica,sans-Serif" font-size="10.00">lharmony_Chromatic.h</text>
</a>
</g>
</g>
<!-- Node9&#45;&gt;Node10 -->
<g id="edge17_Node000009_Node000010" class="edge">
<title>Node9&#45;&gt;Node10</title>
<g id="a_edge17_Node000009_Node000010"><a xlink:title=" ">
<path fill="none" stroke="#63b8ff" d="M772,-161.42C746.77,-151.75 712.91,-138.79 690.51,-130.2"/>
<polygon fill="#63b8ff" stroke="#63b8ff" points="770.64,-165.03 781.23,-165.34 773.15,-158.5 770.64,-165.03"/>
</a>
</g>
</g>
<!-- Node11 -->
<g id="Node000011" class="node">
<title>Node11</title>
<g id="a_Node000011"><a xlink:href="lharmony___key_signature_8h.html" target="_top" xlink:title="This file defines the KeySignature scale class.">
<polygon fill="white" stroke="#666666" points="869.69,-129.75 741.94,-129.75 741.94,-110.5 869.69,-110.5 869.69,-129.75"/>
<text text-anchor="middle" x="805.81" y="-116.25" font-family="Helvetica,sans-Serif" font-size="10.00">lharmony_KeySignature.h</text>
</a>
</g>
</g>
<!-- Node9&#45;&gt;Node11 -->
<g id="edge19_Node000009_Node000011" class="edge">
<title>Node9&#45;&gt;Node11</title>
<g id="a_edge19_Node000009_Node000011"><a xlink:title=" ">
<path fill="none" stroke="#63b8ff" d="M805.81,-154.71C805.81,-146.27 805.81,-136.83 805.81,-130.11"/>
<polygon fill="#63b8ff" stroke="#63b8ff" points="802.31,-154.58 805.81,-164.58 809.31,-154.58 802.31,-154.58"/>
</a>
</g>
</g>
<!-- Node13 -->
<g id="Node000013" class="node">
<title>Node13</title>
<g id="a_Node000013"><a xlink:href="lharmony___mode_8h.html" target="_top" xlink:title="This file defines the Mode scale class.">
<polygon fill="white" stroke="#666666" points="969.44,-74.5 876.19,-74.5 876.19,-55.25 969.44,-55.25 969.44,-74.5"/>
<text text-anchor="middle" x="922.81" y="-61" font-family="Helvetica,sans-Serif" font-size="10.00">lharmony_Mode.h</text>
</a>
</g>
</g>
<!-- Node9&#45;&gt;Node13 -->
<g id="edge25_Node000009_Node000013" class="edge">
<title>Node9&#45;&gt;Node13</title>
<g id="a_edge25_Node000009_Node000013"><a xlink:title=" ">
<path fill="none" stroke="#63b8ff" d="M834.68,-160.4C848.95,-152.62 865.84,-142.03 878.81,-129.75 896.61,-112.9 911.34,-87.72 918.37,-74.58"/>
<polygon fill="#63b8ff" stroke="#63b8ff" points="833.53,-157.57 826.31,-165.32 836.79,-163.77 833.53,-157.57"/>
</a>
</g>
</g>
<!-- Node14 -->
<g id="Node000014" class="node">
<title>Node14</title>
<g id="a_Node000014"><a xlink:href="lharmony___octatonic_8h.html" target="_top" xlink:title="This file defines the Octatonic scale class.">
<polygon fill="white" stroke="#666666" points="1037.44,-129.75 926.19,-129.75 926.19,-110.5 1037.44,-110.5 1037.44,-129.75"/>
<text text-anchor="middle" x="981.81" y="-116.25" font-family="Helvetica,sans-Serif" font-size="10.00">lharmony_Octatonic.h</text>
</a>
</g>
</g>
<!-- Node9&#45;&gt;Node14 -->
<g id="edge26_Node000009_Node000014" class="edge">
<title>Node9&#45;&gt;Node14</title>
<g id="a_edge26_Node000009_Node000014"><a xlink:title=" ">
<path fill="none" stroke="#63b8ff" d="M846.08,-162.19C878.27,-152.45 922.68,-139.02 951.81,-130.2"/>
<polygon fill="#63b8ff" stroke="#63b8ff" points="845.23,-159.1 836.67,-165.34 847.25,-165.8 845.23,-159.1"/>
</a>
</g>
</g>
<!-- Node15 -->
<g id="Node000015" class="node">
<title>Node15</title>
<g id="a_Node000015"><a xlink:href="lharmony___whole_tone_8h.html" target="_top" xlink:title="This file defines the WholeTone scale class.">
<polygon fill="white" stroke="#666666" points="1173.81,-129.75 1055.81,-129.75 1055.81,-110.5 1173.81,-110.5 1173.81,-129.75"/>
<text text-anchor="middle" x="1114.81" y="-116.25" font-family="Helvetica,sans-Serif" font-size="10.00">lharmony_WholeTone.h</text>
</a>
</g>
</g>
<!-- Node9&#45;&gt;Node15 -->
<g id="edge28_Node000009_Node000015" class="edge">
<title>Node9&#45;&gt;Node15</title>
<g id="a_edge28_Node000009_Node000015"><a xlink:title=" ">
<path fill="none" stroke="#63b8ff" d="M863.72,-164.4C920.71,-154.57 1006.99,-139.71 1062.12,-130.21"/>
<polygon fill="#63b8ff" stroke="#63b8ff" points="863.34,-161.08 854.08,-166.23 864.53,-167.98 863.34,-161.08"/>
</a>
</g>
</g>
<!-- Node10&#45;&gt;Node2 -->
<g id="edge18_Node000010_Node000002" class="edge">
<title>Node10&#45;&gt;Node2</title>
<g id="a_edge18_Node000010_Node000002"><a xlink:title=" ">
<path fill="none" stroke="#63b8ff" d="M650.96,-102.59C628.69,-79.36 588.91,-37.85 571.44,-19.63"/>
<polygon fill="#63b8ff" stroke="#63b8ff" points="647.86,-104.45 657.3,-109.25 652.91,-99.6 647.86,-104.45"/>
</a>
</g>
</g>
<!-- Node11&#45;&gt;Node2 -->
<g id="edge20_Node000011_Node000002" class="edge">
<title>Node11&#45;&gt;Node2</title>
<g id="a_edge20_Node000011_Node000002"><a xlink:title=" ">
<path fill="none" stroke="#63b8ff" d="M764.24,-106.82C738.6,-98.72 705.28,-87.28 676.81,-74.5 639.35,-57.69 597.88,-32.72 576.79,-19.53"/>
<polygon fill="#63b8ff" stroke="#63b8ff" points="763.14,-110.45 773.72,-110.08 765.21,-103.76 763.14,-110.45"/>
</a>
</g>
</g>
<!-- Node12 -->
<g id="Node000012" class="node">
<title>Node12</title>
<g id="a_Node000012"><a xlink:href="lharmony___key_signature_constants_8h.html" target="_top" xlink:title="This file contains some useful predefined key signatures.">
<polygon fill="white" stroke="#666666" points="858.19,-74.5 685.44,-74.5 685.44,-55.25 858.19,-55.25 858.19,-74.5"/>
<text text-anchor="middle" x="771.81" y="-61" font-family="Helvetica,sans-Serif" font-size="10.00">lharmony_KeySignatureConstants.h</text>
</a>
</g>
</g>
<!-- Node11&#45;&gt;Node12 -->
<g id="edge21_Node000011_Node000012" class="edge">
<title>Node11&#45;&gt;Node12</title>
<g id="a_edge21_Node000011_Node000012"><a xlink:title=" ">
<path fill="none" stroke="#63b8ff" d="M794.36,-101.19C788.71,-92.34 782.14,-82.04 777.55,-74.86"/>
<polygon fill="#63b8ff" stroke="#63b8ff" points="791.87,-102.79 800.2,-109.33 797.77,-99.02 791.87,-102.79"/>
</a>
</g>
</g>
<!-- Node11&#45;&gt;Node13 -->
<g id="edge23_Node000011_Node000013" class="edge">
<title>Node11&#45;&gt;Node13</title>
<g id="a_edge23_Node000011_Node000013"><a xlink:title=" ">
<path fill="none" stroke="#63b8ff" d="M835.42,-105.65C856.53,-96.04 884.35,-83.38 902.87,-74.95"/>
<polygon fill="#63b8ff" stroke="#63b8ff" points="834.31,-102.76 826.66,-110.09 837.21,-109.13 834.31,-102.76"/>
</a>
</g>
</g>
<!-- Node12&#45;&gt;Node2 -->
<g id="edge22_Node000012_Node000002" class="edge">
<title>Node12&#45;&gt;Node2</title>
<g id="a_edge22_Node000012_Node000002"><a xlink:title=" ">
<path fill="none" stroke="#63b8ff" d="M725.84,-52.16C685.95,-42 629.27,-27.56 594.33,-18.66"/>
<polygon fill="#63b8ff" stroke="#63b8ff" points="724.81,-55.76 735.36,-54.84 726.53,-48.98 724.81,-55.76"/>
</a>
</g>
</g>
<!-- Node13&#45;&gt;Node2 -->
<g id="edge24_Node000013_Node000002" class="edge">
<title>Node13&#45;&gt;Node2</title>
<g id="a_edge24_Node000013_Node000002"><a xlink:title=" ">
<path fill="none" stroke="#63b8ff" d="M864.94,-54.98C759.62,-39.17 647.72,-22.9 594.33,-15.18"/>
<polygon fill="#63b8ff" stroke="#63b8ff" points="864.35,-58.58 874.76,-56.6 865.39,-51.66 864.35,-58.58"/>
</a>
</g>
</g>
<!-- Node14&#45;&gt;Node2 -->
<g id="edge27_Node000014_Node000002" class="edge">
<title>Node14&#45;&gt;Node2</title>
<g id="a_edge27_Node000014_Node000002"><a xlink:title=" ">
<path fill="none" stroke="#63b8ff" d="M986.9,-99.75C989.35,-85.58 989.76,-66.87 978.81,-55.25 952.54,-27.36 686.97,-15.13 594.42,-11.69"/>
<polygon fill="#63b8ff" stroke="#63b8ff" points="983.3,-98.82 984.56,-109.34 990.14,-100.33 983.3,-98.82"/>
</a>
</g>
</g>
<!-- Node15&#45;&gt;Node2 -->
<g id="edge29_Node000015_Node000002" class="edge">
<title>Node15&#45;&gt;Node2</title>
<g id="a_edge29_Node000015_Node000002"><a xlink:title=" ">
<path fill="none" stroke="#63b8ff" d="M1093.2,-103.87C1070.57,-88.75 1033.43,-66.31 997.81,-55.25 922.23,-31.79 681.21,-16.94 594.38,-12.24"/>
<polygon fill="#63b8ff" stroke="#63b8ff" points="1091.01,-107.29 1101.24,-110.04 1094.95,-101.51 1091.01,-107.29"/>
</a>
</g>
</g>
</g>
</svg>

<g id="navigator" transform="translate(0 0)" fill="#404254">
  <rect fill="#f2f5e9" fill-opacity="0.5" stroke="#606060" stroke-width=".5" x="0" y="0" width="60" height="60"/>
  <use id="zoomplus" xlink:href="#zoomPlus" x="17" y="9" onmousedown="handleZoom(evt,'in')"/>
  <use id="zoomminus" xlink:href="#zoomMin" x="42" y="9" onmousedown="handleZoom(evt,'out')"/>
  <use id="reset" xlink:href="#resetDef" x="30" y="36" onmousedown="handleReset()"/>
   <use id="arrowup" xlink:href="#arrowUp" x="0" y="0" onmousedown="handlePan(0,-1)"/>
  <use id="arrowright" xlink:href="#arrowRight" x="0" y="0" onmousedown="handlePan(1,0)"/>
  <use id="arrowdown" xlink:href="#arrowDown" x="0" y="0" onmousedown="handlePan(0,1)"/>
  <use id="arrowleft" xlink:href="#arrowLeft" x="0" y="0" onmousedown="handlePan(-1,0)"/>
</g>
<svg viewBox="0 0 15 15" width="100%" height="30px" preserveAspectRatio="xMaxYMin meet">
 <g id="arrow_out" transform="scale(0.3 0.3)">
  <a xlink:href="lharmony___pitch_8h__dep__incl_org.svg" target="_base">
   <rect id="button" ry="5" rx="5" y="6" x="6" height="38" width="38"
        fill="#f2f5e9" fill-opacity="0.5" stroke="#606060" stroke-width="1.0"/>
   <path id="arrow"
     d="M 11.500037,31.436501 C 11.940474,20.09759 22.043105,11.32322 32.158766,21.979434 L 37.068811,17.246167 C 37.068811,17.246167 37.088388,32 37.088388,32 L 22.160133,31.978069 C 22.160133,31.978069 26.997745,27.140456 26.997745,27.140456 C 18.528582,18.264221 13.291696,25.230495 11.500037,31.436501 z"
     style="fill:#404040;"/>
  </a>
 </g>
</svg>

<style type='text/css'>
<![CDATA[
[data-mouse-over-selected='false'] { opacity: 0.7; }
[data-mouse-over-selected='true']  { opacity: 1.0; }
]]>
</style>
<script type="application/ecmascript"><![CDATA[
document.addEventListener('DOMContentLoaded', (event) => {
  highlightEdges();
  highlightAdjacentNodes();
});
]]></script>
</svg>
