<?xml version="1.0" encoding="UTF-8" standalone="no"?>
<!DOCTYPE svg PUBLIC "-//W3C//DTD SVG 1.1//EN"
 "http://www.w3.org/Graphics/SVG/1.1/DTD/svg11.dtd">
<!-- Generated by graphviz version 8.0.5 (20230430.1635)
 -->
<!-- Title: lharmony_Chord.h Pages: 1 -->
<svg width="622pt" height="248pt"
 viewBox="0.00 0.00 621.88 248.25" xmlns="http://www.w3.org/2000/svg" xmlns:xlink="http://www.w3.org/1999/xlink">
<g id="graph0" class="graph" transform="scale(1 1) rotate(0) translate(4 244.25)">
<title>lharmony_Chord.h</title>
<!-- Node1 -->
<g id="Node000001" class="node">
<title>Node1</title>
<g id="a_Node000001"><a xlink:title="This file defines the Chord class.">
<polygon fill="#999999" stroke="#666666" points="184.88,-240.25 89.38,-240.25 89.38,-221 184.88,-221 184.88,-240.25"/>
<text text-anchor="middle" x="137.12" y="-226.75" font-family="Helvetica,sans-Serif" font-size="10.00">lharmony_Chord.h</text>
</a>
</g>
</g>
<!-- Node2 -->
<g id="Node000002" class="node">
<title>Node2</title>
<g id="a_Node000002"><a xlink:title=" ">
<polygon fill="#e0e0e0" stroke="#999999" points="72.25,-185 0,-185 0,-165.75 72.25,-165.75 72.25,-185"/>
<text text-anchor="middle" x="36.12" y="-171.5" font-family="Helvetica,sans-Serif" font-size="10.00">initializer_list</text>
</a>
</g>
</g>
<!-- Node1&#45;&gt;Node2 -->
<g id="edge1_Node000001_Node000002" class="edge">
<title>Node1&#45;&gt;Node2</title>
<g id="a_edge1_Node000001_Node000002"><a xlink:title=" ">
<path fill="none" stroke="#63b8ff" d="M119.99,-220.59C104.39,-212.37 81.11,-200.09 63.03,-190.56"/>
<polygon fill="#63b8ff" stroke="#63b8ff" points="64.82,-187.02 54.34,-185.45 61.56,-193.21 64.82,-187.02"/>
</a>
</g>
</g>
<!-- Node3 -->
<g id="Node000003" class="node">
<title>Node3</title>
<g id="a_Node000003"><a xlink:title=" ">
<polygon fill="#e0e0e0" stroke="#999999" points="133.62,-185 90.62,-185 90.62,-165.75 133.62,-165.75 133.62,-185"/>
<text text-anchor="middle" x="112.12" y="-171.5" font-family="Helvetica,sans-Serif" font-size="10.00">vector</text>
</a>
</g>
</g>
<!-- Node1&#45;&gt;Node3 -->
<g id="edge2_Node000001_Node000003" class="edge">
<title>Node1&#45;&gt;Node3</title>
<g id="a_edge2_Node000001_Node000003"><a xlink:title=" ">
<path fill="none" stroke="#63b8ff" d="M133,-220.83C129.72,-213.86 125.03,-203.87 120.93,-195.12"/>
<polygon fill="#63b8ff" stroke="#63b8ff" points="123.76,-193.92 116.34,-186.36 117.42,-196.9 123.76,-193.92"/>
</a>
</g>
</g>
<!-- Node4 -->
<g id="Node000004" class="node">
<title>Node4</title>
<g id="a_Node000004"><a xlink:title=" ">
<polygon fill="#e0e0e0" stroke="#999999" points="232.38,-19.25 91.88,-19.25 91.88,0 232.38,0 232.38,-19.25"/>
<text text-anchor="middle" x="162.12" y="-5.75" font-family="Helvetica,sans-Serif" font-size="10.00">lharmony/lharmony_Export.h</text>
</a>
</g>
</g>
<!-- Node1&#45;&gt;Node4 -->
<g id="edge3_Node000001_Node000004" class="edge">
<title>Node1&#45;&gt;Node4</title>
<g id="a_edge3_Node000001_Node000004"><a xlink:title=" ">
<path fill="none" stroke="#63b8ff" d="M138.14,-220.77C141.83,-188.37 154.68,-75.8 159.9,-30.12"/>
<polygon fill="#63b8ff" stroke="#63b8ff" points="163.47,-30.68 161.13,-20.35 156.52,-29.89 163.47,-30.68"/>
</a>
</g>
</g>
<!-- Node5 -->
<g id="Node000005" class="node">
<title>Node5</title>
<g id="a_Node000005"><a xlink:href="lharmony___pitch_8h.html" target="_top" xlink:title="This file defines the Pitch class.">
<polygon fill="white" stroke="#666666" points="328.38,-185 193.88,-185 193.88,-165.75 328.38,-165.75 328.38,-185"/>
<text text-anchor="middle" x="261.12" y="-171.5" font-family="Helvetica,sans-Serif" font-size="10.00">lharmony/lharmony_Pitch.h</text>
</a>
</g>
</g>
<!-- Node1&#45;&gt;Node5 -->
<g id="edge4_Node000001_Node000005" class="edge">
<title>Node1&#45;&gt;Node5</title>
<g id="a_edge4_Node000001_Node000005"><a xlink:title=" ">
<path fill="none" stroke="#63b8ff" d="M158.16,-220.59C177.84,-212.14 207.5,-199.4 229.94,-189.77"/>
<polygon fill="#63b8ff" stroke="#63b8ff" points="231.18,-192.61 238.99,-185.45 228.42,-186.18 231.18,-192.61"/>
</a>
</g>
</g>
<!-- Node5&#45;&gt;Node4 -->
<g id="edge6_Node000005_Node000004" class="edge">
<title>Node5&#45;&gt;Node4</title>
<g id="a_edge6_Node000005_Node000004"><a xlink:title=" ">
<path fill="none" stroke="#63b8ff" d="M253.41,-165.49C245.98,-156.72 234.64,-142.77 226.12,-129.75 203.94,-95.82 182.57,-53.47 171.01,-29.49"/>
<polygon fill="#63b8ff" stroke="#63b8ff" points="173.75,-28.11 166.28,-20.59 167.43,-31.12 173.75,-28.11"/>
</a>
</g>
</g>
<!-- Node6 -->
<g id="Node000006" class="node">
<title>Node6</title>
<g id="a_Node000006"><a xlink:title=" ">
<polygon fill="#e0e0e0" stroke="#999999" points="286.75,-129.75 235.5,-129.75 235.5,-110.5 286.75,-110.5 286.75,-129.75"/>
<text text-anchor="middle" x="261.12" y="-116.25" font-family="Helvetica,sans-Serif" font-size="10.00">ostream</text>
</a>
</g>
</g>
<!-- Node5&#45;&gt;Node6 -->
<g id="edge5_Node000005_Node000006" class="edge">
<title>Node5&#45;&gt;Node6</title>
<g id="a_edge5_Node000005_Node000006"><a xlink:title=" ">
<path fill="none" stroke="#63b8ff" d="M261.12,-165.58C261.12,-158.92 261.12,-149.49 261.12,-141.03"/>
<polygon fill="#63b8ff" stroke="#63b8ff" points="264.63,-141.11 261.12,-131.11 257.63,-141.11 264.63,-141.11"/>
</a>
</g>
</g>
<!-- Node7 -->
<g id="Node000007" class="node">
<title>Node7</title>
<g id="a_Node000007"><a xlink:href="lharmony___pitch_class_8h.html" target="_top" xlink:title="This file defines the PitchClass class.">
<polygon fill="white" stroke="#666666" points="524.12,-129.75 364.12,-129.75 364.12,-110.5 524.12,-110.5 524.12,-129.75"/>
<text text-anchor="middle" x="444.12" y="-116.25" font-family="Helvetica,sans-Serif" font-size="10.00">lharmony/lharmony_PitchClass.h</text>
</a>
</g>
</g>
<!-- Node5&#45;&gt;Node7 -->
<g id="edge7_Node000005_Node000007" class="edge">
<title>Node5&#45;&gt;Node7</title>
<g id="a_edge7_Node000005_Node000007"><a xlink:title=" ">
<path fill="none" stroke="#63b8ff" d="M292.17,-165.34C322.53,-156.51 368.98,-142.99 402.53,-133.23"/>
<polygon fill="#63b8ff" stroke="#63b8ff" points="403.31,-136.36 411.93,-130.2 401.35,-129.64 403.31,-136.36"/>
</a>
</g>
</g>
<!-- Node11 -->
<g id="Node000011" class="node">
<title>Node11</title>
<g id="a_Node000011"><a xlink:href="lharmony___pitch_utils_8h.html" target="_top" xlink:title="This file contains miscellaneous pitch utilities.">
<polygon fill="white" stroke="#666666" points="420.5,-74.5 265.75,-74.5 265.75,-55.25 420.5,-55.25 420.5,-74.5"/>
<text text-anchor="middle" x="343.12" y="-61" font-family="Helvetica,sans-Serif" font-size="10.00">lharmony/lharmony_PitchUtils.h</text>
</a>
</g>
</g>
<!-- Node5&#45;&gt;Node11 -->
<g id="edge18_Node000005_Node000011" class="edge">
<title>Node5&#45;&gt;Node11</title>
<g id="a_edge18_Node000005_Node000011"><a xlink:title=" ">
<path fill="none" stroke="#63b8ff" d="M268.18,-165.55C275.31,-156.59 286.59,-142.29 296.12,-129.75 307.94,-114.2 321.09,-96.27 330.47,-83.38"/>
<polygon fill="#63b8ff" stroke="#63b8ff" points="333.79,-85.77 336.82,-75.62 328.12,-81.66 333.79,-85.77"/>
</a>
</g>
</g>
<!-- Node7&#45;&gt;Node4 -->
<g id="edge11_Node000007_Node000004" class="edge">
<title>Node7&#45;&gt;Node4</title>
<g id="a_edge11_Node000007_Node000004"><a xlink:title=" ">
<path fill="none" stroke="#63b8ff" d="M382.13,-110.07C344.83,-103.24 297.02,-91.99 257.12,-74.5 228.63,-62.01 199.46,-40.91 181.09,-26.4"/>
<polygon fill="#63b8ff" stroke="#63b8ff" points="183.75,-23.24 173.77,-19.68 179.35,-28.69 183.75,-23.24"/>
</a>
</g>
</g>
<!-- Node8 -->
<g id="Node000008" class="node">
<title>Node8</title>
<g id="a_Node000008"><a xlink:title=" ">
<polygon fill="#e0e0e0" stroke="#999999" points="494,-19.25 456.25,-19.25 456.25,0 494,0 494,-19.25"/>
<text text-anchor="middle" x="475.12" y="-5.75" font-family="Helvetica,sans-Serif" font-size="10.00">array</text>
</a>
</g>
</g>
<!-- Node7&#45;&gt;Node8 -->
<g id="edge8_Node000007_Node000008" class="edge">
<title>Node7&#45;&gt;Node8</title>
<g id="a_edge8_Node000007_Node000008"><a xlink:title=" ">
<path fill="none" stroke="#63b8ff" d="M446.66,-110.25C451.63,-92.84 462.77,-53.87 469.54,-30.16"/>
<polygon fill="#63b8ff" stroke="#63b8ff" points="473.17,-31.2 472.55,-20.63 466.44,-29.28 473.17,-31.2"/>
</a>
</g>
</g>
<!-- Node9 -->
<g id="Node000009" class="node">
<title>Node9</title>
<g id="a_Node000009"><a xlink:title=" ">
<polygon fill="#e0e0e0" stroke="#999999" points="541.88,-74.5 476.38,-74.5 476.38,-55.25 541.88,-55.25 541.88,-74.5"/>
<text text-anchor="middle" x="509.12" y="-61" font-family="Helvetica,sans-Serif" font-size="10.00">string_view</text>
</a>
</g>
</g>
<!-- Node7&#45;&gt;Node9 -->
<g id="edge9_Node000007_Node000009" class="edge">
<title>Node7&#45;&gt;Node9</title>
<g id="a_edge9_Node000007_Node000009"><a xlink:title=" ">
<path fill="none" stroke="#63b8ff" d="M455.15,-110.09C464.64,-102.32 478.55,-90.92 489.87,-81.65"/>
<polygon fill="#63b8ff" stroke="#63b8ff" points="491.74,-83.82 497.26,-74.77 487.31,-78.4 491.74,-83.82"/>
</a>
</g>
</g>
<!-- Node10 -->
<g id="Node000010" class="node">
<title>Node10</title>
<g id="a_Node000010"><a xlink:title=" ">
<polygon fill="#e0e0e0" stroke="#999999" points="613.88,-74.5 560.38,-74.5 560.38,-55.25 613.88,-55.25 613.88,-74.5"/>
<text text-anchor="middle" x="587.12" y="-61" font-family="Helvetica,sans-Serif" font-size="10.00">iostream</text>
</a>
</g>
</g>
<!-- Node7&#45;&gt;Node10 -->
<g id="edge10_Node000007_Node000010" class="edge">
<title>Node7&#45;&gt;Node10</title>
<g id="a_edge10_Node000007_Node000010"><a xlink:title=" ">
<path fill="none" stroke="#63b8ff" d="M468.38,-110.09C491.49,-101.49 526.53,-88.44 552.56,-78.75"/>
<polygon fill="#63b8ff" stroke="#63b8ff" points="553.6,-81.72 561.75,-74.95 551.16,-75.16 553.6,-81.72"/>
</a>
</g>
</g>
<!-- Node7&#45;&gt;Node11 -->
<g id="edge12_Node000007_Node000011" class="edge">
<title>Node7&#45;&gt;Node11</title>
<g id="a_edge12_Node000007_Node000011"><a xlink:title=" ">
<path fill="none" stroke="#63b8ff" d="M426.99,-110.09C411.39,-101.87 388.11,-89.59 370.03,-80.06"/>
<polygon fill="#63b8ff" stroke="#63b8ff" points="371.82,-76.52 361.34,-74.95 368.56,-82.71 371.82,-76.52"/>
</a>
</g>
</g>
<!-- Node11&#45;&gt;Node4 -->
<g id="edge17_Node000011_Node000004" class="edge">
<title>Node11&#45;&gt;Node4</title>
<g id="a_edge17_Node000011_Node000004"><a xlink:title=" ">
<path fill="none" stroke="#63b8ff" d="M312.42,-54.84C282.39,-46.01 236.45,-32.49 203.27,-22.73"/>
<polygon fill="#63b8ff" stroke="#63b8ff" points="204.56,-19.17 193.98,-19.7 202.59,-25.88 204.56,-19.17"/>
</a>
</g>
</g>
<!-- Node11&#45;&gt;Node8 -->
<g id="edge13_Node000011_Node000008" class="edge">
<title>Node11&#45;&gt;Node8</title>
<g id="a_edge13_Node000011_Node000008"><a xlink:title=" ">
<path fill="none" stroke="#63b8ff" d="M365.52,-54.84C387.69,-45.9 421.74,-32.16 446,-22.37"/>
<polygon fill="#63b8ff" stroke="#63b8ff" points="447.09,-25.3 455.06,-18.32 444.47,-18.81 447.09,-25.3"/>
</a>
</g>
</g>
<!-- Node12 -->
<g id="Node000012" class="node">
<title>Node12</title>
<g id="a_Node000012"><a xlink:title=" ">
<polygon fill="#e0e0e0" stroke="#999999" points="298.25,-19.25 250,-19.25 250,0 298.25,0 298.25,-19.25"/>
<text text-anchor="middle" x="274.12" y="-5.75" font-family="Helvetica,sans-Serif" font-size="10.00">cassert</text>
</a>
</g>
</g>
<!-- Node11&#45;&gt;Node12 -->
<g id="edge14_Node000011_Node000012" class="edge">
<title>Node11&#45;&gt;Node12</title>
<g id="a_edge14_Node000011_Node000012"><a xlink:title=" ">
<path fill="none" stroke="#63b8ff" d="M331.42,-54.84C321.25,-46.99 306.29,-35.45 294.21,-26.12"/>
<polygon fill="#63b8ff" stroke="#63b8ff" points="296.71,-22.86 286.66,-19.52 292.44,-28.41 296.71,-22.86"/>
</a>
</g>
</g>
<!-- Node13 -->
<g id="Node000013" class="node">
<title>Node13</title>
<g id="a_Node000013"><a xlink:title=" ">
<polygon fill="#e0e0e0" stroke="#999999" points="378,-19.25 316.25,-19.25 316.25,0 378,0 378,-19.25"/>
<text text-anchor="middle" x="347.12" y="-5.75" font-family="Helvetica,sans-Serif" font-size="10.00">type_traits</text>
</a>
</g>
</g>
<!-- Node11&#45;&gt;Node13 -->
<g id="edge15_Node000011_Node000013" class="edge">
<title>Node11&#45;&gt;Node13</title>
<g id="a_edge15_Node000011_Node000013"><a xlink:title=" ">
<path fill="none" stroke="#63b8ff" d="M343.79,-55.08C344.29,-48.42 344.99,-38.99 345.63,-30.53"/>
<polygon fill="#63b8ff" stroke="#63b8ff" points="349.19,-30.84 346.45,-20.61 342.21,-30.32 349.19,-30.84"/>
</a>
</g>
</g>
<!-- Node14 -->
<g id="Node000014" class="node">
<title>Node14</title>
<g id="a_Node000014"><a xlink:title=" ">
<polygon fill="#e0e0e0" stroke="#999999" points="438.62,-19.25 395.62,-19.25 395.62,0 438.62,0 438.62,-19.25"/>
<text text-anchor="middle" x="417.12" y="-5.75" font-family="Helvetica,sans-Serif" font-size="10.00">cmath</text>
</a>
</g>
</g>
<!-- Node11&#45;&gt;Node14 -->
<g id="edge16_Node000011_Node000014" class="edge">
<title>Node11&#45;&gt;Node14</title>
<g id="a_edge16_Node000011_Node000014"><a xlink:title=" ">
<path fill="none" stroke="#63b8ff" d="M355.68,-54.84C366.69,-46.91 382.94,-35.22 395.97,-25.85"/>
<polygon fill="#63b8ff" stroke="#63b8ff" points="397.68,-28.21 403.76,-19.52 393.6,-22.52 397.68,-28.21"/>
</a>
</g>
</g>
</g>
</svg>
