<?xml version="1.0" encoding="UTF-8" standalone="no"?>
<!DOCTYPE svg PUBLIC "-//W3C//DTD SVG 1.1//EN"
 "http://www.w3.org/Graphics/SVG/1.1/DTD/svg11.dtd">
<!-- Generated by graphviz version 8.0.5 (20230430.1635)
 -->
<!-- Title: lharmony_KeySignature.h Pages: 1 -->
<svg width="305pt" height="138pt"
 viewBox="0.00 0.00 304.84 137.75" xmlns="http://www.w3.org/2000/svg" xmlns:xlink="http://www.w3.org/1999/xlink">
<g id="graph0" class="graph" transform="scale(1 1) rotate(0) translate(4 133.75)">
<title>lharmony_KeySignature.h</title>
<!-- Node1 -->
<g id="Node000001" class="node">
<title>Node1</title>
<g id="a_Node000001"><a xlink:title="This file defines the KeySignature scale class.">
<polygon fill="#999999" stroke="#666666" points="163.09,-129.75 35.34,-129.75 35.34,-110.5 163.09,-110.5 163.09,-129.75"/>
<text text-anchor="middle" x="99.22" y="-116.25" font-family="Helvetica,sans-Serif" font-size="10.00">lharmony_KeySignature.h</text>
</a>
</g>
</g>
<!-- Node2 -->
<g id="Node000002" class="node">
<title>Node2</title>
<g id="a_Node000002"><a xlink:href="lharmony_8h_source.html" target="_top" xlink:title=" ">
<polygon fill="white" stroke="#666666" points="130.47,-19.25 67.97,-19.25 67.97,0 130.47,0 130.47,-19.25"/>
<text text-anchor="middle" x="99.22" y="-5.75" font-family="Helvetica,sans-Serif" font-size="10.00">lharmony.h</text>
</a>
</g>
</g>
<!-- Node1&#45;&gt;Node2 -->
<g id="edge1_Node000001_Node000002" class="edge">
<title>Node1&#45;&gt;Node2</title>
<g id="a_edge1_Node000001_Node000002"><a xlink:title=" ">
<path fill="none" stroke="#63b8ff" d="M46.12,-106.28C29.86,-99.59 13.76,-89.53 4.22,-74.5 -13.79,-46.15 33.38,-27.39 67.52,-17.92"/>
<polygon fill="#63b8ff" stroke="#63b8ff" points="44.62,-109.83 55.21,-110.03 47.05,-103.26 44.62,-109.83"/>
</a>
</g>
</g>
<!-- Node3 -->
<g id="Node000003" class="node">
<title>Node3</title>
<g id="a_Node000003"><a xlink:href="lharmony___key_signature_constants_8h.html" target="_top" xlink:title="This file contains some useful predefined key signatures.">
<polygon fill="white" stroke="#666666" points="185.59,-74.5 12.84,-74.5 12.84,-55.25 185.59,-55.25 185.59,-74.5"/>
<text text-anchor="middle" x="99.22" y="-61" font-family="Helvetica,sans-Serif" font-size="10.00">lharmony_KeySignatureConstants.h</text>
</a>
</g>
</g>
<!-- Node1&#45;&gt;Node3 -->
<g id="edge2_Node000001_Node000003" class="edge">
<title>Node1&#45;&gt;Node3</title>
<g id="a_edge2_Node000001_Node000003"><a xlink:title=" ">
<path fill="none" stroke="#63b8ff" d="M99.22,-99.46C99.22,-91.02 99.22,-81.58 99.22,-74.86"/>
<polygon fill="#63b8ff" stroke="#63b8ff" points="95.72,-99.33 99.22,-109.33 102.72,-99.33 95.72,-99.33"/>
</a>
</g>
</g>
<!-- Node4 -->
<g id="Node000004" class="node">
<title>Node4</title>
<g id="a_Node000004"><a xlink:href="lharmony___mode_8h.html" target="_top" xlink:title="This file defines the Mode scale class.">
<polygon fill="white" stroke="#666666" points="296.84,-74.5 203.59,-74.5 203.59,-55.25 296.84,-55.25 296.84,-74.5"/>
<text text-anchor="middle" x="250.22" y="-61" font-family="Helvetica,sans-Serif" font-size="10.00">lharmony_Mode.h</text>
</a>
</g>
</g>
<!-- Node1&#45;&gt;Node4 -->
<g id="edge4_Node000001_Node000004" class="edge">
<title>Node1&#45;&gt;Node4</title>
<g id="a_edge4_Node000001_Node000004"><a xlink:title=" ">
<path fill="none" stroke="#63b8ff" d="M134.85,-106.56C162.37,-96.85 199.81,-83.65 224.48,-74.95"/>
<polygon fill="#63b8ff" stroke="#63b8ff" points="134.1,-103.47 125.83,-110.09 136.43,-110.07 134.1,-103.47"/>
</a>
</g>
</g>
<!-- Node3&#45;&gt;Node2 -->
<g id="edge3_Node000003_Node000002" class="edge">
<title>Node3&#45;&gt;Node2</title>
<g id="a_edge3_Node000003_Node000002"><a xlink:title=" ">
<path fill="none" stroke="#63b8ff" d="M99.22,-44.21C99.22,-35.77 99.22,-26.33 99.22,-19.61"/>
<polygon fill="#63b8ff" stroke="#63b8ff" points="95.72,-44.08 99.22,-54.08 102.72,-44.08 95.72,-44.08"/>
</a>
</g>
</g>
<!-- Node4&#45;&gt;Node2 -->
<g id="edge5_Node000004_Node000002" class="edge">
<title>Node4&#45;&gt;Node2</title>
<g id="a_edge5_Node000004_Node000002"><a xlink:title=" ">
<path fill="none" stroke="#63b8ff" d="M214.59,-51.31C187.06,-41.6 149.62,-28.4 124.96,-19.7"/>
<polygon fill="#63b8ff" stroke="#63b8ff" points="213.01,-54.82 223.6,-54.84 215.34,-48.22 213.01,-54.82"/>
</a>
</g>
</g>
</g>
</svg>
