<?xml version="1.0" encoding="UTF-8" standalone="no"?>
<!DOCTYPE svg PUBLIC "-//W3C//DTD SVG 1.1//EN"
 "http://www.w3.org/Graphics/SVG/1.1/DTD/svg11.dtd">
<!-- Generated by graphviz version 8.0.5 (20230430.1635)
 -->
<!-- Title: lharmony_Scale.h Pages: 1 -->
<svg width="531pt" height="248pt"
 viewBox="0.00 0.00 531.25 248.25" xmlns="http://www.w3.org/2000/svg" xmlns:xlink="http://www.w3.org/1999/xlink">
<g id="graph0" class="graph" transform="scale(1 1) rotate(0) translate(4 244.25)">
<title>lharmony_Scale.h</title>
<!-- Node1 -->
<g id="Node000001" class="node">
<title>Node1</title>
<g id="a_Node000001"><a xlink:title="This file defines the Scale class.">
<polygon fill="#999999" stroke="#666666" points="165.5,-240.25 71.5,-240.25 71.5,-221 165.5,-221 165.5,-240.25"/>
<text text-anchor="middle" x="118.5" y="-226.75" font-family="Helvetica,sans-Serif" font-size="10.00">lharmony_Scale.h</text>
</a>
</g>
</g>
<!-- Node2 -->
<g id="Node000002" class="node">
<title>Node2</title>
<g id="a_Node000002"><a xlink:title=" ">
<polygon fill="#e0e0e0" stroke="#999999" points="43,-185 0,-185 0,-165.75 43,-165.75 43,-185"/>
<text text-anchor="middle" x="21.5" y="-171.5" font-family="Helvetica,sans-Serif" font-size="10.00">vector</text>
</a>
</g>
</g>
<!-- Node1&#45;&gt;Node2 -->
<g id="edge1_Node000001_Node000002" class="edge">
<title>Node1&#45;&gt;Node2</title>
<g id="a_edge1_Node000001_Node000002"><a xlink:title=" ">
<path fill="none" stroke="#63b8ff" d="M102.05,-220.59C87.13,-212.41 64.91,-200.21 47.58,-190.69"/>
<polygon fill="#63b8ff" stroke="#63b8ff" points="49.49,-187.2 39.04,-185.45 46.12,-193.33 49.49,-187.2"/>
</a>
</g>
</g>
<!-- Node3 -->
<g id="Node000003" class="node">
<title>Node3</title>
<g id="a_Node000003"><a xlink:title=" ">
<polygon fill="#e0e0e0" stroke="#999999" points="179.75,-19.25 39.25,-19.25 39.25,0 179.75,0 179.75,-19.25"/>
<text text-anchor="middle" x="109.5" y="-5.75" font-family="Helvetica,sans-Serif" font-size="10.00">lharmony/lharmony_Export.h</text>
</a>
</g>
</g>
<!-- Node1&#45;&gt;Node3 -->
<g id="edge2_Node000001_Node000003" class="edge">
<title>Node1&#45;&gt;Node3</title>
<g id="a_edge2_Node000001_Node000003"><a xlink:title=" ">
<path fill="none" stroke="#63b8ff" d="M110.83,-220.79C103.98,-212.28 94.45,-198.71 90.5,-185 74.75,-130.27 92.16,-62.43 102.68,-29.86"/>
<polygon fill="#63b8ff" stroke="#63b8ff" points="106.28,-31.13 106.17,-20.54 99.65,-28.89 106.28,-31.13"/>
</a>
</g>
</g>
<!-- Node4 -->
<g id="Node000004" class="node">
<title>Node4</title>
<g id="a_Node000004"><a xlink:href="lharmony___pitch_8h.html" target="_top" xlink:title="This file defines the Pitch class.">
<polygon fill="white" stroke="#666666" points="233.75,-185 99.25,-185 99.25,-165.75 233.75,-165.75 233.75,-185"/>
<text text-anchor="middle" x="166.5" y="-171.5" font-family="Helvetica,sans-Serif" font-size="10.00">lharmony/lharmony_Pitch.h</text>
</a>
</g>
</g>
<!-- Node1&#45;&gt;Node4 -->
<g id="edge3_Node000001_Node000004" class="edge">
<title>Node1&#45;&gt;Node4</title>
<g id="a_edge3_Node000001_Node000004"><a xlink:title=" ">
<path fill="none" stroke="#63b8ff" d="M126.43,-220.83C133.13,-213.4 142.92,-202.54 151.14,-193.41"/>
<polygon fill="#63b8ff" stroke="#63b8ff" points="153.31,-196.13 157.4,-186.36 148.11,-191.44 153.31,-196.13"/>
</a>
</g>
</g>
<!-- Node6 -->
<g id="Node000006" class="node">
<title>Node6</title>
<g id="a_Node000006"><a xlink:href="lharmony___pitch_class_8h.html" target="_top" xlink:title="This file defines the PitchClass class.">
<polygon fill="white" stroke="#666666" points="406.5,-129.75 246.5,-129.75 246.5,-110.5 406.5,-110.5 406.5,-129.75"/>
<text text-anchor="middle" x="326.5" y="-116.25" font-family="Helvetica,sans-Serif" font-size="10.00">lharmony/lharmony_PitchClass.h</text>
</a>
</g>
</g>
<!-- Node1&#45;&gt;Node6 -->
<g id="edge18_Node000001_Node000006" class="edge">
<title>Node1&#45;&gt;Node6</title>
<g id="a_edge18_Node000001_Node000006"><a xlink:title=" ">
<path fill="none" stroke="#63b8ff" d="M152.31,-220.51C177.94,-212.88 213.55,-200.73 242.5,-185 267.22,-171.57 292.51,-151.27 308.79,-137.17"/>
<polygon fill="#63b8ff" stroke="#63b8ff" points="310.66,-140.3 315.85,-131.06 306.03,-135.05 310.66,-140.3"/>
</a>
</g>
</g>
<!-- Node4&#45;&gt;Node3 -->
<g id="edge5_Node000004_Node000003" class="edge">
<title>Node4&#45;&gt;Node3</title>
<g id="a_edge5_Node000004_Node000003"><a xlink:title=" ">
<path fill="none" stroke="#63b8ff" d="M156.63,-165.48C148.03,-157.13 135.95,-143.84 129.5,-129.75 114.49,-96.96 110.62,-54.48 109.7,-30.11"/>
<polygon fill="#63b8ff" stroke="#63b8ff" points="113.18,-30.36 109.44,-20.45 106.18,-30.53 113.18,-30.36"/>
</a>
</g>
</g>
<!-- Node5 -->
<g id="Node000005" class="node">
<title>Node5</title>
<g id="a_Node000005"><a xlink:title=" ">
<polygon fill="#e0e0e0" stroke="#999999" points="190.12,-129.75 138.88,-129.75 138.88,-110.5 190.12,-110.5 190.12,-129.75"/>
<text text-anchor="middle" x="164.5" y="-116.25" font-family="Helvetica,sans-Serif" font-size="10.00">ostream</text>
</a>
</g>
</g>
<!-- Node4&#45;&gt;Node5 -->
<g id="edge4_Node000004_Node000005" class="edge">
<title>Node4&#45;&gt;Node5</title>
<g id="a_edge4_Node000004_Node000005"><a xlink:title=" ">
<path fill="none" stroke="#63b8ff" d="M166.17,-165.58C165.92,-158.92 165.57,-149.49 165.25,-141.03"/>
<polygon fill="#63b8ff" stroke="#63b8ff" points="168.71,-140.97 164.84,-131.11 161.72,-141.23 168.71,-140.97"/>
</a>
</g>
</g>
<!-- Node4&#45;&gt;Node6 -->
<g id="edge6_Node000004_Node000006" class="edge">
<title>Node4&#45;&gt;Node6</title>
<g id="a_edge6_Node000004_Node000006"><a xlink:title=" ">
<path fill="none" stroke="#63b8ff" d="M193.64,-165.34C219.85,-156.62 259.74,-143.34 288.98,-133.61"/>
<polygon fill="#63b8ff" stroke="#63b8ff" points="289.84,-136.68 298.23,-130.2 287.63,-130.04 289.84,-136.68"/>
</a>
</g>
</g>
<!-- Node10 -->
<g id="Node000010" class="node">
<title>Node10</title>
<g id="a_Node000010"><a xlink:href="lharmony___pitch_utils_8h.html" target="_top" xlink:title="This file contains miscellaneous pitch utilities.">
<polygon fill="white" stroke="#666666" points="329.88,-74.5 175.12,-74.5 175.12,-55.25 329.88,-55.25 329.88,-74.5"/>
<text text-anchor="middle" x="252.5" y="-61" font-family="Helvetica,sans-Serif" font-size="10.00">lharmony/lharmony_PitchUtils.h</text>
</a>
</g>
</g>
<!-- Node4&#45;&gt;Node10 -->
<g id="edge17_Node000004_Node000010" class="edge">
<title>Node4&#45;&gt;Node10</title>
<g id="a_edge17_Node000004_Node000010"><a xlink:title=" ">
<path fill="none" stroke="#63b8ff" d="M173.54,-165.5C187.77,-147.53 220.21,-106.61 238.78,-83.19"/>
<polygon fill="#63b8ff" stroke="#63b8ff" points="241.9,-85.89 245.37,-75.88 236.41,-81.54 241.9,-85.89"/>
</a>
</g>
</g>
<!-- Node6&#45;&gt;Node3 -->
<g id="edge10_Node000006_Node000003" class="edge">
<title>Node6&#45;&gt;Node3</title>
<g id="a_edge10_Node000006_Node000003"><a xlink:title=" ">
<path fill="none" stroke="#63b8ff" d="M263.1,-110.05C232.25,-103.56 195.63,-92.64 166.5,-74.5 147.64,-62.75 131.37,-42.94 121.09,-28.49"/>
<polygon fill="#63b8ff" stroke="#63b8ff" points="123.5,-26.81 114.98,-20.51 117.71,-30.75 123.5,-26.81"/>
</a>
</g>
</g>
<!-- Node7 -->
<g id="Node000007" class="node">
<title>Node7</title>
<g id="a_Node000007"><a xlink:title=" ">
<polygon fill="#e0e0e0" stroke="#999999" points="445.38,-19.25 407.62,-19.25 407.62,0 445.38,0 445.38,-19.25"/>
<text text-anchor="middle" x="426.5" y="-5.75" font-family="Helvetica,sans-Serif" font-size="10.00">array</text>
</a>
</g>
</g>
<!-- Node6&#45;&gt;Node7 -->
<g id="edge7_Node000006_Node000007" class="edge">
<title>Node6&#45;&gt;Node7</title>
<g id="a_edge7_Node000006_Node000007"><a xlink:title=" ">
<path fill="none" stroke="#63b8ff" d="M356.67,-110.1C374.82,-103.17 396.97,-91.8 410.5,-74.5 420.42,-61.83 424.27,-43.78 425.72,-30.1"/>
<polygon fill="#63b8ff" stroke="#63b8ff" points="429.26,-30.67 426.48,-20.44 422.28,-30.17 429.26,-30.67"/>
</a>
</g>
</g>
<!-- Node8 -->
<g id="Node000008" class="node">
<title>Node8</title>
<g id="a_Node000008"><a xlink:title=" ">
<polygon fill="#e0e0e0" stroke="#999999" points="523.25,-74.5 457.75,-74.5 457.75,-55.25 523.25,-55.25 523.25,-74.5"/>
<text text-anchor="middle" x="490.5" y="-61" font-family="Helvetica,sans-Serif" font-size="10.00">string_view</text>
</a>
</g>
</g>
<!-- Node6&#45;&gt;Node8 -->
<g id="edge8_Node000006_Node000008" class="edge">
<title>Node6&#45;&gt;Node8</title>
<g id="a_edge8_Node000006_Node000008"><a xlink:title=" ">
<path fill="none" stroke="#63b8ff" d="M354.32,-110.09C381.3,-101.33 422.43,-87.98 452.44,-78.23"/>
<polygon fill="#63b8ff" stroke="#63b8ff" points="453.11,-81.37 461.54,-74.95 450.95,-74.71 453.11,-81.37"/>
</a>
</g>
</g>
<!-- Node9 -->
<g id="Node000009" class="node">
<title>Node9</title>
<g id="a_Node000009"><a xlink:title=" ">
<polygon fill="#e0e0e0" stroke="#999999" points="401.25,-74.5 347.75,-74.5 347.75,-55.25 401.25,-55.25 401.25,-74.5"/>
<text text-anchor="middle" x="374.5" y="-61" font-family="Helvetica,sans-Serif" font-size="10.00">iostream</text>
</a>
</g>
</g>
<!-- Node6&#45;&gt;Node9 -->
<g id="edge9_Node000006_Node000009" class="edge">
<title>Node6&#45;&gt;Node9</title>
<g id="a_edge9_Node000006_Node000009"><a xlink:title=" ">
<path fill="none" stroke="#63b8ff" d="M334.43,-110.33C341.13,-102.9 350.92,-92.04 359.14,-82.91"/>
<polygon fill="#63b8ff" stroke="#63b8ff" points="361.31,-85.63 365.4,-75.86 356.11,-80.94 361.31,-85.63"/>
</a>
</g>
</g>
<!-- Node6&#45;&gt;Node10 -->
<g id="edge11_Node000006_Node000010" class="edge">
<title>Node6&#45;&gt;Node10</title>
<g id="a_edge11_Node000006_Node000010"><a xlink:title=" ">
<path fill="none" stroke="#63b8ff" d="M313.95,-110.09C302.93,-102.16 286.68,-90.47 273.66,-81.1"/>
<polygon fill="#63b8ff" stroke="#63b8ff" points="276.03,-77.77 265.87,-74.77 271.94,-83.46 276.03,-77.77"/>
</a>
</g>
</g>
<!-- Node10&#45;&gt;Node3 -->
<g id="edge16_Node000010_Node000003" class="edge">
<title>Node10&#45;&gt;Node3</title>
<g id="a_edge16_Node000010_Node000003"><a xlink:title=" ">
<path fill="none" stroke="#63b8ff" d="M228.24,-54.84C205.13,-46.24 170.1,-33.19 144.07,-23.5"/>
<polygon fill="#63b8ff" stroke="#63b8ff" points="145.47,-19.91 134.88,-19.7 143.03,-26.47 145.47,-19.91"/>
</a>
</g>
</g>
<!-- Node10&#45;&gt;Node7 -->
<g id="edge12_Node000010_Node000007" class="edge">
<title>Node10&#45;&gt;Node7</title>
<g id="a_edge12_Node000010_Node000007"><a xlink:title=" ">
<path fill="none" stroke="#63b8ff" d="M282.02,-54.84C314.11,-45.02 365.09,-29.42 397.12,-19.62"/>
<polygon fill="#63b8ff" stroke="#63b8ff" points="398.06,-22.68 406.6,-16.41 396.02,-15.99 398.06,-22.68"/>
</a>
</g>
</g>
<!-- Node11 -->
<g id="Node000011" class="node">
<title>Node11</title>
<g id="a_Node000011"><a xlink:title=" ">
<polygon fill="#e0e0e0" stroke="#999999" points="386.62,-19.25 338.38,-19.25 338.38,0 386.62,0 386.62,-19.25"/>
<text text-anchor="middle" x="362.5" y="-5.75" font-family="Helvetica,sans-Serif" font-size="10.00">cassert</text>
</a>
</g>
</g>
<!-- Node10&#45;&gt;Node11 -->
<g id="edge13_Node000010_Node000011" class="edge">
<title>Node10&#45;&gt;Node11</title>
<g id="a_edge13_Node000010_Node000011"><a xlink:title=" ">
<path fill="none" stroke="#63b8ff" d="M271.16,-54.84C288.39,-46.5 314.22,-34 334.02,-24.41"/>
<polygon fill="#63b8ff" stroke="#63b8ff" points="335.27,-27.21 342.75,-19.7 332.22,-20.91 335.27,-27.21"/>
</a>
</g>
</g>
<!-- Node12 -->
<g id="Node000012" class="node">
<title>Node12</title>
<g id="a_Node000012"><a xlink:title=" ">
<polygon fill="#e0e0e0" stroke="#999999" points="259.38,-19.25 197.62,-19.25 197.62,0 259.38,0 259.38,-19.25"/>
<text text-anchor="middle" x="228.5" y="-5.75" font-family="Helvetica,sans-Serif" font-size="10.00">type_traits</text>
</a>
</g>
</g>
<!-- Node10&#45;&gt;Node12 -->
<g id="edge14_Node000010_Node000012" class="edge">
<title>Node10&#45;&gt;Node12</title>
<g id="a_edge14_Node000010_Node000012"><a xlink:title=" ">
<path fill="none" stroke="#63b8ff" d="M248.54,-55.08C245.39,-48.11 240.89,-38.12 236.95,-29.37"/>
<polygon fill="#63b8ff" stroke="#63b8ff" points="239.85,-28.29 232.55,-20.61 233.47,-31.16 239.85,-28.29"/>
</a>
</g>
</g>
<!-- Node13 -->
<g id="Node000013" class="node">
<title>Node13</title>
<g id="a_Node000013"><a xlink:title=" ">
<polygon fill="#e0e0e0" stroke="#999999" points="320,-19.25 277,-19.25 277,0 320,0 320,-19.25"/>
<text text-anchor="middle" x="298.5" y="-5.75" font-family="Helvetica,sans-Serif" font-size="10.00">cmath</text>
</a>
</g>
</g>
<!-- Node10&#45;&gt;Node13 -->
<g id="edge15_Node000010_Node000013" class="edge">
<title>Node10&#45;&gt;Node13</title>
<g id="a_edge15_Node000010_Node000013"><a xlink:title=" ">
<path fill="none" stroke="#63b8ff" d="M260.1,-55.08C266.52,-47.65 275.9,-36.79 283.78,-27.66"/>
<polygon fill="#63b8ff" stroke="#63b8ff" points="286.85,-30.46 290.74,-20.61 281.55,-25.89 286.85,-30.46"/>
</a>
</g>
</g>
</g>
</svg>
