<?xml version="1.0" encoding="UTF-8" standalone="no"?>
<!DOCTYPE svg PUBLIC "-//W3C//DTD SVG 1.1//EN"
 "http://www.w3.org/Graphics/SVG/1.1/DTD/svg11.dtd">
<!-- Generated by graphviz version 8.0.5 (20230430.1635)
 -->
<!-- Title: lharmony_Mode.h Pages: 1 -->
<!--zoomable 370 -->

<svg id="main" version="1.1" xmlns="http://www.w3.org/2000/svg" xmlns:xlink="http://www.w3.org/1999/xlink" xml:space="preserve" onload="init(evt)">
<style type="text/css"><![CDATA[
.node, .edge {opacity: 0.7;}
.node.selected, .edge.selected {opacity: 1;}
.edge:hover path { stroke: red; }
.edge:hover polygon { stroke: red; fill: red; }
]]></style>

<defs>
  <circle id="rim" cx="0" cy="0" r="7"/>
  <circle id="rim2" cx="0" cy="0" r="3.5"/>
  <g id="zoomPlus">
    <use xlink:href="#rim" fill="#404040"><set attributeName="fill" to="#808080" begin="zoomplus.mouseover" end="zoomplus.mouseout"/></use>
    <path d="M-4,0h8M0,-4v8" fill="none" stroke="white" stroke-width="1.5" pointer-events="none"/>
  </g>
  <g id="zoomMin">
    <use xlink:href="#rim" fill="#404040"><set attributeName="fill" to="#808080" begin="zoomminus.mouseover" end="zoomminus.mouseout"/></use>
    <path d="M-4,0h8" fill="none" stroke="white" stroke-width="1.5" pointer-events="none"/>
  </g>
  <g id="arrowUp" transform="translate(30 24)">
    <use xlink:href="#rim"/>
    <path pointer-events="none" fill="none" stroke="white" stroke-width="1.5" d="M0,-3.0v7 M-2.5,-0.5L0,-3.0L2.5,-0.5"/>
  </g>
  <g id="arrowRight" transform="rotate(90) translate(36 -43)">
    <use xlink:href="#rim"/>
    <path pointer-events="none" fill="none" stroke="white" stroke-width="1.5" d="M0,-3.0v7 M-2.5,-0.5L0,-3.0L2.5,-0.5"/>
  </g>
  <g id="arrowDown" transform="rotate(180) translate(-30 -48)">
    <use xlink:href="#rim"/>
    <path pointer-events="none" fill="none" stroke="white" stroke-width="1.5" d="M0,-3.0v7 M-2.5,-0.5L0,-3.0L2.5,-0.5"/>
  </g>
  <g id="arrowLeft" transform="rotate(270) translate(-36 17)">
    <use xlink:href="#rim"/>
    <path pointer-events="none" fill="none" stroke="white" stroke-width="1.5" d="M0,-3.0v7 M-2.5,-0.5L0,-3.0L2.5,-0.5"/>
  </g>
  <g id="resetDef">
    <use xlink:href="#rim2" fill="#404040"><set attributeName="fill" to="#808080" begin="reset.mouseover" end="reset.mouseout"/></use>
  </g>
</defs>
<script type="application/ecmascript">
var viewWidth = 611;
var viewHeight = 370;
var sectionId = 'dynsection-0';
</script>
<script type="application/ecmascript" xlink:href="svg.min.js"/>
<svg id="graph" class="graph">
<g id="viewport">
<title>lharmony_Mode.h</title>
<!-- Node1 -->
<g id="Node000001" class="node">
<title>Node1</title>
<g id="a_Node000001"><a xlink:title="This file defines the Mode scale class.">
<polygon fill="#999999" stroke="#666666" points="287.62,-362 194.38,-362 194.38,-342.75 287.62,-342.75 287.62,-362"/>
<text text-anchor="middle" x="241" y="-348.5" font-family="Helvetica,sans-Serif" font-size="10.00">lharmony_Mode.h</text>
</a>
</g>
</g>
<!-- Node2 -->
<g id="Node000002" class="node">
<title>Node2</title>
<g id="a_Node000002"><a xlink:title=" ">
<polygon fill="#e0e0e0" stroke="#999999" points="147.5,-185 104.5,-185 104.5,-165.75 147.5,-165.75 147.5,-185"/>
<text text-anchor="middle" x="126" y="-171.5" font-family="Helvetica,sans-Serif" font-size="10.00">vector</text>
</a>
</g>
</g>
<!-- Node1&#45;&gt;Node2 -->
<g id="edge1_Node000001_Node000002" class="edge">
<title>Node1&#45;&gt;Node2</title>
<g id="a_edge1_Node000001_Node000002"><a xlink:title=" ">
<path fill="none" stroke="#63b8ff" d="M211.09,-342.26C174.38,-329.14 114.59,-300.89 95,-251.5 90,-238.9 90.95,-233.94 95,-221 98.09,-211.14 104.2,-201.56 110.19,-193.81"/>
<polygon fill="#63b8ff" stroke="#63b8ff" points="113.51,-196.3 117.23,-186.38 108.13,-191.82 113.51,-196.3"/>
</a>
</g>
</g>
<!-- Node3 -->
<g id="Node000003" class="node">
<title>Node3</title>
<g id="a_Node000003"><a xlink:title=" ">
<polygon fill="#e0e0e0" stroke="#999999" points="250.25,-19.25 109.75,-19.25 109.75,0 250.25,0 250.25,-19.25"/>
<text text-anchor="middle" x="180" y="-5.75" font-family="Helvetica,sans-Serif" font-size="10.00">lharmony/lharmony_Export.h</text>
</a>
</g>
</g>
<!-- Node1&#45;&gt;Node3 -->
<g id="edge2_Node000001_Node000003" class="edge">
<title>Node1&#45;&gt;Node3</title>
<g id="a_edge2_Node000001_Node000003"><a xlink:title=" ">
<path fill="none" stroke="#63b8ff" d="M193.96,-349.54C123.83,-344 0,-322.2 0,-237.25 0,-237.25 0,-237.25 0,-119.12 0,-63.65 63.48,-35.8 115.04,-22.33"/>
<polygon fill="#63b8ff" stroke="#63b8ff" points="115.64,-25.54 124.51,-19.74 113.96,-18.74 115.64,-25.54"/>
</a>
</g>
</g>
<!-- Node4 -->
<g id="Node000004" class="node">
<title>Node4</title>
<g id="a_Node000004"><a xlink:href="lharmony___key_signature_8h.html" target="_top" xlink:title="This file defines the KeySignature scale class.">
<polygon fill="white" stroke="#666666" points="326.25,-306.75 155.75,-306.75 155.75,-287.5 326.25,-287.5 326.25,-306.75"/>
<text text-anchor="middle" x="241" y="-293.25" font-family="Helvetica,sans-Serif" font-size="10.00">lharmony/lharmony_KeySignature.h</text>
</a>
</g>
</g>
<!-- Node1&#45;&gt;Node4 -->
<g id="edge3_Node000001_Node000004" class="edge">
<title>Node1&#45;&gt;Node4</title>
<g id="a_edge3_Node000001_Node000004"><a xlink:title=" ">
<path fill="none" stroke="#63b8ff" d="M241,-342.58C241,-335.92 241,-326.49 241,-318.03"/>
<polygon fill="#63b8ff" stroke="#63b8ff" points="244.5,-318.11 241,-308.11 237.5,-318.11 244.5,-318.11"/>
</a>
</g>
</g>
<!-- Node5 -->
<g id="Node000005" class="node">
<title>Node5</title>
<g id="a_Node000005"><a xlink:href="lharmony___scale_8h.html" target="_top" xlink:title="This file defines the Scale class.">
<polygon fill="white" stroke="#666666" points="422.38,-245.88 285.62,-245.88 285.62,-226.62 422.38,-226.62 422.38,-245.88"/>
<text text-anchor="middle" x="354" y="-232.38" font-family="Helvetica,sans-Serif" font-size="10.00">lharmony/lharmony_Scale.h</text>
</a>
</g>
</g>
<!-- Node1&#45;&gt;Node5 -->
<g id="edge27_Node000001_Node000005" class="edge">
<title>Node1&#45;&gt;Node5</title>
<g id="a_edge27_Node000001_Node000005"><a xlink:title=" ">
<path fill="none" stroke="#63b8ff" d="M276.86,-342.36C296.65,-335.63 320.15,-324.48 335,-306.75 346.79,-292.68 351.3,-271.9 353.01,-256.73"/>
<polygon fill="#63b8ff" stroke="#63b8ff" points="356.56,-257.24 353.87,-247 349.58,-256.69 356.56,-257.24"/>
</a>
</g>
</g>
<!-- Node8 -->
<g id="Node000008" class="node">
<title>Node8</title>
<g id="a_Node000008"><a xlink:href="lharmony___pitch_class_8h.html" target="_top" xlink:title="This file defines the PitchClass class.">
<polygon fill="white" stroke="#666666" points="537,-129.75 377,-129.75 377,-110.5 537,-110.5 537,-129.75"/>
<text text-anchor="middle" x="457" y="-116.25" font-family="Helvetica,sans-Serif" font-size="10.00">lharmony/lharmony_PitchClass.h</text>
</a>
</g>
</g>
<!-- Node1&#45;&gt;Node8 -->
<g id="edge28_Node000001_Node000008" class="edge">
<title>Node1&#45;&gt;Node8</title>
<g id="a_edge28_Node000001_Node000008"><a xlink:title=" ">
<path fill="none" stroke="#63b8ff" d="M287.78,-342.4C336.95,-330.43 412.77,-304.29 454,-251.5 477.97,-220.81 478.29,-204.18 472,-165.75 470.6,-157.19 467.78,-148.05 464.96,-140.29"/>
<polygon fill="#63b8ff" stroke="#63b8ff" points="467.89,-139.18 461,-131.13 461.37,-141.72 467.89,-139.18"/>
</a>
</g>
</g>
<!-- Node4&#45;&gt;Node2 -->
<g id="edge4_Node000004_Node000002" class="edge">
<title>Node4&#45;&gt;Node2</title>
<g id="a_edge4_Node000004_Node000002"><a xlink:title=" ">
<path fill="none" stroke="#63b8ff" d="M243.63,-287.29C247.55,-272.19 253.06,-241.1 239,-221 229.36,-207.23 187.9,-193.3 158,-184.76"/>
<polygon fill="#63b8ff" stroke="#63b8ff" points="159.15,-181.17 148.58,-181.86 157.28,-187.91 159.15,-181.17"/>
</a>
</g>
</g>
<!-- Node4&#45;&gt;Node3 -->
<g id="edge5_Node000004_Node000003" class="edge">
<title>Node4&#45;&gt;Node3</title>
<g id="a_edge5_Node000004_Node000003"><a xlink:title=" ">
<path fill="none" stroke="#63b8ff" d="M161,-287.01C136.95,-280.58 112.36,-269.73 95,-251.5 71.25,-226.56 76,-210.82 76,-176.38 76,-176.38 76,-176.38 76,-119.12 76,-75.33 120.7,-42.33 151.49,-24.79"/>
<polygon fill="#63b8ff" stroke="#63b8ff" points="152.82,-27.5 159.92,-19.64 149.47,-21.36 152.82,-27.5"/>
</a>
</g>
</g>
<!-- Node4&#45;&gt;Node5 -->
<g id="edge6_Node000004_Node000005" class="edge">
<title>Node4&#45;&gt;Node5</title>
<g id="a_edge6_Node000004_Node000005"><a xlink:title=" ">
<path fill="none" stroke="#63b8ff" d="M258.16,-287.18C276.5,-277.63 305.8,-262.36 327.19,-251.22"/>
<polygon fill="#63b8ff" stroke="#63b8ff" points="328.42,-254 335.68,-246.28 325.19,-247.79 328.42,-254"/>
</a>
</g>
</g>
<!-- Node4&#45;&gt;Node8 -->
<g id="edge25_Node000004_Node000008" class="edge">
<title>Node4&#45;&gt;Node8</title>
<g id="a_edge25_Node000004_Node000008"><a xlink:title=" ">
<path fill="none" stroke="#63b8ff" d="M315.29,-287.02C361.39,-279.84 414.84,-268.22 431,-251.5 459.79,-221.72 460.99,-169.63 459.14,-141.14"/>
<polygon fill="#63b8ff" stroke="#63b8ff" points="462.54,-140.85 458.19,-131.19 455.57,-141.45 462.54,-140.85"/>
</a>
</g>
</g>
<!-- Node16 -->
<g id="Node000016" class="node">
<title>Node16</title>
<g id="a_Node000016"><a xlink:href="lharmony___key_signature__impl_8h.html" target="_top" xlink:title="This file contains implementation details for the KeySignature class.">
<polygon fill="white" stroke="#666666" points="229.75,-251.5 104.25,-251.5 104.25,-221 229.75,-221 229.75,-251.5"/>
<text text-anchor="start" x="112.25" y="-238" font-family="Helvetica,sans-Serif" font-size="10.00">./lharmony_KeySignature</text>
<text text-anchor="middle" x="167" y="-226.75" font-family="Helvetica,sans-Serif" font-size="10.00">_impl.h</text>
</a>
</g>
</g>
<!-- Node4&#45;&gt;Node16 -->
<g id="edge26_Node000004_Node000016" class="edge">
<title>Node4&#45;&gt;Node16</title>
<g id="a_edge26_Node000004_Node000016"><a xlink:title=" ">
<path fill="none" stroke="#63b8ff" d="M229.76,-287.18C220.17,-279.55 205.99,-268.27 193.54,-258.36"/>
<polygon fill="#63b8ff" stroke="#63b8ff" points="196.27,-255.27 186.27,-251.78 191.91,-260.75 196.27,-255.27"/>
</a>
</g>
</g>
<!-- Node5&#45;&gt;Node2 -->
<g id="edge7_Node000005_Node000002" class="edge">
<title>Node5&#45;&gt;Node2</title>
<g id="a_edge7_Node000005_Node000002"><a xlink:title=" ">
<path fill="none" stroke="#63b8ff" d="M318.87,-226.18C275.07,-214.87 200.8,-195.69 158.34,-184.72"/>
<polygon fill="#63b8ff" stroke="#63b8ff" points="159.32,-181.11 148.76,-181.99 157.57,-187.88 159.32,-181.11"/>
</a>
</g>
</g>
<!-- Node5&#45;&gt;Node3 -->
<g id="edge8_Node000005_Node000003" class="edge">
<title>Node5&#45;&gt;Node3</title>
<g id="a_edge8_Node000005_Node000003"><a xlink:title=" ">
<path fill="none" stroke="#63b8ff" d="M314.21,-226.14C290.09,-218.74 260.35,-206 241,-185 199.59,-140.06 186.03,-65.42 181.8,-30.18"/>
<polygon fill="#63b8ff" stroke="#63b8ff" points="185.2,-30.05 180.67,-20.48 178.24,-30.79 185.2,-30.05"/>
</a>
</g>
</g>
<!-- Node6 -->
<g id="Node000006" class="node">
<title>Node6</title>
<g id="a_Node000006"><a xlink:href="lharmony___pitch_8h.html" target="_top" xlink:title="This file defines the Pitch class.">
<polygon fill="white" stroke="#666666" points="384.25,-185 249.75,-185 249.75,-165.75 384.25,-165.75 384.25,-185"/>
<text text-anchor="middle" x="317" y="-171.5" font-family="Helvetica,sans-Serif" font-size="10.00">lharmony/lharmony_Pitch.h</text>
</a>
</g>
</g>
<!-- Node5&#45;&gt;Node6 -->
<g id="edge9_Node000005_Node000006" class="edge">
<title>Node5&#45;&gt;Node6</title>
<g id="a_edge9_Node000005_Node000006"><a xlink:title=" ">
<path fill="none" stroke="#63b8ff" d="M348.38,-226.31C343.11,-217.92 335.07,-205.13 328.45,-194.59"/>
<polygon fill="#63b8ff" stroke="#63b8ff" points="330.96,-193.01 322.67,-186.4 325.03,-196.73 330.96,-193.01"/>
</a>
</g>
</g>
<!-- Node5&#45;&gt;Node8 -->
<g id="edge24_Node000005_Node000008" class="edge">
<title>Node5&#45;&gt;Node8</title>
<g id="a_edge24_Node000005_Node000008"><a xlink:title=" ">
<path fill="none" stroke="#63b8ff" d="M362.08,-226.29C379.23,-207.29 419.5,-162.68 441.68,-138.1"/>
<polygon fill="#63b8ff" stroke="#63b8ff" points="443.85,-140.81 447.96,-131.04 438.66,-136.12 443.85,-140.81"/>
</a>
</g>
</g>
<!-- Node6&#45;&gt;Node3 -->
<g id="edge11_Node000006_Node000003" class="edge">
<title>Node6&#45;&gt;Node3</title>
<g id="a_edge11_Node000006_Node000003"><a xlink:title=" ">
<path fill="none" stroke="#63b8ff" d="M303.34,-165.52C291.13,-157.19 273.18,-143.92 260,-129.75 230.3,-97.8 203.8,-53.83 190.02,-29.23"/>
<polygon fill="#63b8ff" stroke="#63b8ff" points="192.66,-27.75 184.77,-20.68 186.52,-31.13 192.66,-27.75"/>
</a>
</g>
</g>
<!-- Node7 -->
<g id="Node000007" class="node">
<title>Node7</title>
<g id="a_Node000007"><a xlink:title=" ">
<polygon fill="#e0e0e0" stroke="#999999" points="320.62,-129.75 269.38,-129.75 269.38,-110.5 320.62,-110.5 320.62,-129.75"/>
<text text-anchor="middle" x="295" y="-116.25" font-family="Helvetica,sans-Serif" font-size="10.00">ostream</text>
</a>
</g>
</g>
<!-- Node6&#45;&gt;Node7 -->
<g id="edge10_Node000006_Node000007" class="edge">
<title>Node6&#45;&gt;Node7</title>
<g id="a_edge10_Node000006_Node000007"><a xlink:title=" ">
<path fill="none" stroke="#63b8ff" d="M313.37,-165.58C310.52,-158.69 306.45,-148.84 302.86,-140.16"/>
<polygon fill="#63b8ff" stroke="#63b8ff" points="305.77,-139.02 298.71,-131.11 299.3,-141.69 305.77,-139.02"/>
</a>
</g>
</g>
<!-- Node6&#45;&gt;Node8 -->
<g id="edge12_Node000006_Node000008" class="edge">
<title>Node6&#45;&gt;Node8</title>
<g id="a_edge12_Node000006_Node000008"><a xlink:title=" ">
<path fill="none" stroke="#63b8ff" d="M340.75,-165.34C363.38,-156.74 397.67,-143.69 423.16,-134"/>
<polygon fill="#63b8ff" stroke="#63b8ff" points="424.03,-137.03 432.13,-130.2 421.54,-130.49 424.03,-137.03"/>
</a>
</g>
</g>
<!-- Node12 -->
<g id="Node000012" class="node">
<title>Node12</title>
<g id="a_Node000012"><a xlink:href="lharmony___pitch_utils_8h.html" target="_top" xlink:title="This file contains miscellaneous pitch utilities.">
<polygon fill="white" stroke="#666666" points="434.38,-74.5 279.62,-74.5 279.62,-55.25 434.38,-55.25 434.38,-74.5"/>
<text text-anchor="middle" x="357" y="-61" font-family="Helvetica,sans-Serif" font-size="10.00">lharmony/lharmony_PitchUtils.h</text>
</a>
</g>
</g>
<!-- Node6&#45;&gt;Node12 -->
<g id="edge23_Node000006_Node000012" class="edge">
<title>Node6&#45;&gt;Node12</title>
<g id="a_edge23_Node000006_Node000012"><a xlink:title=" ">
<path fill="none" stroke="#63b8ff" d="M320.27,-165.5C326.72,-148.01 341.19,-108.77 349.92,-85.09"/>
<polygon fill="#63b8ff" stroke="#63b8ff" points="353.51,-86.47 353.68,-75.88 346.94,-84.05 353.51,-86.47"/>
</a>
</g>
</g>
<!-- Node8&#45;&gt;Node3 -->
<g id="edge16_Node000008_Node000003" class="edge">
<title>Node8&#45;&gt;Node3</title>
<g id="a_edge16_Node000008_Node000003"><a xlink:title=" ">
<path fill="none" stroke="#63b8ff" d="M393.92,-110.08C356.97,-103.31 310.05,-92.11 271,-74.5 243.58,-62.13 215.82,-41.15 198.3,-26.63"/>
<polygon fill="#63b8ff" stroke="#63b8ff" points="201.02,-23.5 191.12,-19.7 196.49,-28.84 201.02,-23.5"/>
</a>
</g>
</g>
<!-- Node9 -->
<g id="Node000009" class="node">
<title>Node9</title>
<g id="a_Node000009"><a xlink:title=" ">
<polygon fill="#e0e0e0" stroke="#999999" points="576.88,-19.25 539.12,-19.25 539.12,0 576.88,0 576.88,-19.25"/>
<text text-anchor="middle" x="558" y="-5.75" font-family="Helvetica,sans-Serif" font-size="10.00">array</text>
</a>
</g>
</g>
<!-- Node8&#45;&gt;Node9 -->
<g id="edge13_Node000008_Node000009" class="edge">
<title>Node8&#45;&gt;Node9</title>
<g id="a_edge13_Node000008_Node000009"><a xlink:title=" ">
<path fill="none" stroke="#63b8ff" d="M537.24,-111.96C560.93,-105.66 584.4,-94.4 599,-74.5 610.64,-58.64 594.75,-39.54 579.48,-26.39"/>
<polygon fill="#63b8ff" stroke="#63b8ff" points="582.23,-23.3 572.25,-19.75 577.84,-28.75 582.23,-23.3"/>
</a>
</g>
</g>
<!-- Node10 -->
<g id="Node000010" class="node">
<title>Node10</title>
<g id="a_Node000010"><a xlink:title=" ">
<polygon fill="#e0e0e0" stroke="#999999" points="517.75,-74.5 452.25,-74.5 452.25,-55.25 517.75,-55.25 517.75,-74.5"/>
<text text-anchor="middle" x="485" y="-61" font-family="Helvetica,sans-Serif" font-size="10.00">string_view</text>
</a>
</g>
</g>
<!-- Node8&#45;&gt;Node10 -->
<g id="edge14_Node000008_Node000010" class="edge">
<title>Node8&#45;&gt;Node10</title>
<g id="a_edge14_Node000008_Node000010"><a xlink:title=" ">
<path fill="none" stroke="#63b8ff" d="M461.62,-110.33C465.33,-103.28 470.66,-93.15 475.29,-84.33"/>
<polygon fill="#63b8ff" stroke="#63b8ff" points="478.72,-86.34 480.28,-75.86 472.52,-83.08 478.72,-86.34"/>
</a>
</g>
</g>
<!-- Node11 -->
<g id="Node000011" class="node">
<title>Node11</title>
<g id="a_Node000011"><a xlink:title=" ">
<polygon fill="#e0e0e0" stroke="#999999" points="589.75,-74.5 536.25,-74.5 536.25,-55.25 589.75,-55.25 589.75,-74.5"/>
<text text-anchor="middle" x="563" y="-61" font-family="Helvetica,sans-Serif" font-size="10.00">iostream</text>
</a>
</g>
</g>
<!-- Node8&#45;&gt;Node11 -->
<g id="edge15_Node000008_Node000011" class="edge">
<title>Node8&#45;&gt;Node11</title>
<g id="a_edge15_Node000008_Node000011"><a xlink:title=" ">
<path fill="none" stroke="#63b8ff" d="M474.98,-110.09C491.5,-101.79 516.25,-89.36 535.29,-79.79"/>
<polygon fill="#63b8ff" stroke="#63b8ff" points="536.57,-82.57 543.93,-74.95 533.42,-76.31 536.57,-82.57"/>
</a>
</g>
</g>
<!-- Node8&#45;&gt;Node12 -->
<g id="edge17_Node000008_Node000012" class="edge">
<title>Node8&#45;&gt;Node12</title>
<g id="a_edge17_Node000008_Node000012"><a xlink:title=" ">
<path fill="none" stroke="#63b8ff" d="M440.04,-110.09C424.59,-101.87 401.54,-89.59 383.64,-80.06"/>
<polygon fill="#63b8ff" stroke="#63b8ff" points="385.52,-76.56 375.05,-74.95 382.23,-82.74 385.52,-76.56"/>
</a>
</g>
</g>
<!-- Node12&#45;&gt;Node3 -->
<g id="edge22_Node000012_Node000003" class="edge">
<title>Node12&#45;&gt;Node3</title>
<g id="a_edge22_Node000012_Node000003"><a xlink:title=" ">
<path fill="none" stroke="#63b8ff" d="M326.97,-54.84C297.73,-46.04 253.07,-32.61 220.66,-22.86"/>
<polygon fill="#63b8ff" stroke="#63b8ff" points="221.76,-19.23 211.17,-19.7 219.74,-25.94 221.76,-19.23"/>
</a>
</g>
</g>
<!-- Node12&#45;&gt;Node9 -->
<g id="edge18_Node000012_Node000009" class="edge">
<title>Node12&#45;&gt;Node9</title>
<g id="a_edge18_Node000012_Node000009"><a xlink:title=" ">
<path fill="none" stroke="#63b8ff" d="M391.1,-54.84C429.57,-44.65 491.53,-28.23 528.16,-18.53"/>
<polygon fill="#63b8ff" stroke="#63b8ff" points="528.89,-21.69 537.66,-15.75 527.09,-14.93 528.89,-21.69"/>
</a>
</g>
</g>
<!-- Node13 -->
<g id="Node000013" class="node">
<title>Node13</title>
<g id="a_Node000013"><a xlink:title=" ">
<polygon fill="#e0e0e0" stroke="#999999" points="381.12,-19.25 332.88,-19.25 332.88,0 381.12,0 381.12,-19.25"/>
<text text-anchor="middle" x="357" y="-5.75" font-family="Helvetica,sans-Serif" font-size="10.00">cassert</text>
</a>
</g>
</g>
<!-- Node12&#45;&gt;Node13 -->
<g id="edge19_Node000012_Node000013" class="edge">
<title>Node12&#45;&gt;Node13</title>
<g id="a_edge19_Node000012_Node000013"><a xlink:title=" ">
<path fill="none" stroke="#63b8ff" d="M357,-55.08C357,-48.42 357,-38.99 357,-30.53"/>
<polygon fill="#63b8ff" stroke="#63b8ff" points="360.5,-30.61 357,-20.61 353.5,-30.61 360.5,-30.61"/>
</a>
</g>
</g>
<!-- Node14 -->
<g id="Node000014" class="node">
<title>Node14</title>
<g id="a_Node000014"><a xlink:title=" ">
<polygon fill="#e0e0e0" stroke="#999999" points="460.88,-19.25 399.12,-19.25 399.12,0 460.88,0 460.88,-19.25"/>
<text text-anchor="middle" x="430" y="-5.75" font-family="Helvetica,sans-Serif" font-size="10.00">type_traits</text>
</a>
</g>
</g>
<!-- Node12&#45;&gt;Node14 -->
<g id="edge20_Node000012_Node000014" class="edge">
<title>Node12&#45;&gt;Node14</title>
<g id="a_edge20_Node000012_Node000014"><a xlink:title=" ">
<path fill="none" stroke="#63b8ff" d="M369.38,-54.84C380.25,-46.91 396.28,-35.22 409.13,-25.85"/>
<polygon fill="#63b8ff" stroke="#63b8ff" points="410.78,-28.25 416.8,-19.52 406.66,-22.59 410.78,-28.25"/>
</a>
</g>
</g>
<!-- Node15 -->
<g id="Node000015" class="node">
<title>Node15</title>
<g id="a_Node000015"><a xlink:title=" ">
<polygon fill="#e0e0e0" stroke="#999999" points="314.5,-19.25 271.5,-19.25 271.5,0 314.5,0 314.5,-19.25"/>
<text text-anchor="middle" x="293" y="-5.75" font-family="Helvetica,sans-Serif" font-size="10.00">cmath</text>
</a>
</g>
</g>
<!-- Node12&#45;&gt;Node15 -->
<g id="edge21_Node000012_Node000015" class="edge">
<title>Node12&#45;&gt;Node15</title>
<g id="a_edge21_Node000012_Node000015"><a xlink:title=" ">
<path fill="none" stroke="#63b8ff" d="M346.14,-54.84C336.8,-47.07 323.11,-35.67 311.96,-26.4"/>
<polygon fill="#63b8ff" stroke="#63b8ff" points="314.62,-23.23 304.7,-19.52 310.14,-28.61 314.62,-23.23"/>
</a>
</g>
</g>
</g>
</svg>

<g id="navigator" transform="translate(0 0)" fill="#404254">
  <rect fill="#f2f5e9" fill-opacity="0.5" stroke="#606060" stroke-width=".5" x="0" y="0" width="60" height="60"/>
  <use id="zoomplus" xlink:href="#zoomPlus" x="17" y="9" onmousedown="handleZoom(evt,'in')"/>
  <use id="zoomminus" xlink:href="#zoomMin" x="42" y="9" onmousedown="handleZoom(evt,'out')"/>
  <use id="reset" xlink:href="#resetDef" x="30" y="36" onmousedown="handleReset()"/>
   <use id="arrowup" xlink:href="#arrowUp" x="0" y="0" onmousedown="handlePan(0,-1)"/>
  <use id="arrowright" xlink:href="#arrowRight" x="0" y="0" onmousedown="handlePan(1,0)"/>
  <use id="arrowdown" xlink:href="#arrowDown" x="0" y="0" onmousedown="handlePan(0,1)"/>
  <use id="arrowleft" xlink:href="#arrowLeft" x="0" y="0" onmousedown="handlePan(-1,0)"/>
</g>
<svg viewBox="0 0 15 15" width="100%" height="30px" preserveAspectRatio="xMaxYMin meet">
 <g id="arrow_out" transform="scale(0.3 0.3)">
  <a xlink:href="lharmony___mode_8h__incl_org.svg" target="_base">
   <rect id="button" ry="5" rx="5" y="6" x="6" height="38" width="38"
        fill="#f2f5e9" fill-opacity="0.5" stroke="#606060" stroke-width="1.0"/>
   <path id="arrow"
     d="M 11.500037,31.436501 C 11.940474,20.09759 22.043105,11.32322 32.158766,21.979434 L 37.068811,17.246167 C 37.068811,17.246167 37.088388,32 37.088388,32 L 22.160133,31.978069 C 22.160133,31.978069 26.997745,27.140456 26.997745,27.140456 C 18.528582,18.264221 13.291696,25.230495 11.500037,31.436501 z"
     style="fill:#404040;"/>
  </a>
 </g>
</svg>

<style type='text/css'>
<![CDATA[
[data-mouse-over-selected='false'] { opacity: 0.7; }
[data-mouse-over-selected='true']  { opacity: 1.0; }
]]>
</style>
<script type="application/ecmascript"><![CDATA[
document.addEventListener('DOMContentLoaded', (event) => {
  highlightEdges();
  highlightAdjacentNodes();
});
]]></script>
</svg>
