<?xml version="1.0" encoding="UTF-8" standalone="no"?>
<!DOCTYPE svg PUBLIC "-//W3C//DTD SVG 1.1//EN"
 "http://www.w3.org/Graphics/SVG/1.1/DTD/svg11.dtd">
<!-- Generated by graphviz version 8.0.5 (20230430.1635)
 -->
<!-- Title: lharmony_WholeTone.h Pages: 1 -->
<svg width="560pt" height="304pt"
 viewBox="0.00 0.00 559.75 303.50" xmlns="http://www.w3.org/2000/svg" xmlns:xlink="http://www.w3.org/1999/xlink">
<g id="graph0" class="graph" transform="scale(1 1) rotate(0) translate(4 299.5)">
<title>lharmony_WholeTone.h</title>
<!-- Node1 -->
<g id="Node000001" class="node">
<title>Node1</title>
<g id="a_Node000001"><a xlink:title="This file defines the WholeTone scale class.">
<polygon fill="#999999" stroke="#666666" points="157,-295.5 39,-295.5 39,-276.25 157,-276.25 157,-295.5"/>
<text text-anchor="middle" x="98" y="-282" font-family="Helvetica,sans-Serif" font-size="10.00">lharmony_WholeTone.h</text>
</a>
</g>
</g>
<!-- Node2 -->
<g id="Node000002" class="node">
<title>Node2</title>
<g id="a_Node000002"><a xlink:title=" ">
<polygon fill="#e0e0e0" stroke="#999999" points="71.5,-185 28.5,-185 28.5,-165.75 71.5,-165.75 71.5,-185"/>
<text text-anchor="middle" x="50" y="-171.5" font-family="Helvetica,sans-Serif" font-size="10.00">vector</text>
</a>
</g>
</g>
<!-- Node1&#45;&gt;Node2 -->
<g id="edge1_Node000001_Node000002" class="edge">
<title>Node1&#45;&gt;Node2</title>
<g id="a_edge1_Node000001_Node000002"><a xlink:title=" ">
<path fill="none" stroke="#63b8ff" d="M90.95,-275.76C84.49,-267.04 75.04,-253.34 69,-240.25 62.39,-225.94 57.43,-208.76 54.24,-195.83"/>
<polygon fill="#63b8ff" stroke="#63b8ff" points="57.48,-195.3 51.81,-186.34 50.66,-196.88 57.48,-195.3"/>
</a>
</g>
</g>
<!-- Node3 -->
<g id="Node000003" class="node">
<title>Node3</title>
<g id="a_Node000003"><a xlink:title=" ">
<polygon fill="#e0e0e0" stroke="#999999" points="173.25,-19.25 32.75,-19.25 32.75,0 173.25,0 173.25,-19.25"/>
<text text-anchor="middle" x="103" y="-5.75" font-family="Helvetica,sans-Serif" font-size="10.00">lharmony/lharmony_Export.h</text>
</a>
</g>
</g>
<!-- Node1&#45;&gt;Node3 -->
<g id="edge2_Node000001_Node000003" class="edge">
<title>Node1&#45;&gt;Node3</title>
<g id="a_edge2_Node000001_Node000003"><a xlink:title=" ">
<path fill="none" stroke="#63b8ff" d="M80.48,-275.82C52.29,-259.86 0,-223.84 0,-176.38 0,-176.38 0,-176.38 0,-119.12 0,-75.53 44.27,-42.46 74.77,-24.86"/>
<polygon fill="#63b8ff" stroke="#63b8ff" points="76.05,-27.59 83.11,-19.69 72.66,-21.47 76.05,-27.59"/>
</a>
</g>
</g>
<!-- Node4 -->
<g id="Node000004" class="node">
<title>Node4</title>
<g id="a_Node000004"><a xlink:href="lharmony___scale_8h.html" target="_top" xlink:title="This file defines the Scale class.">
<polygon fill="white" stroke="#666666" points="214.38,-240.25 77.62,-240.25 77.62,-221 214.38,-221 214.38,-240.25"/>
<text text-anchor="middle" x="146" y="-226.75" font-family="Helvetica,sans-Serif" font-size="10.00">lharmony/lharmony_Scale.h</text>
</a>
</g>
</g>
<!-- Node1&#45;&gt;Node4 -->
<g id="edge3_Node000001_Node000004" class="edge">
<title>Node1&#45;&gt;Node4</title>
<g id="a_edge3_Node000001_Node000004"><a xlink:title=" ">
<path fill="none" stroke="#63b8ff" d="M105.93,-276.08C112.63,-268.65 122.42,-257.79 130.64,-248.66"/>
<polygon fill="#63b8ff" stroke="#63b8ff" points="132.81,-251.38 136.9,-241.61 127.61,-246.69 132.81,-251.38"/>
</a>
</g>
</g>
<!-- Node7 -->
<g id="Node000007" class="node">
<title>Node7</title>
<g id="a_Node000007"><a xlink:href="lharmony___pitch_class_8h.html" target="_top" xlink:title="This file defines the PitchClass class.">
<polygon fill="white" stroke="#666666" points="434,-129.75 274,-129.75 274,-110.5 434,-110.5 434,-129.75"/>
<text text-anchor="middle" x="354" y="-116.25" font-family="Helvetica,sans-Serif" font-size="10.00">lharmony/lharmony_PitchClass.h</text>
</a>
</g>
</g>
<!-- Node1&#45;&gt;Node7 -->
<g id="edge22_Node000001_Node000007" class="edge">
<title>Node1&#45;&gt;Node7</title>
<g id="a_edge22_Node000001_Node000007"><a xlink:title=" ">
<path fill="none" stroke="#63b8ff" d="M131.46,-275.78C157.28,-268.09 193.45,-255.85 223,-240.25 259.93,-220.75 268.28,-213.29 299,-185 314.74,-170.5 330.45,-151.72 341.02,-138.28"/>
<polygon fill="#63b8ff" stroke="#63b8ff" points="344.11,-141.01 347.46,-130.95 338.58,-136.73 344.11,-141.01"/>
</a>
</g>
</g>
<!-- Node4&#45;&gt;Node2 -->
<g id="edge4_Node000004_Node000002" class="edge">
<title>Node4&#45;&gt;Node2</title>
<g id="a_edge4_Node000004_Node000002"><a xlink:title=" ">
<path fill="none" stroke="#63b8ff" d="M129.71,-220.59C114.96,-212.41 92.96,-200.21 75.81,-190.69"/>
<polygon fill="#63b8ff" stroke="#63b8ff" points="77.81,-187.24 67.36,-185.45 74.41,-193.36 77.81,-187.24"/>
</a>
</g>
</g>
<!-- Node4&#45;&gt;Node3 -->
<g id="edge5_Node000004_Node000003" class="edge">
<title>Node4&#45;&gt;Node3</title>
<g id="a_edge5_Node000004_Node000003"><a xlink:title=" ">
<path fill="none" stroke="#63b8ff" d="M138.88,-220.66C132.47,-212.05 123.41,-198.42 119,-185 101.31,-131.23 100.89,-63.42 101.97,-30.45"/>
<polygon fill="#63b8ff" stroke="#63b8ff" points="105.51,-30.76 102.43,-20.62 98.51,-30.46 105.51,-30.76"/>
</a>
</g>
</g>
<!-- Node5 -->
<g id="Node000005" class="node">
<title>Node5</title>
<g id="a_Node000005"><a xlink:href="lharmony___pitch_8h.html" target="_top" xlink:title="This file defines the Pitch class.">
<polygon fill="white" stroke="#666666" points="262.25,-185 127.75,-185 127.75,-165.75 262.25,-165.75 262.25,-185"/>
<text text-anchor="middle" x="195" y="-171.5" font-family="Helvetica,sans-Serif" font-size="10.00">lharmony/lharmony_Pitch.h</text>
</a>
</g>
</g>
<!-- Node4&#45;&gt;Node5 -->
<g id="edge6_Node000004_Node000005" class="edge">
<title>Node4&#45;&gt;Node5</title>
<g id="a_edge6_Node000004_Node000005"><a xlink:title=" ">
<path fill="none" stroke="#63b8ff" d="M154.09,-220.83C160.93,-213.4 170.93,-202.54 179.32,-193.41"/>
<polygon fill="#63b8ff" stroke="#63b8ff" points="181.54,-196.09 185.73,-186.36 176.39,-191.35 181.54,-196.09"/>
</a>
</g>
</g>
<!-- Node4&#45;&gt;Node7 -->
<g id="edge21_Node000004_Node000007" class="edge">
<title>Node4&#45;&gt;Node7</title>
<g id="a_edge21_Node000004_Node000007"><a xlink:title=" ">
<path fill="none" stroke="#63b8ff" d="M180.39,-220.52C206.21,-212.94 241.97,-200.84 271,-185 295.51,-171.63 320.48,-151.31 336.54,-137.2"/>
<polygon fill="#63b8ff" stroke="#63b8ff" points="338.38,-140.36 343.49,-131.08 333.7,-135.15 338.38,-140.36"/>
</a>
</g>
</g>
<!-- Node5&#45;&gt;Node3 -->
<g id="edge8_Node000005_Node000003" class="edge">
<title>Node5&#45;&gt;Node3</title>
<g id="a_edge8_Node000005_Node000003"><a xlink:title=" ">
<path fill="none" stroke="#63b8ff" d="M190.05,-165.57C175.58,-139.8 133.07,-64.15 113.32,-28.99"/>
<polygon fill="#63b8ff" stroke="#63b8ff" points="115.92,-27.48 107.97,-20.47 109.82,-30.91 115.92,-27.48"/>
</a>
</g>
</g>
<!-- Node6 -->
<g id="Node000006" class="node">
<title>Node6</title>
<g id="a_Node000006"><a xlink:title=" ">
<polygon fill="#e0e0e0" stroke="#999999" points="255.62,-129.75 204.38,-129.75 204.38,-110.5 255.62,-110.5 255.62,-129.75"/>
<text text-anchor="middle" x="230" y="-116.25" font-family="Helvetica,sans-Serif" font-size="10.00">ostream</text>
</a>
</g>
</g>
<!-- Node5&#45;&gt;Node6 -->
<g id="edge7_Node000005_Node000006" class="edge">
<title>Node5&#45;&gt;Node6</title>
<g id="a_edge7_Node000005_Node000006"><a xlink:title=" ">
<path fill="none" stroke="#63b8ff" d="M200.78,-165.58C205.46,-158.46 212.22,-148.18 218.06,-139.3"/>
<polygon fill="#63b8ff" stroke="#63b8ff" points="221.53,-141.39 224.09,-131.11 215.68,-137.54 221.53,-141.39"/>
</a>
</g>
</g>
<!-- Node5&#45;&gt;Node7 -->
<g id="edge9_Node000005_Node000007" class="edge">
<title>Node5&#45;&gt;Node7</title>
<g id="a_edge9_Node000005_Node000007"><a xlink:title=" ">
<path fill="none" stroke="#63b8ff" d="M221.97,-165.34C248.01,-156.62 287.66,-143.34 316.72,-133.61"/>
<polygon fill="#63b8ff" stroke="#63b8ff" points="317.52,-136.7 325.9,-130.2 315.3,-130.06 317.52,-136.7"/>
</a>
</g>
</g>
<!-- Node11 -->
<g id="Node000011" class="node">
<title>Node11</title>
<g id="a_Node000011"><a xlink:href="lharmony___pitch_utils_8h.html" target="_top" xlink:title="This file contains miscellaneous pitch utilities.">
<polygon fill="white" stroke="#666666" points="358.38,-74.5 203.62,-74.5 203.62,-55.25 358.38,-55.25 358.38,-74.5"/>
<text text-anchor="middle" x="281" y="-61" font-family="Helvetica,sans-Serif" font-size="10.00">lharmony/lharmony_PitchUtils.h</text>
</a>
</g>
</g>
<!-- Node5&#45;&gt;Node11 -->
<g id="edge20_Node000005_Node000011" class="edge">
<title>Node5&#45;&gt;Node11</title>
<g id="a_edge20_Node000005_Node000011"><a xlink:title=" ">
<path fill="none" stroke="#63b8ff" d="M192.26,-165.34C188.84,-152.21 184.63,-127.56 195,-110.5 203.96,-95.76 219.54,-85.67 235,-78.87"/>
<polygon fill="#63b8ff" stroke="#63b8ff" points="236.07,-81.81 244.07,-74.86 233.48,-75.3 236.07,-81.81"/>
</a>
</g>
</g>
<!-- Node7&#45;&gt;Node3 -->
<g id="edge13_Node000007_Node000003" class="edge">
<title>Node7&#45;&gt;Node3</title>
<g id="a_edge13_Node000007_Node000003"><a xlink:title=" ">
<path fill="none" stroke="#63b8ff" d="M305.91,-110.01C273.57,-102.84 230.53,-91.24 195,-74.5 167.59,-61.59 139.46,-40.73 121.64,-26.38"/>
<polygon fill="#63b8ff" stroke="#63b8ff" points="124.27,-23.19 114.32,-19.55 119.83,-28.6 124.27,-23.19"/>
</a>
</g>
</g>
<!-- Node8 -->
<g id="Node000008" class="node">
<title>Node8</title>
<g id="a_Node000008"><a xlink:title=" ">
<polygon fill="#e0e0e0" stroke="#999999" points="436.88,-19.25 399.12,-19.25 399.12,0 436.88,0 436.88,-19.25"/>
<text text-anchor="middle" x="418" y="-5.75" font-family="Helvetica,sans-Serif" font-size="10.00">array</text>
</a>
</g>
</g>
<!-- Node7&#45;&gt;Node8 -->
<g id="edge10_Node000007_Node000008" class="edge">
<title>Node7&#45;&gt;Node8</title>
<g id="a_edge10_Node000007_Node000008"><a xlink:title=" ">
<path fill="none" stroke="#63b8ff" d="M359.24,-110.25C369.69,-92.52 393.33,-52.44 407.23,-28.88"/>
<polygon fill="#63b8ff" stroke="#63b8ff" points="410.62,-31.02 412.69,-20.63 404.59,-27.46 410.62,-31.02"/>
</a>
</g>
</g>
<!-- Node9 -->
<g id="Node000009" class="node">
<title>Node9</title>
<g id="a_Node000009"><a xlink:title=" ">
<polygon fill="#e0e0e0" stroke="#999999" points="479.75,-74.5 414.25,-74.5 414.25,-55.25 479.75,-55.25 479.75,-74.5"/>
<text text-anchor="middle" x="447" y="-61" font-family="Helvetica,sans-Serif" font-size="10.00">string_view</text>
</a>
</g>
</g>
<!-- Node7&#45;&gt;Node9 -->
<g id="edge11_Node000007_Node000009" class="edge">
<title>Node7&#45;&gt;Node9</title>
<g id="a_edge11_Node000007_Node000009"><a xlink:title=" ">
<path fill="none" stroke="#63b8ff" d="M369.78,-110.09C384.07,-101.91 405.38,-89.71 421.99,-80.19"/>
<polygon fill="#63b8ff" stroke="#63b8ff" points="423.21,-82.96 430.15,-74.95 419.73,-76.88 423.21,-82.96"/>
</a>
</g>
</g>
<!-- Node10 -->
<g id="Node000010" class="node">
<title>Node10</title>
<g id="a_Node000010"><a xlink:title=" ">
<polygon fill="#e0e0e0" stroke="#999999" points="551.75,-74.5 498.25,-74.5 498.25,-55.25 551.75,-55.25 551.75,-74.5"/>
<text text-anchor="middle" x="525" y="-61" font-family="Helvetica,sans-Serif" font-size="10.00">iostream</text>
</a>
</g>
</g>
<!-- Node7&#45;&gt;Node10 -->
<g id="edge12_Node000007_Node000010" class="edge">
<title>Node7&#45;&gt;Node10</title>
<g id="a_edge12_Node000007_Node000010"><a xlink:title=" ">
<path fill="none" stroke="#63b8ff" d="M383.01,-110.09C411.86,-101.11 456.24,-87.29 487.7,-77.49"/>
<polygon fill="#63b8ff" stroke="#63b8ff" points="488.32,-80.65 496.83,-74.34 486.24,-73.97 488.32,-80.65"/>
</a>
</g>
</g>
<!-- Node7&#45;&gt;Node11 -->
<g id="edge14_Node000007_Node000011" class="edge">
<title>Node7&#45;&gt;Node11</title>
<g id="a_edge14_Node000007_Node000011"><a xlink:title=" ">
<path fill="none" stroke="#63b8ff" d="M341.62,-110.09C330.75,-102.16 314.72,-90.47 301.87,-81.1"/>
<polygon fill="#63b8ff" stroke="#63b8ff" points="304.34,-77.84 294.2,-74.77 300.22,-83.5 304.34,-77.84"/>
</a>
</g>
</g>
<!-- Node11&#45;&gt;Node3 -->
<g id="edge19_Node000011_Node000003" class="edge">
<title>Node11&#45;&gt;Node3</title>
<g id="a_edge19_Node000011_Node000003"><a xlink:title=" ">
<path fill="none" stroke="#63b8ff" d="M250.8,-54.84C221.27,-46.01 176.09,-32.49 143.46,-22.73"/>
<polygon fill="#63b8ff" stroke="#63b8ff" points="144.93,-19.22 134.34,-19.7 142.92,-25.92 144.93,-19.22"/>
</a>
</g>
</g>
<!-- Node11&#45;&gt;Node8 -->
<g id="edge15_Node000011_Node000008" class="edge">
<title>Node11&#45;&gt;Node8</title>
<g id="a_edge15_Node000011_Node000008"><a xlink:title=" ">
<path fill="none" stroke="#63b8ff" d="M304.24,-54.84C327.49,-45.81 363.32,-31.88 388.54,-22.07"/>
<polygon fill="#63b8ff" stroke="#63b8ff" points="389.59,-25.04 397.64,-18.15 387.05,-18.51 389.59,-25.04"/>
</a>
</g>
</g>
<!-- Node12 -->
<g id="Node000012" class="node">
<title>Node12</title>
<g id="a_Node000012"><a xlink:title=" ">
<polygon fill="#e0e0e0" stroke="#999999" points="301.12,-19.25 252.88,-19.25 252.88,0 301.12,0 301.12,-19.25"/>
<text text-anchor="middle" x="277" y="-5.75" font-family="Helvetica,sans-Serif" font-size="10.00">cassert</text>
</a>
</g>
</g>
<!-- Node11&#45;&gt;Node12 -->
<g id="edge16_Node000011_Node000012" class="edge">
<title>Node11&#45;&gt;Node12</title>
<g id="a_edge16_Node000011_Node000012"><a xlink:title=" ">
<path fill="none" stroke="#63b8ff" d="M280.34,-55.08C279.84,-48.42 279.13,-38.99 278.5,-30.53"/>
<polygon fill="#63b8ff" stroke="#63b8ff" points="281.91,-30.32 277.67,-20.61 274.93,-30.84 281.91,-30.32"/>
</a>
</g>
</g>
<!-- Node13 -->
<g id="Node000013" class="node">
<title>Node13</title>
<g id="a_Node000013"><a xlink:title=" ">
<polygon fill="#e0e0e0" stroke="#999999" points="380.88,-19.25 319.12,-19.25 319.12,0 380.88,0 380.88,-19.25"/>
<text text-anchor="middle" x="350" y="-5.75" font-family="Helvetica,sans-Serif" font-size="10.00">type_traits</text>
</a>
</g>
</g>
<!-- Node11&#45;&gt;Node13 -->
<g id="edge17_Node000011_Node000013" class="edge">
<title>Node11&#45;&gt;Node13</title>
<g id="a_edge17_Node000011_Node000013"><a xlink:title=" ">
<path fill="none" stroke="#63b8ff" d="M292.7,-54.84C302.88,-46.99 317.83,-35.45 329.92,-26.12"/>
<polygon fill="#63b8ff" stroke="#63b8ff" points="331.69,-28.41 337.47,-19.52 327.41,-22.86 331.69,-28.41"/>
</a>
</g>
</g>
<!-- Node14 -->
<g id="Node000014" class="node">
<title>Node14</title>
<g id="a_Node000014"><a xlink:title=" ">
<polygon fill="#e0e0e0" stroke="#999999" points="234.5,-19.25 191.5,-19.25 191.5,0 234.5,0 234.5,-19.25"/>
<text text-anchor="middle" x="213" y="-5.75" font-family="Helvetica,sans-Serif" font-size="10.00">cmath</text>
</a>
</g>
</g>
<!-- Node11&#45;&gt;Node14 -->
<g id="edge18_Node000011_Node000014" class="edge">
<title>Node11&#45;&gt;Node14</title>
<g id="a_edge18_Node000011_Node000014"><a xlink:title=" ">
<path fill="none" stroke="#63b8ff" d="M269.46,-54.84C259.44,-46.99 244.7,-35.45 232.79,-26.12"/>
<polygon fill="#63b8ff" stroke="#63b8ff" points="235.4,-22.93 225.36,-19.52 231.08,-28.45 235.4,-22.93"/>
</a>
</g>
</g>
</g>
</svg>
