<?xml version="1.0" encoding="UTF-8" standalone="no"?>
<!DOCTYPE svg PUBLIC "-//W3C//DTD SVG 1.1//EN"
 "http://www.w3.org/Graphics/SVG/1.1/DTD/svg11.dtd">
<!-- Generated by graphviz version 2.43.0 (0)
 -->
<!-- Title: lharmony_PitchClass.h Pages: 1 -->
<!--zoomable 308 -->
<svg id="main" version="1.1" xmlns="http://www.w3.org/2000/svg" xmlns:xlink="http://www.w3.org/1999/xlink" xml:space="preserve" onload="init(evt)">
<style type="text/css"><![CDATA[
.edge:hover path { stroke: red; }
.edge:hover polygon { stroke: red; fill: red; }
]]></style>
<script type="text/javascript"><![CDATA[
var edges = document.getElementsByTagName('g');
if (edges && edges.length) {
  for (var i=0;i<edges.length;i++) {
    if (edges[i].id.substr(0,4)=='edge') {
      edges[i].setAttribute('class','edge');
    }
  }
}
]]></script>
        <defs>
                <circle id="rim" cx="0" cy="0" r="7"/>
                <circle id="rim2" cx="0" cy="0" r="3.5"/>
                <g id="zoomPlus">
                        <use xlink:href="#rim" fill="#404040">
                                <set attributeName="fill" to="#808080" begin="zoomplus.mouseover" end="zoomplus.mouseout"/>
                        </use>
                        <path d="M-4,0h8M0,-4v8" fill="none" stroke="white" stroke-width="1.5" pointer-events="none"/>
                </g>
                <g id="zoomMin">
                        <use xlink:href="#rim" fill="#404040">
                                <set attributeName="fill" to="#808080" begin="zoomminus.mouseover" end="zoomminus.mouseout"/>
                        </use>
                        <path d="M-4,0h8" fill="none" stroke="white" stroke-width="1.5" pointer-events="none"/>
                </g>
                <g id="dirArrow">
                        <path fill="none" stroke="white" stroke-width="1.5" d="M0,-3.0v7 M-2.5,-0.5L0,-3.0L2.5,-0.5"/>
                </g>
               <g id="resetDef">
                       <use xlink:href="#rim2" fill="#404040">
                               <set attributeName="fill" to="#808080" begin="reset.mouseover" end="reset.mouseout"/>
                       </use>
               </g>
        </defs>

<script type="text/javascript">
var viewWidth = 1214;
var viewHeight = 308;
var sectionId = 'dynsection-1';
</script>
<script xlink:href="svgpan.js"/>
<svg id="graph" class="graph">
<g id="viewport">
<title>lharmony_PitchClass.h</title>
<polygon fill="white" stroke="transparent" points="-4,4 -4,-304 1209.64,-304 1209.64,4 -4,4"/>
<!-- Node1 -->
<g id="node1" class="node">
<title>Node1</title>
<g id="a_node1"><a xlink:title="This file defines the PitchClass class.">
<polygon fill="#bfbfbf" stroke="black" points="320,-280.5 320,-299.5 448,-299.5 448,-280.5 320,-280.5"/>
<text text-anchor="middle" x="384" y="-287.5" font-family="Helvetica,sans-Serif" font-size="10.00">lharmony_PitchClass.h</text>
</a>
</g>
</g>
<!-- Node2 -->
<g id="node2" class="node">
<title>Node2</title>
<g id="a_node2"><a xlink:href="lharmony_8h_source.html" target="_top" xlink:title=" ">
<polygon fill="white" stroke="black" points="494.5,-0.5 494.5,-19.5 565.5,-19.5 565.5,-0.5 494.5,-0.5"/>
<text text-anchor="middle" x="530" y="-7.5" font-family="Helvetica,sans-Serif" font-size="10.00">lharmony.h</text>
</a>
</g>
</g>
<!-- Node1&#45;&gt;Node2 -->
<g id="edge1" class="edge">
<title>Node1&#45;&gt;Node2</title>
<path fill="none" stroke="midnightblue" d="M309.53,-282.89C197.86,-271.64 0,-242.72 0,-179 0,-179 0,-179 0,-121 0,-19.74 375.57,-11.01 494.4,-10.79"/>
<polygon fill="midnightblue" stroke="midnightblue" points="309.43,-286.39 319.73,-283.89 310.12,-279.43 309.43,-286.39"/>
</g>
<!-- Node3 -->
<g id="node3" class="node">
<title>Node3</title>
<g id="a_node3"><a xlink:href="lharmony__Chromatic_8h.html" target="_top" xlink:title="This file defines the Chromatic scale class.">
<polygon fill="white" stroke="black" points="28,-112.5 28,-131.5 156,-131.5 156,-112.5 28,-112.5"/>
<text text-anchor="middle" x="92" y="-119.5" font-family="Helvetica,sans-Serif" font-size="10.00">lharmony_Chromatic.h</text>
</a>
</g>
</g>
<!-- Node1&#45;&gt;Node3 -->
<g id="edge2" class="edge">
<title>Node1&#45;&gt;Node3</title>
<path fill="none" stroke="midnightblue" d="M359.84,-275.27C301.59,-242.15 154.72,-158.66 107.14,-131.61"/>
<polygon fill="midnightblue" stroke="midnightblue" points="358.29,-278.41 368.71,-280.31 361.75,-272.32 358.29,-278.41"/>
</g>
<!-- Node4 -->
<g id="node4" class="node">
<title>Node4</title>
<g id="a_node4"><a xlink:href="lharmony__KeySignature_8h.html" target="_top" xlink:title="This file defines the KeySignature scale class.">
<polygon fill="white" stroke="black" points="174,-112.5 174,-131.5 316,-131.5 316,-112.5 174,-112.5"/>
<text text-anchor="middle" x="245" y="-119.5" font-family="Helvetica,sans-Serif" font-size="10.00">lharmony_KeySignature.h</text>
</a>
</g>
</g>
<!-- Node1&#45;&gt;Node4 -->
<g id="edge4" class="edge">
<title>Node1&#45;&gt;Node4</title>
<path fill="none" stroke="midnightblue" d="M363.36,-273.9C352.8,-265.66 340.08,-254.94 330,-244 294.87,-205.85 262.26,-152.57 250.06,-131.79"/>
<polygon fill="midnightblue" stroke="midnightblue" points="361.54,-276.91 371.62,-280.18 365.78,-271.34 361.54,-276.91"/>
</g>
<!-- Node6 -->
<g id="node6" class="node">
<title>Node6</title>
<g id="a_node6"><a xlink:href="lharmony__Mode_8h.html" target="_top" xlink:title="This file defines the Mode scale class.">
<polygon fill="white" stroke="black" points="322,-56.5 322,-75.5 426,-75.5 426,-56.5 322,-56.5"/>
<text text-anchor="middle" x="374" y="-63.5" font-family="Helvetica,sans-Serif" font-size="10.00">lharmony_Mode.h</text>
</a>
</g>
</g>
<!-- Node1&#45;&gt;Node6 -->
<g id="edge10" class="edge">
<title>Node1&#45;&gt;Node6</title>
<path fill="none" stroke="midnightblue" d="M379.03,-270.76C373.83,-250.67 366.02,-217.31 363,-188 358.66,-145.82 367.92,-95.28 372.09,-75.52"/>
<polygon fill="midnightblue" stroke="midnightblue" points="375.65,-271.68 381.6,-280.45 382.42,-269.88 375.65,-271.68"/>
</g>
<!-- Node7 -->
<g id="node7" class="node">
<title>Node7</title>
<g id="a_node7"><a xlink:href="lharmony__Octatonic_8h.html" target="_top" xlink:title="This file defines the Octatonic scale class.">
<polygon fill="white" stroke="black" points="448,-112.5 448,-131.5 572,-131.5 572,-112.5 448,-112.5"/>
<text text-anchor="middle" x="510" y="-119.5" font-family="Helvetica,sans-Serif" font-size="10.00">lharmony_Octatonic.h</text>
</a>
</g>
</g>
<!-- Node1&#45;&gt;Node7 -->
<g id="edge11" class="edge">
<title>Node1&#45;&gt;Node7</title>
<path fill="none" stroke="midnightblue" d="M403.31,-273.99C425.63,-255.75 462.22,-223.06 485,-188 496.99,-169.55 504.57,-144.48 507.95,-131.53"/>
<polygon fill="midnightblue" stroke="midnightblue" points="400.85,-271.47 395.24,-280.45 405.23,-276.93 400.85,-271.47"/>
</g>
<!-- Node8 -->
<g id="node8" class="node">
<title>Node8</title>
<g id="a_node8"><a xlink:href="lharmony__Pitch_8h.html" target="_top" xlink:title="This file defines the Pitch class.">
<polygon fill="white" stroke="black" points="802.5,-224.5 802.5,-243.5 903.5,-243.5 903.5,-224.5 802.5,-224.5"/>
<text text-anchor="middle" x="853" y="-231.5" font-family="Helvetica,sans-Serif" font-size="10.00">lharmony_Pitch.h</text>
</a>
</g>
</g>
<!-- Node1&#45;&gt;Node8 -->
<g id="edge13" class="edge">
<title>Node1&#45;&gt;Node8</title>
<path fill="none" stroke="midnightblue" d="M458.17,-280.46C554.35,-269.39 719.57,-250.36 802.46,-240.82"/>
<polygon fill="midnightblue" stroke="midnightblue" points="457.76,-276.98 448.23,-281.6 458.56,-283.94 457.76,-276.98"/>
</g>
<!-- Node15 -->
<g id="node15" class="node">
<title>Node15</title>
<g id="a_node15"><a xlink:href="lharmony__Scale_8h.html" target="_top" xlink:title="This file defines the Scale class.">
<polygon fill="white" stroke="black" points="372,-168.5 372,-187.5 476,-187.5 476,-168.5 372,-168.5"/>
<text text-anchor="middle" x="424" y="-175.5" font-family="Helvetica,sans-Serif" font-size="10.00">lharmony_Scale.h</text>
</a>
</g>
</g>
<!-- Node1&#45;&gt;Node15 -->
<g id="edge36" class="edge">
<title>Node1&#45;&gt;Node15</title>
<path fill="none" stroke="midnightblue" d="M390.66,-270.67C399.41,-246.62 414.4,-205.39 420.88,-187.59"/>
<polygon fill="midnightblue" stroke="midnightblue" points="387.27,-269.77 387.14,-280.37 393.85,-272.17 387.27,-269.77"/>
</g>
<!-- Node16 -->
<g id="node16" class="node">
<title>Node16</title>
<g id="a_node16"><a xlink:href="lharmony__WholeTone_8h.html" target="_top" xlink:title="This file defines the WholeTone scale class.">
<polygon fill="white" stroke="black" points="590.5,-112.5 590.5,-131.5 721.5,-131.5 721.5,-112.5 590.5,-112.5"/>
<text text-anchor="middle" x="656" y="-119.5" font-family="Helvetica,sans-Serif" font-size="10.00">lharmony_WholeTone.h</text>
</a>
</g>
</g>
<!-- Node1&#45;&gt;Node16 -->
<g id="edge37" class="edge">
<title>Node1&#45;&gt;Node16</title>
<path fill="none" stroke="midnightblue" d="M407.63,-275.41C422.92,-266.56 443.21,-254.72 461,-244 529.6,-202.68 610.69,-151.65 642.36,-131.63"/>
<polygon fill="midnightblue" stroke="midnightblue" points="405.74,-272.46 398.83,-280.49 409.24,-278.52 405.74,-272.46"/>
</g>
<!-- Node3&#45;&gt;Node2 -->
<g id="edge3" class="edge">
<title>Node3&#45;&gt;Node2</title>
<path fill="none" stroke="midnightblue" d="M85.93,-102.27C82.53,-87.82 80.91,-68.28 92,-56 118.79,-26.31 394.42,-15.09 494.19,-11.98"/>
<polygon fill="midnightblue" stroke="midnightblue" points="82.62,-103.45 88.7,-112.13 89.36,-101.55 82.62,-103.45"/>
</g>
<!-- Node4&#45;&gt;Node2 -->
<g id="edge5" class="edge">
<title>Node4&#45;&gt;Node2</title>
<path fill="none" stroke="midnightblue" d="M168.52,-110.48C122.59,-101.06 77.57,-84.25 103,-56 129.03,-27.09 396.53,-15.41 494.39,-12.08"/>
<polygon fill="midnightblue" stroke="midnightblue" points="168.14,-113.97 178.62,-112.43 169.47,-107.1 168.14,-113.97"/>
</g>
<!-- Node5 -->
<g id="node5" class="node">
<title>Node5</title>
<g id="a_node5"><a xlink:href="lharmony__KeySignatureConstants_8h.html" target="_top" xlink:title="This file contains some useful predefined key signatures.">
<polygon fill="white" stroke="black" points="112.5,-56.5 112.5,-75.5 303.5,-75.5 303.5,-56.5 112.5,-56.5"/>
<text text-anchor="middle" x="208" y="-63.5" font-family="Helvetica,sans-Serif" font-size="10.00">lharmony_KeySignatureConstants.h</text>
</a>
</g>
</g>
<!-- Node4&#45;&gt;Node5 -->
<g id="edge6" class="edge">
<title>Node4&#45;&gt;Node5</title>
<path fill="none" stroke="midnightblue" d="M233.05,-103.57C226.69,-94.27 219.13,-83.25 214,-75.75"/>
<polygon fill="midnightblue" stroke="midnightblue" points="230.35,-105.81 238.89,-112.08 236.13,-101.86 230.35,-105.81"/>
</g>
<!-- Node4&#45;&gt;Node6 -->
<g id="edge8" class="edge">
<title>Node4&#45;&gt;Node6</title>
<path fill="none" stroke="midnightblue" d="M274.85,-108.5C299.04,-98.38 332.46,-84.39 353.66,-75.52"/>
<polygon fill="midnightblue" stroke="midnightblue" points="273.31,-105.35 265.44,-112.44 276.02,-111.81 273.31,-105.35"/>
</g>
<!-- Node5&#45;&gt;Node2 -->
<g id="edge7" class="edge">
<title>Node5&#45;&gt;Node2</title>
<path fill="none" stroke="midnightblue" d="M268.96,-54.78C335.47,-43.62 439.73,-26.14 494.17,-17.01"/>
<polygon fill="midnightblue" stroke="midnightblue" points="268.31,-51.34 259.02,-56.44 269.46,-58.24 268.31,-51.34"/>
</g>
<!-- Node6&#45;&gt;Node2 -->
<g id="edge9" class="edge">
<title>Node6&#45;&gt;Node2</title>
<path fill="none" stroke="midnightblue" d="M408.17,-53.17C437.54,-43 479.2,-28.59 505.4,-19.52"/>
<polygon fill="midnightblue" stroke="midnightblue" points="407.02,-49.86 398.72,-56.44 409.31,-56.48 407.02,-49.86"/>
</g>
<!-- Node7&#45;&gt;Node2 -->
<g id="edge12" class="edge">
<title>Node7&#45;&gt;Node2</title>
<path fill="none" stroke="midnightblue" d="M510.7,-101.98C511.44,-88.94 512.95,-71.3 516,-56 518.56,-43.16 523.39,-28.79 526.65,-19.82"/>
<polygon fill="midnightblue" stroke="midnightblue" points="507.2,-101.93 510.23,-112.08 514.2,-102.26 507.2,-101.93"/>
</g>
<!-- Node8&#45;&gt;Node2 -->
<g id="edge14" class="edge">
<title>Node8&#45;&gt;Node2</title>
<path fill="none" stroke="midnightblue" d="M913.6,-232.74C994.81,-231.03 1132.72,-222.9 1167,-188 1208.34,-145.91 1221.25,-99.13 1181,-56 1138.82,-10.81 695.4,-9.97 565.54,-10.7"/>
<polygon fill="midnightblue" stroke="midnightblue" points="913.44,-229.24 903.5,-232.93 913.57,-236.24 913.44,-229.24"/>
</g>
<!-- Node9 -->
<g id="node9" class="node">
<title>Node9</title>
<g id="a_node9"><a xlink:href="lharmony__Chord_8h.html" target="_top" xlink:title="This file defines the Chord class.">
<polygon fill="white" stroke="black" points="708,-168.5 708,-187.5 814,-187.5 814,-168.5 708,-168.5"/>
<text text-anchor="middle" x="761" y="-175.5" font-family="Helvetica,sans-Serif" font-size="10.00">lharmony_Chord.h</text>
</a>
</g>
</g>
<!-- Node8&#45;&gt;Node9 -->
<g id="edge15" class="edge">
<title>Node8&#45;&gt;Node9</title>
<path fill="none" stroke="midnightblue" d="M829.45,-219.18C812.52,-209.24 790.22,-196.15 775.74,-187.65"/>
<polygon fill="midnightblue" stroke="midnightblue" points="827.82,-222.28 838.22,-224.32 831.37,-216.24 827.82,-222.28"/>
</g>
<!-- Node10 -->
<g id="node10" class="node">
<title>Node10</title>
<g id="a_node10"><a xlink:href="lharmony__Interval_8h.html" target="_top" xlink:title="This file defines the Interval class.">
<polygon fill="white" stroke="black" points="795.5,-112.5 795.5,-131.5 910.5,-131.5 910.5,-112.5 795.5,-112.5"/>
<text text-anchor="middle" x="853" y="-119.5" font-family="Helvetica,sans-Serif" font-size="10.00">lharmony_Interval.h</text>
</a>
</g>
</g>
<!-- Node8&#45;&gt;Node10 -->
<g id="edge17" class="edge">
<title>Node8&#45;&gt;Node10</title>
<path fill="none" stroke="midnightblue" d="M853,-214.35C853,-190.25 853,-149.31 853,-131.59"/>
<polygon fill="midnightblue" stroke="midnightblue" points="849.5,-214.37 853,-224.37 856.5,-214.37 849.5,-214.37"/>
</g>
<!-- Node13 -->
<g id="node13" class="node">
<title>Node13</title>
<g id="a_node13"><a xlink:href="lharmony__OvertoneSeries_8h.html" target="_top" xlink:title="This file defines the OvertoneSeries class.">
<polygon fill="white" stroke="black" points="1001,-56.5 1001,-75.5 1153,-75.5 1153,-56.5 1001,-56.5"/>
<text text-anchor="middle" x="1077" y="-63.5" font-family="Helvetica,sans-Serif" font-size="10.00">lharmony_OvertoneSeries.h</text>
</a>
</g>
</g>
<!-- Node8&#45;&gt;Node13 -->
<g id="edge27" class="edge">
<title>Node8&#45;&gt;Node13</title>
<path fill="none" stroke="midnightblue" d="M872.94,-218.23C918.53,-184.44 1029.26,-102.38 1065.39,-75.61"/>
<polygon fill="midnightblue" stroke="midnightblue" points="870.68,-215.54 864.73,-224.31 874.85,-221.17 870.68,-215.54"/>
</g>
<!-- Node14 -->
<g id="node14" class="node">
<title>Node14</title>
<g id="a_node14"><a xlink:href="lharmony__MicrotonalInterval_8h.html" target="_top" xlink:title="This file defines the MicrotonalInterval class.">
<polygon fill="white" stroke="black" points="991.5,-168.5 991.5,-187.5 1158.5,-187.5 1158.5,-168.5 991.5,-168.5"/>
<text text-anchor="middle" x="1075" y="-175.5" font-family="Helvetica,sans-Serif" font-size="10.00">lharmony_MicrotonalInterval.h</text>
</a>
</g>
</g>
<!-- Node8&#45;&gt;Node14 -->
<g id="edge25" class="edge">
<title>Node8&#45;&gt;Node14</title>
<path fill="none" stroke="midnightblue" d="M898.12,-222.02C940.06,-211.82 1001.65,-196.84 1039.99,-187.52"/>
<polygon fill="midnightblue" stroke="midnightblue" points="897.07,-218.68 888.18,-224.44 898.72,-225.48 897.07,-218.68"/>
</g>
<!-- Node8&#45;&gt;Node15 -->
<g id="edge28" class="edge">
<title>Node8&#45;&gt;Node15</title>
<path fill="none" stroke="midnightblue" d="M792.13,-225.34C707.53,-214.69 555.85,-195.6 476.17,-185.57"/>
<polygon fill="midnightblue" stroke="midnightblue" points="791.74,-228.82 802.1,-226.59 792.62,-221.87 791.74,-228.82"/>
</g>
<!-- Node9&#45;&gt;Node2 -->
<g id="edge16" class="edge">
<title>Node9&#45;&gt;Node2</title>
<path fill="none" stroke="midnightblue" d="M756.77,-158.38C752.46,-143.68 744.34,-123.74 730,-112 679.3,-70.47 642.92,-110.19 587,-76 563.18,-61.44 543.88,-33.72 535.11,-19.66"/>
<polygon fill="midnightblue" stroke="midnightblue" points="753.46,-159.58 759.35,-168.38 760.24,-157.83 753.46,-159.58"/>
</g>
<!-- Node10&#45;&gt;Node2 -->
<g id="edge18" class="edge">
<title>Node10&#45;&gt;Node2</title>
<path fill="none" stroke="midnightblue" d="M837.3,-105.08C821.47,-90.01 795.64,-67.97 769,-56 701.22,-25.54 613.67,-15.69 565.57,-12.51"/>
<polygon fill="midnightblue" stroke="midnightblue" points="835.01,-107.74 844.61,-112.23 839.91,-102.74 835.01,-107.74"/>
</g>
<!-- Node11 -->
<g id="node11" class="node">
<title>Node11</title>
<g id="a_node11"><a xlink:href="lharmony__CompoundInterval_8h.html" target="_top" xlink:title="This file defines the CompoundInterval class.">
<polygon fill="white" stroke="black" points="815.5,-56.5 815.5,-75.5 982.5,-75.5 982.5,-56.5 815.5,-56.5"/>
<text text-anchor="middle" x="899" y="-63.5" font-family="Helvetica,sans-Serif" font-size="10.00">lharmony_CompoundInterval.h</text>
</a>
</g>
</g>
<!-- Node10&#45;&gt;Node11 -->
<g id="edge19" class="edge">
<title>Node10&#45;&gt;Node11</title>
<path fill="none" stroke="midnightblue" d="M867.11,-104.43C875.18,-94.97 884.96,-83.48 891.55,-75.75"/>
<polygon fill="midnightblue" stroke="midnightblue" points="864.42,-102.2 860.6,-112.08 869.75,-106.74 864.42,-102.2"/>
</g>
<!-- Node12 -->
<g id="node12" class="node">
<title>Node12</title>
<g id="a_node12"><a xlink:href="lharmony__IntervalConstants_8h.html" target="_top" xlink:title="This file provides some useful Interval objects as constants.">
<polygon fill="white" stroke="black" points="596,-56.5 596,-75.5 760,-75.5 760,-56.5 596,-56.5"/>
<text text-anchor="middle" x="678" y="-63.5" font-family="Helvetica,sans-Serif" font-size="10.00">lharmony_IntervalConstants.h</text>
</a>
</g>
</g>
<!-- Node10&#45;&gt;Node12 -->
<g id="edge21" class="edge">
<title>Node10&#45;&gt;Node12</title>
<path fill="none" stroke="midnightblue" d="M815.53,-109.44C782.53,-99.26 735.24,-84.66 705.6,-75.52"/>
<polygon fill="midnightblue" stroke="midnightblue" points="814.68,-112.84 825.27,-112.44 816.75,-106.15 814.68,-112.84"/>
</g>
<!-- Node10&#45;&gt;Node13 -->
<g id="edge23" class="edge">
<title>Node10&#45;&gt;Node13</title>
<path fill="none" stroke="midnightblue" d="M898.26,-110.09C940.58,-99.89 1002.91,-84.86 1041.67,-75.52"/>
<polygon fill="midnightblue" stroke="midnightblue" points="897.39,-106.7 888.49,-112.44 899.04,-113.5 897.39,-106.7"/>
</g>
<!-- Node11&#45;&gt;Node2 -->
<g id="edge20" class="edge">
<title>Node11&#45;&gt;Node2</title>
<path fill="none" stroke="midnightblue" d="M830.27,-54.94C751.95,-43.48 626.92,-25.18 565.88,-16.25"/>
<polygon fill="midnightblue" stroke="midnightblue" points="830.13,-58.46 840.53,-56.44 831.14,-51.53 830.13,-58.46"/>
</g>
<!-- Node12&#45;&gt;Node2 -->
<g id="edge22" class="edge">
<title>Node12&#45;&gt;Node2</title>
<path fill="none" stroke="midnightblue" d="M644.85,-52.91C617.03,-42.75 577.98,-28.51 553.34,-19.52"/>
<polygon fill="midnightblue" stroke="midnightblue" points="643.96,-56.3 654.55,-56.44 646.35,-49.73 643.96,-56.3"/>
</g>
<!-- Node13&#45;&gt;Node2 -->
<g id="edge24" class="edge">
<title>Node13&#45;&gt;Node2</title>
<path fill="none" stroke="midnightblue" d="M990.2,-55.93C824.66,-39.22 641.38,-21.62 565.58,-14.39"/>
<polygon fill="midnightblue" stroke="midnightblue" points="990.27,-59.45 1000.57,-56.97 990.97,-52.49 990.27,-59.45"/>
</g>
<!-- Node14&#45;&gt;Node2 -->
<g id="edge26" class="edge">
<title>Node14&#45;&gt;Node2</title>
<path fill="none" stroke="midnightblue" d="M1098.19,-162.79C1133.87,-139.25 1194.84,-91.26 1162,-56 1121.24,-12.23 693.54,-10.35 565.82,-10.78"/>
<polygon fill="midnightblue" stroke="midnightblue" points="1096.25,-159.87 1089.73,-168.23 1100.04,-165.76 1096.25,-159.87"/>
</g>
<!-- Node15&#45;&gt;Node2 -->
<g id="edge29" class="edge">
<title>Node15&#45;&gt;Node2</title>
<path fill="none" stroke="midnightblue" d="M425.81,-158.09C427.69,-144.63 431.48,-126.45 439,-112 459.71,-72.23 499.81,-35.86 519.1,-19.75"/>
<polygon fill="midnightblue" stroke="midnightblue" points="422.33,-157.76 424.64,-168.1 429.28,-158.58 422.33,-157.76"/>
</g>
<!-- Node15&#45;&gt;Node3 -->
<g id="edge30" class="edge">
<title>Node15&#45;&gt;Node3</title>
<path fill="none" stroke="midnightblue" d="M361.61,-166.85C298.92,-156.66 203.4,-141.12 144.48,-131.54"/>
<polygon fill="midnightblue" stroke="midnightblue" points="361.33,-170.35 371.76,-168.5 362.45,-163.44 361.33,-170.35"/>
</g>
<!-- Node15&#45;&gt;Node4 -->
<g id="edge31" class="edge">
<title>Node15&#45;&gt;Node4</title>
<path fill="none" stroke="midnightblue" d="M385.67,-165.44C351.92,-155.26 303.55,-140.66 273.23,-131.52"/>
<polygon fill="midnightblue" stroke="midnightblue" points="385.05,-168.91 395.64,-168.44 387.07,-162.2 385.05,-168.91"/>
</g>
<!-- Node15&#45;&gt;Node6 -->
<g id="edge32" class="edge">
<title>Node15&#45;&gt;Node6</title>
<path fill="none" stroke="midnightblue" d="M415.82,-159C404.91,-135 386.03,-93.47 377.91,-75.59"/>
<polygon fill="midnightblue" stroke="midnightblue" points="412.75,-160.71 420.08,-168.37 419.12,-157.82 412.75,-160.71"/>
</g>
<!-- Node15&#45;&gt;Node7 -->
<g id="edge33" class="edge">
<title>Node15&#45;&gt;Node7</title>
<path fill="none" stroke="midnightblue" d="M446.45,-162.9C462.22,-153 482.81,-140.07 496.22,-131.65"/>
<polygon fill="midnightblue" stroke="midnightblue" points="444.43,-160.04 437.82,-168.32 448.15,-165.97 444.43,-160.04"/>
</g>
<!-- Node15&#45;&gt;Node16 -->
<g id="edge34" class="edge">
<title>Node15&#45;&gt;Node16</title>
<path fill="none" stroke="midnightblue" d="M470.6,-166.15C514.44,-155.95 579.18,-140.88 619.41,-131.52"/>
<polygon fill="midnightblue" stroke="midnightblue" points="469.71,-162.77 460.76,-168.44 471.29,-169.59 469.71,-162.77"/>
</g>
<!-- Node16&#45;&gt;Node2 -->
<g id="edge35" class="edge">
<title>Node16&#45;&gt;Node2</title>
<path fill="none" stroke="midnightblue" d="M609.17,-109.15C589.93,-102.23 568.74,-91.68 554,-76 538.84,-59.87 533.07,-33.35 531.03,-19.71"/>
<polygon fill="midnightblue" stroke="midnightblue" points="608.13,-112.49 618.72,-112.35 610.35,-105.85 608.13,-112.49"/>
</g>
</g>
</svg>
        <g id="navigator" transform="translate(0 0)" fill="#404254">
                <rect fill="#f2f5e9" fill-opacity="0.5" stroke="#606060" stroke-width=".5" x="0" y="0" width="60" height="60"/>
                <use id="zoomplus" xlink:href="#zoomPlus" x="17" y="9" onmousedown="handleZoom(evt,'in')"/>
                <use id="zoomminus" xlink:href="#zoomMin" x="42" y="9" onmousedown="handleZoom(evt,'out')"/>
                <use id="reset" xlink:href="#resetDef" x="30" y="36" onmousedown="handleReset()"/>
                <g id="arrowUp" xlink:href="#dirArrow" transform="translate(30 24)" onmousedown="handlePan(0,-1)">
                  <use xlink:href="#rim" fill="#404040">
                        <set attributeName="fill" to="#808080" begin="arrowUp.mouseover" end="arrowUp.mouseout"/>
                  </use>
                  <path fill="none" stroke="white" stroke-width="1.5" d="M0,-3.0v7 M-2.5,-0.5L0,-3.0L2.5,-0.5"/>
                </g>
                <g id="arrowRight" xlink:href="#dirArrow" transform="rotate(90) translate(36 -43)" onmousedown="handlePan(1,0)">
                  <use xlink:href="#rim" fill="#404040">
                        <set attributeName="fill" to="#808080" begin="arrowRight.mouseover" end="arrowRight.mouseout"/>
                  </use>
                  <path fill="none" stroke="white" stroke-width="1.5" d="M0,-3.0v7 M-2.5,-0.5L0,-3.0L2.5,-0.5"/>
                </g>
                <g id="arrowDown" xlink:href="#dirArrow" transform="rotate(180) translate(-30 -48)" onmousedown="handlePan(0,1)">
                  <use xlink:href="#rim" fill="#404040">
                        <set attributeName="fill" to="#808080" begin="arrowDown.mouseover" end="arrowDown.mouseout"/>
                  </use>
                  <path fill="none" stroke="white" stroke-width="1.5" d="M0,-3.0v7 M-2.5,-0.5L0,-3.0L2.5,-0.5"/>
                </g>
                <g id="arrowLeft" xlink:href="#dirArrow" transform="rotate(270) translate(-36 17)" onmousedown="handlePan(-1,0)">
                  <use xlink:href="#rim" fill="#404040">
                        <set attributeName="fill" to="#808080" begin="arrowLeft.mouseover" end="arrowLeft.mouseout"/>
                  </use>
                  <path fill="none" stroke="white" stroke-width="1.5" d="M0,-3.0v7 M-2.5,-0.5L0,-3.0L2.5,-0.5"/>
                </g>
        </g>
        <svg viewBox="0 0 15 15" width="100%" height="30px" preserveAspectRatio="xMaxYMin meet">
         <g id="arrow_out" transform="scale(0.3 0.3)">
          <a xlink:href="lharmony__PitchClass_8h__dep__incl_org.svg" target="_base">
           <rect id="button" ry="5" rx="5" y="6" x="6" height="38" width="38"
                fill="#f2f5e9" fill-opacity="0.5" stroke="#606060" stroke-width="1.0"/>
           <path id="arrow"
             d="M 11.500037,31.436501 C 11.940474,20.09759 22.043105,11.32322 32.158766,21.979434 L 37.068811,17.246167 C 37.068811,17.246167 37.088388,32 37.088388,32 L 22.160133,31.978069 C 22.160133,31.978069 26.997745,27.140456 26.997745,27.140456 C 18.528582,18.264221 13.291696,25.230495 11.500037,31.436501 z"
             style="fill:#404040;"/>
          </a>
         </g>
        </svg>
</svg>
