<?xml version="1.0" encoding="UTF-8" standalone="no"?>
<!DOCTYPE svg PUBLIC "-//W3C//DTD SVG 1.1//EN"
 "http://www.w3.org/Graphics/SVG/1.1/DTD/svg11.dtd">
<!-- Generated by graphviz version 8.0.5 (20230430.1635)
 -->
<!-- Title: lharmony_Interval.h Pages: 1 -->
<svg width="589pt" height="248pt"
 viewBox="0.00 0.00 589.25 248.25" xmlns="http://www.w3.org/2000/svg" xmlns:xlink="http://www.w3.org/1999/xlink">
<g id="graph0" class="graph" transform="scale(1 1) rotate(0) translate(4 244.25)">
<title>lharmony_Interval.h</title>
<!-- Node1 -->
<g id="Node000001" class="node">
<title>Node1</title>
<g id="a_Node000001"><a xlink:title="This file defines the Interval class.">
<polygon fill="#999999" stroke="#666666" points="156.25,-240.25 54.75,-240.25 54.75,-221 156.25,-221 156.25,-240.25"/>
<text text-anchor="middle" x="105.5" y="-226.75" font-family="Helvetica,sans-Serif" font-size="10.00">lharmony_Interval.h</text>
</a>
</g>
</g>
<!-- Node2 -->
<g id="Node000002" class="node">
<title>Node2</title>
<g id="a_Node000002"><a xlink:title=" ">
<polygon fill="#e0e0e0" stroke="#999999" points="43,-185 0,-185 0,-165.75 43,-165.75 43,-185"/>
<text text-anchor="middle" x="21.5" y="-171.5" font-family="Helvetica,sans-Serif" font-size="10.00">vector</text>
</a>
</g>
</g>
<!-- Node1&#45;&gt;Node2 -->
<g id="edge1_Node000001_Node000002" class="edge">
<title>Node1&#45;&gt;Node2</title>
<g id="a_edge1_Node000001_Node000002"><a xlink:title=" ">
<path fill="none" stroke="#63b8ff" d="M91.25,-220.59C78.58,-212.56 59.81,-200.66 44.93,-191.23"/>
<polygon fill="#63b8ff" stroke="#63b8ff" points="47.14,-187.85 36.82,-185.45 43.39,-193.76 47.14,-187.85"/>
</a>
</g>
</g>
<!-- Node3 -->
<g id="Node000003" class="node">
<title>Node3</title>
<g id="a_Node000003"><a xlink:title=" ">
<polygon fill="#e0e0e0" stroke="#999999" points="101.5,-185 61.5,-185 61.5,-165.75 101.5,-165.75 101.5,-185"/>
<text text-anchor="middle" x="81.5" y="-171.5" font-family="Helvetica,sans-Serif" font-size="10.00">string</text>
</a>
</g>
</g>
<!-- Node1&#45;&gt;Node3 -->
<g id="edge2_Node000001_Node000003" class="edge">
<title>Node1&#45;&gt;Node3</title>
<g id="a_edge2_Node000001_Node000003"><a xlink:title=" ">
<path fill="none" stroke="#63b8ff" d="M101.54,-220.83C98.39,-213.86 93.89,-203.87 89.95,-195.12"/>
<polygon fill="#63b8ff" stroke="#63b8ff" points="92.85,-194.04 85.55,-186.36 86.47,-196.91 92.85,-194.04"/>
</a>
</g>
</g>
<!-- Node4 -->
<g id="Node000004" class="node">
<title>Node4</title>
<g id="a_Node000004"><a xlink:title=" ">
<polygon fill="#e0e0e0" stroke="#999999" points="199.75,-19.25 59.25,-19.25 59.25,0 199.75,0 199.75,-19.25"/>
<text text-anchor="middle" x="129.5" y="-5.75" font-family="Helvetica,sans-Serif" font-size="10.00">lharmony/lharmony_Export.h</text>
</a>
</g>
</g>
<!-- Node1&#45;&gt;Node4 -->
<g id="edge3_Node000001_Node000004" class="edge">
<title>Node1&#45;&gt;Node4</title>
<g id="a_edge3_Node000001_Node000004"><a xlink:title=" ">
<path fill="none" stroke="#63b8ff" d="M106.5,-220.74C107.52,-211.73 109.13,-197.4 110.5,-185 116.7,-128.91 123.88,-62.64 127.37,-30.33"/>
<polygon fill="#63b8ff" stroke="#63b8ff" points="130.93,-31.02 128.52,-20.7 123.97,-30.27 130.93,-31.02"/>
</a>
</g>
</g>
<!-- Node5 -->
<g id="Node000005" class="node">
<title>Node5</title>
<g id="a_Node000005"><a xlink:href="lharmony___pitch_8h.html" target="_top" xlink:title="This file defines the Pitch class.">
<polygon fill="white" stroke="#666666" points="295.75,-185 161.25,-185 161.25,-165.75 295.75,-165.75 295.75,-185"/>
<text text-anchor="middle" x="228.5" y="-171.5" font-family="Helvetica,sans-Serif" font-size="10.00">lharmony/lharmony_Pitch.h</text>
</a>
</g>
</g>
<!-- Node1&#45;&gt;Node5 -->
<g id="edge4_Node000001_Node000005" class="edge">
<title>Node1&#45;&gt;Node5</title>
<g id="a_edge4_Node000001_Node000005"><a xlink:title=" ">
<path fill="none" stroke="#63b8ff" d="M126.37,-220.59C145.89,-212.14 175.31,-199.4 197.56,-189.77"/>
<polygon fill="#63b8ff" stroke="#63b8ff" points="198.75,-192.64 206.53,-185.45 195.96,-186.21 198.75,-192.64"/>
</a>
</g>
</g>
<!-- Node5&#45;&gt;Node4 -->
<g id="edge6_Node000005_Node000004" class="edge">
<title>Node5&#45;&gt;Node4</title>
<g id="a_edge6_Node000005_Node000004"><a xlink:title=" ">
<path fill="none" stroke="#63b8ff" d="M220.78,-165.49C213.35,-156.72 202.01,-142.77 193.5,-129.75 171.32,-95.82 149.95,-53.47 138.38,-29.49"/>
<polygon fill="#63b8ff" stroke="#63b8ff" points="141.12,-28.11 133.66,-20.59 134.8,-31.12 141.12,-28.11"/>
</a>
</g>
</g>
<!-- Node6 -->
<g id="Node000006" class="node">
<title>Node6</title>
<g id="a_Node000006"><a xlink:title=" ">
<polygon fill="#e0e0e0" stroke="#999999" points="254.12,-129.75 202.88,-129.75 202.88,-110.5 254.12,-110.5 254.12,-129.75"/>
<text text-anchor="middle" x="228.5" y="-116.25" font-family="Helvetica,sans-Serif" font-size="10.00">ostream</text>
</a>
</g>
</g>
<!-- Node5&#45;&gt;Node6 -->
<g id="edge5_Node000005_Node000006" class="edge">
<title>Node5&#45;&gt;Node6</title>
<g id="a_edge5_Node000005_Node000006"><a xlink:title=" ">
<path fill="none" stroke="#63b8ff" d="M228.5,-165.58C228.5,-158.92 228.5,-149.49 228.5,-141.03"/>
<polygon fill="#63b8ff" stroke="#63b8ff" points="232,-141.11 228.5,-131.11 225,-141.11 232,-141.11"/>
</a>
</g>
</g>
<!-- Node7 -->
<g id="Node000007" class="node">
<title>Node7</title>
<g id="a_Node000007"><a xlink:href="lharmony___pitch_class_8h.html" target="_top" xlink:title="This file defines the PitchClass class.">
<polygon fill="white" stroke="#666666" points="491.5,-129.75 331.5,-129.75 331.5,-110.5 491.5,-110.5 491.5,-129.75"/>
<text text-anchor="middle" x="411.5" y="-116.25" font-family="Helvetica,sans-Serif" font-size="10.00">lharmony/lharmony_PitchClass.h</text>
</a>
</g>
</g>
<!-- Node5&#45;&gt;Node7 -->
<g id="edge7_Node000005_Node000007" class="edge">
<title>Node5&#45;&gt;Node7</title>
<g id="a_edge7_Node000005_Node000007"><a xlink:title=" ">
<path fill="none" stroke="#63b8ff" d="M259.54,-165.34C289.91,-156.51 336.35,-142.99 369.9,-133.23"/>
<polygon fill="#63b8ff" stroke="#63b8ff" points="370.68,-136.36 379.3,-130.2 368.72,-129.64 370.68,-136.36"/>
</a>
</g>
</g>
<!-- Node11 -->
<g id="Node000011" class="node">
<title>Node11</title>
<g id="a_Node000011"><a xlink:href="lharmony___pitch_utils_8h.html" target="_top" xlink:title="This file contains miscellaneous pitch utilities.">
<polygon fill="white" stroke="#666666" points="387.88,-74.5 233.12,-74.5 233.12,-55.25 387.88,-55.25 387.88,-74.5"/>
<text text-anchor="middle" x="310.5" y="-61" font-family="Helvetica,sans-Serif" font-size="10.00">lharmony/lharmony_PitchUtils.h</text>
</a>
</g>
</g>
<!-- Node5&#45;&gt;Node11 -->
<g id="edge18_Node000005_Node000011" class="edge">
<title>Node5&#45;&gt;Node11</title>
<g id="a_edge18_Node000005_Node000011"><a xlink:title=" ">
<path fill="none" stroke="#63b8ff" d="M235.55,-165.55C242.68,-156.59 253.97,-142.29 263.5,-129.75 275.31,-114.2 288.47,-96.27 297.85,-83.38"/>
<polygon fill="#63b8ff" stroke="#63b8ff" points="301.16,-85.77 304.2,-75.62 295.49,-81.66 301.16,-85.77"/>
</a>
</g>
</g>
<!-- Node7&#45;&gt;Node4 -->
<g id="edge11_Node000007_Node000004" class="edge">
<title>Node7&#45;&gt;Node4</title>
<g id="a_edge11_Node000007_Node000004"><a xlink:title=" ">
<path fill="none" stroke="#63b8ff" d="M349.5,-110.07C312.21,-103.24 264.39,-91.99 224.5,-74.5 196,-62.01 166.83,-40.91 148.47,-26.4"/>
<polygon fill="#63b8ff" stroke="#63b8ff" points="151.12,-23.24 141.14,-19.68 146.73,-28.69 151.12,-23.24"/>
</a>
</g>
</g>
<!-- Node8 -->
<g id="Node000008" class="node">
<title>Node8</title>
<g id="a_Node000008"><a xlink:title=" ">
<polygon fill="#e0e0e0" stroke="#999999" points="461.38,-19.25 423.62,-19.25 423.62,0 461.38,0 461.38,-19.25"/>
<text text-anchor="middle" x="442.5" y="-5.75" font-family="Helvetica,sans-Serif" font-size="10.00">array</text>
</a>
</g>
</g>
<!-- Node7&#45;&gt;Node8 -->
<g id="edge8_Node000007_Node000008" class="edge">
<title>Node7&#45;&gt;Node8</title>
<g id="a_edge8_Node000007_Node000008"><a xlink:title=" ">
<path fill="none" stroke="#63b8ff" d="M414.04,-110.25C419.01,-92.84 430.14,-53.87 436.92,-30.16"/>
<polygon fill="#63b8ff" stroke="#63b8ff" points="440.55,-31.2 439.93,-20.63 433.82,-29.28 440.55,-31.2"/>
</a>
</g>
</g>
<!-- Node9 -->
<g id="Node000009" class="node">
<title>Node9</title>
<g id="a_Node000009"><a xlink:title=" ">
<polygon fill="#e0e0e0" stroke="#999999" points="509.25,-74.5 443.75,-74.5 443.75,-55.25 509.25,-55.25 509.25,-74.5"/>
<text text-anchor="middle" x="476.5" y="-61" font-family="Helvetica,sans-Serif" font-size="10.00">string_view</text>
</a>
</g>
</g>
<!-- Node7&#45;&gt;Node9 -->
<g id="edge9_Node000007_Node000009" class="edge">
<title>Node7&#45;&gt;Node9</title>
<g id="a_edge9_Node000007_Node000009"><a xlink:title=" ">
<path fill="none" stroke="#63b8ff" d="M422.53,-110.09C432.01,-102.32 445.92,-90.92 457.25,-81.65"/>
<polygon fill="#63b8ff" stroke="#63b8ff" points="459.12,-83.82 464.64,-74.77 454.68,-78.4 459.12,-83.82"/>
</a>
</g>
</g>
<!-- Node10 -->
<g id="Node000010" class="node">
<title>Node10</title>
<g id="a_Node000010"><a xlink:title=" ">
<polygon fill="#e0e0e0" stroke="#999999" points="581.25,-74.5 527.75,-74.5 527.75,-55.25 581.25,-55.25 581.25,-74.5"/>
<text text-anchor="middle" x="554.5" y="-61" font-family="Helvetica,sans-Serif" font-size="10.00">iostream</text>
</a>
</g>
</g>
<!-- Node7&#45;&gt;Node10 -->
<g id="edge10_Node000007_Node000010" class="edge">
<title>Node7&#45;&gt;Node10</title>
<g id="a_edge10_Node000007_Node000010"><a xlink:title=" ">
<path fill="none" stroke="#63b8ff" d="M435.76,-110.09C458.87,-101.49 493.9,-88.44 519.93,-78.75"/>
<polygon fill="#63b8ff" stroke="#63b8ff" points="520.97,-81.72 529.12,-74.95 518.53,-75.16 520.97,-81.72"/>
</a>
</g>
</g>
<!-- Node7&#45;&gt;Node11 -->
<g id="edge12_Node000007_Node000011" class="edge">
<title>Node7&#45;&gt;Node11</title>
<g id="a_edge12_Node000007_Node000011"><a xlink:title=" ">
<path fill="none" stroke="#63b8ff" d="M394.37,-110.09C378.77,-101.87 355.48,-89.59 337.4,-80.06"/>
<polygon fill="#63b8ff" stroke="#63b8ff" points="339.2,-76.52 328.72,-74.95 335.93,-82.71 339.2,-76.52"/>
</a>
</g>
</g>
<!-- Node11&#45;&gt;Node4 -->
<g id="edge17_Node000011_Node000004" class="edge">
<title>Node11&#45;&gt;Node4</title>
<g id="a_edge17_Node000011_Node000004"><a xlink:title=" ">
<path fill="none" stroke="#63b8ff" d="M279.8,-54.84C249.76,-46.01 203.83,-32.49 170.64,-22.73"/>
<polygon fill="#63b8ff" stroke="#63b8ff" points="171.94,-19.17 161.35,-19.7 169.96,-25.88 171.94,-19.17"/>
</a>
</g>
</g>
<!-- Node11&#45;&gt;Node8 -->
<g id="edge13_Node000011_Node000008" class="edge">
<title>Node11&#45;&gt;Node8</title>
<g id="a_edge13_Node000011_Node000008"><a xlink:title=" ">
<path fill="none" stroke="#63b8ff" d="M332.89,-54.84C355.06,-45.9 389.11,-32.16 413.37,-22.37"/>
<polygon fill="#63b8ff" stroke="#63b8ff" points="414.47,-25.3 422.43,-18.32 411.85,-18.81 414.47,-25.3"/>
</a>
</g>
</g>
<!-- Node12 -->
<g id="Node000012" class="node">
<title>Node12</title>
<g id="a_Node000012"><a xlink:title=" ">
<polygon fill="#e0e0e0" stroke="#999999" points="265.62,-19.25 217.38,-19.25 217.38,0 265.62,0 265.62,-19.25"/>
<text text-anchor="middle" x="241.5" y="-5.75" font-family="Helvetica,sans-Serif" font-size="10.00">cassert</text>
</a>
</g>
</g>
<!-- Node11&#45;&gt;Node12 -->
<g id="edge14_Node000011_Node000012" class="edge">
<title>Node11&#45;&gt;Node12</title>
<g id="a_edge14_Node000011_Node000012"><a xlink:title=" ">
<path fill="none" stroke="#63b8ff" d="M298.8,-54.84C288.62,-46.99 273.67,-35.45 261.58,-26.12"/>
<polygon fill="#63b8ff" stroke="#63b8ff" points="264.09,-22.86 254.03,-19.52 259.81,-28.41 264.09,-22.86"/>
</a>
</g>
</g>
<!-- Node13 -->
<g id="Node000013" class="node">
<title>Node13</title>
<g id="a_Node000013"><a xlink:title=" ">
<polygon fill="#e0e0e0" stroke="#999999" points="345.38,-19.25 283.62,-19.25 283.62,0 345.38,0 345.38,-19.25"/>
<text text-anchor="middle" x="314.5" y="-5.75" font-family="Helvetica,sans-Serif" font-size="10.00">type_traits</text>
</a>
</g>
</g>
<!-- Node11&#45;&gt;Node13 -->
<g id="edge15_Node000011_Node000013" class="edge">
<title>Node11&#45;&gt;Node13</title>
<g id="a_edge15_Node000011_Node000013"><a xlink:title=" ">
<path fill="none" stroke="#63b8ff" d="M311.16,-55.08C311.66,-48.42 312.37,-38.99 313,-30.53"/>
<polygon fill="#63b8ff" stroke="#63b8ff" points="316.57,-30.84 313.83,-20.61 309.59,-30.32 316.57,-30.84"/>
</a>
</g>
</g>
<!-- Node14 -->
<g id="Node000014" class="node">
<title>Node14</title>
<g id="a_Node000014"><a xlink:title=" ">
<polygon fill="#e0e0e0" stroke="#999999" points="406,-19.25 363,-19.25 363,0 406,0 406,-19.25"/>
<text text-anchor="middle" x="384.5" y="-5.75" font-family="Helvetica,sans-Serif" font-size="10.00">cmath</text>
</a>
</g>
</g>
<!-- Node11&#45;&gt;Node14 -->
<g id="edge16_Node000011_Node000014" class="edge">
<title>Node11&#45;&gt;Node14</title>
<g id="a_edge16_Node000011_Node000014"><a xlink:title=" ">
<path fill="none" stroke="#63b8ff" d="M323.05,-54.84C334.07,-46.91 350.32,-35.22 363.34,-25.85"/>
<polygon fill="#63b8ff" stroke="#63b8ff" points="365.06,-28.21 371.13,-19.52 360.97,-22.52 365.06,-28.21"/>
</a>
</g>
</g>
</g>
</svg>
