<?xml version="1.0" encoding="UTF-8" standalone="no"?>
<!DOCTYPE svg PUBLIC "-//W3C//DTD SVG 1.1//EN"
 "http://www.w3.org/Graphics/SVG/1.1/DTD/svg11.dtd">
<!-- Generated by graphviz version 2.43.0 (0)
 -->
<!-- Title: lharmony_CompoundInterval.h Pages: 1 -->
<!--zoomable 319 -->
<svg id="main" version="1.1" xmlns="http://www.w3.org/2000/svg" xmlns:xlink="http://www.w3.org/1999/xlink" xml:space="preserve" onload="init(evt)">
<style type="text/css"><![CDATA[
.edge:hover path { stroke: red; }
.edge:hover polygon { stroke: red; fill: red; }
]]></style>
<script type="text/javascript"><![CDATA[
var edges = document.getElementsByTagName('g');
if (edges && edges.length) {
  for (var i=0;i<edges.length;i++) {
    if (edges[i].id.substr(0,4)=='edge') {
      edges[i].setAttribute('class','edge');
    }
  }
}
]]></script>
        <defs>
                <circle id="rim" cx="0" cy="0" r="7"/>
                <circle id="rim2" cx="0" cy="0" r="3.5"/>
                <g id="zoomPlus">
                        <use xlink:href="#rim" fill="#404040">
                                <set attributeName="fill" to="#808080" begin="zoomplus.mouseover" end="zoomplus.mouseout"/>
                        </use>
                        <path d="M-4,0h8M0,-4v8" fill="none" stroke="white" stroke-width="1.5" pointer-events="none"/>
                </g>
                <g id="zoomMin">
                        <use xlink:href="#rim" fill="#404040">
                                <set attributeName="fill" to="#808080" begin="zoomminus.mouseover" end="zoomminus.mouseout"/>
                        </use>
                        <path d="M-4,0h8" fill="none" stroke="white" stroke-width="1.5" pointer-events="none"/>
                </g>
                <g id="dirArrow">
                        <path fill="none" stroke="white" stroke-width="1.5" d="M0,-3.0v7 M-2.5,-0.5L0,-3.0L2.5,-0.5"/>
                </g>
               <g id="resetDef">
                       <use xlink:href="#rim2" fill="#404040">
                               <set attributeName="fill" to="#808080" begin="reset.mouseover" end="reset.mouseout"/>
                       </use>
               </g>
        </defs>

<script type="text/javascript">
var viewWidth = 702;
var viewHeight = 319;
var sectionId = 'dynsection-0';
</script>
<script xlink:href="svgpan.js"/>
<svg id="graph" class="graph">
<g id="viewport">
<title>lharmony_CompoundInterval.h</title>
<polygon fill="white" stroke="transparent" points="-4,4 -4,-315 697.5,-315 697.5,4 -4,4"/>
<!-- Node1 -->
<g id="node1" class="node">
<title>Node1</title>
<g id="a_node1"><a xlink:title="This file defines the CompoundInterval class.">
<polygon fill="#bfbfbf" stroke="black" points="16.5,-291.5 16.5,-310.5 183.5,-310.5 183.5,-291.5 16.5,-291.5"/>
<text text-anchor="middle" x="100" y="-298.5" font-family="Helvetica,sans-Serif" font-size="10.00">lharmony_CompoundInterval.h</text>
</a>
</g>
</g>
<!-- Node2 -->
<g id="node2" class="node">
<title>Node2</title>
<g id="a_node2"><a xlink:title=" ">
<polygon fill="white" stroke="#bfbfbf" points="28.5,-168.5 28.5,-187.5 75.5,-187.5 75.5,-168.5 28.5,-168.5"/>
<text text-anchor="middle" x="52" y="-175.5" font-family="Helvetica,sans-Serif" font-size="10.00">vector</text>
</a>
</g>
</g>
<!-- Node1&#45;&gt;Node2 -->
<g id="edge1" class="edge">
<title>Node1&#45;&gt;Node2</title>
<path fill="none" stroke="midnightblue" d="M90.7,-291.3C82.29,-282.87 70.3,-269.28 64,-255 55.93,-236.71 53.19,-213.83 52.31,-197.98"/>
<polygon fill="midnightblue" stroke="midnightblue" points="55.81,-197.71 51.95,-187.84 48.81,-197.96 55.81,-197.71"/>
</g>
<!-- Node3 -->
<g id="node3" class="node">
<title>Node3</title>
<g id="a_node3"><a xlink:title=" ">
<polygon fill="white" stroke="#bfbfbf" points="125,-0.5 125,-19.5 283,-19.5 283,-0.5 125,-0.5"/>
<text text-anchor="middle" x="204" y="-7.5" font-family="Helvetica,sans-Serif" font-size="10.00">lharmony/lharmony_Export.h</text>
</a>
</g>
</g>
<!-- Node1&#45;&gt;Node3 -->
<g id="edge2" class="edge">
<title>Node1&#45;&gt;Node3</title>
<path fill="none" stroke="midnightblue" d="M85.24,-291.45C57.43,-274.1 0,-231.87 0,-179 0,-179 0,-179 0,-121 0,-61.66 67.69,-34.19 125.09,-21.55"/>
<polygon fill="midnightblue" stroke="midnightblue" points="125.86,-24.97 134.93,-19.51 124.43,-18.12 125.86,-24.97"/>
</g>
<!-- Node4 -->
<g id="node4" class="node">
<title>Node4</title>
<g id="a_node4"><a xlink:href="lharmony__Interval_8h.html" target="_top" xlink:title="This file defines the Interval class.">
<polygon fill="white" stroke="black" points="73,-230 73,-249 237,-249 237,-230 73,-230"/>
<text text-anchor="middle" x="155" y="-237" font-family="Helvetica,sans-Serif" font-size="10.00">lharmony/lharmony_Interval.h</text>
</a>
</g>
</g>
<!-- Node1&#45;&gt;Node4 -->
<g id="edge3" class="edge">
<title>Node1&#45;&gt;Node4</title>
<path fill="none" stroke="midnightblue" d="M107.88,-291.48C116.29,-282.37 129.82,-267.74 140.23,-256.48"/>
<polygon fill="midnightblue" stroke="midnightblue" points="142.92,-258.73 147.13,-249.01 137.78,-253.98 142.92,-258.73"/>
</g>
<!-- Node16 -->
<g id="node16" class="node">
<title>Node16</title>
<g id="a_node16"><a xlink:href="lharmony__CompoundInterval__impl_8h.html" target="_top" xlink:title="This file contains implementation details for the CompoundInterval class.">
<polygon fill="white" stroke="black" points="255,-224.5 255,-254.5 419,-254.5 419,-224.5 255,-224.5"/>
<text text-anchor="start" x="263" y="-242.5" font-family="Helvetica,sans-Serif" font-size="10.00">./lharmony_CompoundInterval</text>
<text text-anchor="middle" x="337" y="-231.5" font-family="Helvetica,sans-Serif" font-size="10.00">_impl.h</text>
</a>
</g>
</g>
<!-- Node1&#45;&gt;Node16 -->
<g id="edge22" class="edge">
<title>Node1&#45;&gt;Node16</title>
<path fill="none" stroke="midnightblue" d="M133.96,-291.48C169.65,-282.51 226.71,-268.19 271.26,-257"/>
<polygon fill="midnightblue" stroke="midnightblue" points="272.3,-260.35 281.14,-254.52 270.59,-253.56 272.3,-260.35"/>
</g>
<!-- Node4&#45;&gt;Node2 -->
<g id="edge4" class="edge">
<title>Node4&#45;&gt;Node2</title>
<path fill="none" stroke="midnightblue" d="M140.24,-229.98C123.34,-220.21 95.42,-204.08 75.51,-192.58"/>
<polygon fill="midnightblue" stroke="midnightblue" points="77.14,-189.48 66.73,-187.51 73.64,-195.54 77.14,-189.48"/>
</g>
<!-- Node4&#45;&gt;Node3 -->
<g id="edge6" class="edge">
<title>Node4&#45;&gt;Node3</title>
<path fill="none" stroke="midnightblue" d="M156.86,-229.86C164.03,-196.57 189.97,-76.15 200,-29.57"/>
<polygon fill="midnightblue" stroke="midnightblue" points="203.45,-30.16 202.14,-19.65 196.61,-28.69 203.45,-30.16"/>
</g>
<!-- Node5 -->
<g id="node5" class="node">
<title>Node5</title>
<g id="a_node5"><a xlink:title=" ">
<polygon fill="white" stroke="#bfbfbf" points="94,-168.5 94,-187.5 138,-187.5 138,-168.5 94,-168.5"/>
<text text-anchor="middle" x="116" y="-175.5" font-family="Helvetica,sans-Serif" font-size="10.00">string</text>
</a>
</g>
</g>
<!-- Node4&#45;&gt;Node5 -->
<g id="edge5" class="edge">
<title>Node4&#45;&gt;Node5</title>
<path fill="none" stroke="midnightblue" d="M149.41,-229.98C143.62,-221.14 134.41,-207.09 127.13,-195.98"/>
<polygon fill="midnightblue" stroke="midnightblue" points="129.99,-193.95 121.58,-187.51 124.13,-197.79 129.99,-193.95"/>
</g>
<!-- Node6 -->
<g id="node6" class="node">
<title>Node6</title>
<g id="a_node6"><a xlink:href="lharmony__Pitch_8h.html" target="_top" xlink:title="This file defines the Pitch class.">
<polygon fill="white" stroke="black" points="194.5,-168.5 194.5,-187.5 345.5,-187.5 345.5,-168.5 194.5,-168.5"/>
<text text-anchor="middle" x="270" y="-175.5" font-family="Helvetica,sans-Serif" font-size="10.00">lharmony/lharmony_Pitch.h</text>
</a>
</g>
</g>
<!-- Node4&#45;&gt;Node6 -->
<g id="edge7" class="edge">
<title>Node4&#45;&gt;Node6</title>
<path fill="none" stroke="midnightblue" d="M171.48,-229.98C190.61,-220.08 222.37,-203.64 244.65,-192.12"/>
<polygon fill="midnightblue" stroke="midnightblue" points="246.28,-195.21 253.55,-187.51 243.06,-189 246.28,-195.21"/>
</g>
<!-- Node6&#45;&gt;Node3 -->
<g id="edge9" class="edge">
<title>Node6&#45;&gt;Node3</title>
<path fill="none" stroke="midnightblue" d="M256.97,-168.29C246.03,-160.23 230.95,-147.22 223,-132 205.83,-99.13 203.24,-54.9 203.33,-30.03"/>
<polygon fill="midnightblue" stroke="midnightblue" points="206.83,-29.86 203.52,-19.8 199.83,-29.73 206.83,-29.86"/>
</g>
<!-- Node7 -->
<g id="node7" class="node">
<title>Node7</title>
<g id="a_node7"><a xlink:title=" ">
<polygon fill="white" stroke="#bfbfbf" points="232.5,-112.5 232.5,-131.5 289.5,-131.5 289.5,-112.5 232.5,-112.5"/>
<text text-anchor="middle" x="261" y="-119.5" font-family="Helvetica,sans-Serif" font-size="10.00">ostream</text>
</a>
</g>
</g>
<!-- Node6&#45;&gt;Node7 -->
<g id="edge8" class="edge">
<title>Node6&#45;&gt;Node7</title>
<path fill="none" stroke="midnightblue" d="M268.51,-168.08C267.32,-160.93 265.61,-150.64 264.12,-141.69"/>
<polygon fill="midnightblue" stroke="midnightblue" points="267.55,-141.04 262.46,-131.75 260.65,-142.19 267.55,-141.04"/>
</g>
<!-- Node8 -->
<g id="node8" class="node">
<title>Node8</title>
<g id="a_node8"><a xlink:href="lharmony__PitchClass_8h.html" target="_top" xlink:title="This file defines the PitchClass class.">
<polygon fill="white" stroke="black" points="307.5,-112.5 307.5,-131.5 484.5,-131.5 484.5,-112.5 307.5,-112.5"/>
<text text-anchor="middle" x="396" y="-119.5" font-family="Helvetica,sans-Serif" font-size="10.00">lharmony/lharmony_PitchClass.h</text>
</a>
</g>
</g>
<!-- Node6&#45;&gt;Node8 -->
<g id="edge10" class="edge">
<title>Node6&#45;&gt;Node8</title>
<path fill="none" stroke="midnightblue" d="M289.97,-168.44C310.61,-159.6 343.06,-145.69 366.63,-135.59"/>
<polygon fill="midnightblue" stroke="midnightblue" points="368.32,-138.67 376.13,-131.52 365.56,-132.24 368.32,-138.67"/>
</g>
<!-- Node12 -->
<g id="node12" class="node">
<title>Node12</title>
<g id="a_node12"><a xlink:href="lharmony__PitchUtils_8h.html" target="_top" xlink:title="This file contains miscellaneous pitch utilities.">
<polygon fill="white" stroke="black" points="478.5,-56.5 478.5,-75.5 651.5,-75.5 651.5,-56.5 478.5,-56.5"/>
<text text-anchor="middle" x="565" y="-63.5" font-family="Helvetica,sans-Serif" font-size="10.00">lharmony/lharmony_PitchUtils.h</text>
</a>
</g>
</g>
<!-- Node6&#45;&gt;Node12 -->
<g id="edge21" class="edge">
<title>Node6&#45;&gt;Node12</title>
<path fill="none" stroke="midnightblue" d="M345.56,-171.82C390.36,-166.35 447.15,-155.1 493,-132 516.38,-120.22 537.92,-98.77 551.23,-83.74"/>
<polygon fill="midnightblue" stroke="midnightblue" points="554.22,-85.63 558.07,-75.76 548.91,-81.08 554.22,-85.63"/>
</g>
<!-- Node8&#45;&gt;Node3 -->
<g id="edge14" class="edge">
<title>Node8&#45;&gt;Node3</title>
<path fill="none" stroke="midnightblue" d="M351.72,-112.48C324.01,-105.7 288.47,-94.25 261,-76 242.13,-63.47 225.7,-43.12 215.39,-28.52"/>
<polygon fill="midnightblue" stroke="midnightblue" points="218.05,-26.21 209.53,-19.91 212.26,-30.15 218.05,-26.21"/>
</g>
<!-- Node9 -->
<g id="node9" class="node">
<title>Node9</title>
<g id="a_node9"><a xlink:title=" ">
<polygon fill="white" stroke="#bfbfbf" points="429,-0.5 429,-19.5 471,-19.5 471,-0.5 429,-0.5"/>
<text text-anchor="middle" x="450" y="-7.5" font-family="Helvetica,sans-Serif" font-size="10.00">array</text>
</a>
</g>
</g>
<!-- Node8&#45;&gt;Node9 -->
<g id="edge11" class="edge">
<title>Node8&#45;&gt;Node9</title>
<path fill="none" stroke="midnightblue" d="M404.33,-112.39C412.22,-103.8 423.88,-89.92 431,-76 438.53,-61.28 443.52,-43.12 446.49,-29.74"/>
<polygon fill="midnightblue" stroke="midnightblue" points="449.94,-30.3 448.52,-19.8 443.09,-28.9 449.94,-30.3"/>
</g>
<!-- Node10 -->
<g id="node10" class="node">
<title>Node10</title>
<g id="a_node10"><a xlink:title=" ">
<polygon fill="white" stroke="#bfbfbf" points="270.5,-56.5 270.5,-75.5 343.5,-75.5 343.5,-56.5 270.5,-56.5"/>
<text text-anchor="middle" x="307" y="-63.5" font-family="Helvetica,sans-Serif" font-size="10.00">string_view</text>
</a>
</g>
</g>
<!-- Node8&#45;&gt;Node10 -->
<g id="edge12" class="edge">
<title>Node8&#45;&gt;Node10</title>
<path fill="none" stroke="midnightblue" d="M381.7,-112.32C367.82,-103.9 346.51,-90.97 330.2,-81.07"/>
<polygon fill="midnightblue" stroke="midnightblue" points="331.63,-77.85 321.26,-75.65 328,-83.83 331.63,-77.85"/>
</g>
<!-- Node11 -->
<g id="node11" class="node">
<title>Node11</title>
<g id="a_node11"><a xlink:title=" ">
<polygon fill="white" stroke="#bfbfbf" points="362,-56.5 362,-75.5 422,-75.5 422,-56.5 362,-56.5"/>
<text text-anchor="middle" x="392" y="-63.5" font-family="Helvetica,sans-Serif" font-size="10.00">iostream</text>
</a>
</g>
</g>
<!-- Node8&#45;&gt;Node11 -->
<g id="edge13" class="edge">
<title>Node8&#45;&gt;Node11</title>
<path fill="none" stroke="midnightblue" d="M395.34,-112.08C394.82,-105.01 394.06,-94.86 393.41,-85.99"/>
<polygon fill="midnightblue" stroke="midnightblue" points="396.88,-85.47 392.65,-75.75 389.9,-85.98 396.88,-85.47"/>
</g>
<!-- Node8&#45;&gt;Node12 -->
<g id="edge15" class="edge">
<title>Node8&#45;&gt;Node12</title>
<path fill="none" stroke="midnightblue" d="M422.78,-112.44C451.33,-103.32 496.73,-88.81 528.54,-78.65"/>
<polygon fill="midnightblue" stroke="midnightblue" points="529.89,-81.89 538.35,-75.52 527.76,-75.23 529.89,-81.89"/>
</g>
<!-- Node12&#45;&gt;Node3 -->
<g id="edge20" class="edge">
<title>Node12&#45;&gt;Node3</title>
<path fill="none" stroke="midnightblue" d="M507.8,-56.44C443.5,-46.83 339.22,-31.23 271.13,-21.04"/>
<polygon fill="midnightblue" stroke="midnightblue" points="271.34,-17.53 260.93,-19.52 270.31,-24.46 271.34,-17.53"/>
</g>
<!-- Node12&#45;&gt;Node9 -->
<g id="edge16" class="edge">
<title>Node12&#45;&gt;Node9</title>
<path fill="none" stroke="midnightblue" d="M546.78,-56.44C528.1,-47.68 498.84,-33.94 477.38,-23.86"/>
<polygon fill="midnightblue" stroke="midnightblue" points="478.68,-20.6 468.14,-19.52 475.7,-26.93 478.68,-20.6"/>
</g>
<!-- Node13 -->
<g id="node13" class="node">
<title>Node13</title>
<g id="a_node13"><a xlink:title=" ">
<polygon fill="white" stroke="#bfbfbf" points="489,-0.5 489,-19.5 541,-19.5 541,-0.5 489,-0.5"/>
<text text-anchor="middle" x="515" y="-7.5" font-family="Helvetica,sans-Serif" font-size="10.00">cassert</text>
</a>
</g>
</g>
<!-- Node12&#45;&gt;Node13 -->
<g id="edge17" class="edge">
<title>Node12&#45;&gt;Node13</title>
<path fill="none" stroke="midnightblue" d="M556.74,-56.08C549.54,-48.3 538.89,-36.8 530.15,-27.37"/>
<polygon fill="midnightblue" stroke="midnightblue" points="532.47,-24.71 523.1,-19.75 527.33,-29.47 532.47,-24.71"/>
</g>
<!-- Node14 -->
<g id="node14" class="node">
<title>Node14</title>
<g id="a_node14"><a xlink:title=" ">
<polygon fill="white" stroke="#bfbfbf" points="559.5,-0.5 559.5,-19.5 628.5,-19.5 628.5,-0.5 559.5,-0.5"/>
<text text-anchor="middle" x="594" y="-7.5" font-family="Helvetica,sans-Serif" font-size="10.00">type_traits</text>
</a>
</g>
</g>
<!-- Node12&#45;&gt;Node14 -->
<g id="edge18" class="edge">
<title>Node12&#45;&gt;Node14</title>
<path fill="none" stroke="midnightblue" d="M569.79,-56.08C573.76,-48.69 579.53,-37.95 584.43,-28.81"/>
<polygon fill="midnightblue" stroke="midnightblue" points="587.65,-30.22 589.3,-19.75 581.49,-26.91 587.65,-30.22"/>
</g>
<!-- Node15 -->
<g id="node15" class="node">
<title>Node15</title>
<g id="a_node15"><a xlink:title=" ">
<polygon fill="white" stroke="#bfbfbf" points="646.5,-0.5 646.5,-19.5 693.5,-19.5 693.5,-0.5 646.5,-0.5"/>
<text text-anchor="middle" x="670" y="-7.5" font-family="Helvetica,sans-Serif" font-size="10.00">cmath</text>
</a>
</g>
</g>
<!-- Node12&#45;&gt;Node15 -->
<g id="edge19" class="edge">
<title>Node12&#45;&gt;Node15</title>
<path fill="none" stroke="midnightblue" d="M581.87,-56.32C598.71,-47.66 624.81,-34.24 644.24,-24.25"/>
<polygon fill="midnightblue" stroke="midnightblue" points="645.88,-27.34 653.17,-19.65 642.68,-21.12 645.88,-27.34"/>
</g>
</g>
</svg>
        <g id="navigator" transform="translate(0 0)" fill="#404254">
                <rect fill="#f2f5e9" fill-opacity="0.5" stroke="#606060" stroke-width=".5" x="0" y="0" width="60" height="60"/>
                <use id="zoomplus" xlink:href="#zoomPlus" x="17" y="9" onmousedown="handleZoom(evt,'in')"/>
                <use id="zoomminus" xlink:href="#zoomMin" x="42" y="9" onmousedown="handleZoom(evt,'out')"/>
                <use id="reset" xlink:href="#resetDef" x="30" y="36" onmousedown="handleReset()"/>
                <g id="arrowUp" xlink:href="#dirArrow" transform="translate(30 24)" onmousedown="handlePan(0,-1)">
                  <use xlink:href="#rim" fill="#404040">
                        <set attributeName="fill" to="#808080" begin="arrowUp.mouseover" end="arrowUp.mouseout"/>
                  </use>
                  <path fill="none" stroke="white" stroke-width="1.5" d="M0,-3.0v7 M-2.5,-0.5L0,-3.0L2.5,-0.5"/>
                </g>
                <g id="arrowRight" xlink:href="#dirArrow" transform="rotate(90) translate(36 -43)" onmousedown="handlePan(1,0)">
                  <use xlink:href="#rim" fill="#404040">
                        <set attributeName="fill" to="#808080" begin="arrowRight.mouseover" end="arrowRight.mouseout"/>
                  </use>
                  <path fill="none" stroke="white" stroke-width="1.5" d="M0,-3.0v7 M-2.5,-0.5L0,-3.0L2.5,-0.5"/>
                </g>
                <g id="arrowDown" xlink:href="#dirArrow" transform="rotate(180) translate(-30 -48)" onmousedown="handlePan(0,1)">
                  <use xlink:href="#rim" fill="#404040">
                        <set attributeName="fill" to="#808080" begin="arrowDown.mouseover" end="arrowDown.mouseout"/>
                  </use>
                  <path fill="none" stroke="white" stroke-width="1.5" d="M0,-3.0v7 M-2.5,-0.5L0,-3.0L2.5,-0.5"/>
                </g>
                <g id="arrowLeft" xlink:href="#dirArrow" transform="rotate(270) translate(-36 17)" onmousedown="handlePan(-1,0)">
                  <use xlink:href="#rim" fill="#404040">
                        <set attributeName="fill" to="#808080" begin="arrowLeft.mouseover" end="arrowLeft.mouseout"/>
                  </use>
                  <path fill="none" stroke="white" stroke-width="1.5" d="M0,-3.0v7 M-2.5,-0.5L0,-3.0L2.5,-0.5"/>
                </g>
        </g>
        <svg viewBox="0 0 15 15" width="100%" height="30px" preserveAspectRatio="xMaxYMin meet">
         <g id="arrow_out" transform="scale(0.3 0.3)">
          <a xlink:href="lharmony__CompoundInterval_8h__incl_org.svg" target="_base">
           <rect id="button" ry="5" rx="5" y="6" x="6" height="38" width="38"
                fill="#f2f5e9" fill-opacity="0.5" stroke="#606060" stroke-width="1.0"/>
           <path id="arrow"
             d="M 11.500037,31.436501 C 11.940474,20.09759 22.043105,11.32322 32.158766,21.979434 L 37.068811,17.246167 C 37.068811,17.246167 37.088388,32 37.088388,32 L 22.160133,31.978069 C 22.160133,31.978069 26.997745,27.140456 26.997745,27.140456 C 18.528582,18.264221 13.291696,25.230495 11.500037,31.436501 z"
             style="fill:#404040;"/>
          </a>
         </g>
        </svg>
</svg>
