<?xml version="1.0" encoding="UTF-8" standalone="no"?>
<!DOCTYPE svg PUBLIC "-//W3C//DTD SVG 1.1//EN"
 "http://www.w3.org/Graphics/SVG/1.1/DTD/svg11.dtd">
<!-- Generated by graphviz version 8.0.5 (20230430.1635)
 -->
<!-- Title: lharmony_OvertoneSeries.h Pages: 1 -->
<!--zoomable 304 -->

<svg id="main" version="1.1" xmlns="http://www.w3.org/2000/svg" xmlns:xlink="http://www.w3.org/1999/xlink" xml:space="preserve" onload="init(evt)">
<style type="text/css"><![CDATA[
.node, .edge {opacity: 0.7;}
.node.selected, .edge.selected {opacity: 1;}
.edge:hover path { stroke: red; }
.edge:hover polygon { stroke: red; fill: red; }
]]></style>

<defs>
  <circle id="rim" cx="0" cy="0" r="7"/>
  <circle id="rim2" cx="0" cy="0" r="3.5"/>
  <g id="zoomPlus">
    <use xlink:href="#rim" fill="#404040"><set attributeName="fill" to="#808080" begin="zoomplus.mouseover" end="zoomplus.mouseout"/></use>
    <path d="M-4,0h8M0,-4v8" fill="none" stroke="white" stroke-width="1.5" pointer-events="none"/>
  </g>
  <g id="zoomMin">
    <use xlink:href="#rim" fill="#404040"><set attributeName="fill" to="#808080" begin="zoomminus.mouseover" end="zoomminus.mouseout"/></use>
    <path d="M-4,0h8" fill="none" stroke="white" stroke-width="1.5" pointer-events="none"/>
  </g>
  <g id="arrowUp" transform="translate(30 24)">
    <use xlink:href="#rim"/>
    <path pointer-events="none" fill="none" stroke="white" stroke-width="1.5" d="M0,-3.0v7 M-2.5,-0.5L0,-3.0L2.5,-0.5"/>
  </g>
  <g id="arrowRight" transform="rotate(90) translate(36 -43)">
    <use xlink:href="#rim"/>
    <path pointer-events="none" fill="none" stroke="white" stroke-width="1.5" d="M0,-3.0v7 M-2.5,-0.5L0,-3.0L2.5,-0.5"/>
  </g>
  <g id="arrowDown" transform="rotate(180) translate(-30 -48)">
    <use xlink:href="#rim"/>
    <path pointer-events="none" fill="none" stroke="white" stroke-width="1.5" d="M0,-3.0v7 M-2.5,-0.5L0,-3.0L2.5,-0.5"/>
  </g>
  <g id="arrowLeft" transform="rotate(270) translate(-36 17)">
    <use xlink:href="#rim"/>
    <path pointer-events="none" fill="none" stroke="white" stroke-width="1.5" d="M0,-3.0v7 M-2.5,-0.5L0,-3.0L2.5,-0.5"/>
  </g>
  <g id="resetDef">
    <use xlink:href="#rim2" fill="#404040"><set attributeName="fill" to="#808080" begin="reset.mouseover" end="reset.mouseout"/></use>
  </g>
</defs>
<script type="application/ecmascript">
var viewWidth = 657;
var viewHeight = 304;
var sectionId = 'dynsection-0';
</script>
<script type="application/ecmascript" xlink:href="svg.min.js"/>
<svg id="graph" class="graph">
<g id="viewport">
<title>lharmony_OvertoneSeries.h</title>
<!-- Node1 -->
<g id="Node000001" class="node">
<title>Node1</title>
<g id="a_Node000001"><a xlink:title="This file defines the OvertoneSeries class.">
<polygon fill="#999999" stroke="#666666" points="593.5,-295.5 456.75,-295.5 456.75,-276.25 593.5,-276.25 593.5,-295.5"/>
<text text-anchor="middle" x="525.12" y="-282" font-family="Helvetica,sans-Serif" font-size="10.00">lharmony_OvertoneSeries.h</text>
</a>
</g>
</g>
<!-- Node2 -->
<g id="Node000002" class="node">
<title>Node2</title>
<g id="a_Node000002"><a xlink:title=" ">
<polygon fill="#e0e0e0" stroke="#999999" points="527.38,-19.25 386.88,-19.25 386.88,0 527.38,0 527.38,-19.25"/>
<text text-anchor="middle" x="457.12" y="-5.75" font-family="Helvetica,sans-Serif" font-size="10.00">lharmony/lharmony_Export.h</text>
</a>
</g>
</g>
<!-- Node1&#45;&gt;Node2 -->
<g id="edge1_Node000001_Node000002" class="edge">
<title>Node1&#45;&gt;Node2</title>
<g id="a_edge1_Node000001_Node000002"><a xlink:title=" ">
<path fill="none" stroke="#63b8ff" d="M550.52,-275.85C586.8,-261.13 649.12,-228.29 649.12,-176.38 649.12,-176.38 649.12,-176.38 649.12,-119.12 649.12,-62.68 585.45,-35.26 531.44,-22.16"/>
<polygon fill="#63b8ff" stroke="#63b8ff" points="532.32,-18.54 521.79,-19.73 530.76,-25.37 532.32,-18.54"/>
</a>
</g>
</g>
<!-- Node3 -->
<g id="Node000003" class="node">
<title>Node3</title>
<g id="a_Node000003"><a xlink:href="lharmony___pitch_8h.html" target="_top" xlink:title="This file defines the Pitch class.">
<polygon fill="white" stroke="#666666" points="463.38,-185 328.88,-185 328.88,-165.75 463.38,-165.75 463.38,-185"/>
<text text-anchor="middle" x="396.12" y="-171.5" font-family="Helvetica,sans-Serif" font-size="10.00">lharmony/lharmony_Pitch.h</text>
</a>
</g>
</g>
<!-- Node1&#45;&gt;Node3 -->
<g id="edge2_Node000001_Node000003" class="edge">
<title>Node1&#45;&gt;Node3</title>
<g id="a_edge2_Node000001_Node000003"><a xlink:title=" ">
<path fill="none" stroke="#63b8ff" d="M503.27,-275.91C486.01,-268.14 461.95,-255.72 444.12,-240.25 428.78,-226.93 415.29,-207.95 406.54,-194.14"/>
<polygon fill="#63b8ff" stroke="#63b8ff" points="409.26,-192.86 401.06,-186.15 403.28,-196.51 409.26,-192.86"/>
</a>
</g>
</g>
<!-- Node13 -->
<g id="Node000013" class="node">
<title>Node13</title>
<g id="a_Node000013"><a xlink:href="lharmony___interval_8h.html" target="_top" xlink:title="This file defines the Interval class.">
<polygon fill="white" stroke="#666666" points="597.25,-240.25 453,-240.25 453,-221 597.25,-221 597.25,-240.25"/>
<text text-anchor="middle" x="525.12" y="-226.75" font-family="Helvetica,sans-Serif" font-size="10.00">lharmony/lharmony_Interval.h</text>
</a>
</g>
</g>
<!-- Node1&#45;&gt;Node13 -->
<g id="edge17_Node000001_Node000013" class="edge">
<title>Node1&#45;&gt;Node13</title>
<g id="a_edge17_Node000001_Node000013"><a xlink:title=" ">
<path fill="none" stroke="#63b8ff" d="M525.12,-276.08C525.12,-269.42 525.12,-259.99 525.12,-251.53"/>
<polygon fill="#63b8ff" stroke="#63b8ff" points="528.63,-251.61 525.12,-241.61 521.63,-251.61 528.63,-251.61"/>
</a>
</g>
</g>
<!-- Node3&#45;&gt;Node2 -->
<g id="edge4_Node000003_Node000002" class="edge">
<title>Node3&#45;&gt;Node2</title>
<g id="a_edge4_Node000003_Node000002"><a xlink:title=" ">
<path fill="none" stroke="#63b8ff" d="M399.4,-165.57C408.96,-139.92 436.94,-64.8 450.11,-29.44"/>
<polygon fill="#63b8ff" stroke="#63b8ff" points="453.62,-31.07 453.83,-20.47 447.06,-28.62 453.62,-31.07"/>
</a>
</g>
</g>
<!-- Node4 -->
<g id="Node000004" class="node">
<title>Node4</title>
<g id="a_Node000004"><a xlink:title=" ">
<polygon fill="#e0e0e0" stroke="#999999" points="520.75,-129.75 469.5,-129.75 469.5,-110.5 520.75,-110.5 520.75,-129.75"/>
<text text-anchor="middle" x="495.12" y="-116.25" font-family="Helvetica,sans-Serif" font-size="10.00">ostream</text>
</a>
</g>
</g>
<!-- Node3&#45;&gt;Node4 -->
<g id="edge3_Node000003_Node000004" class="edge">
<title>Node3&#45;&gt;Node4</title>
<g id="a_edge3_Node000003_Node000004"><a xlink:title=" ">
<path fill="none" stroke="#63b8ff" d="M412.92,-165.34C428.28,-157.08 451.24,-144.73 469,-135.18"/>
<polygon fill="#63b8ff" stroke="#63b8ff" points="470.1,-138.02 477.25,-130.2 466.78,-131.86 470.1,-138.02"/>
</a>
</g>
</g>
<!-- Node5 -->
<g id="Node000005" class="node">
<title>Node5</title>
<g id="a_Node000005"><a xlink:href="lharmony___pitch_class_8h.html" target="_top" xlink:title="This file defines the PitchClass class.">
<polygon fill="white" stroke="#666666" points="382.12,-129.75 222.12,-129.75 222.12,-110.5 382.12,-110.5 382.12,-129.75"/>
<text text-anchor="middle" x="302.12" y="-116.25" font-family="Helvetica,sans-Serif" font-size="10.00">lharmony/lharmony_PitchClass.h</text>
</a>
</g>
</g>
<!-- Node3&#45;&gt;Node5 -->
<g id="edge5_Node000003_Node000005" class="edge">
<title>Node3&#45;&gt;Node5</title>
<g id="a_edge5_Node000003_Node000005"><a xlink:title=" ">
<path fill="none" stroke="#63b8ff" d="M380.18,-165.34C365.73,-157.16 344.19,-144.96 327.4,-135.44"/>
<polygon fill="#63b8ff" stroke="#63b8ff" points="329.58,-132.09 319.15,-130.2 326.12,-138.18 329.58,-132.09"/>
</a>
</g>
</g>
<!-- Node9 -->
<g id="Node000009" class="node">
<title>Node9</title>
<g id="a_Node000009"><a xlink:href="lharmony___pitch_utils_8h.html" target="_top" xlink:title="This file contains miscellaneous pitch utilities.">
<polygon fill="white" stroke="#666666" points="197.5,-74.5 42.75,-74.5 42.75,-55.25 197.5,-55.25 197.5,-74.5"/>
<text text-anchor="middle" x="120.12" y="-61" font-family="Helvetica,sans-Serif" font-size="10.00">lharmony/lharmony_PitchUtils.h</text>
</a>
</g>
</g>
<!-- Node3&#45;&gt;Node9 -->
<g id="edge16_Node000003_Node000009" class="edge">
<title>Node3&#45;&gt;Node9</title>
<g id="a_edge16_Node000003_Node000009"><a xlink:title=" ">
<path fill="none" stroke="#63b8ff" d="M335.39,-165.28C298.88,-158.43 252.08,-147.17 213.12,-129.75 185.26,-117.29 156.86,-96.33 138.9,-81.84"/>
<polygon fill="#63b8ff" stroke="#63b8ff" points="141.46,-78.59 131.52,-74.93 137.01,-83.99 141.46,-78.59"/>
</a>
</g>
</g>
<!-- Node5&#45;&gt;Node2 -->
<g id="edge9_Node000005_Node000002" class="edge">
<title>Node5&#45;&gt;Node2</title>
<g id="a_edge9_Node000005_Node000002"><a xlink:title=" ">
<path fill="none" stroke="#63b8ff" d="M329.54,-110.14C350.15,-102.59 378.45,-90.46 400.12,-74.5 417.82,-61.47 434.09,-42.18 444.68,-28.21"/>
<polygon fill="#63b8ff" stroke="#63b8ff" points="447.96,-30.66 451.05,-20.53 442.31,-26.52 447.96,-30.66"/>
</a>
</g>
</g>
<!-- Node6 -->
<g id="Node000006" class="node">
<title>Node6</title>
<g id="a_Node000006"><a xlink:title=" ">
<polygon fill="#e0e0e0" stroke="#999999" points="244,-19.25 206.25,-19.25 206.25,0 244,0 244,-19.25"/>
<text text-anchor="middle" x="225.12" y="-5.75" font-family="Helvetica,sans-Serif" font-size="10.00">array</text>
</a>
</g>
</g>
<!-- Node5&#45;&gt;Node6 -->
<g id="edge6_Node000005_Node000006" class="edge">
<title>Node5&#45;&gt;Node6</title>
<g id="a_edge6_Node000005_Node000006"><a xlink:title=" ">
<path fill="none" stroke="#63b8ff" d="M285.29,-110.12C272.26,-102.32 254.7,-89.89 244.12,-74.5 235.1,-61.36 230.28,-43.86 227.76,-30.49"/>
<polygon fill="#63b8ff" stroke="#63b8ff" points="231.06,-29.96 226.04,-20.63 224.15,-31.06 231.06,-29.96"/>
</a>
</g>
</g>
<!-- Node7 -->
<g id="Node000007" class="node">
<title>Node7</title>
<g id="a_Node000007"><a xlink:title=" ">
<polygon fill="#e0e0e0" stroke="#999999" points="318.88,-74.5 253.38,-74.5 253.38,-55.25 318.88,-55.25 318.88,-74.5"/>
<text text-anchor="middle" x="286.12" y="-61" font-family="Helvetica,sans-Serif" font-size="10.00">string_view</text>
</a>
</g>
</g>
<!-- Node5&#45;&gt;Node7 -->
<g id="edge7_Node000005_Node000007" class="edge">
<title>Node5&#45;&gt;Node7</title>
<g id="a_edge7_Node000005_Node000007"><a xlink:title=" ">
<path fill="none" stroke="#63b8ff" d="M299.48,-110.33C297.43,-103.51 294.52,-93.81 291.93,-85.2"/>
<polygon fill="#63b8ff" stroke="#63b8ff" points="295.05,-84.43 288.82,-75.86 288.35,-86.44 295.05,-84.43"/>
</a>
</g>
</g>
<!-- Node8 -->
<g id="Node000008" class="node">
<title>Node8</title>
<g id="a_Node000008"><a xlink:title=" ">
<polygon fill="#e0e0e0" stroke="#999999" points="390.88,-74.5 337.38,-74.5 337.38,-55.25 390.88,-55.25 390.88,-74.5"/>
<text text-anchor="middle" x="364.12" y="-61" font-family="Helvetica,sans-Serif" font-size="10.00">iostream</text>
</a>
</g>
</g>
<!-- Node5&#45;&gt;Node8 -->
<g id="edge8_Node000005_Node000008" class="edge">
<title>Node5&#45;&gt;Node8</title>
<g id="a_edge8_Node000005_Node000008"><a xlink:title=" ">
<path fill="none" stroke="#63b8ff" d="M312.64,-110.09C321.6,-102.4 334.7,-91.15 345.44,-81.93"/>
<polygon fill="#63b8ff" stroke="#63b8ff" points="347.46,-83.95 352.76,-74.77 342.9,-78.64 347.46,-83.95"/>
</a>
</g>
</g>
<!-- Node5&#45;&gt;Node9 -->
<g id="edge10_Node000005_Node000009" class="edge">
<title>Node5&#45;&gt;Node9</title>
<g id="a_edge10_Node000005_Node000009"><a xlink:title=" ">
<path fill="none" stroke="#63b8ff" d="M271.25,-110.09C241.05,-101.26 194.86,-87.74 161.5,-77.98"/>
<polygon fill="#63b8ff" stroke="#63b8ff" points="162.73,-74.4 152.15,-74.95 160.77,-81.12 162.73,-74.4"/>
</a>
</g>
</g>
<!-- Node9&#45;&gt;Node2 -->
<g id="edge15_Node000009_Node000002" class="edge">
<title>Node9&#45;&gt;Node2</title>
<g id="a_edge15_Node000009_Node000002"><a xlink:title=" ">
<path fill="none" stroke="#63b8ff" d="M177.67,-54.78C236.11,-45.55 326.59,-31.25 388.67,-21.44"/>
<polygon fill="#63b8ff" stroke="#63b8ff" points="389.2,-24.74 398.53,-19.73 388.11,-17.83 389.2,-24.74"/>
</a>
</g>
</g>
<!-- Node9&#45;&gt;Node6 -->
<g id="edge11_Node000009_Node000006" class="edge">
<title>Node9&#45;&gt;Node6</title>
<g id="a_edge11_Node000009_Node000006"><a xlink:title=" ">
<path fill="none" stroke="#63b8ff" d="M137.94,-54.84C154.23,-46.58 178.59,-34.23 197.42,-24.68"/>
<polygon fill="#63b8ff" stroke="#63b8ff" points="198.89,-27.35 206.23,-19.7 195.72,-21.1 198.89,-27.35"/>
</a>
</g>
</g>
<!-- Node10 -->
<g id="Node000010" class="node">
<title>Node10</title>
<g id="a_Node000010"><a xlink:title=" ">
<polygon fill="#e0e0e0" stroke="#999999" points="48.25,-19.25 0,-19.25 0,0 48.25,0 48.25,-19.25"/>
<text text-anchor="middle" x="24.12" y="-5.75" font-family="Helvetica,sans-Serif" font-size="10.00">cassert</text>
</a>
</g>
</g>
<!-- Node9&#45;&gt;Node10 -->
<g id="edge12_Node000009_Node000010" class="edge">
<title>Node9&#45;&gt;Node10</title>
<g id="a_edge12_Node000009_Node000010"><a xlink:title=" ">
<path fill="none" stroke="#63b8ff" d="M103.84,-54.84C89.08,-46.66 67.09,-34.46 49.94,-24.94"/>
<polygon fill="#63b8ff" stroke="#63b8ff" points="51.93,-21.49 41.49,-19.7 48.54,-27.61 51.93,-21.49"/>
</a>
</g>
</g>
<!-- Node11 -->
<g id="Node000011" class="node">
<title>Node11</title>
<g id="a_Node000011"><a xlink:title=" ">
<polygon fill="#e0e0e0" stroke="#999999" points="128,-19.25 66.25,-19.25 66.25,0 128,0 128,-19.25"/>
<text text-anchor="middle" x="97.12" y="-5.75" font-family="Helvetica,sans-Serif" font-size="10.00">type_traits</text>
</a>
</g>
</g>
<!-- Node9&#45;&gt;Node11 -->
<g id="edge13_Node000009_Node000011" class="edge">
<title>Node9&#45;&gt;Node11</title>
<g id="a_edge13_Node000009_Node000011"><a xlink:title=" ">
<path fill="none" stroke="#63b8ff" d="M116.33,-55.08C113.35,-48.19 109.09,-38.34 105.35,-29.66"/>
<polygon fill="#63b8ff" stroke="#63b8ff" points="108.18,-28.4 101.01,-20.61 101.76,-31.18 108.18,-28.4"/>
</a>
</g>
</g>
<!-- Node12 -->
<g id="Node000012" class="node">
<title>Node12</title>
<g id="a_Node000012"><a xlink:title=" ">
<polygon fill="#e0e0e0" stroke="#999999" points="188.62,-19.25 145.62,-19.25 145.62,0 188.62,0 188.62,-19.25"/>
<text text-anchor="middle" x="167.12" y="-5.75" font-family="Helvetica,sans-Serif" font-size="10.00">cmath</text>
</a>
</g>
</g>
<!-- Node9&#45;&gt;Node12 -->
<g id="edge14_Node000009_Node000012" class="edge">
<title>Node9&#45;&gt;Node12</title>
<g id="a_edge14_Node000009_Node000012"><a xlink:title=" ">
<path fill="none" stroke="#63b8ff" d="M127.89,-55.08C134.45,-47.65 144.03,-36.79 152.09,-27.66"/>
<polygon fill="#63b8ff" stroke="#63b8ff" points="154.2,-30.42 158.2,-20.61 148.95,-25.79 154.2,-30.42"/>
</a>
</g>
</g>
<!-- Node13&#45;&gt;Node2 -->
<g id="edge20_Node000013_Node000002" class="edge">
<title>Node13&#45;&gt;Node2</title>
<g id="a_edge20_Node000013_Node000002"><a xlink:title=" ">
<path fill="none" stroke="#63b8ff" d="M527.58,-220.67C532.69,-200.43 542.97,-149.85 530.12,-110.5 519.2,-77.04 492.34,-45.48 474.43,-27.11"/>
<polygon fill="#63b8ff" stroke="#63b8ff" points="477.48,-25.21 467.92,-20.64 472.54,-30.17 477.48,-25.21"/>
</a>
</g>
</g>
<!-- Node13&#45;&gt;Node3 -->
<g id="edge21_Node000013_Node000003" class="edge">
<title>Node13&#45;&gt;Node3</title>
<g id="a_edge21_Node000013_Node000003"><a xlink:title=" ">
<path fill="none" stroke="#63b8ff" d="M503.24,-220.59C482.67,-212.1 451.63,-199.29 428.25,-189.64"/>
<polygon fill="#63b8ff" stroke="#63b8ff" points="429.69,-186.03 419.12,-185.45 427.02,-192.5 429.69,-186.03"/>
</a>
</g>
</g>
<!-- Node14 -->
<g id="Node000014" class="node">
<title>Node14</title>
<g id="a_Node000014"><a xlink:title=" ">
<polygon fill="#e0e0e0" stroke="#999999" points="620.62,-185 577.62,-185 577.62,-165.75 620.62,-165.75 620.62,-185"/>
<text text-anchor="middle" x="599.12" y="-171.5" font-family="Helvetica,sans-Serif" font-size="10.00">vector</text>
</a>
</g>
</g>
<!-- Node13&#45;&gt;Node14 -->
<g id="edge18_Node000013_Node000014" class="edge">
<title>Node13&#45;&gt;Node14</title>
<g id="a_edge18_Node000013_Node000014"><a xlink:title=" ">
<path fill="none" stroke="#63b8ff" d="M537.68,-220.59C548.69,-212.66 564.94,-200.97 577.97,-191.6"/>
<polygon fill="#63b8ff" stroke="#63b8ff" points="579.68,-193.96 585.76,-185.27 575.6,-188.27 579.68,-193.96"/>
</a>
</g>
</g>
<!-- Node15 -->
<g id="Node000015" class="node">
<title>Node15</title>
<g id="a_Node000015"><a xlink:title=" ">
<polygon fill="#e0e0e0" stroke="#999999" points="521.12,-185 481.12,-185 481.12,-165.75 521.12,-165.75 521.12,-185"/>
<text text-anchor="middle" x="501.12" y="-171.5" font-family="Helvetica,sans-Serif" font-size="10.00">string</text>
</a>
</g>
</g>
<!-- Node13&#45;&gt;Node15 -->
<g id="edge19_Node000013_Node000015" class="edge">
<title>Node13&#45;&gt;Node15</title>
<g id="a_edge19_Node000013_Node000015"><a xlink:title=" ">
<path fill="none" stroke="#63b8ff" d="M521.16,-220.83C518.02,-213.86 513.52,-203.87 509.57,-195.12"/>
<polygon fill="#63b8ff" stroke="#63b8ff" points="512.47,-194.04 505.17,-186.36 506.09,-196.91 512.47,-194.04"/>
</a>
</g>
</g>
</g>
</svg>

<g id="navigator" transform="translate(0 0)" fill="#404254">
  <rect fill="#f2f5e9" fill-opacity="0.5" stroke="#606060" stroke-width=".5" x="0" y="0" width="60" height="60"/>
  <use id="zoomplus" xlink:href="#zoomPlus" x="17" y="9" onmousedown="handleZoom(evt,'in')"/>
  <use id="zoomminus" xlink:href="#zoomMin" x="42" y="9" onmousedown="handleZoom(evt,'out')"/>
  <use id="reset" xlink:href="#resetDef" x="30" y="36" onmousedown="handleReset()"/>
   <use id="arrowup" xlink:href="#arrowUp" x="0" y="0" onmousedown="handlePan(0,-1)"/>
  <use id="arrowright" xlink:href="#arrowRight" x="0" y="0" onmousedown="handlePan(1,0)"/>
  <use id="arrowdown" xlink:href="#arrowDown" x="0" y="0" onmousedown="handlePan(0,1)"/>
  <use id="arrowleft" xlink:href="#arrowLeft" x="0" y="0" onmousedown="handlePan(-1,0)"/>
</g>
<svg viewBox="0 0 15 15" width="100%" height="30px" preserveAspectRatio="xMaxYMin meet">
 <g id="arrow_out" transform="scale(0.3 0.3)">
  <a xlink:href="lharmony___overtone_series_8h__incl_org.svg" target="_base">
   <rect id="button" ry="5" rx="5" y="6" x="6" height="38" width="38"
        fill="#f2f5e9" fill-opacity="0.5" stroke="#606060" stroke-width="1.0"/>
   <path id="arrow"
     d="M 11.500037,31.436501 C 11.940474,20.09759 22.043105,11.32322 32.158766,21.979434 L 37.068811,17.246167 C 37.068811,17.246167 37.088388,32 37.088388,32 L 22.160133,31.978069 C 22.160133,31.978069 26.997745,27.140456 26.997745,27.140456 C 18.528582,18.264221 13.291696,25.230495 11.500037,31.436501 z"
     style="fill:#404040;"/>
  </a>
 </g>
</svg>

<style type='text/css'>
<![CDATA[
[data-mouse-over-selected='false'] { opacity: 0.7; }
[data-mouse-over-selected='true']  { opacity: 1.0; }
]]>
</style>
<script type="application/ecmascript"><![CDATA[
document.addEventListener('DOMContentLoaded', (event) => {
  highlightEdges();
  highlightAdjacentNodes();
});
]]></script>
</svg>
