<?xml version="1.0" encoding="UTF-8" standalone="no"?>
<!DOCTYPE svg PUBLIC "-//W3C//DTD SVG 1.1//EN"
 "http://www.w3.org/Graphics/SVG/1.1/DTD/svg11.dtd">
<!-- Generated by graphviz version 2.43.0 (0)
 -->
<!-- Title: lharmony_Chord.h Pages: 1 -->
<svg width="671pt" height="252pt"
 viewBox="0.00 0.00 670.50 252.00" xmlns="http://www.w3.org/2000/svg" xmlns:xlink="http://www.w3.org/1999/xlink">
<g id="graph0" class="graph" transform="scale(1 1) rotate(0) translate(4 248)">
<title>lharmony_Chord.h</title>
<polygon fill="white" stroke="transparent" points="-4,4 -4,-248 666.5,-248 666.5,4 -4,4"/>
<!-- Node1 -->
<g id="node1" class="node">
<title>Node1</title>
<g id="a_node1"><a xlink:title="This file defines the Chord class.">
<polygon fill="#bfbfbf" stroke="black" points="97.5,-224.5 97.5,-243.5 203.5,-243.5 203.5,-224.5 97.5,-224.5"/>
<text text-anchor="middle" x="150.5" y="-231.5" font-family="Helvetica,sans-Serif" font-size="10.00">lharmony_Chord.h</text>
</a>
</g>
</g>
<!-- Node2 -->
<g id="node2" class="node">
<title>Node2</title>
<g id="a_node2"><a xlink:title=" ">
<polygon fill="white" stroke="#bfbfbf" points="0,-168.5 0,-187.5 83,-187.5 83,-168.5 0,-168.5"/>
<text text-anchor="middle" x="41.5" y="-175.5" font-family="Helvetica,sans-Serif" font-size="10.00">initializer_list</text>
</a>
</g>
</g>
<!-- Node1&#45;&gt;Node2 -->
<g id="edge1" class="edge">
<title>Node1&#45;&gt;Node2</title>
<path fill="none" stroke="midnightblue" d="M132.99,-224.32C115.43,-215.62 88.17,-202.12 67.97,-192.11"/>
<polygon fill="midnightblue" stroke="midnightblue" points="69.48,-188.96 58.97,-187.65 66.38,-195.23 69.48,-188.96"/>
</g>
<!-- Node3 -->
<g id="node3" class="node">
<title>Node3</title>
<g id="a_node3"><a xlink:title=" ">
<polygon fill="white" stroke="#bfbfbf" points="101,-168.5 101,-187.5 148,-187.5 148,-168.5 101,-168.5"/>
<text text-anchor="middle" x="124.5" y="-175.5" font-family="Helvetica,sans-Serif" font-size="10.00">vector</text>
</a>
</g>
</g>
<!-- Node1&#45;&gt;Node3 -->
<g id="edge2" class="edge">
<title>Node1&#45;&gt;Node3</title>
<path fill="none" stroke="midnightblue" d="M146.21,-224.08C142.65,-216.69 137.48,-205.95 133.08,-196.81"/>
<polygon fill="midnightblue" stroke="midnightblue" points="136.21,-195.24 128.71,-187.75 129.9,-198.28 136.21,-195.24"/>
</g>
<!-- Node4 -->
<g id="node4" class="node">
<title>Node4</title>
<g id="a_node4"><a xlink:title=" ">
<polygon fill="white" stroke="#bfbfbf" points="97.5,-0.5 97.5,-19.5 255.5,-19.5 255.5,-0.5 97.5,-0.5"/>
<text text-anchor="middle" x="176.5" y="-7.5" font-family="Helvetica,sans-Serif" font-size="10.00">lharmony/lharmony_Export.h</text>
</a>
</g>
</g>
<!-- Node1&#45;&gt;Node4 -->
<g id="edge3" class="edge">
<title>Node1&#45;&gt;Node4</title>
<path fill="none" stroke="midnightblue" d="M151.7,-224.38C152.95,-215.33 154.94,-200.67 156.5,-188 163.57,-130.59 170.98,-62.59 174.47,-30.12"/>
<polygon fill="midnightblue" stroke="midnightblue" points="177.98,-30.16 175.56,-19.85 171.02,-29.42 177.98,-30.16"/>
</g>
<!-- Node5 -->
<g id="node5" class="node">
<title>Node5</title>
<g id="a_node5"><a xlink:href="lharmony__Pitch_8h.html" target="_top" xlink:title="This file defines the Pitch class.">
<polygon fill="white" stroke="black" points="209,-168.5 209,-187.5 360,-187.5 360,-168.5 209,-168.5"/>
<text text-anchor="middle" x="284.5" y="-175.5" font-family="Helvetica,sans-Serif" font-size="10.00">lharmony/lharmony_Pitch.h</text>
</a>
</g>
</g>
<!-- Node1&#45;&gt;Node5 -->
<g id="edge4" class="edge">
<title>Node1&#45;&gt;Node5</title>
<path fill="none" stroke="midnightblue" d="M171.73,-224.44C193.88,-215.52 228.82,-201.44 253.94,-191.32"/>
<polygon fill="midnightblue" stroke="midnightblue" points="255.4,-194.5 263.37,-187.52 252.78,-188.01 255.4,-194.5"/>
</g>
<!-- Node5&#45;&gt;Node4 -->
<g id="edge6" class="edge">
<title>Node5&#45;&gt;Node4</title>
<path fill="none" stroke="midnightblue" d="M276.45,-168.41C268.4,-159.62 255.91,-145.38 246.5,-132 221.83,-96.91 197.85,-52.6 185.38,-28.52"/>
<polygon fill="midnightblue" stroke="midnightblue" points="188.44,-26.83 180.77,-19.53 182.22,-30.02 188.44,-26.83"/>
</g>
<!-- Node6 -->
<g id="node6" class="node">
<title>Node6</title>
<g id="a_node6"><a xlink:title=" ">
<polygon fill="white" stroke="#bfbfbf" points="256,-112.5 256,-131.5 313,-131.5 313,-112.5 256,-112.5"/>
<text text-anchor="middle" x="284.5" y="-119.5" font-family="Helvetica,sans-Serif" font-size="10.00">ostream</text>
</a>
</g>
</g>
<!-- Node5&#45;&gt;Node6 -->
<g id="edge5" class="edge">
<title>Node5&#45;&gt;Node6</title>
<path fill="none" stroke="midnightblue" d="M284.5,-168.08C284.5,-161.01 284.5,-150.86 284.5,-141.99"/>
<polygon fill="midnightblue" stroke="midnightblue" points="288,-141.75 284.5,-131.75 281,-141.75 288,-141.75"/>
</g>
<!-- Node7 -->
<g id="node7" class="node">
<title>Node7</title>
<g id="a_node7"><a xlink:href="lharmony__PitchClass_8h.html" target="_top" xlink:title="This file defines the PitchClass class.">
<polygon fill="white" stroke="black" points="390,-112.5 390,-131.5 567,-131.5 567,-112.5 390,-112.5"/>
<text text-anchor="middle" x="478.5" y="-119.5" font-family="Helvetica,sans-Serif" font-size="10.00">lharmony/lharmony_PitchClass.h</text>
</a>
</g>
</g>
<!-- Node5&#45;&gt;Node7 -->
<g id="edge7" class="edge">
<title>Node5&#45;&gt;Node7</title>
<path fill="none" stroke="midnightblue" d="M315.24,-168.44C348.44,-159.2 401.49,-144.44 438.06,-134.26"/>
<polygon fill="midnightblue" stroke="midnightblue" points="439.21,-137.57 447.9,-131.52 437.33,-130.83 439.21,-137.57"/>
</g>
<!-- Node11 -->
<g id="node11" class="node">
<title>Node11</title>
<g id="a_node11"><a xlink:href="lharmony__PitchUtils_8h.html" target="_top" xlink:title="This file contains miscellaneous pitch utilities.">
<polygon fill="white" stroke="black" points="281,-56.5 281,-75.5 454,-75.5 454,-56.5 281,-56.5"/>
<text text-anchor="middle" x="367.5" y="-63.5" font-family="Helvetica,sans-Serif" font-size="10.00">lharmony/lharmony_PitchUtils.h</text>
</a>
</g>
</g>
<!-- Node5&#45;&gt;Node11 -->
<g id="edge18" class="edge">
<title>Node5&#45;&gt;Node11</title>
<path fill="none" stroke="midnightblue" d="M292.06,-168.19C299.68,-159.23 311.68,-144.86 321.5,-132 333.65,-116.08 346.78,-97.37 355.89,-84.12"/>
<polygon fill="midnightblue" stroke="midnightblue" points="358.99,-85.79 361.74,-75.55 353.21,-81.84 358.99,-85.79"/>
</g>
<!-- Node7&#45;&gt;Node4 -->
<g id="edge11" class="edge">
<title>Node7&#45;&gt;Node4</title>
<path fill="none" stroke="midnightblue" d="M407.42,-112.48C366.48,-105.89 314.73,-94.64 271.5,-76 242.17,-63.35 212.43,-41.16 194.22,-26.27"/>
<polygon fill="midnightblue" stroke="midnightblue" points="196.19,-23.35 186.27,-19.62 191.7,-28.72 196.19,-23.35"/>
</g>
<!-- Node8 -->
<g id="node8" class="node">
<title>Node8</title>
<g id="a_node8"><a xlink:title=" ">
<polygon fill="white" stroke="#bfbfbf" points="496.5,-0.5 496.5,-19.5 538.5,-19.5 538.5,-0.5 496.5,-0.5"/>
<text text-anchor="middle" x="517.5" y="-7.5" font-family="Helvetica,sans-Serif" font-size="10.00">array</text>
</a>
</g>
</g>
<!-- Node7&#45;&gt;Node8 -->
<g id="edge8" class="edge">
<title>Node7&#45;&gt;Node8</title>
<path fill="none" stroke="midnightblue" d="M481.56,-112.37C487.88,-94.54 502.5,-53.3 511.02,-29.27"/>
<polygon fill="midnightblue" stroke="midnightblue" points="514.41,-30.19 514.45,-19.59 507.81,-27.85 514.41,-30.19"/>
</g>
<!-- Node9 -->
<g id="node9" class="node">
<title>Node9</title>
<g id="a_node9"><a xlink:title=" ">
<polygon fill="white" stroke="#bfbfbf" points="511,-56.5 511,-75.5 584,-75.5 584,-56.5 511,-56.5"/>
<text text-anchor="middle" x="547.5" y="-63.5" font-family="Helvetica,sans-Serif" font-size="10.00">string_view</text>
</a>
</g>
</g>
<!-- Node7&#45;&gt;Node9 -->
<g id="edge9" class="edge">
<title>Node7&#45;&gt;Node9</title>
<path fill="none" stroke="midnightblue" d="M489.59,-112.32C499.99,-104.18 515.76,-91.84 528.22,-82.09"/>
<polygon fill="midnightblue" stroke="midnightblue" points="530.49,-84.75 536.21,-75.83 526.18,-79.24 530.49,-84.75"/>
</g>
<!-- Node10 -->
<g id="node10" class="node">
<title>Node10</title>
<g id="a_node10"><a xlink:title=" ">
<polygon fill="white" stroke="#bfbfbf" points="602.5,-56.5 602.5,-75.5 662.5,-75.5 662.5,-56.5 602.5,-56.5"/>
<text text-anchor="middle" x="632.5" y="-63.5" font-family="Helvetica,sans-Serif" font-size="10.00">iostream</text>
</a>
</g>
</g>
<!-- Node7&#45;&gt;Node10 -->
<g id="edge10" class="edge">
<title>Node7&#45;&gt;Node10</title>
<path fill="none" stroke="midnightblue" d="M502.9,-112.44C528.7,-103.4 569.58,-89.06 598.52,-78.92"/>
<polygon fill="midnightblue" stroke="midnightblue" points="599.93,-82.13 608.21,-75.52 597.62,-75.52 599.93,-82.13"/>
</g>
<!-- Node7&#45;&gt;Node11 -->
<g id="edge12" class="edge">
<title>Node7&#45;&gt;Node11</title>
<path fill="none" stroke="midnightblue" d="M460.67,-112.32C442.78,-103.62 415.02,-90.12 394.45,-80.11"/>
<polygon fill="midnightblue" stroke="midnightblue" points="395.81,-76.88 385.29,-75.65 392.75,-83.18 395.81,-76.88"/>
</g>
<!-- Node11&#45;&gt;Node4 -->
<g id="edge17" class="edge">
<title>Node11&#45;&gt;Node4</title>
<path fill="none" stroke="midnightblue" d="M337.24,-56.44C304.54,-47.2 252.32,-32.44 216.32,-22.26"/>
<polygon fill="midnightblue" stroke="midnightblue" points="217.2,-18.87 206.62,-19.52 215.29,-25.61 217.2,-18.87"/>
</g>
<!-- Node11&#45;&gt;Node8 -->
<g id="edge13" class="edge">
<title>Node11&#45;&gt;Node8</title>
<path fill="none" stroke="midnightblue" d="M391.27,-56.44C417.13,-47.13 458.57,-32.22 486.86,-22.03"/>
<polygon fill="midnightblue" stroke="midnightblue" points="488.05,-25.32 496.27,-18.64 485.67,-18.74 488.05,-25.32"/>
</g>
<!-- Node12 -->
<g id="node12" class="node">
<title>Node12</title>
<g id="a_node12"><a xlink:title=" ">
<polygon fill="white" stroke="#bfbfbf" points="273.5,-0.5 273.5,-19.5 325.5,-19.5 325.5,-0.5 273.5,-0.5"/>
<text text-anchor="middle" x="299.5" y="-7.5" font-family="Helvetica,sans-Serif" font-size="10.00">cassert</text>
</a>
</g>
</g>
<!-- Node11&#45;&gt;Node12 -->
<g id="edge14" class="edge">
<title>Node11&#45;&gt;Node12</title>
<path fill="none" stroke="midnightblue" d="M356.57,-56.32C346.33,-48.18 330.78,-35.84 318.5,-26.09"/>
<polygon fill="midnightblue" stroke="midnightblue" points="320.63,-23.31 310.62,-19.83 316.28,-28.79 320.63,-23.31"/>
</g>
<!-- Node13 -->
<g id="node13" class="node">
<title>Node13</title>
<g id="a_node13"><a xlink:title=" ">
<polygon fill="white" stroke="#bfbfbf" points="344,-0.5 344,-19.5 413,-19.5 413,-0.5 344,-0.5"/>
<text text-anchor="middle" x="378.5" y="-7.5" font-family="Helvetica,sans-Serif" font-size="10.00">type_traits</text>
</a>
</g>
</g>
<!-- Node11&#45;&gt;Node13 -->
<g id="edge15" class="edge">
<title>Node11&#45;&gt;Node13</title>
<path fill="none" stroke="midnightblue" d="M369.32,-56.08C370.77,-48.93 372.87,-38.64 374.69,-29.69"/>
<polygon fill="midnightblue" stroke="midnightblue" points="378.15,-30.25 376.72,-19.75 371.29,-28.85 378.15,-30.25"/>
</g>
<!-- Node14 -->
<g id="node14" class="node">
<title>Node14</title>
<g id="a_node14"><a xlink:title=" ">
<polygon fill="white" stroke="#bfbfbf" points="431,-0.5 431,-19.5 478,-19.5 478,-0.5 431,-0.5"/>
<text text-anchor="middle" x="454.5" y="-7.5" font-family="Helvetica,sans-Serif" font-size="10.00">cmath</text>
</a>
</g>
</g>
<!-- Node11&#45;&gt;Node14 -->
<g id="edge16" class="edge">
<title>Node11&#45;&gt;Node14</title>
<path fill="none" stroke="midnightblue" d="M381.48,-56.32C395.05,-47.9 415.88,-34.97 431.82,-25.07"/>
<polygon fill="midnightblue" stroke="midnightblue" points="433.91,-27.9 440.56,-19.65 430.21,-21.95 433.91,-27.9"/>
</g>
</g>
</svg>
