<?xml version="1.0" encoding="UTF-8" standalone="no"?>
<!DOCTYPE svg PUBLIC "-//W3C//DTD SVG 1.1//EN"
 "http://www.w3.org/Graphics/SVG/1.1/DTD/svg11.dtd">
<!-- Generated by graphviz version 2.43.0 (0)
 -->
<!-- Title: lharmony_Interval.h Pages: 1 -->
<svg width="545pt" height="140pt"
 viewBox="0.00 0.00 545.03 140.00" xmlns="http://www.w3.org/2000/svg" xmlns:xlink="http://www.w3.org/1999/xlink">
<g id="graph0" class="graph" transform="scale(1 1) rotate(0) translate(4 136)">
<title>lharmony_Interval.h</title>
<polygon fill="white" stroke="transparent" points="-4,4 -4,-136 541.03,-136 541.03,4 -4,4"/>
<!-- Node1 -->
<g id="node1" class="node">
<title>Node1</title>
<g id="a_node1"><a xlink:title="This file defines the Interval class.">
<polygon fill="#bfbfbf" stroke="black" points="135.53,-112.5 135.53,-131.5 250.53,-131.5 250.53,-112.5 135.53,-112.5"/>
<text text-anchor="middle" x="193.03" y="-119.5" font-family="Helvetica,sans-Serif" font-size="10.00">lharmony_Interval.h</text>
</a>
</g>
</g>
<!-- Node2 -->
<g id="node2" class="node">
<title>Node2</title>
<g id="a_node2"><a xlink:href="lharmony_8h_source.html" target="_top" xlink:title=" ">
<polygon fill="white" stroke="black" points="157.53,-0.5 157.53,-19.5 228.53,-19.5 228.53,-0.5 157.53,-0.5"/>
<text text-anchor="middle" x="193.03" y="-7.5" font-family="Helvetica,sans-Serif" font-size="10.00">lharmony.h</text>
</a>
</g>
</g>
<!-- Node1&#45;&gt;Node2 -->
<g id="edge1" class="edge">
<title>Node1&#45;&gt;Node2</title>
<path fill="none" stroke="midnightblue" d="M125.26,-113.3C78.66,-106.45 22.64,-94.58 8.03,-76 -32.51,-24.41 92.87,-13.66 157.31,-11.49"/>
<polygon fill="midnightblue" stroke="midnightblue" points="124.96,-116.79 135.35,-114.73 125.94,-109.86 124.96,-116.79"/>
</g>
<!-- Node3 -->
<g id="node3" class="node">
<title>Node3</title>
<g id="a_node3"><a xlink:href="lharmony__CompoundInterval_8h.html" target="_top" xlink:title="This file defines the CompoundInterval class.">
<polygon fill="white" stroke="black" points="17.53,-56.5 17.53,-75.5 184.53,-75.5 184.53,-56.5 17.53,-56.5"/>
<text text-anchor="middle" x="101.03" y="-63.5" font-family="Helvetica,sans-Serif" font-size="10.00">lharmony_CompoundInterval.h</text>
</a>
</g>
</g>
<!-- Node1&#45;&gt;Node3 -->
<g id="edge2" class="edge">
<title>Node1&#45;&gt;Node3</title>
<path fill="none" stroke="midnightblue" d="M169.48,-107.18C152.55,-97.24 130.25,-84.15 115.78,-75.65"/>
<polygon fill="midnightblue" stroke="midnightblue" points="167.86,-110.28 178.25,-112.32 171.4,-104.24 167.86,-110.28"/>
</g>
<!-- Node4 -->
<g id="node4" class="node">
<title>Node4</title>
<g id="a_node4"><a xlink:href="lharmony__IntervalConstants_8h.html" target="_top" xlink:title="This file provides some useful Interval objects as constants.">
<polygon fill="white" stroke="black" points="203.03,-56.5 203.03,-75.5 367.03,-75.5 367.03,-56.5 203.03,-56.5"/>
<text text-anchor="middle" x="285.03" y="-63.5" font-family="Helvetica,sans-Serif" font-size="10.00">lharmony_IntervalConstants.h</text>
</a>
</g>
</g>
<!-- Node1&#45;&gt;Node4 -->
<g id="edge4" class="edge">
<title>Node1&#45;&gt;Node4</title>
<path fill="none" stroke="midnightblue" d="M216.58,-107.18C233.51,-97.24 255.82,-84.15 270.29,-75.65"/>
<polygon fill="midnightblue" stroke="midnightblue" points="214.67,-104.24 207.81,-112.32 218.21,-110.28 214.67,-104.24"/>
</g>
<!-- Node5 -->
<g id="node5" class="node">
<title>Node5</title>
<g id="a_node5"><a xlink:href="lharmony__OvertoneSeries_8h.html" target="_top" xlink:title="This file defines the OvertoneSeries class.">
<polygon fill="white" stroke="black" points="385.03,-56.5 385.03,-75.5 537.03,-75.5 537.03,-56.5 385.03,-56.5"/>
<text text-anchor="middle" x="461.03" y="-63.5" font-family="Helvetica,sans-Serif" font-size="10.00">lharmony_OvertoneSeries.h</text>
</a>
</g>
</g>
<!-- Node1&#45;&gt;Node5 -->
<g id="edge6" class="edge">
<title>Node1&#45;&gt;Node5</title>
<path fill="none" stroke="midnightblue" d="M245.59,-110.41C296.24,-100.2 371.9,-84.96 418.77,-75.52"/>
<polygon fill="midnightblue" stroke="midnightblue" points="244.61,-107.04 235.5,-112.44 245.99,-113.9 244.61,-107.04"/>
</g>
<!-- Node3&#45;&gt;Node2 -->
<g id="edge3" class="edge">
<title>Node3&#45;&gt;Node2</title>
<path fill="none" stroke="midnightblue" d="M124.58,-51.18C141.51,-41.24 163.82,-28.15 178.29,-19.65"/>
<polygon fill="midnightblue" stroke="midnightblue" points="122.67,-48.24 115.81,-56.32 126.21,-54.28 122.67,-48.24"/>
</g>
<!-- Node4&#45;&gt;Node2 -->
<g id="edge5" class="edge">
<title>Node4&#45;&gt;Node2</title>
<path fill="none" stroke="midnightblue" d="M261.48,-51.18C244.55,-41.24 222.25,-28.15 207.78,-19.65"/>
<polygon fill="midnightblue" stroke="midnightblue" points="259.86,-54.28 270.25,-56.32 263.4,-48.24 259.86,-54.28"/>
</g>
<!-- Node5&#45;&gt;Node2 -->
<g id="edge7" class="edge">
<title>Node5&#45;&gt;Node2</title>
<path fill="none" stroke="midnightblue" d="M408.67,-54.45C355.64,-43.76 275.03,-27.52 228.87,-18.22"/>
<polygon fill="midnightblue" stroke="midnightblue" points="408.07,-57.9 418.57,-56.44 409.46,-51.04 408.07,-57.9"/>
</g>
</g>
</svg>
