<?xml version="1.0" encoding="UTF-8" standalone="no"?>
<!DOCTYPE svg PUBLIC "-//W3C//DTD SVG 1.1//EN"
 "http://www.w3.org/Graphics/SVG/1.1/DTD/svg11.dtd">
<!-- Generated by graphviz version 8.0.5 (20230430.1635)
 -->
<!-- Title: lharmony_Pitch.h Pages: 1 -->
<svg width="546pt" height="193pt"
 viewBox="0.00 0.00 545.75 193.00" xmlns="http://www.w3.org/2000/svg" xmlns:xlink="http://www.w3.org/1999/xlink">
<g id="graph0" class="graph" transform="scale(1 1) rotate(0) translate(4 189)">
<title>lharmony_Pitch.h</title>
<!-- Node1 -->
<g id="Node000001" class="node">
<title>Node1</title>
<g id="a_Node000001"><a xlink:title="This file defines the Pitch class.">
<polygon fill="#999999" stroke="#666666" points="196.5,-185 104.75,-185 104.75,-165.75 196.5,-165.75 196.5,-185"/>
<text text-anchor="middle" x="150.62" y="-171.5" font-family="Helvetica,sans-Serif" font-size="10.00">lharmony_Pitch.h</text>
</a>
</g>
</g>
<!-- Node2 -->
<g id="Node000002" class="node">
<title>Node2</title>
<g id="a_Node000002"><a xlink:title=" ">
<polygon fill="#e0e0e0" stroke="#999999" points="51.25,-129.75 0,-129.75 0,-110.5 51.25,-110.5 51.25,-129.75"/>
<text text-anchor="middle" x="25.62" y="-116.25" font-family="Helvetica,sans-Serif" font-size="10.00">ostream</text>
</a>
</g>
</g>
<!-- Node1&#45;&gt;Node2 -->
<g id="edge1_Node000001_Node000002" class="edge">
<title>Node1&#45;&gt;Node2</title>
<g id="a_edge1_Node000001_Node000002"><a xlink:title=" ">
<path fill="none" stroke="#63b8ff" d="M129.42,-165.34C109.49,-156.85 79.41,-144.04 56.76,-134.39"/>
<polygon fill="#63b8ff" stroke="#63b8ff" points="58.51,-130.9 47.93,-130.2 55.76,-137.34 58.51,-130.9"/>
</a>
</g>
</g>
<!-- Node3 -->
<g id="Node000003" class="node">
<title>Node3</title>
<g id="a_Node000003"><a xlink:title=" ">
<polygon fill="#e0e0e0" stroke="#999999" points="187.88,-19.25 47.38,-19.25 47.38,0 187.88,0 187.88,-19.25"/>
<text text-anchor="middle" x="117.62" y="-5.75" font-family="Helvetica,sans-Serif" font-size="10.00">lharmony/lharmony_Export.h</text>
</a>
</g>
</g>
<!-- Node1&#45;&gt;Node3 -->
<g id="edge2_Node000001_Node000003" class="edge">
<title>Node1&#45;&gt;Node3</title>
<g id="a_edge2_Node000001_Node000003"><a xlink:title=" ">
<path fill="none" stroke="#63b8ff" d="M146.34,-165.34C142.29,-156.46 136.29,-142.43 132.62,-129.75 122.77,-95.64 119.39,-54.19 118.23,-30.27"/>
<polygon fill="#63b8ff" stroke="#63b8ff" points="121.7,-30.34 117.8,-20.48 114.7,-30.61 121.7,-30.34"/>
</a>
</g>
</g>
<!-- Node4 -->
<g id="Node000004" class="node">
<title>Node4</title>
<g id="a_Node000004"><a xlink:href="lharmony___pitch_class_8h.html" target="_top" xlink:title="This file defines the PitchClass class.">
<polygon fill="white" stroke="#666666" points="301.62,-129.75 141.62,-129.75 141.62,-110.5 301.62,-110.5 301.62,-129.75"/>
<text text-anchor="middle" x="221.62" y="-116.25" font-family="Helvetica,sans-Serif" font-size="10.00">lharmony/lharmony_PitchClass.h</text>
</a>
</g>
</g>
<!-- Node1&#45;&gt;Node4 -->
<g id="edge3_Node000001_Node000004" class="edge">
<title>Node1&#45;&gt;Node4</title>
<g id="a_edge3_Node000001_Node000004"><a xlink:title=" ">
<path fill="none" stroke="#63b8ff" d="M162.67,-165.34C173.14,-157.49 188.53,-145.95 200.96,-136.62"/>
<polygon fill="#63b8ff" stroke="#63b8ff" points="202.86,-138.82 208.76,-130.02 198.66,-133.22 202.86,-138.82"/>
</a>
</g>
</g>
<!-- Node8 -->
<g id="Node000008" class="node">
<title>Node8</title>
<g id="a_Node000008"><a xlink:href="lharmony___pitch_utils_8h.html" target="_top" xlink:title="This file contains miscellaneous pitch utilities.">
<polygon fill="white" stroke="#666666" points="494,-74.5 339.25,-74.5 339.25,-55.25 494,-55.25 494,-74.5"/>
<text text-anchor="middle" x="416.62" y="-61" font-family="Helvetica,sans-Serif" font-size="10.00">lharmony/lharmony_PitchUtils.h</text>
</a>
</g>
</g>
<!-- Node1&#45;&gt;Node8 -->
<g id="edge14_Node000001_Node000008" class="edge">
<title>Node1&#45;&gt;Node8</title>
<g id="a_edge14_Node000001_Node000008"><a xlink:title=" ">
<path fill="none" stroke="#63b8ff" d="M195.53,-165.28C228.22,-157.84 273.16,-145.91 310.62,-129.75 341.62,-116.38 374.5,-95.36 395.27,-81.12"/>
<polygon fill="#63b8ff" stroke="#63b8ff" points="396.97,-83.51 403.18,-74.92 392.97,-77.76 396.97,-83.51"/>
</a>
</g>
</g>
<!-- Node4&#45;&gt;Node3 -->
<g id="edge7_Node000004_Node000003" class="edge">
<title>Node4&#45;&gt;Node3</title>
<g id="a_edge7_Node000004_Node000003"><a xlink:title=" ">
<path fill="none" stroke="#63b8ff" d="M191.78,-110.13C173.43,-103.17 150.81,-91.75 136.62,-74.5 126.28,-61.92 121.57,-43.86 119.42,-30.15"/>
<polygon fill="#63b8ff" stroke="#63b8ff" points="122.8,-29.98 118.12,-20.47 115.85,-30.82 122.8,-29.98"/>
</a>
</g>
</g>
<!-- Node5 -->
<g id="Node000005" class="node">
<title>Node5</title>
<g id="a_Node000005"><a xlink:title=" ">
<polygon fill="#e0e0e0" stroke="#999999" points="330.5,-19.25 292.75,-19.25 292.75,0 330.5,0 330.5,-19.25"/>
<text text-anchor="middle" x="311.62" y="-5.75" font-family="Helvetica,sans-Serif" font-size="10.00">array</text>
</a>
</g>
</g>
<!-- Node4&#45;&gt;Node5 -->
<g id="edge4_Node000004_Node000005" class="edge">
<title>Node4&#45;&gt;Node5</title>
<g id="a_edge4_Node000004_Node000005"><a xlink:title=" ">
<path fill="none" stroke="#63b8ff" d="M244.22,-110.1C259.93,-102.73 280.21,-90.85 292.62,-74.5 302.47,-61.53 307.24,-43.51 309.53,-29.92"/>
<polygon fill="#63b8ff" stroke="#63b8ff" points="313.09,-30.73 310.97,-20.35 306.15,-29.78 313.09,-30.73"/>
</a>
</g>
</g>
<!-- Node6 -->
<g id="Node000006" class="node">
<title>Node6</title>
<g id="a_Node000006"><a xlink:title=" ">
<polygon fill="#e0e0e0" stroke="#999999" points="211.38,-74.5 145.88,-74.5 145.88,-55.25 211.38,-55.25 211.38,-74.5"/>
<text text-anchor="middle" x="178.62" y="-61" font-family="Helvetica,sans-Serif" font-size="10.00">string_view</text>
</a>
</g>
</g>
<!-- Node4&#45;&gt;Node6 -->
<g id="edge5_Node000004_Node000006" class="edge">
<title>Node4&#45;&gt;Node6</title>
<g id="a_edge5_Node000004_Node000006"><a xlink:title=" ">
<path fill="none" stroke="#63b8ff" d="M214.52,-110.33C208.58,-102.98 199.93,-92.26 192.61,-83.19"/>
<polygon fill="#63b8ff" stroke="#63b8ff" points="194.89,-81.44 185.88,-75.86 189.44,-85.84 194.89,-81.44"/>
</a>
</g>
</g>
<!-- Node7 -->
<g id="Node000007" class="node">
<title>Node7</title>
<g id="a_Node000007"><a xlink:title=" ">
<polygon fill="#e0e0e0" stroke="#999999" points="283.38,-74.5 229.88,-74.5 229.88,-55.25 283.38,-55.25 283.38,-74.5"/>
<text text-anchor="middle" x="256.62" y="-61" font-family="Helvetica,sans-Serif" font-size="10.00">iostream</text>
</a>
</g>
</g>
<!-- Node4&#45;&gt;Node7 -->
<g id="edge6_Node000004_Node000007" class="edge">
<title>Node4&#45;&gt;Node7</title>
<g id="a_edge6_Node000004_Node000007"><a xlink:title=" ">
<path fill="none" stroke="#63b8ff" d="M227.4,-110.33C232.09,-103.21 238.84,-92.93 244.68,-84.05"/>
<polygon fill="#63b8ff" stroke="#63b8ff" points="248.15,-86.14 250.72,-75.86 242.3,-82.29 248.15,-86.14"/>
</a>
</g>
</g>
<!-- Node4&#45;&gt;Node8 -->
<g id="edge8_Node000004_Node000008" class="edge">
<title>Node4&#45;&gt;Node8</title>
<g id="a_edge8_Node000004_Node000008"><a xlink:title=" ">
<path fill="none" stroke="#63b8ff" d="M254.7,-110.09C287.34,-101.18 337.41,-87.51 373.22,-77.73"/>
<polygon fill="#63b8ff" stroke="#63b8ff" points="373.66,-80.96 382.38,-74.95 371.81,-74.21 373.66,-80.96"/>
</a>
</g>
</g>
<!-- Node8&#45;&gt;Node3 -->
<g id="edge13_Node000008_Node000003" class="edge">
<title>Node8&#45;&gt;Node3</title>
<g id="a_edge13_Node000008_Node000003"><a xlink:title=" ">
<path fill="none" stroke="#63b8ff" d="M365.56,-54.78C314.04,-45.61 234.44,-31.43 179.39,-21.63"/>
<polygon fill="#63b8ff" stroke="#63b8ff" points="180.18,-18.03 169.72,-19.73 178.96,-24.92 180.18,-18.03"/>
</a>
</g>
</g>
<!-- Node8&#45;&gt;Node5 -->
<g id="edge9_Node000008_Node000005" class="edge">
<title>Node8&#45;&gt;Node5</title>
<g id="a_edge9_Node000008_Node000005"><a xlink:title=" ">
<path fill="none" stroke="#63b8ff" d="M398.81,-54.84C382.52,-46.58 358.16,-34.23 339.33,-24.68"/>
<polygon fill="#63b8ff" stroke="#63b8ff" points="341.03,-21.1 330.52,-19.7 337.86,-27.35 341.03,-21.1"/>
</a>
</g>
</g>
<!-- Node9 -->
<g id="Node000009" class="node">
<title>Node9</title>
<g id="a_Node000009"><a xlink:title=" ">
<polygon fill="#e0e0e0" stroke="#999999" points="537.75,-19.25 489.5,-19.25 489.5,0 537.75,0 537.75,-19.25"/>
<text text-anchor="middle" x="513.62" y="-5.75" font-family="Helvetica,sans-Serif" font-size="10.00">cassert</text>
</a>
</g>
</g>
<!-- Node8&#45;&gt;Node9 -->
<g id="edge10_Node000008_Node000009" class="edge">
<title>Node8&#45;&gt;Node9</title>
<g id="a_edge10_Node000008_Node000009"><a xlink:title=" ">
<path fill="none" stroke="#63b8ff" d="M433.08,-54.84C447.99,-46.66 470.22,-34.46 487.54,-24.94"/>
<polygon fill="#63b8ff" stroke="#63b8ff" points="489.01,-27.58 496.09,-19.7 485.64,-21.45 489.01,-27.58"/>
</a>
</g>
</g>
<!-- Node10 -->
<g id="Node000010" class="node">
<title>Node10</title>
<g id="a_Node000010"><a xlink:title=" ">
<polygon fill="#e0e0e0" stroke="#999999" points="410.5,-19.25 348.75,-19.25 348.75,0 410.5,0 410.5,-19.25"/>
<text text-anchor="middle" x="379.62" y="-5.75" font-family="Helvetica,sans-Serif" font-size="10.00">type_traits</text>
</a>
</g>
</g>
<!-- Node8&#45;&gt;Node10 -->
<g id="edge11_Node000008_Node000010" class="edge">
<title>Node8&#45;&gt;Node10</title>
<g id="a_edge11_Node000008_Node000010"><a xlink:title=" ">
<path fill="none" stroke="#63b8ff" d="M410.52,-55.08C405.51,-47.88 398.27,-37.46 392.05,-28.51"/>
<polygon fill="#63b8ff" stroke="#63b8ff" points="394.45,-26.82 385.87,-20.61 388.7,-30.82 394.45,-26.82"/>
</a>
</g>
</g>
<!-- Node11 -->
<g id="Node000011" class="node">
<title>Node11</title>
<g id="a_Node000011"><a xlink:title=" ">
<polygon fill="#e0e0e0" stroke="#999999" points="471.12,-19.25 428.12,-19.25 428.12,0 471.12,0 471.12,-19.25"/>
<text text-anchor="middle" x="449.62" y="-5.75" font-family="Helvetica,sans-Serif" font-size="10.00">cmath</text>
</a>
</g>
</g>
<!-- Node8&#45;&gt;Node11 -->
<g id="edge12_Node000008_Node000011" class="edge">
<title>Node8&#45;&gt;Node11</title>
<g id="a_edge12_Node000008_Node000011"><a xlink:title=" ">
<path fill="none" stroke="#63b8ff" d="M422.07,-55.08C426.49,-47.96 432.86,-37.68 438.36,-28.8"/>
<polygon fill="#63b8ff" stroke="#63b8ff" points="441.76,-30.95 444.06,-20.61 435.81,-27.27 441.76,-30.95"/>
</a>
</g>
</g>
</g>
</svg>
