<?xml version="1.0" encoding="UTF-8" standalone="no"?>
<!DOCTYPE svg PUBLIC "-//W3C//DTD SVG 1.1//EN"
 "http://www.w3.org/Graphics/SVG/1.1/DTD/svg11.dtd">
<!-- Generated by graphviz version 2.43.0 (0)
 -->
<!-- Title: lharmony_Scale.h Pages: 1 -->
<svg width="689pt" height="196pt"
 viewBox="0.00 0.00 688.66 196.00" xmlns="http://www.w3.org/2000/svg" xmlns:xlink="http://www.w3.org/1999/xlink">
<g id="graph0" class="graph" transform="scale(1 1) rotate(0) translate(4 192)">
<title>lharmony_Scale.h</title>
<polygon fill="white" stroke="transparent" points="-4,4 -4,-192 684.66,-192 684.66,4 -4,4"/>
<!-- Node1 -->
<g id="node1" class="node">
<title>Node1</title>
<g id="a_node1"><a xlink:title="This file defines the Scale class.">
<polygon fill="#bfbfbf" stroke="black" points="277.16,-168.5 277.16,-187.5 381.16,-187.5 381.16,-168.5 277.16,-168.5"/>
<text text-anchor="middle" x="329.16" y="-175.5" font-family="Helvetica,sans-Serif" font-size="10.00">lharmony_Scale.h</text>
</a>
</g>
</g>
<!-- Node2 -->
<g id="node2" class="node">
<title>Node2</title>
<g id="a_node2"><a xlink:href="lharmony_8h_source.html" target="_top" xlink:title=" ">
<polygon fill="white" stroke="black" points="257.66,-0.5 257.66,-19.5 328.66,-19.5 328.66,-0.5 257.66,-0.5"/>
<text text-anchor="middle" x="293.16" y="-7.5" font-family="Helvetica,sans-Serif" font-size="10.00">lharmony.h</text>
</a>
</g>
</g>
<!-- Node1&#45;&gt;Node2 -->
<g id="edge1" class="edge">
<title>Node1&#45;&gt;Node2</title>
<path fill="none" stroke="midnightblue" d="M267.05,-166.92C181.45,-151.57 34.34,-119.48 4.16,-76 -0.91,-68.7 -1.62,-62.75 4.16,-56 36.4,-18.35 187.57,-11.95 257.51,-11.04"/>
<polygon fill="midnightblue" stroke="midnightblue" points="266.46,-170.37 276.91,-168.66 267.67,-163.47 266.46,-170.37"/>
</g>
<!-- Node3 -->
<g id="node3" class="node">
<title>Node3</title>
<g id="a_node3"><a xlink:href="lharmony__Chromatic_8h.html" target="_top" xlink:title="This file defines the Chromatic scale class.">
<polygon fill="white" stroke="black" points="13.16,-56.5 13.16,-75.5 141.16,-75.5 141.16,-56.5 13.16,-56.5"/>
<text text-anchor="middle" x="77.16" y="-63.5" font-family="Helvetica,sans-Serif" font-size="10.00">lharmony_Chromatic.h</text>
</a>
</g>
</g>
<!-- Node1&#45;&gt;Node3 -->
<g id="edge2" class="edge">
<title>Node1&#45;&gt;Node3</title>
<path fill="none" stroke="midnightblue" d="M290.92,-165.33C264.94,-157 230.01,-145.01 200.16,-132 159.64,-114.35 114.2,-88.72 91.57,-75.54"/>
<polygon fill="midnightblue" stroke="midnightblue" points="290.17,-168.77 300.76,-168.45 292.28,-162.09 290.17,-168.77"/>
</g>
<!-- Node4 -->
<g id="node4" class="node">
<title>Node4</title>
<g id="a_node4"><a xlink:href="lharmony__KeySignature_8h.html" target="_top" xlink:title="This file defines the KeySignature scale class.">
<polygon fill="white" stroke="black" points="209.16,-112.5 209.16,-131.5 351.16,-131.5 351.16,-112.5 209.16,-112.5"/>
<text text-anchor="middle" x="280.16" y="-119.5" font-family="Helvetica,sans-Serif" font-size="10.00">lharmony_KeySignature.h</text>
</a>
</g>
</g>
<!-- Node1&#45;&gt;Node4 -->
<g id="edge4" class="edge">
<title>Node1&#45;&gt;Node4</title>
<path fill="none" stroke="midnightblue" d="M314.12,-160.43C305.54,-150.97 295.11,-139.48 288.1,-131.75"/>
<polygon fill="midnightblue" stroke="midnightblue" points="311.75,-163.03 321.07,-168.08 316.94,-158.33 311.75,-163.03"/>
</g>
<!-- Node6 -->
<g id="node6" class="node">
<title>Node6</title>
<g id="a_node6"><a xlink:href="lharmony__Mode_8h.html" target="_top" xlink:title="This file defines the Mode scale class.">
<polygon fill="white" stroke="black" points="407.16,-56.5 407.16,-75.5 511.16,-75.5 511.16,-56.5 407.16,-56.5"/>
<text text-anchor="middle" x="459.16" y="-63.5" font-family="Helvetica,sans-Serif" font-size="10.00">lharmony_Mode.h</text>
</a>
</g>
</g>
<!-- Node1&#45;&gt;Node6 -->
<g id="edge10" class="edge">
<title>Node1&#45;&gt;Node6</title>
<path fill="none" stroke="midnightblue" d="M344.98,-161.06C358.65,-147.54 379.15,-127.87 398.16,-112 414.32,-98.51 434.11,-84.3 446.68,-75.55"/>
<polygon fill="midnightblue" stroke="midnightblue" points="342.39,-158.7 337.78,-168.23 347.33,-163.65 342.39,-158.7"/>
</g>
<!-- Node7 -->
<g id="node7" class="node">
<title>Node7</title>
<g id="a_node7"><a xlink:href="lharmony__Octatonic_8h.html" target="_top" xlink:title="This file defines the Octatonic scale class.">
<polygon fill="white" stroke="black" points="407.16,-112.5 407.16,-131.5 531.16,-131.5 531.16,-112.5 407.16,-112.5"/>
<text text-anchor="middle" x="469.16" y="-119.5" font-family="Helvetica,sans-Serif" font-size="10.00">lharmony_Octatonic.h</text>
</a>
</g>
</g>
<!-- Node1&#45;&gt;Node7 -->
<g id="edge11" class="edge">
<title>Node1&#45;&gt;Node7</title>
<path fill="none" stroke="midnightblue" d="M360.86,-164.77C387.16,-154.63 423.87,-140.47 447.08,-131.52"/>
<polygon fill="midnightblue" stroke="midnightblue" points="359.41,-161.58 351.34,-168.44 361.93,-168.11 359.41,-161.58"/>
</g>
<!-- Node8 -->
<g id="node8" class="node">
<title>Node8</title>
<g id="a_node8"><a xlink:href="lharmony__WholeTone_8h.html" target="_top" xlink:title="This file defines the WholeTone scale class.">
<polygon fill="white" stroke="black" points="549.66,-112.5 549.66,-131.5 680.66,-131.5 680.66,-112.5 549.66,-112.5"/>
<text text-anchor="middle" x="615.16" y="-119.5" font-family="Helvetica,sans-Serif" font-size="10.00">lharmony_WholeTone.h</text>
</a>
</g>
</g>
<!-- Node1&#45;&gt;Node8 -->
<g id="edge13" class="edge">
<title>Node1&#45;&gt;Node8</title>
<path fill="none" stroke="midnightblue" d="M384.57,-166.54C438.62,-156.33 519.83,-141 570.05,-131.52"/>
<polygon fill="midnightblue" stroke="midnightblue" points="383.65,-163.15 374.48,-168.44 384.95,-170.03 383.65,-163.15"/>
</g>
<!-- Node3&#45;&gt;Node2 -->
<g id="edge3" class="edge">
<title>Node3&#45;&gt;Node2</title>
<path fill="none" stroke="midnightblue" d="M121.32,-53.96C162.12,-43.76 221.87,-28.82 259.09,-19.52"/>
<polygon fill="midnightblue" stroke="midnightblue" points="120.24,-50.62 111.38,-56.44 121.93,-57.41 120.24,-50.62"/>
</g>
<!-- Node4&#45;&gt;Node2 -->
<g id="edge5" class="edge">
<title>Node4&#45;&gt;Node2</title>
<path fill="none" stroke="midnightblue" d="M237.64,-109.17C206.86,-98.31 173.24,-80.23 189.16,-56 204.23,-33.06 233.75,-21.76 257.51,-16.22"/>
<polygon fill="midnightblue" stroke="midnightblue" points="236.87,-112.61 247.47,-112.44 239.08,-105.96 236.87,-112.61"/>
</g>
<!-- Node5 -->
<g id="node5" class="node">
<title>Node5</title>
<g id="a_node5"><a xlink:href="lharmony__KeySignatureConstants_8h.html" target="_top" xlink:title="This file contains some useful predefined key signatures.">
<polygon fill="white" stroke="black" points="197.66,-56.5 197.66,-75.5 388.66,-75.5 388.66,-56.5 197.66,-56.5"/>
<text text-anchor="middle" x="293.16" y="-63.5" font-family="Helvetica,sans-Serif" font-size="10.00">lharmony_KeySignatureConstants.h</text>
</a>
</g>
</g>
<!-- Node4&#45;&gt;Node5 -->
<g id="edge6" class="edge">
<title>Node4&#45;&gt;Node5</title>
<path fill="none" stroke="midnightblue" d="M284.71,-102.1C286.87,-93.14 289.34,-82.86 291.05,-75.75"/>
<polygon fill="midnightblue" stroke="midnightblue" points="281.24,-101.54 282.3,-112.08 288.05,-103.18 281.24,-101.54"/>
</g>
<!-- Node4&#45;&gt;Node6 -->
<g id="edge8" class="edge">
<title>Node4&#45;&gt;Node6</title>
<path fill="none" stroke="midnightblue" d="M318.49,-109.44C352.24,-99.26 400.61,-84.66 430.93,-75.52"/>
<polygon fill="midnightblue" stroke="midnightblue" points="317.08,-106.2 308.52,-112.44 319.11,-112.91 317.08,-106.2"/>
</g>
<!-- Node5&#45;&gt;Node2 -->
<g id="edge7" class="edge">
<title>Node5&#45;&gt;Node2</title>
<path fill="none" stroke="midnightblue" d="M293.16,-45.8C293.16,-36.91 293.16,-26.78 293.16,-19.75"/>
<polygon fill="midnightblue" stroke="midnightblue" points="289.66,-46.08 293.16,-56.08 296.66,-46.08 289.66,-46.08"/>
</g>
<!-- Node6&#45;&gt;Node2 -->
<g id="edge9" class="edge">
<title>Node6&#45;&gt;Node2</title>
<path fill="none" stroke="midnightblue" d="M423.2,-53.3C391.93,-43.13 347.34,-28.62 319.34,-19.52"/>
<polygon fill="midnightblue" stroke="midnightblue" points="422.26,-56.68 432.85,-56.44 424.43,-50.02 422.26,-56.68"/>
</g>
<!-- Node7&#45;&gt;Node2 -->
<g id="edge12" class="edge">
<title>Node7&#45;&gt;Node2</title>
<path fill="none" stroke="midnightblue" d="M492.89,-106.93C512.29,-93.67 534.37,-73.3 520.16,-56 496.38,-27.05 386.77,-16.4 329.01,-12.75"/>
<polygon fill="midnightblue" stroke="midnightblue" points="490.8,-104.12 484.31,-112.49 494.6,-109.99 490.8,-104.12"/>
</g>
<!-- Node8&#45;&gt;Node2 -->
<g id="edge14" class="edge">
<title>Node8&#45;&gt;Node2</title>
<path fill="none" stroke="midnightblue" d="M600.18,-104.62C585.4,-89.53 561.43,-67.77 536.16,-56 467.51,-24.03 378.01,-14.76 329.05,-12.08"/>
<polygon fill="midnightblue" stroke="midnightblue" points="597.96,-107.37 607.39,-112.21 603.03,-102.55 597.96,-107.37"/>
</g>
</g>
</svg>
