<?xml version="1.0" encoding="UTF-8" standalone="no"?>
<!DOCTYPE svg PUBLIC "-//W3C//DTD SVG 1.1//EN"
 "http://www.w3.org/Graphics/SVG/1.1/DTD/svg11.dtd">
<!-- Generated by graphviz version 2.43.0 (0)
 -->
<!-- Title: lharmony_PitchUtils.h Pages: 1 -->
<svg width="1452pt" height="364pt"
 viewBox="0.00 0.00 1452.25 364.00" xmlns="http://www.w3.org/2000/svg" xmlns:xlink="http://www.w3.org/1999/xlink">
<g id="graph0" class="graph" transform="scale(1 1) rotate(0) translate(4 360)">
<title>lharmony_PitchUtils.h</title>
<polygon fill="white" stroke="transparent" points="-4,4 -4,-360 1448.25,-360 1448.25,4 -4,4"/>
<!-- Node1 -->
<g id="node1" class="node">
<title>Node1</title>
<g id="a_node1"><a xlink:title="This file contains miscellaneous pitch utilities.">
<polygon fill="#bfbfbf" stroke="black" points="589.13,-336.5 589.13,-355.5 713.13,-355.5 713.13,-336.5 589.13,-336.5"/>
<text text-anchor="middle" x="651.13" y="-343.5" font-family="Helvetica,sans-Serif" font-size="10.00">lharmony_PitchUtils.h</text>
</a>
</g>
</g>
<!-- Node2 -->
<g id="node2" class="node">
<title>Node2</title>
<g id="a_node2"><a xlink:href="lharmony_8h_source.html" target="_top" xlink:title=" ">
<polygon fill="white" stroke="black" points="698.63,-0.5 698.63,-19.5 769.63,-19.5 769.63,-0.5 698.63,-0.5"/>
<text text-anchor="middle" x="734.13" y="-7.5" font-family="Helvetica,sans-Serif" font-size="10.00">lharmony.h</text>
</a>
</g>
</g>
<!-- Node1&#45;&gt;Node2 -->
<g id="edge1" class="edge">
<title>Node1&#45;&gt;Node2</title>
<path fill="none" stroke="midnightblue" d="M579.03,-340.27C409.76,-328.21 1.13,-293.08 1.13,-235 1.13,-235 1.13,-235 1.13,-121 1.13,-90.9 -3.38,-74.8 20.13,-56 73.41,-13.38 561.33,-10.77 698.44,-10.89"/>
<polygon fill="midnightblue" stroke="midnightblue" points="578.87,-343.77 589.1,-340.98 579.37,-336.79 578.87,-343.77"/>
</g>
<!-- Node3 -->
<g id="node3" class="node">
<title>Node3</title>
<g id="a_node3"><a xlink:href="lharmony__Pitch_8h.html" target="_top" xlink:title="This file defines the Pitch class.">
<polygon fill="white" stroke="black" points="600.63,-224.5 600.63,-243.5 701.63,-243.5 701.63,-224.5 600.63,-224.5"/>
<text text-anchor="middle" x="651.13" y="-231.5" font-family="Helvetica,sans-Serif" font-size="10.00">lharmony_Pitch.h</text>
</a>
</g>
</g>
<!-- Node1&#45;&gt;Node3 -->
<g id="edge2" class="edge">
<title>Node1&#45;&gt;Node3</title>
<path fill="none" stroke="midnightblue" d="M651.13,-326.35C651.13,-302.25 651.13,-261.31 651.13,-243.59"/>
<polygon fill="midnightblue" stroke="midnightblue" points="647.63,-326.37 651.13,-336.37 654.63,-326.37 647.63,-326.37"/>
</g>
<!-- Node17 -->
<g id="node17" class="node">
<title>Node17</title>
<g id="a_node17"><a xlink:href="lharmony__PitchClass_8h.html" target="_top" xlink:title="This file defines the PitchClass class.">
<polygon fill="white" stroke="black" points="955.13,-280.5 955.13,-299.5 1083.13,-299.5 1083.13,-280.5 955.13,-280.5"/>
<text text-anchor="middle" x="1019.13" y="-287.5" font-family="Helvetica,sans-Serif" font-size="10.00">lharmony_PitchClass.h</text>
</a>
</g>
</g>
<!-- Node1&#45;&gt;Node17 -->
<g id="edge32" class="edge">
<title>Node1&#45;&gt;Node17</title>
<path fill="none" stroke="midnightblue" d="M719.41,-334.98C788.93,-324.78 895.52,-309.14 961.09,-299.52"/>
<polygon fill="midnightblue" stroke="midnightblue" points="718.82,-331.53 709.44,-336.44 719.84,-338.45 718.82,-331.53"/>
</g>
<!-- Node3&#45;&gt;Node2 -->
<g id="edge3" class="edge">
<title>Node3&#45;&gt;Node2</title>
<path fill="none" stroke="midnightblue" d="M655.03,-214.14C662.27,-181.07 679.43,-110.92 705.13,-56 711.43,-42.53 721.18,-28.32 727.61,-19.56"/>
<polygon fill="midnightblue" stroke="midnightblue" points="651.54,-213.7 652.88,-224.21 658.39,-215.16 651.54,-213.7"/>
</g>
<!-- Node4 -->
<g id="node4" class="node">
<title>Node4</title>
<g id="a_node4"><a xlink:href="lharmony__Chord_8h.html" target="_top" xlink:title="This file defines the Chord class.">
<polygon fill="white" stroke="black" points="679.13,-168.5 679.13,-187.5 785.13,-187.5 785.13,-168.5 679.13,-168.5"/>
<text text-anchor="middle" x="732.13" y="-175.5" font-family="Helvetica,sans-Serif" font-size="10.00">lharmony_Chord.h</text>
</a>
</g>
</g>
<!-- Node3&#45;&gt;Node4 -->
<g id="edge4" class="edge">
<title>Node3&#45;&gt;Node4</title>
<path fill="none" stroke="midnightblue" d="M672.69,-218.62C687.49,-208.76 706.64,-195.99 719.14,-187.65"/>
<polygon fill="midnightblue" stroke="midnightblue" points="670.52,-215.86 664.14,-224.32 674.4,-221.69 670.52,-215.86"/>
</g>
<!-- Node5 -->
<g id="node5" class="node">
<title>Node5</title>
<g id="a_node5"><a xlink:href="lharmony__Interval_8h.html" target="_top" xlink:title="This file defines the Interval class.">
<polygon fill="white" stroke="black" points="333.63,-112.5 333.63,-131.5 448.63,-131.5 448.63,-112.5 333.63,-112.5"/>
<text text-anchor="middle" x="391.13" y="-119.5" font-family="Helvetica,sans-Serif" font-size="10.00">lharmony_Interval.h</text>
</a>
</g>
</g>
<!-- Node3&#45;&gt;Node5 -->
<g id="edge6" class="edge">
<title>Node3&#45;&gt;Node5</title>
<path fill="none" stroke="midnightblue" d="M590.51,-229.72C547.85,-225.09 490.8,-214.08 447.13,-188 423.34,-173.79 404.56,-145.92 396.06,-131.74"/>
<polygon fill="midnightblue" stroke="midnightblue" points="590.18,-233.2 600.48,-230.71 590.88,-226.24 590.18,-233.2"/>
</g>
<!-- Node8 -->
<g id="node8" class="node">
<title>Node8</title>
<g id="a_node8"><a xlink:href="lharmony__OvertoneSeries_8h.html" target="_top" xlink:title="This file defines the OvertoneSeries class.">
<polygon fill="white" stroke="black" points="29.13,-56.5 29.13,-75.5 181.13,-75.5 181.13,-56.5 29.13,-56.5"/>
<text text-anchor="middle" x="105.13" y="-63.5" font-family="Helvetica,sans-Serif" font-size="10.00">lharmony_OvertoneSeries.h</text>
</a>
</g>
</g>
<!-- Node3&#45;&gt;Node8 -->
<g id="edge16" class="edge">
<title>Node3&#45;&gt;Node8</title>
<path fill="none" stroke="midnightblue" d="M590.49,-224.16C543.5,-216.59 477.02,-204.33 420.13,-188 304.69,-154.86 172.14,-97.2 123.91,-75.55"/>
<polygon fill="midnightblue" stroke="midnightblue" points="590.08,-227.64 600.51,-225.75 591.18,-220.72 590.08,-227.64"/>
</g>
<!-- Node9 -->
<g id="node9" class="node">
<title>Node9</title>
<g id="a_node9"><a xlink:href="lharmony__MicrotonalInterval_8h.html" target="_top" xlink:title="This file defines the MicrotonalInterval class.">
<polygon fill="white" stroke="black" points="456.63,-168.5 456.63,-187.5 623.63,-187.5 623.63,-168.5 456.63,-168.5"/>
<text text-anchor="middle" x="540.13" y="-175.5" font-family="Helvetica,sans-Serif" font-size="10.00">lharmony_MicrotonalInterval.h</text>
</a>
</g>
</g>
<!-- Node3&#45;&gt;Node9 -->
<g id="edge14" class="edge">
<title>Node3&#45;&gt;Node9</title>
<path fill="none" stroke="midnightblue" d="M624.12,-219.86C603.54,-209.85 575.78,-196.35 557.92,-187.65"/>
<polygon fill="midnightblue" stroke="midnightblue" points="622.77,-223.1 633.29,-224.32 625.83,-216.8 622.77,-223.1"/>
</g>
<!-- Node10 -->
<g id="node10" class="node">
<title>Node10</title>
<g id="a_node10"><a xlink:href="lharmony__Scale_8h.html" target="_top" xlink:title="This file defines the Scale class.">
<polygon fill="white" stroke="black" points="967.13,-168.5 967.13,-187.5 1071.13,-187.5 1071.13,-168.5 967.13,-168.5"/>
<text text-anchor="middle" x="1019.13" y="-175.5" font-family="Helvetica,sans-Serif" font-size="10.00">lharmony_Scale.h</text>
</a>
</g>
</g>
<!-- Node3&#45;&gt;Node10 -->
<g id="edge17" class="edge">
<title>Node3&#45;&gt;Node10</title>
<path fill="none" stroke="midnightblue" d="M712.08,-224.06C783.3,-213.61 899.93,-196.49 967.09,-186.64"/>
<polygon fill="midnightblue" stroke="midnightblue" points="711.29,-220.63 701.91,-225.55 712.31,-227.56 711.29,-220.63"/>
</g>
<!-- Node4&#45;&gt;Node2 -->
<g id="edge5" class="edge">
<title>Node4&#45;&gt;Node2</title>
<path fill="none" stroke="midnightblue" d="M720.37,-159.77C715.56,-151.71 710.56,-141.75 708.13,-132 697.65,-90.1 719.65,-39.4 729.59,-19.55"/>
<polygon fill="midnightblue" stroke="midnightblue" points="717.44,-161.68 725.76,-168.23 723.34,-157.92 717.44,-161.68"/>
</g>
<!-- Node5&#45;&gt;Node2 -->
<g id="edge7" class="edge">
<title>Node5&#45;&gt;Node2</title>
<path fill="none" stroke="midnightblue" d="M391.07,-102.22C392.1,-87.42 396.07,-67.43 409.13,-56 451.61,-18.81 623.2,-12.23 698.46,-11.16"/>
<polygon fill="midnightblue" stroke="midnightblue" points="387.57,-102.19 390.75,-112.3 394.56,-102.41 387.57,-102.19"/>
</g>
<!-- Node6 -->
<g id="node6" class="node">
<title>Node6</title>
<g id="a_node6"><a xlink:href="lharmony__CompoundInterval_8h.html" target="_top" xlink:title="This file defines the CompoundInterval class.">
<polygon fill="white" stroke="black" points="418.63,-56.5 418.63,-75.5 585.63,-75.5 585.63,-56.5 418.63,-56.5"/>
<text text-anchor="middle" x="502.13" y="-63.5" font-family="Helvetica,sans-Serif" font-size="10.00">lharmony_CompoundInterval.h</text>
</a>
</g>
</g>
<!-- Node5&#45;&gt;Node6 -->
<g id="edge8" class="edge">
<title>Node5&#45;&gt;Node6</title>
<path fill="none" stroke="midnightblue" d="M418.13,-107.86C438.71,-97.85 466.47,-84.35 484.34,-75.65"/>
<polygon fill="midnightblue" stroke="midnightblue" points="416.42,-104.8 408.96,-112.32 419.48,-111.1 416.42,-104.8"/>
</g>
<!-- Node7 -->
<g id="node7" class="node">
<title>Node7</title>
<g id="a_node7"><a xlink:href="lharmony__IntervalConstants_8h.html" target="_top" xlink:title="This file provides some useful Interval objects as constants.">
<polygon fill="white" stroke="black" points="199.13,-56.5 199.13,-75.5 363.13,-75.5 363.13,-56.5 199.13,-56.5"/>
<text text-anchor="middle" x="281.13" y="-63.5" font-family="Helvetica,sans-Serif" font-size="10.00">lharmony_IntervalConstants.h</text>
</a>
</g>
</g>
<!-- Node5&#45;&gt;Node7 -->
<g id="edge10" class="edge">
<title>Node5&#45;&gt;Node7</title>
<path fill="none" stroke="midnightblue" d="M364.36,-107.86C343.97,-97.85 316.46,-84.35 298.76,-75.65"/>
<polygon fill="midnightblue" stroke="midnightblue" points="362.93,-111.06 373.45,-112.32 366.02,-104.78 362.93,-111.06"/>
</g>
<!-- Node5&#45;&gt;Node8 -->
<g id="edge12" class="edge">
<title>Node5&#45;&gt;Node8</title>
<path fill="none" stroke="midnightblue" d="M335.71,-110.54C281.66,-100.33 200.45,-85 150.23,-75.52"/>
<polygon fill="midnightblue" stroke="midnightblue" points="335.33,-114.03 345.81,-112.44 336.63,-107.15 335.33,-114.03"/>
</g>
<!-- Node6&#45;&gt;Node2 -->
<g id="edge9" class="edge">
<title>Node6&#45;&gt;Node2</title>
<path fill="none" stroke="midnightblue" d="M548.79,-54.14C592.9,-43.87 658.14,-28.69 698.3,-19.34"/>
<polygon fill="midnightblue" stroke="midnightblue" points="547.83,-50.77 538.89,-56.44 549.42,-57.59 547.83,-50.77"/>
</g>
<!-- Node7&#45;&gt;Node2 -->
<g id="edge11" class="edge">
<title>Node7&#45;&gt;Node2</title>
<path fill="none" stroke="midnightblue" d="M362.94,-55.25C462.56,-43.37 626.43,-23.84 698.38,-15.26"/>
<polygon fill="midnightblue" stroke="midnightblue" points="362.42,-51.78 352.91,-56.44 363.25,-58.74 362.42,-51.78"/>
</g>
<!-- Node8&#45;&gt;Node2 -->
<g id="edge13" class="edge">
<title>Node8&#45;&gt;Node2</title>
<path fill="none" stroke="midnightblue" d="M191.56,-55.88C389.25,-37.36 612.94,-20.12 698.46,-13.67"/>
<polygon fill="midnightblue" stroke="midnightblue" points="191.2,-52.4 181.57,-56.82 191.86,-59.37 191.2,-52.4"/>
</g>
<!-- Node9&#45;&gt;Node2 -->
<g id="edge15" class="edge">
<title>Node9&#45;&gt;Node2</title>
<path fill="none" stroke="midnightblue" d="M550.38,-159.62C566.2,-134.04 598.79,-86.04 637.13,-56 658.46,-39.28 687.01,-27 707.61,-19.52"/>
<polygon fill="midnightblue" stroke="midnightblue" points="547.34,-157.88 545.16,-168.24 553.33,-161.5 547.34,-157.88"/>
</g>
<!-- Node10&#45;&gt;Node2 -->
<g id="edge18" class="edge">
<title>Node10&#45;&gt;Node2</title>
<path fill="none" stroke="midnightblue" d="M1018.04,-158.05C1016.27,-143.76 1011.71,-124.53 1000.13,-112 938.09,-44.89 826.8,-22.03 769.84,-14.51"/>
<polygon fill="midnightblue" stroke="midnightblue" points="1014.57,-158.59 1018.95,-168.24 1021.55,-157.97 1014.57,-158.59"/>
</g>
<!-- Node11 -->
<g id="node11" class="node">
<title>Node11</title>
<g id="a_node11"><a xlink:href="lharmony__Chromatic_8h.html" target="_top" xlink:title="This file defines the Chromatic scale class.">
<polygon fill="white" stroke="black" points="1047.13,-112.5 1047.13,-131.5 1175.13,-131.5 1175.13,-112.5 1047.13,-112.5"/>
<text text-anchor="middle" x="1111.13" y="-119.5" font-family="Helvetica,sans-Serif" font-size="10.00">lharmony_Chromatic.h</text>
</a>
</g>
</g>
<!-- Node10&#45;&gt;Node11 -->
<g id="edge19" class="edge">
<title>Node10&#45;&gt;Node11</title>
<path fill="none" stroke="midnightblue" d="M1042.68,-163.18C1059.6,-153.24 1081.91,-140.15 1096.38,-131.65"/>
<polygon fill="midnightblue" stroke="midnightblue" points="1040.76,-160.24 1033.91,-168.32 1044.3,-166.28 1040.76,-160.24"/>
</g>
<!-- Node12 -->
<g id="node12" class="node">
<title>Node12</title>
<g id="a_node12"><a xlink:href="lharmony__KeySignature_8h.html" target="_top" xlink:title="This file defines the KeySignature scale class.">
<polygon fill="white" stroke="black" points="1193.13,-112.5 1193.13,-131.5 1335.13,-131.5 1335.13,-112.5 1193.13,-112.5"/>
<text text-anchor="middle" x="1264.13" y="-119.5" font-family="Helvetica,sans-Serif" font-size="10.00">lharmony_KeySignature.h</text>
</a>
</g>
</g>
<!-- Node10&#45;&gt;Node12 -->
<g id="edge21" class="edge">
<title>Node10&#45;&gt;Node12</title>
<path fill="none" stroke="midnightblue" d="M1067.76,-166.28C1114.05,-156.08 1182.82,-140.92 1225.49,-131.52"/>
<polygon fill="midnightblue" stroke="midnightblue" points="1066.96,-162.87 1057.95,-168.44 1068.47,-169.71 1066.96,-162.87"/>
</g>
<!-- Node14 -->
<g id="node14" class="node">
<title>Node14</title>
<g id="a_node14"><a xlink:href="lharmony__Mode_8h.html" target="_top" xlink:title="This file defines the Mode scale class.">
<polygon fill="white" stroke="black" points="1311.13,-56.5 1311.13,-75.5 1415.13,-75.5 1415.13,-56.5 1311.13,-56.5"/>
<text text-anchor="middle" x="1363.13" y="-63.5" font-family="Helvetica,sans-Serif" font-size="10.00">lharmony_Mode.h</text>
</a>
</g>
</g>
<!-- Node10&#45;&gt;Node14 -->
<g id="edge27" class="edge">
<title>Node10&#45;&gt;Node14</title>
<path fill="none" stroke="midnightblue" d="M1081.47,-176.21C1164.65,-173.88 1305.89,-165 1344.13,-132 1360.68,-117.71 1363.21,-89.87 1363.35,-75.72"/>
<polygon fill="midnightblue" stroke="midnightblue" points="1081.29,-172.72 1071.38,-176.47 1081.47,-179.71 1081.29,-172.72"/>
</g>
<!-- Node15 -->
<g id="node15" class="node">
<title>Node15</title>
<g id="a_node15"><a xlink:href="lharmony__Octatonic_8h.html" target="_top" xlink:title="This file defines the Octatonic scale class.">
<polygon fill="white" stroke="black" points="717.13,-112.5 717.13,-131.5 841.13,-131.5 841.13,-112.5 717.13,-112.5"/>
<text text-anchor="middle" x="779.13" y="-119.5" font-family="Helvetica,sans-Serif" font-size="10.00">lharmony_Octatonic.h</text>
</a>
</g>
</g>
<!-- Node10&#45;&gt;Node15 -->
<g id="edge28" class="edge">
<title>Node10&#45;&gt;Node15</title>
<path fill="none" stroke="midnightblue" d="M971.2,-166.22C925.85,-156.01 858.68,-140.9 816.98,-131.52"/>
<polygon fill="midnightblue" stroke="midnightblue" points="970.57,-169.66 981.1,-168.44 972.11,-162.83 970.57,-169.66"/>
</g>
<!-- Node16 -->
<g id="node16" class="node">
<title>Node16</title>
<g id="a_node16"><a xlink:href="lharmony__WholeTone_8h.html" target="_top" xlink:title="This file defines the WholeTone scale class.">
<polygon fill="white" stroke="black" points="859.63,-112.5 859.63,-131.5 990.63,-131.5 990.63,-112.5 859.63,-112.5"/>
<text text-anchor="middle" x="925.13" y="-119.5" font-family="Helvetica,sans-Serif" font-size="10.00">lharmony_WholeTone.h</text>
</a>
</g>
</g>
<!-- Node10&#45;&gt;Node16 -->
<g id="edge30" class="edge">
<title>Node10&#45;&gt;Node16</title>
<path fill="none" stroke="midnightblue" d="M995.06,-163.18C977.77,-153.24 954.98,-140.15 940.19,-131.65"/>
<polygon fill="midnightblue" stroke="midnightblue" points="993.61,-166.38 1004.02,-168.32 997.1,-160.31 993.61,-166.38"/>
</g>
<!-- Node11&#45;&gt;Node2 -->
<g id="edge20" class="edge">
<title>Node11&#45;&gt;Node2</title>
<path fill="none" stroke="midnightblue" d="M1093.29,-106.08C1074.21,-90.95 1042.45,-68.1 1011.13,-56 928.64,-24.13 823.88,-14.83 769.89,-12.12"/>
<polygon fill="midnightblue" stroke="midnightblue" points="1091.15,-108.85 1101.12,-112.42 1095.55,-103.41 1091.15,-108.85"/>
</g>
<!-- Node12&#45;&gt;Node2 -->
<g id="edge22" class="edge">
<title>Node12&#45;&gt;Node2</title>
<path fill="none" stroke="midnightblue" d="M1216.54,-110.14C1181.98,-101.86 1134.25,-89.58 1093.13,-76 1070.4,-68.5 1066.24,-62.21 1043.13,-56 946.27,-29.97 828.03,-18.06 769.9,-13.46"/>
<polygon fill="midnightblue" stroke="midnightblue" points="1215.84,-113.57 1226.38,-112.48 1217.46,-106.76 1215.84,-113.57"/>
</g>
<!-- Node13 -->
<g id="node13" class="node">
<title>Node13</title>
<g id="a_node13"><a xlink:href="lharmony__KeySignatureConstants_8h.html" target="_top" xlink:title="This file contains some useful predefined key signatures.">
<polygon fill="white" stroke="black" points="1101.63,-56.5 1101.63,-75.5 1292.63,-75.5 1292.63,-56.5 1101.63,-56.5"/>
<text text-anchor="middle" x="1197.13" y="-63.5" font-family="Helvetica,sans-Serif" font-size="10.00">lharmony_KeySignatureConstants.h</text>
</a>
</g>
</g>
<!-- Node12&#45;&gt;Node13 -->
<g id="edge23" class="edge">
<title>Node12&#45;&gt;Node13</title>
<path fill="none" stroke="midnightblue" d="M1245.29,-105.82C1233.29,-96.15 1218.15,-83.95 1208.09,-75.83"/>
<polygon fill="midnightblue" stroke="midnightblue" points="1243.38,-108.77 1253.36,-112.32 1247.77,-103.32 1243.38,-108.77"/>
</g>
<!-- Node12&#45;&gt;Node14 -->
<g id="edge25" class="edge">
<title>Node12&#45;&gt;Node14</title>
<path fill="none" stroke="midnightblue" d="M1288.96,-107.45C1307.24,-97.48 1331.54,-84.23 1347.26,-75.65"/>
<polygon fill="midnightblue" stroke="midnightblue" points="1287.13,-104.46 1280.03,-112.32 1290.49,-110.61 1287.13,-104.46"/>
</g>
<!-- Node13&#45;&gt;Node2 -->
<g id="edge24" class="edge">
<title>Node13&#45;&gt;Node2</title>
<path fill="none" stroke="midnightblue" d="M1114.04,-55.31C1011.89,-43.4 843.07,-23.71 769.84,-15.17"/>
<polygon fill="midnightblue" stroke="midnightblue" points="1113.68,-58.79 1124.02,-56.47 1114.49,-51.84 1113.68,-58.79"/>
</g>
<!-- Node14&#45;&gt;Node2 -->
<g id="edge26" class="edge">
<title>Node14&#45;&gt;Node2</title>
<path fill="none" stroke="midnightblue" d="M1300.76,-55.92C1093.61,-32.78 857.94,-18.08 769.76,-12.99"/>
<polygon fill="midnightblue" stroke="midnightblue" points="1300.58,-59.42 1310.91,-57.06 1301.37,-52.46 1300.58,-59.42"/>
</g>
<!-- Node15&#45;&gt;Node2 -->
<g id="edge29" class="edge">
<title>Node15&#45;&gt;Node2</title>
<path fill="none" stroke="midnightblue" d="M771.76,-103C761.94,-79 744.95,-37.47 737.64,-19.59"/>
<polygon fill="midnightblue" stroke="midnightblue" points="768.57,-104.44 775.59,-112.37 775.05,-101.79 768.57,-104.44"/>
</g>
<!-- Node16&#45;&gt;Node2 -->
<g id="edge31" class="edge">
<title>Node16&#45;&gt;Node2</title>
<path fill="none" stroke="midnightblue" d="M901.34,-107.3C861.41,-84.3 782.03,-38.59 749.04,-19.59"/>
<polygon fill="midnightblue" stroke="midnightblue" points="899.73,-110.41 910.14,-112.37 903.22,-104.34 899.73,-110.41"/>
</g>
<!-- Node17&#45;&gt;Node2 -->
<g id="edge33" class="edge">
<title>Node17&#45;&gt;Node2</title>
<path fill="none" stroke="midnightblue" d="M1093.52,-284.93C1215.13,-276.22 1443.13,-250.38 1443.13,-179 1443.13,-179 1443.13,-179 1443.13,-121 1443.13,-90.9 1447.61,-74.83 1424.13,-56 1372.85,-14.89 904.34,-11.18 769.99,-10.97"/>
<polygon fill="midnightblue" stroke="midnightblue" points="1093.26,-281.44 1083.52,-285.63 1093.74,-288.43 1093.26,-281.44"/>
</g>
<!-- Node17&#45;&gt;Node3 -->
<g id="edge38" class="edge">
<title>Node17&#45;&gt;Node3</title>
<path fill="none" stroke="midnightblue" d="M950.9,-278.99C878.71,-268.4 766.47,-251.93 701.76,-242.43"/>
<polygon fill="midnightblue" stroke="midnightblue" points="950.41,-282.45 960.82,-280.44 951.43,-275.53 950.41,-282.45"/>
</g>
<!-- Node17&#45;&gt;Node10 -->
<g id="edge39" class="edge">
<title>Node17&#45;&gt;Node10</title>
<path fill="none" stroke="midnightblue" d="M1019.13,-270.35C1019.13,-246.25 1019.13,-205.31 1019.13,-187.59"/>
<polygon fill="midnightblue" stroke="midnightblue" points="1015.63,-270.37 1019.13,-280.37 1022.63,-270.37 1015.63,-270.37"/>
</g>
<!-- Node17&#45;&gt;Node11 -->
<g id="edge34" class="edge">
<title>Node17&#45;&gt;Node11</title>
<path fill="none" stroke="midnightblue" d="M1030.3,-271.69C1042.96,-251.81 1063.93,-218.07 1080.13,-188 1090.8,-168.19 1101.79,-144.1 1107.37,-131.55"/>
<polygon fill="midnightblue" stroke="midnightblue" points="1027.26,-269.94 1024.81,-280.25 1033.15,-273.72 1027.26,-269.94"/>
</g>
<!-- Node17&#45;&gt;Node12 -->
<g id="edge35" class="edge">
<title>Node17&#45;&gt;Node12</title>
<path fill="none" stroke="midnightblue" d="M1040.31,-274.65C1089.79,-241.12 1211.74,-158.49 1251.43,-131.61"/>
<polygon fill="midnightblue" stroke="midnightblue" points="1038.27,-271.8 1031.95,-280.31 1042.2,-277.6 1038.27,-271.8"/>
</g>
<!-- Node17&#45;&gt;Node14 -->
<g id="edge36" class="edge">
<title>Node17&#45;&gt;Node14</title>
<path fill="none" stroke="midnightblue" d="M1093.26,-278.85C1175.53,-263.19 1304.55,-224.56 1364.13,-132 1375.24,-114.73 1370.05,-89.16 1366.11,-75.82"/>
<polygon fill="midnightblue" stroke="midnightblue" points="1092.42,-275.45 1083.22,-280.69 1093.68,-282.33 1092.42,-275.45"/>
</g>
<!-- Node17&#45;&gt;Node15 -->
<g id="edge37" class="edge">
<title>Node17&#45;&gt;Node15</title>
<path fill="none" stroke="midnightblue" d="M998.07,-274.44C949.41,-240.78 830.36,-158.44 791.57,-131.61"/>
<polygon fill="midnightblue" stroke="midnightblue" points="996.34,-277.5 1006.56,-280.31 1000.33,-271.74 996.34,-277.5"/>
</g>
<!-- Node17&#45;&gt;Node16 -->
<g id="edge40" class="edge">
<title>Node17&#45;&gt;Node16</title>
<path fill="none" stroke="midnightblue" d="M1008.28,-271.92C995.77,-252.01 974.78,-218.02 958.13,-188 947.07,-168.08 935.25,-144.04 929.2,-131.52"/>
<polygon fill="midnightblue" stroke="midnightblue" points="1005.39,-273.89 1013.69,-280.48 1011.31,-270.15 1005.39,-273.89"/>
</g>
</g>
</svg>
