<?xml version="1.0" encoding="UTF-8" standalone="no"?>
<!DOCTYPE svg PUBLIC "-//W3C//DTD SVG 1.1//EN"
 "http://www.w3.org/Graphics/SVG/1.1/DTD/svg11.dtd">
<!-- Generated by graphviz version 2.43.0 (0)
 -->
<!-- Title: lharmony_Pitch.h Pages: 1 -->
<svg width="584pt" height="196pt"
 viewBox="0.00 0.00 583.50 196.00" xmlns="http://www.w3.org/2000/svg" xmlns:xlink="http://www.w3.org/1999/xlink">
<g id="graph0" class="graph" transform="scale(1 1) rotate(0) translate(4 192)">
<title>lharmony_Pitch.h</title>
<polygon fill="white" stroke="transparent" points="-4,4 -4,-192 579.5,-192 579.5,4 -4,4"/>
<!-- Node1 -->
<g id="node1" class="node">
<title>Node1</title>
<g id="a_node1"><a xlink:title="This file defines the Pitch class.">
<polygon fill="#bfbfbf" stroke="black" points="111,-168.5 111,-187.5 212,-187.5 212,-168.5 111,-168.5"/>
<text text-anchor="middle" x="161.5" y="-175.5" font-family="Helvetica,sans-Serif" font-size="10.00">lharmony_Pitch.h</text>
</a>
</g>
</g>
<!-- Node2 -->
<g id="node2" class="node">
<title>Node2</title>
<g id="a_node2"><a xlink:title=" ">
<polygon fill="white" stroke="#bfbfbf" points="0,-112.5 0,-131.5 57,-131.5 57,-112.5 0,-112.5"/>
<text text-anchor="middle" x="28.5" y="-119.5" font-family="Helvetica,sans-Serif" font-size="10.00">ostream</text>
</a>
</g>
</g>
<!-- Node1&#45;&gt;Node2 -->
<g id="edge1" class="edge">
<title>Node1&#45;&gt;Node2</title>
<path fill="none" stroke="midnightblue" d="M140.43,-168.44C118.44,-159.52 83.77,-145.44 58.84,-135.32"/>
<polygon fill="midnightblue" stroke="midnightblue" points="60.06,-132.04 49.48,-131.52 57.42,-138.52 60.06,-132.04"/>
</g>
<!-- Node3 -->
<g id="node3" class="node">
<title>Node3</title>
<g id="a_node3"><a xlink:title=" ">
<polygon fill="white" stroke="#bfbfbf" points="44.5,-0.5 44.5,-19.5 202.5,-19.5 202.5,-0.5 44.5,-0.5"/>
<text text-anchor="middle" x="123.5" y="-7.5" font-family="Helvetica,sans-Serif" font-size="10.00">lharmony/lharmony_Export.h</text>
</a>
</g>
</g>
<!-- Node1&#45;&gt;Node3 -->
<g id="edge2" class="edge">
<title>Node1&#45;&gt;Node3</title>
<path fill="none" stroke="midnightblue" d="M156.41,-168.33C151.42,-159.47 143.93,-145.19 139.5,-132 127.84,-97.31 124.63,-54.34 123.77,-30.06"/>
<polygon fill="midnightblue" stroke="midnightblue" points="127.27,-29.67 123.52,-19.77 120.27,-29.85 127.27,-29.67"/>
</g>
<!-- Node4 -->
<g id="node4" class="node">
<title>Node4</title>
<g id="a_node4"><a xlink:href="lharmony__PitchClass_8h.html" target="_top" xlink:title="This file defines the PitchClass class.">
<polygon fill="white" stroke="black" points="149,-112.5 149,-131.5 326,-131.5 326,-112.5 149,-112.5"/>
<text text-anchor="middle" x="237.5" y="-119.5" font-family="Helvetica,sans-Serif" font-size="10.00">lharmony/lharmony_PitchClass.h</text>
</a>
</g>
</g>
<!-- Node1&#45;&gt;Node4 -->
<g id="edge3" class="edge">
<title>Node1&#45;&gt;Node4</title>
<path fill="none" stroke="midnightblue" d="M173.71,-168.32C185.28,-160.11 202.88,-147.6 216.66,-137.81"/>
<polygon fill="midnightblue" stroke="midnightblue" points="218.94,-140.48 225.07,-131.83 214.89,-134.77 218.94,-140.48"/>
</g>
<!-- Node8 -->
<g id="node8" class="node">
<title>Node8</title>
<g id="a_node8"><a xlink:href="lharmony__PitchUtils_8h.html" target="_top" xlink:title="This file contains miscellaneous pitch utilities.">
<polygon fill="white" stroke="black" points="360,-56.5 360,-75.5 533,-75.5 533,-56.5 360,-56.5"/>
<text text-anchor="middle" x="446.5" y="-63.5" font-family="Helvetica,sans-Serif" font-size="10.00">lharmony/lharmony_PitchUtils.h</text>
</a>
</g>
</g>
<!-- Node1&#45;&gt;Node8 -->
<g id="edge14" class="edge">
<title>Node1&#45;&gt;Node8</title>
<path fill="none" stroke="midnightblue" d="M208.13,-168.46C243.6,-161.11 293.17,-149 334.5,-132 368.16,-118.16 404.03,-95.83 425.86,-81.29"/>
<polygon fill="midnightblue" stroke="midnightblue" points="427.98,-84.08 434.31,-75.58 424.06,-78.28 427.98,-84.08"/>
</g>
<!-- Node4&#45;&gt;Node3 -->
<g id="edge7" class="edge">
<title>Node4&#45;&gt;Node3</title>
<path fill="none" stroke="midnightblue" d="M203.23,-112.45C182.91,-105.72 158.14,-94.33 142.5,-76 131.42,-63.02 126.8,-43.85 124.87,-29.69"/>
<polygon fill="midnightblue" stroke="midnightblue" points="128.34,-29.22 123.83,-19.63 121.38,-29.93 128.34,-29.22"/>
</g>
<!-- Node5 -->
<g id="node5" class="node">
<title>Node5</title>
<g id="a_node5"><a xlink:title=" ">
<polygon fill="white" stroke="#bfbfbf" points="310.5,-0.5 310.5,-19.5 352.5,-19.5 352.5,-0.5 310.5,-0.5"/>
<text text-anchor="middle" x="331.5" y="-7.5" font-family="Helvetica,sans-Serif" font-size="10.00">array</text>
</a>
</g>
</g>
<!-- Node4&#45;&gt;Node5 -->
<g id="edge4" class="edge">
<title>Node4&#45;&gt;Node5</title>
<path fill="none" stroke="midnightblue" d="M260.68,-112.48C277.38,-105.22 299.23,-93.19 312.5,-76 322.82,-62.63 327.54,-43.81 329.69,-29.86"/>
<polygon fill="midnightblue" stroke="midnightblue" points="333.17,-30.26 330.93,-19.91 326.22,-29.4 333.17,-30.26"/>
</g>
<!-- Node6 -->
<g id="node6" class="node">
<title>Node6</title>
<g id="a_node6"><a xlink:title=" ">
<polygon fill="white" stroke="#bfbfbf" points="152,-56.5 152,-75.5 225,-75.5 225,-56.5 152,-56.5"/>
<text text-anchor="middle" x="188.5" y="-63.5" font-family="Helvetica,sans-Serif" font-size="10.00">string_view</text>
</a>
</g>
</g>
<!-- Node4&#45;&gt;Node6 -->
<g id="edge5" class="edge">
<title>Node4&#45;&gt;Node6</title>
<path fill="none" stroke="midnightblue" d="M229.41,-112.08C222.34,-104.3 211.91,-92.8 203.35,-83.37"/>
<polygon fill="midnightblue" stroke="midnightblue" points="205.75,-80.8 196.44,-75.75 200.57,-85.51 205.75,-80.8"/>
</g>
<!-- Node7 -->
<g id="node7" class="node">
<title>Node7</title>
<g id="a_node7"><a xlink:title=" ">
<polygon fill="white" stroke="#bfbfbf" points="243.5,-56.5 243.5,-75.5 303.5,-75.5 303.5,-56.5 243.5,-56.5"/>
<text text-anchor="middle" x="273.5" y="-63.5" font-family="Helvetica,sans-Serif" font-size="10.00">iostream</text>
</a>
</g>
</g>
<!-- Node4&#45;&gt;Node7 -->
<g id="edge6" class="edge">
<title>Node4&#45;&gt;Node7</title>
<path fill="none" stroke="midnightblue" d="M243.44,-112.08C248.48,-104.53 255.84,-93.49 262.01,-84.23"/>
<polygon fill="midnightblue" stroke="midnightblue" points="265.03,-86.01 267.67,-75.75 259.21,-82.13 265.03,-86.01"/>
</g>
<!-- Node4&#45;&gt;Node8 -->
<g id="edge8" class="edge">
<title>Node4&#45;&gt;Node8</title>
<path fill="none" stroke="midnightblue" d="M270.62,-112.44C306.62,-103.14 364.27,-88.25 403.69,-78.06"/>
<polygon fill="midnightblue" stroke="midnightblue" points="404.73,-81.41 413.54,-75.52 402.98,-74.63 404.73,-81.41"/>
</g>
<!-- Node8&#45;&gt;Node3 -->
<g id="edge13" class="edge">
<title>Node8&#45;&gt;Node3</title>
<path fill="none" stroke="midnightblue" d="M395.32,-56.44C338.03,-46.87 245.26,-31.36 184.31,-21.17"/>
<polygon fill="midnightblue" stroke="midnightblue" points="184.88,-17.71 174.44,-19.52 183.73,-24.62 184.88,-17.71"/>
</g>
<!-- Node8&#45;&gt;Node5 -->
<g id="edge9" class="edge">
<title>Node8&#45;&gt;Node5</title>
<path fill="none" stroke="midnightblue" d="M428.28,-56.44C409.6,-47.68 380.34,-33.94 358.88,-23.86"/>
<polygon fill="midnightblue" stroke="midnightblue" points="360.18,-20.6 349.64,-19.52 357.2,-26.93 360.18,-20.6"/>
</g>
<!-- Node9 -->
<g id="node9" class="node">
<title>Node9</title>
<g id="a_node9"><a xlink:title=" ">
<polygon fill="white" stroke="#bfbfbf" points="523.5,-0.5 523.5,-19.5 575.5,-19.5 575.5,-0.5 523.5,-0.5"/>
<text text-anchor="middle" x="549.5" y="-7.5" font-family="Helvetica,sans-Serif" font-size="10.00">cassert</text>
</a>
</g>
</g>
<!-- Node8&#45;&gt;Node9 -->
<g id="edge10" class="edge">
<title>Node8&#45;&gt;Node9</title>
<path fill="none" stroke="midnightblue" d="M463.05,-56.32C479.49,-47.7 504.93,-34.36 523.97,-24.39"/>
<polygon fill="midnightblue" stroke="midnightblue" points="525.76,-27.4 532.99,-19.65 522.51,-21.2 525.76,-27.4"/>
</g>
<!-- Node10 -->
<g id="node10" class="node">
<title>Node10</title>
<g id="a_node10"><a xlink:title=" ">
<polygon fill="white" stroke="#bfbfbf" points="371,-0.5 371,-19.5 440,-19.5 440,-0.5 371,-0.5"/>
<text text-anchor="middle" x="405.5" y="-7.5" font-family="Helvetica,sans-Serif" font-size="10.00">type_traits</text>
</a>
</g>
</g>
<!-- Node8&#45;&gt;Node10 -->
<g id="edge11" class="edge">
<title>Node8&#45;&gt;Node10</title>
<path fill="none" stroke="midnightblue" d="M439.73,-56.08C433.94,-48.46 425.44,-37.26 418.36,-27.94"/>
<polygon fill="midnightblue" stroke="midnightblue" points="420.98,-25.6 412.14,-19.75 415.4,-29.83 420.98,-25.6"/>
</g>
<!-- Node11 -->
<g id="node11" class="node">
<title>Node11</title>
<g id="a_node11"><a xlink:title=" ">
<polygon fill="white" stroke="#bfbfbf" points="458,-0.5 458,-19.5 505,-19.5 505,-0.5 458,-0.5"/>
<text text-anchor="middle" x="481.5" y="-7.5" font-family="Helvetica,sans-Serif" font-size="10.00">cmath</text>
</a>
</g>
</g>
<!-- Node8&#45;&gt;Node11 -->
<g id="edge12" class="edge">
<title>Node8&#45;&gt;Node11</title>
<path fill="none" stroke="midnightblue" d="M452.28,-56.08C457.17,-48.53 464.33,-37.49 470.33,-28.23"/>
<polygon fill="midnightblue" stroke="midnightblue" points="473.33,-30.05 475.83,-19.75 467.45,-26.24 473.33,-30.05"/>
</g>
</g>
</svg>
