<?xml version="1.0" encoding="UTF-8" standalone="no"?>
<!DOCTYPE svg PUBLIC "-//W3C//DTD SVG 1.1//EN"
 "http://www.w3.org/Graphics/SVG/1.1/DTD/svg11.dtd">
<!-- Generated by graphviz version 8.0.5 (20230430.1635)
 -->
<!-- Title: lharmony_PitchClass.h Pages: 1 -->
<svg width="472pt" height="138pt"
 viewBox="0.00 0.00 471.62 137.75" xmlns="http://www.w3.org/2000/svg" xmlns:xlink="http://www.w3.org/1999/xlink">

<svg id="main" version="1.1" xmlns="http://www.w3.org/2000/svg" xmlns:xlink="http://www.w3.org/1999/xlink" xml:space="preserve" onload="init(evt)">
<style type="text/css"><![CDATA[
.node, .edge {opacity: 0.7;}
.node.selected, .edge.selected {opacity: 1;}
.edge:hover path { stroke: red; }
.edge:hover polygon { stroke: red; fill: red; }
]]></style>
<script type="application/ecmascript" xlink:href="svg.min.js"/>
<svg id="graph" class="graph">
<g id="graph0" class="graph" transform="scale(1 1) rotate(0) translate(4 133.75)">
<title>lharmony_PitchClass.h</title>
<!-- Node1 -->
<g id="Node000001" class="node">
<title>Node1</title>
<g id="a_Node000001"><a xlink:title="This file defines the PitchClass class.">
<polygon fill="#999999" stroke="#666666" points="289.5,-129.75 172.25,-129.75 172.25,-110.5 289.5,-110.5 289.5,-129.75"/>
<text text-anchor="middle" x="230.88" y="-116.25" font-family="Helvetica,sans-Serif" font-size="10.00">lharmony_PitchClass.h</text>
</a>
</g>
</g>
<!-- Node2 -->
<g id="Node000002" class="node">
<title>Node2</title>
<g id="a_Node000002"><a xlink:title=" ">
<polygon fill="#e0e0e0" stroke="#999999" points="37.75,-19.25 0,-19.25 0,0 37.75,0 37.75,-19.25"/>
<text text-anchor="middle" x="18.88" y="-5.75" font-family="Helvetica,sans-Serif" font-size="10.00">array</text>
</a>
</g>
</g>
<!-- Node1&#45;&gt;Node2 -->
<g id="edge1_Node000001_Node000002" class="edge">
<title>Node1&#45;&gt;Node2</title>
<g id="a_edge1_Node000001_Node000002"><a xlink:title=" ">
<path fill="none" stroke="#63b8ff" d="M209.13,-110.15C188.68,-101.54 157.33,-87.91 130.88,-74.5 99.88,-58.79 65.29,-38.65 42.87,-25.22"/>
<polygon fill="#63b8ff" stroke="#63b8ff" points="44.85,-21.73 34.48,-19.57 41.24,-27.73 44.85,-21.73"/>
</a>
</g>
</g>
<!-- Node3 -->
<g id="Node000003" class="node">
<title>Node3</title>
<g id="a_Node000003"><a xlink:title=" ">
<polygon fill="#e0e0e0" stroke="#999999" points="391.62,-74.5 326.12,-74.5 326.12,-55.25 391.62,-55.25 391.62,-74.5"/>
<text text-anchor="middle" x="358.88" y="-61" font-family="Helvetica,sans-Serif" font-size="10.00">string_view</text>
</a>
</g>
</g>
<!-- Node1&#45;&gt;Node3 -->
<g id="edge2_Node000001_Node000003" class="edge">
<title>Node1&#45;&gt;Node3</title>
<g id="a_edge2_Node000001_Node000003"><a xlink:title=" ">
<path fill="none" stroke="#63b8ff" d="M252.59,-110.09C273,-101.6 303.8,-88.79 327,-79.14"/>
<polygon fill="#63b8ff" stroke="#63b8ff" points="328.17,-82.03 336.06,-74.95 325.48,-75.56 328.17,-82.03"/>
</a>
</g>
</g>
<!-- Node4 -->
<g id="Node000004" class="node">
<title>Node4</title>
<g id="a_Node000004"><a xlink:title=" ">
<polygon fill="#e0e0e0" stroke="#999999" points="463.62,-74.5 410.12,-74.5 410.12,-55.25 463.62,-55.25 463.62,-74.5"/>
<text text-anchor="middle" x="436.88" y="-61" font-family="Helvetica,sans-Serif" font-size="10.00">iostream</text>
</a>
</g>
</g>
<!-- Node1&#45;&gt;Node4 -->
<g id="edge3_Node000001_Node000004" class="edge">
<title>Node1&#45;&gt;Node4</title>
<g id="a_edge3_Node000001_Node000004"><a xlink:title=" ">
<path fill="none" stroke="#63b8ff" d="M265.82,-110.09C302.81,-100.53 360.98,-85.49 399.03,-75.66"/>
<polygon fill="#63b8ff" stroke="#63b8ff" points="399.86,-78.8 408.67,-72.91 398.11,-72.02 399.86,-78.8"/>
</a>
</g>
</g>
<!-- Node5 -->
<g id="Node000005" class="node">
<title>Node5</title>
<g id="a_Node000005"><a xlink:title=" ">
<polygon fill="#e0e0e0" stroke="#999999" points="196.12,-19.25 55.62,-19.25 55.62,0 196.12,0 196.12,-19.25"/>
<text text-anchor="middle" x="125.88" y="-5.75" font-family="Helvetica,sans-Serif" font-size="10.00">lharmony/lharmony_Export.h</text>
</a>
</g>
</g>
<!-- Node1&#45;&gt;Node5 -->
<g id="edge4_Node000001_Node000005" class="edge">
<title>Node1&#45;&gt;Node5</title>
<g id="a_edge4_Node000001_Node000005"><a xlink:title=" ">
<path fill="none" stroke="#63b8ff" d="M200.26,-110.06C181.78,-103.12 159.13,-91.75 144.88,-74.5 134.5,-61.95 129.79,-43.89 127.65,-30.17"/>
<polygon fill="#63b8ff" stroke="#63b8ff" points="131.03,-29.99 126.36,-20.48 124.09,-30.83 131.03,-29.99"/>
</a>
</g>
</g>
<!-- Node6 -->
<g id="Node000006" class="node">
<title>Node6</title>
<g id="a_Node000006"><a xlink:href="lharmony___pitch_utils_8h.html" target="_top" xlink:title="This file contains miscellaneous pitch utilities.">
<polygon fill="white" stroke="#666666" points="308.25,-74.5 153.5,-74.5 153.5,-55.25 308.25,-55.25 308.25,-74.5"/>
<text text-anchor="middle" x="230.88" y="-61" font-family="Helvetica,sans-Serif" font-size="10.00">lharmony/lharmony_PitchUtils.h</text>
</a>
</g>
</g>
<!-- Node1&#45;&gt;Node6 -->
<g id="edge5_Node000001_Node000006" class="edge">
<title>Node1&#45;&gt;Node6</title>
<g id="a_edge5_Node000001_Node000006"><a xlink:title=" ">
<path fill="none" stroke="#63b8ff" d="M230.88,-110.33C230.88,-103.67 230.88,-94.24 230.88,-85.78"/>
<polygon fill="#63b8ff" stroke="#63b8ff" points="234.38,-85.86 230.88,-75.86 227.38,-85.86 234.38,-85.86"/>
</a>
</g>
</g>
<!-- Node6&#45;&gt;Node2 -->
<g id="edge6_Node000006_Node000002" class="edge">
<title>Node6&#45;&gt;Node2</title>
<g id="a_edge6_Node000006_Node000002"><a xlink:title=" ">
<path fill="none" stroke="#63b8ff" d="M190.49,-54.83C155.36,-46.79 102.84,-34.38 48.61,-19.6"/>
<polygon fill="#63b8ff" stroke="#63b8ff" points="49.68,-15.99 39.11,-16.72 47.83,-22.74 49.68,-15.99"/>
</a>
</g>
</g>
<!-- Node6&#45;&gt;Node5 -->
<g id="edge10_Node000006_Node000005" class="edge">
<title>Node6&#45;&gt;Node5</title>
<g id="a_edge10_Node000006_Node000005"><a xlink:title=" ">
<path fill="none" stroke="#63b8ff" d="M213.06,-54.84C196.77,-46.58 172.41,-34.23 153.58,-24.68"/>
<polygon fill="#63b8ff" stroke="#63b8ff" points="155.28,-21.1 144.77,-19.7 152.11,-27.35 155.28,-21.1"/>
</a>
</g>
</g>
<!-- Node7 -->
<g id="Node000007" class="node">
<title>Node7</title>
<g id="a_Node000007"><a xlink:title=" ">
<polygon fill="#e0e0e0" stroke="#999999" points="262,-19.25 213.75,-19.25 213.75,0 262,0 262,-19.25"/>
<text text-anchor="middle" x="237.88" y="-5.75" font-family="Helvetica,sans-Serif" font-size="10.00">cassert</text>
</a>
</g>
</g>
<!-- Node6&#45;&gt;Node7 -->
<g id="edge7_Node000006_Node000007" class="edge">
<title>Node6&#45;&gt;Node7</title>
<g id="a_edge7_Node000006_Node000007"><a xlink:title=" ">
<path fill="none" stroke="#63b8ff" d="M232.03,-55.08C232.92,-48.34 234.17,-38.77 235.3,-30.24"/>
<polygon fill="#63b8ff" stroke="#63b8ff" points="238.86,-30.98 236.69,-20.61 231.92,-30.07 238.86,-30.98"/>
</a>
</g>
</g>
<!-- Node8 -->
<g id="Node000008" class="node">
<title>Node8</title>
<g id="a_Node000008"><a xlink:title=" ">
<polygon fill="#e0e0e0" stroke="#999999" points="341.75,-19.25 280,-19.25 280,0 341.75,0 341.75,-19.25"/>
<text text-anchor="middle" x="310.88" y="-5.75" font-family="Helvetica,sans-Serif" font-size="10.00">type_traits</text>
</a>
</g>
</g>
<!-- Node6&#45;&gt;Node8 -->
<g id="edge8_Node000006_Node000008" class="edge">
<title>Node6&#45;&gt;Node8</title>
<g id="a_edge8_Node000006_Node000008"><a xlink:title=" ">
<path fill="none" stroke="#63b8ff" d="M244.45,-54.84C256.4,-46.89 274.05,-35.14 288.15,-25.75"/>
<polygon fill="#63b8ff" stroke="#63b8ff" points="289.85,-28.16 296.24,-19.7 285.97,-22.33 289.85,-28.16"/>
</a>
</g>
</g>
<!-- Node9 -->
<g id="Node000009" class="node">
<title>Node9</title>
<g id="a_Node000009"><a xlink:title=" ">
<polygon fill="#e0e0e0" stroke="#999999" points="402.38,-19.25 359.38,-19.25 359.38,0 402.38,0 402.38,-19.25"/>
<text text-anchor="middle" x="380.88" y="-5.75" font-family="Helvetica,sans-Serif" font-size="10.00">cmath</text>
</a>
</g>
</g>
<!-- Node6&#45;&gt;Node9 -->
<g id="edge9_Node000006_Node000009" class="edge">
<title>Node6&#45;&gt;Node9</title>
<g id="a_edge9_Node000006_Node000009"><a xlink:title=" ">
<path fill="none" stroke="#63b8ff" d="M256.32,-54.84C281.85,-45.78 321.25,-31.79 348.88,-21.98"/>
<polygon fill="#63b8ff" stroke="#63b8ff" points="349.95,-24.96 358.21,-18.32 347.61,-18.36 349.95,-24.96"/>
</a>
</g>
</g>
</g>
</svg>
</svg>

<style type='text/css'>
<![CDATA[
[data-mouse-over-selected='false'] { opacity: 0.7; }
[data-mouse-over-selected='true']  { opacity: 1.0; }
]]>
</style>
<script type="application/ecmascript"><![CDATA[
document.addEventListener('DOMContentLoaded', (event) => {
  highlightEdges();
  highlightAdjacentNodes();
});
]]></script>
</svg>
