<?xml version="1.0" encoding="UTF-8" standalone="no"?>
<!DOCTYPE svg PUBLIC "-//W3C//DTD SVG 1.1//EN"
 "http://www.w3.org/Graphics/SVG/1.1/DTD/svg11.dtd">
<!-- Generated by graphviz version 2.43.0 (0)
 -->
<!-- Title: lharmony_Pitch.h Pages: 1 -->
<!--zoomable 252 -->
<svg id="main" version="1.1" xmlns="http://www.w3.org/2000/svg" xmlns:xlink="http://www.w3.org/1999/xlink" xml:space="preserve" onload="init(evt)">
<style type="text/css"><![CDATA[
.edge:hover path { stroke: red; }
.edge:hover polygon { stroke: red; fill: red; }
]]></style>
<script type="text/javascript"><![CDATA[
var edges = document.getElementsByTagName('g');
if (edges && edges.length) {
  for (var i=0;i<edges.length;i++) {
    if (edges[i].id.substr(0,4)=='edge') {
      edges[i].setAttribute('class','edge');
    }
  }
}
]]></script>
        <defs>
                <circle id="rim" cx="0" cy="0" r="7"/>
                <circle id="rim2" cx="0" cy="0" r="3.5"/>
                <g id="zoomPlus">
                        <use xlink:href="#rim" fill="#404040">
                                <set attributeName="fill" to="#808080" begin="zoomplus.mouseover" end="zoomplus.mouseout"/>
                        </use>
                        <path d="M-4,0h8M0,-4v8" fill="none" stroke="white" stroke-width="1.5" pointer-events="none"/>
                </g>
                <g id="zoomMin">
                        <use xlink:href="#rim" fill="#404040">
                                <set attributeName="fill" to="#808080" begin="zoomminus.mouseover" end="zoomminus.mouseout"/>
                        </use>
                        <path d="M-4,0h8" fill="none" stroke="white" stroke-width="1.5" pointer-events="none"/>
                </g>
                <g id="dirArrow">
                        <path fill="none" stroke="white" stroke-width="1.5" d="M0,-3.0v7 M-2.5,-0.5L0,-3.0L2.5,-0.5"/>
                </g>
               <g id="resetDef">
                       <use xlink:href="#rim2" fill="#404040">
                               <set attributeName="fill" to="#808080" begin="reset.mouseover" end="reset.mouseout"/>
                       </use>
               </g>
        </defs>

<script type="text/javascript">
var viewWidth = 1288;
var viewHeight = 252;
var sectionId = 'dynsection-1';
</script>
<script xlink:href="svgpan.js"/>
<svg id="graph" class="graph">
<g id="viewport">
<title>lharmony_Pitch.h</title>
<polygon fill="white" stroke="transparent" points="-4,4 -4,-248 1283.7,-248 1283.7,4 -4,4"/>
<!-- Node1 -->
<g id="node1" class="node">
<title>Node1</title>
<g id="a_node1"><a xlink:title="This file defines the Pitch class.">
<polygon fill="#bfbfbf" stroke="black" points="329.7,-224.5 329.7,-243.5 430.7,-243.5 430.7,-224.5 329.7,-224.5"/>
<text text-anchor="middle" x="380.2" y="-231.5" font-family="Helvetica,sans-Serif" font-size="10.00">lharmony_Pitch.h</text>
</a>
</g>
</g>
<!-- Node2 -->
<g id="node2" class="node">
<title>Node2</title>
<g id="a_node2"><a xlink:href="lharmony_8h_source.html" target="_top" xlink:title=" ">
<polygon fill="white" stroke="black" points="579.7,-0.5 579.7,-19.5 650.7,-19.5 650.7,-0.5 579.7,-0.5"/>
<text text-anchor="middle" x="615.2" y="-7.5" font-family="Helvetica,sans-Serif" font-size="10.00">lharmony.h</text>
</a>
</g>
</g>
<!-- Node1&#45;&gt;Node2 -->
<g id="edge1" class="edge">
<title>Node1&#45;&gt;Node2</title>
<path fill="none" stroke="midnightblue" d="M319.36,-230.41C240.45,-226.02 108.17,-214.8 68.2,-188 16.1,-153.06 -24.46,-102 18.2,-56 56.46,-14.75 456.99,-11.09 579.68,-10.94"/>
<polygon fill="midnightblue" stroke="midnightblue" points="319.48,-233.92 329.65,-230.96 319.86,-226.93 319.48,-233.92"/>
</g>
<!-- Node3 -->
<g id="node3" class="node">
<title>Node3</title>
<g id="a_node3"><a xlink:href="lharmony__Chord_8h.html" target="_top" xlink:title="This file defines the Chord class.">
<polygon fill="white" stroke="black" points="77.2,-168.5 77.2,-187.5 183.2,-187.5 183.2,-168.5 77.2,-168.5"/>
<text text-anchor="middle" x="130.2" y="-175.5" font-family="Helvetica,sans-Serif" font-size="10.00">lharmony_Chord.h</text>
</a>
</g>
</g>
<!-- Node1&#45;&gt;Node3 -->
<g id="edge2" class="edge">
<title>Node1&#45;&gt;Node3</title>
<path fill="none" stroke="midnightblue" d="M330.58,-222.28C283.34,-212.08 213.17,-196.92 169.63,-187.52"/>
<polygon fill="midnightblue" stroke="midnightblue" points="330.08,-225.75 340.59,-224.44 331.55,-218.91 330.08,-225.75"/>
</g>
<!-- Node4 -->
<g id="node4" class="node">
<title>Node4</title>
<g id="a_node4"><a xlink:href="lharmony__Interval_8h.html" target="_top" xlink:title="This file defines the Interval class.">
<polygon fill="white" stroke="black" points="258.7,-112.5 258.7,-131.5 373.7,-131.5 373.7,-112.5 258.7,-112.5"/>
<text text-anchor="middle" x="316.2" y="-119.5" font-family="Helvetica,sans-Serif" font-size="10.00">lharmony_Interval.h</text>
</a>
</g>
</g>
<!-- Node1&#45;&gt;Node4 -->
<g id="edge4" class="edge">
<title>Node1&#45;&gt;Node4</title>
<path fill="none" stroke="midnightblue" d="M370.1,-215.64C356.2,-191.74 331.7,-149.63 321.2,-131.59"/>
<polygon fill="midnightblue" stroke="midnightblue" points="367.13,-217.49 375.18,-224.37 373.18,-213.96 367.13,-217.49"/>
</g>
<!-- Node7 -->
<g id="node7" class="node">
<title>Node7</title>
<g id="a_node7"><a xlink:href="lharmony__OvertoneSeries_8h.html" target="_top" xlink:title="This file defines the OvertoneSeries class.">
<polygon fill="white" stroke="black" points="416.2,-56.5 416.2,-75.5 568.2,-75.5 568.2,-56.5 416.2,-56.5"/>
<text text-anchor="middle" x="492.2" y="-63.5" font-family="Helvetica,sans-Serif" font-size="10.00">lharmony_OvertoneSeries.h</text>
</a>
</g>
</g>
<!-- Node1&#45;&gt;Node7 -->
<g id="edge14" class="edge">
<title>Node1&#45;&gt;Node7</title>
<path fill="none" stroke="midnightblue" d="M391.83,-215.76C415.56,-180.59 468.81,-101.68 486.42,-75.57"/>
<polygon fill="midnightblue" stroke="midnightblue" points="388.92,-213.83 386.22,-224.08 394.72,-217.74 388.92,-213.83"/>
</g>
<!-- Node8 -->
<g id="node8" class="node">
<title>Node8</title>
<g id="a_node8"><a xlink:href="lharmony__MicrotonalInterval_8h.html" target="_top" xlink:title="This file defines the MicrotonalInterval class.">
<polygon fill="white" stroke="black" points="491.7,-168.5 491.7,-187.5 658.7,-187.5 658.7,-168.5 491.7,-168.5"/>
<text text-anchor="middle" x="575.2" y="-175.5" font-family="Helvetica,sans-Serif" font-size="10.00">lharmony_MicrotonalInterval.h</text>
</a>
</g>
</g>
<!-- Node1&#45;&gt;Node8 -->
<g id="edge12" class="edge">
<title>Node1&#45;&gt;Node8</title>
<path fill="none" stroke="midnightblue" d="M421.01,-221.7C457.82,-211.51 511.13,-196.74 544.45,-187.52"/>
<polygon fill="midnightblue" stroke="midnightblue" points="419.8,-218.4 411.1,-224.44 421.67,-225.15 419.8,-218.4"/>
</g>
<!-- Node9 -->
<g id="node9" class="node">
<title>Node9</title>
<g id="a_node9"><a xlink:href="lharmony__Scale_8h.html" target="_top" xlink:title="This file defines the Scale class.">
<polygon fill="white" stroke="black" points="827.2,-168.5 827.2,-187.5 931.2,-187.5 931.2,-168.5 827.2,-168.5"/>
<text text-anchor="middle" x="879.2" y="-175.5" font-family="Helvetica,sans-Serif" font-size="10.00">lharmony_Scale.h</text>
</a>
</g>
</g>
<!-- Node1&#45;&gt;Node9 -->
<g id="edge15" class="edge">
<title>Node1&#45;&gt;Node9</title>
<path fill="none" stroke="midnightblue" d="M440.93,-226.43C539.8,-215.73 733.89,-194.73 826.98,-184.65"/>
<polygon fill="midnightblue" stroke="midnightblue" points="440.36,-222.97 430.8,-227.53 441.11,-229.93 440.36,-222.97"/>
</g>
<!-- Node3&#45;&gt;Node2 -->
<g id="edge3" class="edge">
<title>Node3&#45;&gt;Node2</title>
<path fill="none" stroke="midnightblue" d="M104.99,-163.49C65.44,-140.64 -3.28,-93.24 31.2,-56 68.51,-15.71 458.62,-11.37 579.62,-11"/>
<polygon fill="midnightblue" stroke="midnightblue" points="103.44,-166.63 113.87,-168.49 106.88,-160.53 103.44,-166.63"/>
</g>
<!-- Node4&#45;&gt;Node2 -->
<g id="edge5" class="edge">
<title>Node4&#45;&gt;Node2</title>
<path fill="none" stroke="midnightblue" d="M248.47,-119.7C175.28,-116.68 65.55,-106.97 39.2,-76 33.44,-69.23 33.17,-62.53 39.2,-56 75.94,-16.28 459.87,-11.55 579.69,-11.04"/>
<polygon fill="midnightblue" stroke="midnightblue" points="248.42,-123.2 258.54,-120.08 248.68,-116.2 248.42,-123.2"/>
</g>
<!-- Node5 -->
<g id="node5" class="node">
<title>Node5</title>
<g id="a_node5"><a xlink:href="lharmony__CompoundInterval_8h.html" target="_top" xlink:title="This file defines the CompoundInterval class.">
<polygon fill="white" stroke="black" points="48.7,-56.5 48.7,-75.5 215.7,-75.5 215.7,-56.5 48.7,-56.5"/>
<text text-anchor="middle" x="132.2" y="-63.5" font-family="Helvetica,sans-Serif" font-size="10.00">lharmony_CompoundInterval.h</text>
</a>
</g>
</g>
<!-- Node4&#45;&gt;Node5 -->
<g id="edge6" class="edge">
<title>Node4&#45;&gt;Node5</title>
<path fill="none" stroke="midnightblue" d="M277.25,-109.57C242.54,-99.38 192.53,-84.7 161.22,-75.52"/>
<polygon fill="midnightblue" stroke="midnightblue" points="276.47,-112.99 287.05,-112.44 278.44,-106.27 276.47,-112.99"/>
</g>
<!-- Node6 -->
<g id="node6" class="node">
<title>Node6</title>
<g id="a_node6"><a xlink:href="lharmony__IntervalConstants_8h.html" target="_top" xlink:title="This file provides some useful Interval objects as constants.">
<polygon fill="white" stroke="black" points="234.2,-56.5 234.2,-75.5 398.2,-75.5 398.2,-56.5 234.2,-56.5"/>
<text text-anchor="middle" x="316.2" y="-63.5" font-family="Helvetica,sans-Serif" font-size="10.00">lharmony_IntervalConstants.h</text>
</a>
</g>
</g>
<!-- Node4&#45;&gt;Node6 -->
<g id="edge8" class="edge">
<title>Node4&#45;&gt;Node6</title>
<path fill="none" stroke="midnightblue" d="M316.2,-101.8C316.2,-92.91 316.2,-82.78 316.2,-75.75"/>
<polygon fill="midnightblue" stroke="midnightblue" points="312.7,-102.08 316.2,-112.08 319.7,-102.08 312.7,-102.08"/>
</g>
<!-- Node4&#45;&gt;Node7 -->
<g id="edge10" class="edge">
<title>Node4&#45;&gt;Node7</title>
<path fill="none" stroke="midnightblue" d="M353.89,-109.44C387.08,-99.26 434.63,-84.66 464.45,-75.52"/>
<polygon fill="midnightblue" stroke="midnightblue" points="352.62,-106.16 344.09,-112.44 354.68,-112.86 352.62,-106.16"/>
</g>
<!-- Node5&#45;&gt;Node2 -->
<g id="edge7" class="edge">
<title>Node5&#45;&gt;Node2</title>
<path fill="none" stroke="midnightblue" d="M218.62,-55.34C325.86,-43.35 503.8,-23.46 579.43,-15"/>
<polygon fill="midnightblue" stroke="midnightblue" points="218.02,-51.88 208.47,-56.47 218.8,-58.84 218.02,-51.88"/>
</g>
<!-- Node6&#45;&gt;Node2 -->
<g id="edge9" class="edge">
<title>Node6&#45;&gt;Node2</title>
<path fill="none" stroke="midnightblue" d="M373.78,-54.6C434.52,-43.63 528.36,-26.68 579.31,-17.48"/>
<polygon fill="midnightblue" stroke="midnightblue" points="372.8,-51.22 363.58,-56.44 374.04,-58.11 372.8,-51.22"/>
</g>
<!-- Node7&#45;&gt;Node2 -->
<g id="edge11" class="edge">
<title>Node7&#45;&gt;Node2</title>
<path fill="none" stroke="midnightblue" d="M520.98,-52.37C544.01,-42.26 575.69,-28.35 595.8,-19.52"/>
<polygon fill="midnightblue" stroke="midnightblue" points="519.44,-49.22 511.69,-56.44 522.26,-55.63 519.44,-49.22"/>
</g>
<!-- Node8&#45;&gt;Node2 -->
<g id="edge13" class="edge">
<title>Node8&#45;&gt;Node2</title>
<path fill="none" stroke="midnightblue" d="M579.8,-157.93C588.48,-121.92 606.95,-45.23 613.14,-19.57"/>
<polygon fill="midnightblue" stroke="midnightblue" points="576.29,-157.53 577.35,-168.08 583.1,-159.17 576.29,-157.53"/>
</g>
<!-- Node9&#45;&gt;Node2 -->
<g id="edge16" class="edge">
<title>Node9&#45;&gt;Node2</title>
<path fill="none" stroke="midnightblue" d="M816.86,-171.69C758.52,-165.49 676.9,-153.27 653.2,-132 619.45,-101.7 615.41,-41.81 615.12,-19.58"/>
<polygon fill="midnightblue" stroke="midnightblue" points="816.79,-175.2 827.1,-172.74 817.51,-168.24 816.79,-175.2"/>
</g>
<!-- Node10 -->
<g id="node10" class="node">
<title>Node10</title>
<g id="a_node10"><a xlink:href="lharmony__Chromatic_8h.html" target="_top" xlink:title="This file defines the Chromatic scale class.">
<polygon fill="white" stroke="black" points="662.2,-112.5 662.2,-131.5 790.2,-131.5 790.2,-112.5 662.2,-112.5"/>
<text text-anchor="middle" x="726.2" y="-119.5" font-family="Helvetica,sans-Serif" font-size="10.00">lharmony_Chromatic.h</text>
</a>
</g>
</g>
<!-- Node9&#45;&gt;Node10 -->
<g id="edge17" class="edge">
<title>Node9&#45;&gt;Node10</title>
<path fill="none" stroke="midnightblue" d="M845.31,-165.04C816.53,-154.88 775.92,-140.55 750.33,-131.52"/>
<polygon fill="midnightblue" stroke="midnightblue" points="844.36,-168.42 854.96,-168.44 846.69,-161.81 844.36,-168.42"/>
</g>
<!-- Node11 -->
<g id="node11" class="node">
<title>Node11</title>
<g id="a_node11"><a xlink:href="lharmony__KeySignature_8h.html" target="_top" xlink:title="This file defines the KeySignature scale class.">
<polygon fill="white" stroke="black" points="808.2,-112.5 808.2,-131.5 950.2,-131.5 950.2,-112.5 808.2,-112.5"/>
<text text-anchor="middle" x="879.2" y="-119.5" font-family="Helvetica,sans-Serif" font-size="10.00">lharmony_KeySignature.h</text>
</a>
</g>
</g>
<!-- Node9&#45;&gt;Node11 -->
<g id="edge19" class="edge">
<title>Node9&#45;&gt;Node11</title>
<path fill="none" stroke="midnightblue" d="M879.2,-157.8C879.2,-148.91 879.2,-138.78 879.2,-131.75"/>
<polygon fill="midnightblue" stroke="midnightblue" points="875.7,-158.08 879.2,-168.08 882.7,-158.08 875.7,-158.08"/>
</g>
<!-- Node13 -->
<g id="node13" class="node">
<title>Node13</title>
<g id="a_node13"><a xlink:href="lharmony__Mode_8h.html" target="_top" xlink:title="This file defines the Mode scale class.">
<polygon fill="white" stroke="black" points="948.2,-56.5 948.2,-75.5 1052.2,-75.5 1052.2,-56.5 948.2,-56.5"/>
<text text-anchor="middle" x="1000.2" y="-63.5" font-family="Helvetica,sans-Serif" font-size="10.00">lharmony_Mode.h</text>
</a>
</g>
</g>
<!-- Node9&#45;&gt;Node13 -->
<g id="edge25" class="edge">
<title>Node9&#45;&gt;Node13</title>
<path fill="none" stroke="midnightblue" d="M910.21,-164.04C926.11,-156.34 945.05,-145.46 959.2,-132 976.99,-115.08 990.39,-88.91 996.52,-75.52"/>
<polygon fill="midnightblue" stroke="midnightblue" points="908.38,-161.03 900.78,-168.41 911.32,-167.38 908.38,-161.03"/>
</g>
<!-- Node14 -->
<g id="node14" class="node">
<title>Node14</title>
<g id="a_node14"><a xlink:href="lharmony__Octatonic_8h.html" target="_top" xlink:title="This file defines the Octatonic scale class.">
<polygon fill="white" stroke="black" points="1006.2,-112.5 1006.2,-131.5 1130.2,-131.5 1130.2,-112.5 1006.2,-112.5"/>
<text text-anchor="middle" x="1068.2" y="-119.5" font-family="Helvetica,sans-Serif" font-size="10.00">lharmony_Octatonic.h</text>
</a>
</g>
</g>
<!-- Node9&#45;&gt;Node14 -->
<g id="edge26" class="edge">
<title>Node9&#45;&gt;Node14</title>
<path fill="none" stroke="midnightblue" d="M919.22,-165.57C954.87,-155.38 1006.24,-140.7 1038.4,-131.52"/>
<polygon fill="midnightblue" stroke="midnightblue" points="917.8,-162.33 909.15,-168.44 919.73,-169.06 917.8,-162.33"/>
</g>
<!-- Node15 -->
<g id="node15" class="node">
<title>Node15</title>
<g id="a_node15"><a xlink:href="lharmony__WholeTone_8h.html" target="_top" xlink:title="This file defines the WholeTone scale class.">
<polygon fill="white" stroke="black" points="1148.7,-112.5 1148.7,-131.5 1279.7,-131.5 1279.7,-112.5 1148.7,-112.5"/>
<text text-anchor="middle" x="1214.2" y="-119.5" font-family="Helvetica,sans-Serif" font-size="10.00">lharmony_WholeTone.h</text>
</a>
</g>
</g>
<!-- Node9&#45;&gt;Node15 -->
<g id="edge28" class="edge">
<title>Node9&#45;&gt;Node15</title>
<path fill="none" stroke="midnightblue" d="M941.79,-166.91C1005.09,-156.71 1101.85,-141.11 1161.4,-131.51"/>
<polygon fill="midnightblue" stroke="midnightblue" points="940.86,-163.52 931.55,-168.56 941.98,-170.43 940.86,-163.52"/>
</g>
<!-- Node10&#45;&gt;Node2 -->
<g id="edge18" class="edge">
<title>Node10&#45;&gt;Node2</title>
<path fill="none" stroke="midnightblue" d="M710.26,-105.21C686.47,-81.63 642.48,-38.03 623.87,-19.59"/>
<polygon fill="midnightblue" stroke="midnightblue" points="707.93,-107.82 717.49,-112.37 712.85,-102.84 707.93,-107.82"/>
</g>
<!-- Node11&#45;&gt;Node2 -->
<g id="edge20" class="edge">
<title>Node11&#45;&gt;Node2</title>
<path fill="none" stroke="midnightblue" d="M832.5,-109.91C802.41,-102.06 762.77,-90.38 729.2,-76 690.67,-59.49 648.64,-33.13 628.04,-19.61"/>
<polygon fill="midnightblue" stroke="midnightblue" points="831.76,-113.34 842.32,-112.43 833.5,-106.56 831.76,-113.34"/>
</g>
<!-- Node12 -->
<g id="node12" class="node">
<title>Node12</title>
<g id="a_node12"><a xlink:href="lharmony__KeySignatureConstants_8h.html" target="_top" xlink:title="This file contains some useful predefined key signatures.">
<polygon fill="white" stroke="black" points="738.7,-56.5 738.7,-75.5 929.7,-75.5 929.7,-56.5 738.7,-56.5"/>
<text text-anchor="middle" x="834.2" y="-63.5" font-family="Helvetica,sans-Serif" font-size="10.00">lharmony_KeySignatureConstants.h</text>
</a>
</g>
</g>
<!-- Node11&#45;&gt;Node12 -->
<g id="edge21" class="edge">
<title>Node11&#45;&gt;Node12</title>
<path fill="none" stroke="midnightblue" d="M865.16,-104.14C857.32,-94.74 847.87,-83.4 841.5,-75.75"/>
<polygon fill="midnightblue" stroke="midnightblue" points="862.68,-106.64 871.77,-112.08 868.06,-102.16 862.68,-106.64"/>
</g>
<!-- Node11&#45;&gt;Node13 -->
<g id="edge23" class="edge">
<title>Node11&#45;&gt;Node13</title>
<path fill="none" stroke="midnightblue" d="M907.51,-108.37C930.17,-98.26 961.33,-84.35 981.12,-75.52"/>
<polygon fill="midnightblue" stroke="midnightblue" points="906.08,-105.17 898.38,-112.44 908.93,-111.56 906.08,-105.17"/>
</g>
<!-- Node12&#45;&gt;Node2 -->
<g id="edge22" class="edge">
<title>Node12&#45;&gt;Node2</title>
<path fill="none" stroke="midnightblue" d="M789.69,-54.02C748.32,-43.82 687.56,-28.84 649.74,-19.52"/>
<polygon fill="midnightblue" stroke="midnightblue" points="788.95,-57.45 799.5,-56.44 790.63,-50.65 788.95,-57.45"/>
</g>
<!-- Node13&#45;&gt;Node2 -->
<g id="edge24" class="edge">
<title>Node13&#45;&gt;Node2</title>
<path fill="none" stroke="midnightblue" d="M938.51,-56.04C938.4,-56.03 938.3,-56.01 938.2,-56 833.94,-41.17 710.68,-24.13 651.06,-15.93"/>
<polygon fill="midnightblue" stroke="midnightblue" points="937.72,-59.47 948.11,-57.42 938.71,-52.54 937.72,-59.47"/>
</g>
<!-- Node14&#45;&gt;Node2 -->
<g id="edge27" class="edge">
<title>Node14&#45;&gt;Node2</title>
<path fill="none" stroke="midnightblue" d="M1071.87,-102.44C1073.6,-87.77 1073.14,-67.86 1061.2,-56 1032.25,-27.24 751.34,-15.4 650.78,-12.06"/>
<polygon fill="midnightblue" stroke="midnightblue" points="1068.4,-101.99 1070.28,-112.42 1075.31,-103.09 1068.4,-101.99"/>
</g>
<!-- Node15&#45;&gt;Node2 -->
<g id="edge29" class="edge">
<title>Node15&#45;&gt;Node2</title>
<path fill="none" stroke="midnightblue" d="M1192.15,-107.25C1166.36,-91.91 1121.88,-67.72 1080.2,-56 924.82,-12.32 730.03,-9.36 650.99,-10.2"/>
<polygon fill="midnightblue" stroke="midnightblue" points="1190.4,-110.28 1200.77,-112.46 1194.02,-104.29 1190.4,-110.28"/>
</g>
</g>
</svg>
        <g id="navigator" transform="translate(0 0)" fill="#404254">
                <rect fill="#f2f5e9" fill-opacity="0.5" stroke="#606060" stroke-width=".5" x="0" y="0" width="60" height="60"/>
                <use id="zoomplus" xlink:href="#zoomPlus" x="17" y="9" onmousedown="handleZoom(evt,'in')"/>
                <use id="zoomminus" xlink:href="#zoomMin" x="42" y="9" onmousedown="handleZoom(evt,'out')"/>
                <use id="reset" xlink:href="#resetDef" x="30" y="36" onmousedown="handleReset()"/>
                <g id="arrowUp" xlink:href="#dirArrow" transform="translate(30 24)" onmousedown="handlePan(0,-1)">
                  <use xlink:href="#rim" fill="#404040">
                        <set attributeName="fill" to="#808080" begin="arrowUp.mouseover" end="arrowUp.mouseout"/>
                  </use>
                  <path fill="none" stroke="white" stroke-width="1.5" d="M0,-3.0v7 M-2.5,-0.5L0,-3.0L2.5,-0.5"/>
                </g>
                <g id="arrowRight" xlink:href="#dirArrow" transform="rotate(90) translate(36 -43)" onmousedown="handlePan(1,0)">
                  <use xlink:href="#rim" fill="#404040">
                        <set attributeName="fill" to="#808080" begin="arrowRight.mouseover" end="arrowRight.mouseout"/>
                  </use>
                  <path fill="none" stroke="white" stroke-width="1.5" d="M0,-3.0v7 M-2.5,-0.5L0,-3.0L2.5,-0.5"/>
                </g>
                <g id="arrowDown" xlink:href="#dirArrow" transform="rotate(180) translate(-30 -48)" onmousedown="handlePan(0,1)">
                  <use xlink:href="#rim" fill="#404040">
                        <set attributeName="fill" to="#808080" begin="arrowDown.mouseover" end="arrowDown.mouseout"/>
                  </use>
                  <path fill="none" stroke="white" stroke-width="1.5" d="M0,-3.0v7 M-2.5,-0.5L0,-3.0L2.5,-0.5"/>
                </g>
                <g id="arrowLeft" xlink:href="#dirArrow" transform="rotate(270) translate(-36 17)" onmousedown="handlePan(-1,0)">
                  <use xlink:href="#rim" fill="#404040">
                        <set attributeName="fill" to="#808080" begin="arrowLeft.mouseover" end="arrowLeft.mouseout"/>
                  </use>
                  <path fill="none" stroke="white" stroke-width="1.5" d="M0,-3.0v7 M-2.5,-0.5L0,-3.0L2.5,-0.5"/>
                </g>
        </g>
        <svg viewBox="0 0 15 15" width="100%" height="30px" preserveAspectRatio="xMaxYMin meet">
         <g id="arrow_out" transform="scale(0.3 0.3)">
          <a xlink:href="lharmony__Pitch_8h__dep__incl_org.svg" target="_base">
           <rect id="button" ry="5" rx="5" y="6" x="6" height="38" width="38"
                fill="#f2f5e9" fill-opacity="0.5" stroke="#606060" stroke-width="1.0"/>
           <path id="arrow"
             d="M 11.500037,31.436501 C 11.940474,20.09759 22.043105,11.32322 32.158766,21.979434 L 37.068811,17.246167 C 37.068811,17.246167 37.088388,32 37.088388,32 L 22.160133,31.978069 C 22.160133,31.978069 26.997745,27.140456 26.997745,27.140456 C 18.528582,18.264221 13.291696,25.230495 11.500037,31.436501 z"
             style="fill:#404040;"/>
          </a>
         </g>
        </svg>
</svg>
