<?xml version="1.0" encoding="UTF-8" standalone="no"?>
<!DOCTYPE svg PUBLIC "-//W3C//DTD SVG 1.1//EN"
 "http://www.w3.org/Graphics/SVG/1.1/DTD/svg11.dtd">
<!-- Generated by graphviz version 2.43.0 (0)
 -->
<!-- Title: limes::harmony::scales::Scale Pages: 1 -->
<svg width="302pt" height="235pt"
 viewBox="0.00 0.00 302.00 235.00" xmlns="http://www.w3.org/2000/svg" xmlns:xlink="http://www.w3.org/1999/xlink">
<g id="graph0" class="graph" transform="scale(1 1) rotate(0) translate(4 231)">
<title>limes::harmony::scales::Scale</title>
<polygon fill="white" stroke="transparent" points="-4,4 -4,-231 298,-231 298,4 -4,4"/>
<!-- Node1 -->
<g id="node1" class="node">
<title>Node1</title>
<g id="a_node1"><a xlink:title="A base class for any kind of musical scale.">
<polygon fill="#bfbfbf" stroke="black" points="0,-98.5 0,-128.5 129,-128.5 129,-98.5 0,-98.5"/>
<text text-anchor="start" x="8" y="-116.5" font-family="Helvetica,sans-Serif" font-size="10.00">limes::harmony::scales</text>
<text text-anchor="middle" x="64.5" y="-105.5" font-family="Helvetica,sans-Serif" font-size="10.00">::Scale</text>
</a>
</g>
</g>
<!-- Node2 -->
<g id="node2" class="node">
<title>Node2</title>
<g id="a_node2"><a xlink:href="classlimes_1_1harmony_1_1scales_1_1Chromatic.html" target="_top" xlink:title="A class representing a chromatic scale.">
<polygon fill="white" stroke="black" points="165,-196.5 165,-226.5 294,-226.5 294,-196.5 165,-196.5"/>
<text text-anchor="start" x="173" y="-214.5" font-family="Helvetica,sans-Serif" font-size="10.00">limes::harmony::scales</text>
<text text-anchor="middle" x="229.5" y="-203.5" font-family="Helvetica,sans-Serif" font-size="10.00">::Chromatic</text>
</a>
</g>
</g>
<!-- Node1&#45;&gt;Node2 -->
<g id="edge1" class="edge">
<title>Node1&#45;&gt;Node2</title>
<path fill="none" stroke="midnightblue" d="M90.55,-135.22C109.91,-151.22 137.9,-172.68 165,-187.5 170.89,-190.72 177.31,-193.7 183.73,-196.38"/>
<polygon fill="midnightblue" stroke="midnightblue" points="92.73,-132.48 82.81,-128.74 88.23,-137.84 92.73,-132.48"/>
</g>
<!-- Node3 -->
<g id="node3" class="node">
<title>Node3</title>
<g id="a_node3"><a xlink:href="classlimes_1_1harmony_1_1scales_1_1KeySignature.html" target="_top" xlink:title="This class represents any traditional Western key signature (eg, major, natural minor,...">
<polygon fill="white" stroke="black" points="165,-147.5 165,-177.5 294,-177.5 294,-147.5 165,-147.5"/>
<text text-anchor="start" x="173" y="-165.5" font-family="Helvetica,sans-Serif" font-size="10.00">limes::harmony::scales</text>
<text text-anchor="middle" x="229.5" y="-154.5" font-family="Helvetica,sans-Serif" font-size="10.00">::KeySignature</text>
</a>
</g>
</g>
<!-- Node1&#45;&gt;Node3 -->
<g id="edge2" class="edge">
<title>Node1&#45;&gt;Node3</title>
<path fill="none" stroke="midnightblue" d="M125.75,-131.61C143.08,-136.82 161.79,-142.45 178.43,-147.45"/>
<polygon fill="midnightblue" stroke="midnightblue" points="126.32,-128.13 115.74,-128.6 124.3,-134.83 126.32,-128.13"/>
</g>
<!-- Node4 -->
<g id="node4" class="node">
<title>Node4</title>
<g id="a_node4"><a xlink:href="classlimes_1_1harmony_1_1scales_1_1Mode.html" target="_top" xlink:title="This class represents a church mode scale.">
<polygon fill="white" stroke="black" points="165,-98.5 165,-128.5 294,-128.5 294,-98.5 165,-98.5"/>
<text text-anchor="start" x="173" y="-116.5" font-family="Helvetica,sans-Serif" font-size="10.00">limes::harmony::scales</text>
<text text-anchor="middle" x="229.5" y="-105.5" font-family="Helvetica,sans-Serif" font-size="10.00">::Mode</text>
</a>
</g>
</g>
<!-- Node1&#45;&gt;Node4 -->
<g id="edge3" class="edge">
<title>Node1&#45;&gt;Node4</title>
<path fill="none" stroke="midnightblue" d="M139.69,-113.5C148.14,-113.5 156.7,-113.5 165,-113.5"/>
<polygon fill="midnightblue" stroke="midnightblue" points="139.45,-110 129.45,-113.5 139.45,-117 139.45,-110"/>
</g>
<!-- Node5 -->
<g id="node5" class="node">
<title>Node5</title>
<g id="a_node5"><a xlink:href="classlimes_1_1harmony_1_1scales_1_1Octatonic.html" target="_top" xlink:title="Represents an octatonic scale.">
<polygon fill="white" stroke="black" points="165,-49.5 165,-79.5 294,-79.5 294,-49.5 165,-49.5"/>
<text text-anchor="start" x="173" y="-67.5" font-family="Helvetica,sans-Serif" font-size="10.00">limes::harmony::scales</text>
<text text-anchor="middle" x="229.5" y="-56.5" font-family="Helvetica,sans-Serif" font-size="10.00">::Octatonic</text>
</a>
</g>
</g>
<!-- Node1&#45;&gt;Node5 -->
<g id="edge4" class="edge">
<title>Node1&#45;&gt;Node5</title>
<path fill="none" stroke="midnightblue" d="M125.75,-95.39C143.08,-90.18 161.79,-84.55 178.43,-79.55"/>
<polygon fill="midnightblue" stroke="midnightblue" points="124.3,-92.17 115.74,-98.4 126.32,-98.87 124.3,-92.17"/>
</g>
<!-- Node6 -->
<g id="node6" class="node">
<title>Node6</title>
<g id="a_node6"><a xlink:href="classlimes_1_1harmony_1_1scales_1_1WholeTone.html" target="_top" xlink:title="A class that represents a whole tone scale.">
<polygon fill="white" stroke="black" points="165,-0.5 165,-30.5 294,-30.5 294,-0.5 165,-0.5"/>
<text text-anchor="start" x="173" y="-18.5" font-family="Helvetica,sans-Serif" font-size="10.00">limes::harmony::scales</text>
<text text-anchor="middle" x="229.5" y="-7.5" font-family="Helvetica,sans-Serif" font-size="10.00">::WholeTone</text>
</a>
</g>
</g>
<!-- Node1&#45;&gt;Node6 -->
<g id="edge5" class="edge">
<title>Node1&#45;&gt;Node6</title>
<path fill="none" stroke="midnightblue" d="M91.02,-91.91C110.42,-76.23 138.24,-55.26 165,-40.5 171.54,-36.9 178.7,-33.55 185.79,-30.56"/>
<polygon fill="midnightblue" stroke="midnightblue" points="88.77,-89.23 83.25,-98.28 93.2,-94.65 88.77,-89.23"/>
</g>
</g>
</svg>
