<?xml version="1.0" encoding="UTF-8" standalone="no"?>
<!DOCTYPE svg PUBLIC "-//W3C//DTD SVG 1.1//EN"
 "http://www.w3.org/Graphics/SVG/1.1/DTD/svg11.dtd">
<!-- Generated by graphviz version 8.0.5 (20230430.1635)
 -->
<!-- Title: limes::harmony::scales::Scale Pages: 1 -->
<svg width="279pt" height="235pt"
 viewBox="0.00 0.00 278.50 234.50" xmlns="http://www.w3.org/2000/svg" xmlns:xlink="http://www.w3.org/1999/xlink">
<g id="graph0" class="graph" transform="scale(1 1) rotate(0) translate(4 230.5)">
<title>limes::harmony::scales::Scale</title>
<!-- Node1 -->
<g id="Node000001" class="node">
<title>Node1</title>
<g id="a_Node000001"><a xlink:title="A base class for any kind of musical scale.">
<polygon fill="#999999" stroke="#666666" points="117.25,-128.5 0,-128.5 0,-98 117.25,-98 117.25,-128.5"/>
<text text-anchor="start" x="8" y="-115" font-family="Helvetica,sans-Serif" font-size="10.00">limes::harmony::scales</text>
<text text-anchor="middle" x="58.62" y="-103.75" font-family="Helvetica,sans-Serif" font-size="10.00">::Scale</text>
</a>
</g>
</g>
<!-- Node2 -->
<g id="Node000002" class="node">
<title>Node2</title>
<g id="a_Node000002"><a xlink:href="classlimes_1_1harmony_1_1scales_1_1_chromatic.html" target="_top" xlink:title="A class representing a chromatic scale.">
<polygon fill="white" stroke="#666666" points="270.5,-226.5 153.25,-226.5 153.25,-196 270.5,-196 270.5,-226.5"/>
<text text-anchor="start" x="161.25" y="-213" font-family="Helvetica,sans-Serif" font-size="10.00">limes::harmony::scales</text>
<text text-anchor="middle" x="211.88" y="-201.75" font-family="Helvetica,sans-Serif" font-size="10.00">::Chromatic</text>
</a>
</g>
</g>
<!-- Node1&#45;&gt;Node2 -->
<g id="edge1_Node000001_Node000002" class="edge">
<title>Node1&#45;&gt;Node2</title>
<g id="a_edge1_Node000001_Node000002"><a xlink:title=" ">
<path fill="none" stroke="#63b8ff" d="M85.23,-136.11C103.37,-151.55 128.73,-171.69 153.25,-186.25 158.88,-189.59 165.03,-192.74 171.16,-195.6"/>
<polygon fill="#63b8ff" stroke="#63b8ff" points="87.8,-132.84 77.95,-128.95 83.23,-138.13 87.8,-132.84"/>
</a>
</g>
</g>
<!-- Node3 -->
<g id="Node000003" class="node">
<title>Node3</title>
<g id="a_Node000003"><a xlink:href="classlimes_1_1harmony_1_1scales_1_1_key_signature.html" target="_top" xlink:title="This class represents any traditional Western key signature (eg, major, natural minor,...">
<polygon fill="white" stroke="#666666" points="270.5,-177.5 153.25,-177.5 153.25,-147 270.5,-147 270.5,-177.5"/>
<text text-anchor="start" x="161.25" y="-164" font-family="Helvetica,sans-Serif" font-size="10.00">limes::harmony::scales</text>
<text text-anchor="middle" x="211.88" y="-152.75" font-family="Helvetica,sans-Serif" font-size="10.00">::KeySignature</text>
</a>
</g>
</g>
<!-- Node1&#45;&gt;Node3 -->
<g id="edge2_Node000001_Node000003" class="edge">
<title>Node1&#45;&gt;Node3</title>
<g id="a_edge2_Node000001_Node000003"><a xlink:title=" ">
<path fill="none" stroke="#63b8ff" d="M118.3,-132.26C132.85,-136.97 148.28,-141.97 162.28,-146.51"/>
<polygon fill="#63b8ff" stroke="#63b8ff" points="119.49,-128.64 108.9,-128.89 117.33,-135.3 119.49,-128.64"/>
</a>
</g>
</g>
<!-- Node4 -->
<g id="Node000004" class="node">
<title>Node4</title>
<g id="a_Node000004"><a xlink:href="classlimes_1_1harmony_1_1scales_1_1_mode.html" target="_top" xlink:title="This class represents a church mode scale.">
<polygon fill="white" stroke="#666666" points="270.5,-128.5 153.25,-128.5 153.25,-98 270.5,-98 270.5,-128.5"/>
<text text-anchor="start" x="161.25" y="-115" font-family="Helvetica,sans-Serif" font-size="10.00">limes::harmony::scales</text>
<text text-anchor="middle" x="211.88" y="-103.75" font-family="Helvetica,sans-Serif" font-size="10.00">::Mode</text>
</a>
</g>
</g>
<!-- Node1&#45;&gt;Node4 -->
<g id="edge3_Node000001_Node000004" class="edge">
<title>Node1&#45;&gt;Node4</title>
<g id="a_edge3_Node000001_Node000004"><a xlink:title=" ">
<path fill="none" stroke="#63b8ff" d="M128.46,-113.25C136.74,-113.25 145.14,-113.25 153.24,-113.25"/>
<polygon fill="#63b8ff" stroke="#63b8ff" points="128.67,-109.75 118.67,-113.25 128.67,-116.75 128.67,-109.75"/>
</a>
</g>
</g>
<!-- Node5 -->
<g id="Node000005" class="node">
<title>Node5</title>
<g id="a_Node000005"><a xlink:href="classlimes_1_1harmony_1_1scales_1_1_octatonic.html" target="_top" xlink:title="Represents an octatonic scale.">
<polygon fill="white" stroke="#666666" points="270.5,-79.5 153.25,-79.5 153.25,-49 270.5,-49 270.5,-79.5"/>
<text text-anchor="start" x="161.25" y="-66" font-family="Helvetica,sans-Serif" font-size="10.00">limes::harmony::scales</text>
<text text-anchor="middle" x="211.88" y="-54.75" font-family="Helvetica,sans-Serif" font-size="10.00">::Octatonic</text>
</a>
</g>
</g>
<!-- Node1&#45;&gt;Node5 -->
<g id="edge4_Node000001_Node000005" class="edge">
<title>Node1&#45;&gt;Node5</title>
<g id="a_edge4_Node000001_Node000005"><a xlink:title=" ">
<path fill="none" stroke="#63b8ff" d="M118.3,-94.24C132.85,-89.53 148.28,-84.53 162.28,-79.99"/>
<polygon fill="#63b8ff" stroke="#63b8ff" points="117.33,-91.2 108.9,-97.61 119.49,-97.86 117.33,-91.2"/>
</a>
</g>
</g>
<!-- Node6 -->
<g id="Node000006" class="node">
<title>Node6</title>
<g id="a_Node000006"><a xlink:href="classlimes_1_1harmony_1_1scales_1_1_whole_tone.html" target="_top" xlink:title="A class that represents a whole tone scale.">
<polygon fill="white" stroke="#666666" points="270.5,-30.5 153.25,-30.5 153.25,0 270.5,0 270.5,-30.5"/>
<text text-anchor="start" x="161.25" y="-17" font-family="Helvetica,sans-Serif" font-size="10.00">limes::harmony::scales</text>
<text text-anchor="middle" x="211.88" y="-5.75" font-family="Helvetica,sans-Serif" font-size="10.00">::WholeTone</text>
</a>
</g>
</g>
<!-- Node1&#45;&gt;Node6 -->
<g id="edge5_Node000001_Node000006" class="edge">
<title>Node1&#45;&gt;Node6</title>
<g id="a_edge5_Node000001_Node000006"><a xlink:title=" ">
<path fill="none" stroke="#63b8ff" d="M85.23,-90.39C103.37,-74.95 128.73,-54.81 153.25,-40.25 158.88,-36.91 165.03,-33.76 171.16,-30.9"/>
<polygon fill="#63b8ff" stroke="#63b8ff" points="83.23,-88.37 77.95,-97.55 87.8,-93.66 83.23,-88.37"/>
</a>
</g>
</g>
</g>
</svg>
